<svg xmlns="http://www.w3.org/2000/svg" xmlns:xlink="http://www.w3.org/1999/xlink" width="298.801" height="40.58" viewBox="0 0 298.801 40.58"><defs><clipPath id="a"><rect width="298.801" height="40.58" transform="translate(0 0)" fill="#fff"/></clipPath></defs><g clip-path="url(#a)"><path d="M30.269,40.413a27.773,27.773,0,0,0-.809-2.935C22.036,38.484,7.608,39.071,0,39.28l.914-6.5c.2.042,5.522.042,6.109.042A77.561,77.561,0,0,0,12.1,25.572H2.752l1.785-6.037H42.35l-1.784,6.037H31.889a47.876,47.876,0,0,1,5.346,11.7ZM13.92,14.169A47.491,47.491,0,0,1,6.593,17.4l-1.3-6.372C16.709,7,22.11,3.479,25.613,0h7.462c1.17,2.138,4.046,6.875,13.619,10.941l-5.142,6.33a32.879,32.879,0,0,1-5.292-3.227L35.5,16.6H13.2Zm16.963,11.4H19.1c-2.55,3.521-3.376,4.611-5.455,7.252,4.958-.042,9.486-.042,13.8-.462-1.067-2.347-1.667-3.437-2.208-4.444Zm1.712-14.589A27.882,27.882,0,0,1,27.8,5.073a48.748,48.748,0,0,1-8.2,5.911Z" transform="translate(0 0)" fill="#fff"/><path d="M95.1,27.984a37.16,37.16,0,0,1-5.585,2.725l-.391-1.09-.161.545A118.838,118.838,0,0,1,76.012,34.4l1.263-6.54c1.236-.21,1.512-.294,4.184-.964L84.766,15.7H81.413l1.772-6h3.354L89.2.693h5.953L92.491,9.706H94.84l-1.772,6H90.72l-2.776,9.391a27.286,27.286,0,0,0,2.621-.923l-.478,1.76A24.555,24.555,0,0,0,96.955,21.7H91.128l1.4-4.737h28.34l-1.4,4.737H102.615c-.684.755-.98,1.048-1.518,1.593h16.936c-.946,3.06-3.729,11.905-5.575,14.462a5.261,5.261,0,0,1-4.768,2.515h-6.33l.364-4.066A33.533,33.533,0,0,1,93.334,40.9l-2.5-3.6c8.874-3.354,12.28-7.5,13.735-9.307h-1.886c-2.258,2.39-6.9,7.043-16.961,9.726l-.983-4.192c5.151-1.258,8.21-2.39,12.494-5.534Zm3.636-26.2h24.231l-4.04,13.667H94.693Zm3.386,8.259-.595,2.012h12.451l.595-2.012Zm1.326-4.485-.558,1.886h12.451l.558-1.886Zm3.032,29.6c1.425,0,2.083-.377,4.383-7.169h-1.341a38.615,38.615,0,0,1-6.479,7.169Z" transform="translate(-34.69 -0.317)" fill="#fff"/><path d="M174.213,34.639c4.627-.335,14.2-1.09,17.532-12.367,2.07-7-1.117-9.978-5.785-10.354-1.288,3.647-9.362,25.572-20.6,25.572-5.66,0-7.484-5.743-5.537-12.325C162.564,15.9,172.1,5.629,185.932,5.629c9.642,0,16.172,5.283,12.64,17.23a24.892,24.892,0,0,1-9.716,13.582c-5.174,3.605-11.745,4.276-14.041,4.528Zm-7.74-9.558c-.47,1.593-1.125,5.366,1.265,5.366,3.186,0,8-8.216,11.762-18.236-10.016,2.683-12.717,11.822-13.027,12.87" transform="translate(-72.598 -2.569)" fill="#fff"/><path d="M242.818,25.455a105.3,105.3,0,0,1-11.92,14.8L228.02,35.1A74.462,74.462,0,0,0,239.1,22.143Zm-3.162-4.905a22.229,22.229,0,0,0-5.613-4.695l4.643-5.073a23.948,23.948,0,0,1,5.886,4.486ZM252.13,37.78a131.308,131.308,0,0,1-15.495,1.929l.909-5.911c1.1-.042,1.731-.042,4.087-.21L245.6,20.173h6l-.843,2.851H256.2L254.549,28.6H249.1l-1.314,4.444a55.132,55.132,0,0,0,6.016-.923Zm-7.77-27.752a18.915,18.915,0,0,0-5.47-4.611L243.437.386a21.613,21.613,0,0,1,5.811,4.024Zm32.965-8.552-5.192,17.565H245.05l5.192-17.565ZM268.06,12.249H252.968l-.632,2.139h15.093ZM263.2,24.281a27.251,27.251,0,0,0,6.306-3.606l2.438,4.234a52.261,52.261,0,0,1-10.4,4.989l-.954,3.229c-.186.628-.255,1.006.457,1.006h1.928c.546,0,.8,0,1.1-.587a41.571,41.571,0,0,0,1.52-4.15l4.629,1.216c-2.018,6.12-3.421,9.306-7.32,9.306h-6.624c-3.563,0-2.709-2.893-2.485-3.647l4.758-16.1h5.869ZM269.82,6.3H254.728l-.607,2.053h15.093Z" transform="translate(-104.064 -0.176)" fill="#fff"/><path d="M306.74,32.44a37.813,37.813,0,0,0,8.021-6.288h-5.324l1.685-5.7H317.7L318.4,18.1h5.827l-.694,2.347h5.827l-1.685,5.7H322.81a13.452,13.452,0,0,0,4.326,4.653L322.623,36a10.892,10.892,0,0,1-2.537-3.9l-2.329,7.881h-5.828l2.292-7.756a35.412,35.412,0,0,1-6.4,6.2Zm5.254-17.775a18.716,18.716,0,0,0,5.584-5.7h-3.061l1.661-5.618h3.772c.625-1.971.675-2.138.934-3.018h6c-.339,1.006-.641,1.886-1.06,3.018h5.325l-2.268,7.672c-.148.5-.164.838.088.838.67,0,1.048,0,1.214-.419.141-.335,1.1-3.311,1.278-3.9l2.7.378-.223.754A45.417,45.417,0,0,0,338.9.077l5.947.587c-.793,1.55-1.7,3.354-3.364,5.995h2.892a69.429,69.429,0,0,0,3.841-6.33l5.876.545a68.157,68.157,0,0,1-3.974,5.785H354.4l-1.636,5.534h-4.319l-1,3.4h3.731L349.7,20.577h-3.731l-1.078,3.647h3.731l-1.475,4.989h-3.731l-1.053,3.563h4.7l-1.7,5.743H331.564l-.434,1.467h-5.911l6.208-21c-.609.5-.785.671-1.763,1.425l-.538-3.143a3.446,3.446,0,0,1-1.151.209h-3.815c-.628,0-2.138,0-1.382-2.557l1.76-5.953h-1.174a27.223,27.223,0,0,1-9.422,11.025Zm22.32,14.547-1.053,3.563h3.647l1.053-3.563Zm2.552-8.636-1.077,3.647h3.647l1.077-3.647Zm2.479-8.385-1,3.4h3.647l1-3.4Z" transform="translate(-139.99 -0.035)" fill="#fff"/><path d="M420.068,40.2c-1.364-1.342-5.344-5.324-5.5-14.17A48.6,48.6,0,0,1,400.407,40.2l-1.979-5.785-1.71,5.785h-6.288l3.618-12.241c-1.815,1.174-6.5,3.563-7.779,4.192l.908-7.042a68.686,68.686,0,0,0,8.953-4.193l2.082-7.043-5.069,2.683a42.132,42.132,0,0,0-.915-8.678l5.578-3.27a53.538,53.538,0,0,1,1.149,6.75l3.222-10.9h6.288l-9.925,33.58c8.683-5.408,12.219-11.7,14.792-17.565h-8.384l1.821-6.162h8.72L418.4.462h6.54l-2.912,9.852h9.936l-1.822,6.162h-9.936c-1.055,11.654,3.866,16.14,5.385,17.524ZM430.508.631a24.13,24.13,0,0,1,1.946,6.749L426.85,9.6a22.763,22.763,0,0,0-1.506-6.959Z" transform="translate(-176.285 -0.211)" fill="#fff"/><path d="M474.9,25.363a97.375,97.375,0,0,1-12.482,14.715l-2.508-5.7A84.238,84.238,0,0,0,471.086,21.8ZM470.387,10.69a19.437,19.437,0,0,1,5.956,4.528l-5.184,5.2a25,25,0,0,0-5.6-4.737Zm20.02,9.852h-2.893c-2.739,9.264-6.376,14.337-16.28,19.619l-2.577-5.324c6.875-2.976,10.984-6.665,13.2-14.3h-4.443L483.036,1.51h25.657l-5.626,19.032h-6.75l-3.481,11.78c-.124.42-.36,1.216.311,1.216h1.006a1.291,1.291,0,0,0,1.4-1.048c.037-.126,1.2-3.479,1.865-5.743l4.887,1.341c-.339,1.006-1.965,6.079-2.467,7.211-1.14,2.725-2.265,4.4-5.2,4.4h-6.2c-3.522,0-2.983-2.39-2.562-3.815ZM474.888,0a16.515,16.515,0,0,1,6.157,4.276L475.74,9.6a22.291,22.291,0,0,0-5.86-4.57Zm12.751,7.211-2.255,7.629h13l2.255-7.629Z" transform="translate(-209.892 0)" fill="#fff"/></g></svg>