<svg xmlns="http://www.w3.org/2000/svg" xmlns:xlink="http://www.w3.org/1999/xlink" width="334.071" height="38.954" viewBox="0 0 334.071 38.954"><defs><clipPath id="a"><rect width="334.071" height="38.954" fill="#004690"/></clipPath></defs><g clip-path="url(#a)"><path d="M4.5,7.757C11.03,5.481,14.523,3.569,18.907.154l6.733.61c-.98.976-1.32,1.3-1.777,1.749h16.1L38.4,7.8a60.311,60.311,0,0,1-9.072,6.343,46.382,46.382,0,0,0,12.217,2.278l-3.917,6.1c-1.021-.121-1.485-.2-2.727-.406L29.928,38.945h-6.14l.469-1.586H6.568L6.1,38.945H0L5,22.03c-.728.122-1.239.2-3.043.528l-.149-6.1a99.752,99.752,0,0,0,14-2.521,26.017,26.017,0,0,1-3.431-3.66c-2.9,1.423-4.837,2.2-6.494,2.847ZM32.527,21.624a44.536,44.536,0,0,1-11.167-3.9,110.548,110.548,0,0,1-14.288,3.9ZM9.669,26.869l-1.479,5H25.879l1.479-5ZM18.518,7.8a21.278,21.278,0,0,0,4.924,3.7,24.707,24.707,0,0,0,6.583-3.7Z" transform="translate(0 -0.073)" fill="#004690"/><path d="M111.625,8.637l-1.887,6.384h-12l-5.1,17.241h13.988l-1.887,6.384H70.062l1.887-6.384H85.856l5.1-17.241H79.078l1.887-6.384Z" transform="translate(-33.12 -4.083)" fill="#004690"/><path d="M160.758,27.1h-6.831l6.6-22.324h6.831Zm21.467-6.18c-4.386,14.841-16.2,17.241-27.414,18.46l-.589-6.262c11.654-.772,18.4-2.968,20.843-11.223l5.264-17.81H187.2Z" transform="translate(-72.764 -1.932)" fill="#004690"/><path d="M209.462,34.968C220.9,30.942,225.2,25.046,228.25,14.189l6.726.081c-.461,1.423-.774,2.48-1.876,5.245a22.217,22.217,0,0,0,10.431-8.051H216.124l1.839-6.221h35.7c-4.27,10.044-9.915,15.249-17.843,19.233L232.915,20c-3.3,7.725-7.84,14.557-20.7,20.087Z" transform="translate(-99.016 -2.479)" fill="#004690"/><path d="M277.715,47.427c2.825-.2,8.67-.665,10.7-7.551,1.264-4.275-.682-6.092-3.532-6.322-.786,2.227-5.716,15.614-12.576,15.614-3.455,0-4.569-3.506-3.381-7.525A16.922,16.922,0,0,1,284.87,29.714c5.888,0,9.874,3.225,7.718,10.52a15.2,15.2,0,0,1-5.933,8.294c-3.159,2.2-7.171,2.611-8.573,2.765Zm-4.726-5.836c-.287.973-.687,3.277.772,3.277,1.945,0,4.887-5.017,7.182-11.135a11.546,11.546,0,0,0-7.955,7.859" transform="translate(-126.91 -14.046)" fill="#004690"/><path d="M326.291,24.7a102.128,102.128,0,0,1-11.562,14.354l-2.791-5a72.248,72.248,0,0,0,10.748-12.565Zm-3.067-4.758a21.56,21.56,0,0,0-5.445-4.554l4.5-4.921a23.229,23.229,0,0,1,5.709,4.351Zm12.1,16.712a127.364,127.364,0,0,1-15.029,1.871l.882-5.734c1.069-.041,1.679-.041,3.964-.2l3.845-13.012H334.8l-.817,2.766h5.286l-1.6,5.407h-5.285l-1.274,4.311a53.477,53.477,0,0,0,5.835-.895ZM327.786,9.738a18.346,18.346,0,0,0-5.306-4.472l4.411-4.88a20.963,20.963,0,0,1,5.637,3.9ZM359.76,1.443,354.724,18.48H328.456l5.036-17.037Zm-8.985,10.45H336.136l-.613,2.074h14.639Zm-4.71,11.67a26.433,26.433,0,0,0,6.117-3.5l2.364,4.107a50.69,50.69,0,0,1-10.092,4.839l-.925,3.132c-.18.61-.247.975.443.975h1.87c.529,0,.772,0,1.063-.569a40.334,40.334,0,0,0,1.475-4.025l4.49,1.18c-1.958,5.936-3.318,9.027-7.1,9.027h-6.425c-3.456,0-2.627-2.806-2.411-3.538l4.615-15.615h5.693ZM352.482,6.12H337.842l-.589,1.992h14.639Z" transform="translate(-147.458 -0.182)" fill="#004690"/><path d="M390.657,31.468a36.677,36.677,0,0,0,7.78-6.1h-5.164l1.635-5.531h6.384l.674-2.277h5.652l-.673,2.277H412.6l-1.635,5.531h-4.717a13.048,13.048,0,0,0,4.2,4.513l-4.378,5.042a10.566,10.566,0,0,1-2.46-3.782l-2.259,7.645H395.69l2.224-7.523a34.35,34.35,0,0,1-6.211,6.018Zm5.1-17.241a18.154,18.154,0,0,0,5.416-5.53H398.2l1.611-5.449h3.659c.606-1.911.654-2.074.906-2.927h5.815c-.329.975-.622,1.829-1.028,2.927h5.165l-2.2,7.441c-.144.488-.159.813.085.813.65,0,1.017,0,1.177-.407.137-.325,1.071-3.212,1.24-3.782l2.616.366-.216.731A44.055,44.055,0,0,0,421.853.077l5.768.569c-.769,1.5-1.653,3.253-3.263,5.814h2.805a67.326,67.326,0,0,0,3.726-6.14l5.7.528a66.126,66.126,0,0,1-3.855,5.611h4.149L435.3,11.828h-4.189l-.973,3.294h3.619l-1.43,4.839H428.7L427.657,23.5h3.619l-1.431,4.839h-3.619l-1.021,3.456h4.555l-1.646,5.571H414.736l-.421,1.423h-5.734L414.6,18.415c-.591.488-.761.651-1.71,1.382l-.522-3.049a3.342,3.342,0,0,1-1.117.2h-3.7c-.61,0-2.073,0-1.34-2.48L407.919,8.7h-1.138a26.4,26.4,0,0,1-9.139,10.694Zm21.65,14.11-1.021,3.456h3.538l1.021-3.456Zm2.476-8.376L418.834,23.5h3.538l1.045-3.538Zm2.4-8.133-.974,3.294h3.538l.974-3.294Z" transform="translate(-184.669 -0.036)" fill="#004690"/><path d="M502.971,39.01c-1.324-1.3-5.183-5.163-5.33-13.744A47.134,47.134,0,0,1,483.9,39.01L481.98,33.4l-1.659,5.611h-6.1l3.51-11.873c-1.76,1.138-6.308,3.456-7.545,4.066l.881-6.831a66.544,66.544,0,0,0,8.684-4.066l2.02-6.832-4.917,2.6a40.874,40.874,0,0,0-.887-8.418l5.41-3.172a51.9,51.9,0,0,1,1.115,6.547L485.616.462h6.1l-9.627,32.57C490.51,27.788,493.94,21.687,496.435,16H488.3l1.766-5.978h8.458L501.353.462H507.7l-2.825,9.555h9.638L512.742,16H503.1c-1.023,11.3,3.75,15.655,5.223,17ZM513.1.625a23.408,23.408,0,0,1,1.887,6.547l-5.435,2.155a22.072,22.072,0,0,0-1.461-6.75Z" transform="translate(-222.264 -0.218)" fill="#004690"/><path d="M558.362,24.6a94.446,94.446,0,0,1-12.107,14.273l-2.432-5.53a81.705,81.705,0,0,0,10.844-12.2Zm-4.373-14.232a18.853,18.853,0,0,1,5.777,4.392L554.738,19.8a24.249,24.249,0,0,0-5.433-4.595Zm19.418,9.556H570.6c-2.656,8.986-6.184,13.907-15.791,19.03l-2.5-5.164c6.669-2.886,10.654-6.465,12.8-13.866H560.8l5.456-18.46h24.886l-5.457,18.46h-6.547L575.764,31.35c-.121.407-.349,1.18.3,1.18h.975a1.253,1.253,0,0,0,1.358-1.017c.036-.122,1.16-3.375,1.809-5.57l4.74,1.3c-.329.976-1.906,5.9-2.393,6.994-1.106,2.643-2.2,4.269-5.043,4.269h-6.018c-3.416,0-2.893-2.318-2.485-3.7ZM558.355,0a16.018,16.018,0,0,1,5.972,4.148l-5.146,5.164A21.621,21.621,0,0,0,553.5,4.88Zm12.368,6.994-2.187,7.4h12.605l2.187-7.4Z" transform="translate(-257.073)" fill="#004690"/></g></svg>