<svg xmlns="http://www.w3.org/2000/svg" xmlns:xlink="http://www.w3.org/1999/xlink" width="1680" height="3194" viewBox="0 0 1680 3194"><defs><clipPath id="b"><rect width="1680" height="3194"/></clipPath></defs><g id="a" clip-path="url(#b)"><g transform="matrix(0.829, 0.559, -0.559, 0.829, 5584.392, 23899.078)"><rect width="4875.197" height="26.544" transform="translate(-18213 -16638.645)" fill="#fff"/><rect width="4875.197" height="29.493" transform="translate(-18213 -16470.533)" fill="#fff"/><rect width="14.747" height="247.741" transform="translate(-18154.014 -16662.24)" fill="#fff"/><rect width="14.747" height="247.741" transform="translate(-16950.697 -16662.24)" fill="#fff"/><rect width="11.797" height="247.741" transform="translate(-15750.333 -16662.24)" fill="#fff"/><rect width="14.747" height="247.741" transform="translate(-15001.211 -16662.24)" fill="#fff"/><rect width="14.747" height="247.741" transform="translate(-17555.309 -16662.24)" fill="#fff"/><rect width="14.747" height="247.741" transform="translate(-16351.986 -16662.24)" fill="#fff"/><rect width="14.747" height="247.741" transform="translate(-15148.674 -16662.24)" fill="#fff"/><rect width="11.797" height="247.741" transform="translate(-13948.309 -16662.24)" fill="#fff"/><rect width="11.797" height="247.741" transform="translate(-17850.236 -16662.24)" fill="#fff"/><rect width="14.747" height="247.741" transform="translate(-16652.82 -16662.24)" fill="#fff"/><rect width="14.747" height="247.741" transform="translate(-15449.507 -16662.24)" fill="#fff"/><rect width="11.797" height="247.741" transform="translate(-14396.603 -16662.24)" fill="#fff"/><rect width="11.797" height="247.741" transform="translate(-17251.527 -16662.24)" fill="#fff"/><rect width="11.797" height="247.741" transform="translate(-16048.212 -16662.24)" fill="#fff"/><rect width="14.747" height="247.741" transform="translate(-14626.646 -16662.24)" fill="#fff"/><rect width="14.747" height="247.741" transform="translate(-13647.48 -16662.24)" fill="#fff"/><rect width="14.747" height="247.741" transform="translate(-18003.598 -16662.24)" fill="#fff"/><rect width="11.797" height="247.741" transform="translate(-16803.232 -16662.24)" fill="#fff"/><rect width="11.797" height="247.741" transform="translate(-15599.917 -16662.24)" fill="#fff"/><rect width="14.747" height="247.741" transform="translate(-14700.379 -16662.24)" fill="#fff"/><rect width="11.797" height="247.741" transform="translate(-17401.941 -16662.24)" fill="#fff"/><rect width="14.747" height="247.741" transform="translate(-16201.576 -16662.24)" fill="#fff"/><rect width="14.747" height="247.741" transform="translate(-14924.528 -16662.24)" fill="#fff"/><rect width="11.797" height="247.741" transform="translate(-13797.895 -16662.24)" fill="#fff"/><rect width="14.747" height="247.741" transform="translate(-17705.719 -16662.24)" fill="#fff"/><rect width="14.747" height="247.741" transform="translate(-16502.402 -16662.24)" fill="#fff"/><rect width="14.747" height="247.741" transform="translate(-15299.089 -16662.24)" fill="#fff"/><rect width="14.747" height="247.741" transform="translate(-14101.673 -16662.24)" fill="#fff"/><rect width="14.747" height="247.741" transform="translate(-17101.113 -16662.24)" fill="#fff"/><rect width="14.747" height="247.741" transform="translate(-15903.695 -16662.24)" fill="#fff"/><rect width="14.747" height="247.741" transform="translate(-14325.818 -16662.24)" fill="#fff"/><rect width="14.747" height="247.741" transform="translate(-13497.063 -16662.24)" fill="#fff"/><rect width="14.747" height="247.741" transform="translate(-18080.279 -16662.24)" fill="#fff"/><rect width="14.747" height="247.741" transform="translate(-16876.963 -16662.24)" fill="#fff"/><rect width="14.747" height="247.741" transform="translate(-15673.651 -16662.24)" fill="#fff"/><rect width="14.747" height="247.741" transform="translate(-14850.796 -16662.24)" fill="#fff"/><rect width="11.797" height="247.741" transform="translate(-17475.674 -16662.24)" fill="#fff"/><rect width="14.747" height="247.741" transform="translate(-16278.259 -16662.24)" fill="#fff"/><rect width="14.747" height="247.741" transform="translate(-15074.94 -16662.24)" fill="#fff"/><rect width="14.747" height="247.741" transform="translate(-13871.626 -16662.24)" fill="#fff"/><rect width="14.747" height="247.741" transform="translate(-17779.453 -16662.24)" fill="#fff"/><rect width="14.747" height="247.741" transform="translate(-16576.137 -16662.24)" fill="#fff"/><rect width="11.797" height="247.741" transform="translate(-15375.772 -16662.24)" fill="#fff"/><rect width="14.747" height="247.741" transform="translate(-14252.085 -16662.24)" fill="#fff"/><rect width="11.797" height="247.741" transform="translate(-17177.793 -16662.24)" fill="#fff"/><rect width="14.747" height="247.741" transform="translate(-15977.426 -16662.24)" fill="#fff"/><rect width="14.747" height="247.741" transform="translate(-14476.233 -16662.24)" fill="#fff"/><rect width="11.797" height="247.741" transform="translate(-13573.747 -16662.24)" fill="#fff"/><rect width="14.747" height="247.741" transform="translate(-17929.869 -16662.24)" fill="#fff"/><rect width="14.747" height="247.741" transform="translate(-16726.553 -16662.24)" fill="#fff"/><rect width="11.797" height="247.741" transform="translate(-15526.183 -16662.24)" fill="#fff"/><rect width="14.747" height="247.741" transform="translate(-14549.968 -16662.24)" fill="#fff"/><rect width="14.747" height="247.741" transform="translate(-17325.258 -16662.24)" fill="#fff"/><rect width="14.747" height="247.741" transform="translate(-16127.843 -16662.24)" fill="#fff"/><rect width="14.747" height="247.741" transform="translate(-14774.112 -16662.24)" fill="#fff"/><rect width="11.797" height="247.741" transform="translate(-13724.161 -16662.24)" fill="#fff"/><rect width="11.797" height="247.741" transform="translate(-17626.088 -16662.24)" fill="#fff"/><rect width="14.747" height="247.741" transform="translate(-16428.672 -16662.24)" fill="#fff"/><rect width="14.747" height="247.741" transform="translate(-15225.356 -16662.24)" fill="#fff"/><rect width="11.797" height="247.741" transform="translate(-14022.041 -16662.24)" fill="#fff"/><rect width="11.797" height="247.741" transform="translate(-17027.381 -16662.24)" fill="#fff"/><rect width="11.797" height="247.741" transform="translate(-15824.067 -16662.24)" fill="#fff"/><rect width="11.797" height="247.741" transform="translate(-14172.457 -16662.24)" fill="#fff"/><rect width="14.747" height="247.741" transform="translate(-13423.333 -16662.24)" fill="#fff"/></g><g transform="translate(3178.13 983.39) rotate(146)"><rect width="4875.197" height="26.543" transform="translate(0 197.604)" fill="#fff"/><rect width="4875.197" height="29.492" transform="translate(0 26.544)" fill="#fff"/><rect width="14.746" height="247.741" transform="translate(58.986 0.002)" fill="#fff"/><rect width="14.746" height="247.741" transform="translate(1262.303 0.002)" fill="#fff"/><rect width="11.797" height="247.741" transform="translate(2462.667 0.002)" fill="#fff"/><rect width="14.746" height="247.741" transform="translate(3211.789 0.002)" fill="#fff"/><rect width="14.746" height="247.741" transform="translate(657.691 0.002)" fill="#fff"/><rect width="14.746" height="247.741" transform="translate(1861.014 0.002)" fill="#fff"/><rect width="14.746" height="247.741" transform="translate(3064.326 0.002)" fill="#fff"/><rect width="11.797" height="247.741" transform="translate(4264.691 0.002)" fill="#fff"/><rect width="11.797" height="247.741" transform="translate(362.764 0.002)" fill="#fff"/><rect width="14.746" height="247.741" transform="translate(1560.18 0.002)" fill="#fff"/><rect width="14.746" height="247.741" transform="translate(2763.493 0.002)" fill="#fff"/><rect width="11.797" height="247.741" transform="translate(3816.397 0.002)" fill="#fff"/><rect width="11.797" height="247.741" transform="translate(961.473 0.002)" fill="#fff"/><rect width="11.797" height="247.741" transform="translate(2164.788 0.002)" fill="#fff"/><rect width="14.746" height="247.741" transform="translate(3586.354 0.002)" fill="#fff"/><rect width="14.746" height="247.741" transform="translate(4565.52 0.002)" fill="#fff"/><rect width="14.746" height="247.741" transform="translate(209.402 0.002)" fill="#fff"/><rect width="11.797" height="247.741" transform="translate(1409.768 0.002)" fill="#fff"/><rect width="11.797" height="247.741" transform="translate(2613.083 0.002)" fill="#fff"/><rect width="14.746" height="247.741" transform="translate(3512.621 0.002)" fill="#fff"/><rect width="11.797" height="247.741" transform="translate(811.059 0.002)" fill="#fff"/><rect width="14.746" height="247.741" transform="translate(2011.424 0.002)" fill="#fff"/><rect width="14.746" height="247.741" transform="translate(3288.472 0.002)" fill="#fff"/><rect width="11.797" height="247.741" transform="translate(4415.105 0.002)" fill="#fff"/><rect width="14.746" height="247.741" transform="translate(507.281 0.002)" fill="#fff"/><rect width="14.746" height="247.741" transform="translate(1710.598 0.002)" fill="#fff"/><rect width="14.746" height="247.741" transform="translate(2913.911 0.002)" fill="#fff"/><rect width="14.746" height="247.741" transform="translate(4111.327 0.002)" fill="#fff"/><rect width="14.746" height="247.741" transform="translate(1111.887 0.002)" fill="#fff"/><rect width="14.746" height="247.741" transform="translate(2309.305 0.002)" fill="#fff"/><rect width="14.746" height="247.741" transform="translate(3887.182 0.002)" fill="#fff"/><rect width="14.746" height="247.741" transform="translate(4715.937 0.002)" fill="#fff"/><rect width="14.746" height="247.741" transform="translate(132.721 0.002)" fill="#fff"/><rect width="14.746" height="247.741" transform="translate(1336.037 0.002)" fill="#fff"/><rect width="14.746" height="247.741" transform="translate(2539.349 0.002)" fill="#fff"/><rect width="14.746" height="247.741" transform="translate(3362.204 0.002)" fill="#fff"/><rect width="11.797" height="247.741" transform="translate(737.326 0.002)" fill="#fff"/><rect width="14.746" height="247.741" transform="translate(1934.741 0.002)" fill="#fff"/><rect width="14.746" height="247.741" transform="translate(3138.06 0.002)" fill="#fff"/><rect width="14.746" height="247.741" transform="translate(4341.374 0.002)" fill="#fff"/><rect width="14.746" height="247.741" transform="translate(433.547 0.002)" fill="#fff"/><rect width="14.746" height="247.741" transform="translate(1636.863 0.002)" fill="#fff"/><rect width="11.797" height="247.741" transform="translate(2837.228 0.002)" fill="#fff"/><rect width="14.746" height="247.741" transform="translate(3960.915 0.002)" fill="#fff"/><rect width="11.797" height="247.741" transform="translate(1035.207 0.002)" fill="#fff"/><rect width="14.746" height="247.741" transform="translate(2235.574 0.002)" fill="#fff"/><rect width="14.746" height="247.741" transform="translate(3736.767 0.002)" fill="#fff"/><rect width="11.797" height="247.741" transform="translate(4639.253 0.002)" fill="#fff"/><rect width="14.746" height="247.741" transform="translate(283.131 0.002)" fill="#fff"/><rect width="14.746" height="247.741" transform="translate(1486.447 0.002)" fill="#fff"/><rect width="11.797" height="247.741" transform="translate(2686.817 0.002)" fill="#fff"/><rect width="14.746" height="247.741" transform="translate(3663.032 0.002)" fill="#fff"/><rect width="14.746" height="247.741" transform="translate(887.742 0.002)" fill="#fff"/><rect width="14.746" height="247.741" transform="translate(2085.157 0.002)" fill="#fff"/><rect width="14.746" height="247.741" transform="translate(3438.888 0.002)" fill="#fff"/><rect width="11.797" height="247.741" transform="translate(4488.839 0.002)" fill="#fff"/><rect width="11.797" height="247.741" transform="translate(586.912 0.002)" fill="#fff"/><rect width="14.746" height="247.741" transform="translate(1784.328 0.002)" fill="#fff"/><rect width="14.746" height="247.741" transform="translate(2987.644 0.002)" fill="#fff"/><rect width="11.797" height="247.741" transform="translate(4190.959 0.002)" fill="#fff"/><rect width="11.797" height="247.741" transform="translate(1185.619 0.002)" fill="#fff"/><rect width="11.797" height="247.741" transform="translate(2388.933 0.002)" fill="#fff"/><rect width="11.797" height="247.741" transform="translate(4040.543 0.002)" fill="#fff"/><rect width="14.746" height="247.741" transform="translate(4789.667 0.002)" fill="#fff"/></g></g></svg>