<svg xmlns="http://www.w3.org/2000/svg" xmlns:xlink="http://www.w3.org/1999/xlink" width="375" height="839" viewBox="0 0 375 839"><defs><clipPath id="b"><rect width="375" height="839"/></clipPath></defs><g id="a" clip-path="url(#b)"><g transform="matrix(0.829, 0.559, -0.559, 0.829, 5475.323, 23796.807)"><rect width="1937.65" height="10.55" transform="translate(-18213 -16583.703)" fill="#fff"/><rect width="1937.65" height="11.722" transform="translate(-18213 -16651.691)" fill="#fff"/><rect width="5.861" height="98.465" transform="translate(-18189.557 -16662.24)" fill="#fff"/><rect width="5.861" height="98.465" transform="translate(-17711.297 -16662.24)" fill="#fff"/><rect width="4.689" height="98.465" transform="translate(-17234.211 -16662.24)" fill="#fff"/><rect width="5.861" height="98.465" transform="translate(-16936.473 -16662.24)" fill="#fff"/><rect width="5.861" height="98.465" transform="translate(-17951.6 -16662.24)" fill="#fff"/><rect width="5.861" height="98.465" transform="translate(-17473.34 -16662.24)" fill="#fff"/><rect width="5.861" height="98.465" transform="translate(-16995.082 -16662.24)" fill="#fff"/><rect width="4.689" height="98.465" transform="translate(-16517.996 -16662.24)" fill="#fff"/><rect width="4.689" height="98.465" transform="translate(-18068.82 -16662.24)" fill="#fff"/><rect width="5.861" height="98.465" transform="translate(-17592.906 -16662.24)" fill="#fff"/><rect width="5.861" height="98.465" transform="translate(-17114.648 -16662.24)" fill="#fff"/><rect width="4.689" height="98.465" transform="translate(-16696.17 -16662.24)" fill="#fff"/><rect width="4.689" height="98.465" transform="translate(-17830.861 -16662.24)" fill="#fff"/><rect width="4.689" height="98.465" transform="translate(-17352.604 -16662.24)" fill="#fff"/><rect width="5.861" height="98.465" transform="translate(-16787.602 -16662.24)" fill="#fff"/><rect width="5.861" height="98.465" transform="translate(-16398.432 -16662.24)" fill="#fff"/><rect width="5.861" height="98.465" transform="translate(-18129.773 -16662.24)" fill="#fff"/><rect width="4.689" height="98.465" transform="translate(-17652.688 -16662.24)" fill="#fff"/><rect width="4.689" height="98.465" transform="translate(-17174.428 -16662.24)" fill="#fff"/><rect width="5.861" height="98.465" transform="translate(-16816.906 -16662.24)" fill="#fff"/><rect width="4.689" height="98.465" transform="translate(-17890.645 -16662.24)" fill="#fff"/><rect width="5.861" height="98.465" transform="translate(-17413.559 -16662.24)" fill="#fff"/><rect width="5.861" height="98.465" transform="translate(-16905.994 -16662.24)" fill="#fff"/><rect width="4.689" height="98.465" transform="translate(-16458.213 -16662.24)" fill="#fff"/><rect width="5.861" height="98.465" transform="translate(-18011.381 -16662.24)" fill="#fff"/><rect width="5.861" height="98.465" transform="translate(-17533.121 -16662.24)" fill="#fff"/><rect width="5.861" height="98.465" transform="translate(-17054.865 -16662.24)" fill="#fff"/><rect width="5.861" height="98.465" transform="translate(-16578.951 -16662.24)" fill="#fff"/><rect width="5.861" height="98.465" transform="translate(-17771.08 -16662.24)" fill="#fff"/><rect width="5.861" height="98.465" transform="translate(-17295.166 -16662.24)" fill="#fff"/><rect width="5.861" height="98.465" transform="translate(-16668.037 -16662.24)" fill="#fff"/><rect width="5.861" height="98.465" transform="translate(-16338.648 -16662.24)" fill="#fff"/><rect width="5.861" height="98.465" transform="translate(-18160.25 -16662.24)" fill="#fff"/><rect width="5.861" height="98.465" transform="translate(-17681.992 -16662.24)" fill="#fff"/><rect width="5.861" height="98.465" transform="translate(-17203.734 -16662.24)" fill="#fff"/><rect width="5.861" height="98.465" transform="translate(-16876.689 -16662.24)" fill="#fff"/><rect width="4.689" height="98.465" transform="translate(-17919.949 -16662.24)" fill="#fff"/><rect width="5.861" height="98.465" transform="translate(-17444.035 -16662.24)" fill="#fff"/><rect width="5.861" height="98.465" transform="translate(-16965.777 -16662.24)" fill="#fff"/><rect width="5.861" height="98.465" transform="translate(-16487.518 -16662.24)" fill="#fff"/><rect width="5.861" height="98.465" transform="translate(-18040.688 -16662.24)" fill="#fff"/><rect width="5.861" height="98.465" transform="translate(-17562.428 -16662.24)" fill="#fff"/><rect width="4.689" height="98.465" transform="translate(-17085.342 -16662.24)" fill="#fff"/><rect width="5.861" height="98.465" transform="translate(-16638.732 -16662.24)" fill="#fff"/><rect width="4.689" height="98.465" transform="translate(-17801.557 -16662.24)" fill="#fff"/><rect width="5.861" height="98.465" transform="translate(-17324.471 -16662.24)" fill="#fff"/><rect width="5.861" height="98.465" transform="translate(-16727.82 -16662.24)" fill="#fff"/><rect width="4.689" height="98.465" transform="translate(-16369.126 -16662.24)" fill="#fff"/><rect width="5.861" height="98.465" transform="translate(-18100.469 -16662.24)" fill="#fff"/><rect width="5.861" height="98.465" transform="translate(-17622.211 -16662.24)" fill="#fff"/><rect width="4.689" height="98.465" transform="translate(-17145.123 -16662.24)" fill="#fff"/><rect width="5.861" height="98.465" transform="translate(-16757.125 -16662.24)" fill="#fff"/><rect width="5.861" height="98.465" transform="translate(-17860.166 -16662.24)" fill="#fff"/><rect width="5.861" height="98.465" transform="translate(-17384.254 -16662.24)" fill="#fff"/><rect width="5.861" height="98.465" transform="translate(-16846.213 -16662.24)" fill="#fff"/><rect width="4.689" height="98.465" transform="translate(-16428.908 -16662.24)" fill="#fff"/><rect width="4.689" height="98.465" transform="translate(-17979.73 -16662.24)" fill="#fff"/><rect width="5.861" height="98.465" transform="translate(-17503.818 -16662.24)" fill="#fff"/><rect width="5.861" height="98.465" transform="translate(-17025.559 -16662.24)" fill="#fff"/><rect width="4.689" height="98.465" transform="translate(-16547.301 -16662.24)" fill="#fff"/><rect width="4.689" height="98.465" transform="translate(-17741.775 -16662.24)" fill="#fff"/><rect width="4.689" height="98.465" transform="translate(-17263.518 -16662.24)" fill="#fff"/><rect width="4.689" height="98.465" transform="translate(-16607.084 -16662.24)" fill="#fff"/><rect width="5.861" height="98.465" transform="translate(-16309.344 -16662.24)" fill="#fff"/></g><g transform="translate(1299.853 -59.52) rotate(146)"><rect width="1937.649" height="10.549" transform="translate(0 9.379)" fill="#fff"/><rect width="1937.649" height="11.721" transform="translate(0 76.196)" fill="#fff"/><rect width="5.861" height="98.465" transform="translate(23.443 0.001)" fill="#fff"/><rect width="5.861" height="98.465" transform="translate(501.703 0.001)" fill="#fff"/><rect width="4.689" height="98.465" transform="translate(978.789 0.001)" fill="#fff"/><rect width="5.861" height="98.465" transform="translate(1276.527 0.001)" fill="#fff"/><rect width="5.861" height="98.465" transform="translate(261.4 0.001)" fill="#fff"/><rect width="5.861" height="98.465" transform="translate(739.66 0.001)" fill="#fff"/><rect width="5.861" height="98.465" transform="translate(1217.918 0.001)" fill="#fff"/><rect width="4.689" height="98.465" transform="translate(1695.003 0.001)" fill="#fff"/><rect width="4.689" height="98.465" transform="translate(144.18 0.001)" fill="#fff"/><rect width="5.861" height="98.465" transform="translate(620.094 0.001)" fill="#fff"/><rect width="5.861" height="98.465" transform="translate(1098.351 0.001)" fill="#fff"/><rect width="4.689" height="98.465" transform="translate(1516.83 0.001)" fill="#fff"/><rect width="4.689" height="98.465" transform="translate(382.139 0.001)" fill="#fff"/><rect width="4.689" height="98.465" transform="translate(860.396 0.001)" fill="#fff"/><rect width="5.861" height="98.465" transform="translate(1425.398 0.001)" fill="#fff"/><rect width="5.861" height="98.465" transform="translate(1814.568 0.001)" fill="#fff"/><rect width="5.861" height="98.465" transform="translate(83.227 0.001)" fill="#fff"/><rect width="4.689" height="98.465" transform="translate(560.312 0.001)" fill="#fff"/><rect width="4.689" height="98.465" transform="translate(1038.572 0.001)" fill="#fff"/><rect width="5.861" height="98.465" transform="translate(1396.093 0.001)" fill="#fff"/><rect width="4.689" height="98.465" transform="translate(322.355 0.001)" fill="#fff"/><rect width="5.861" height="98.465" transform="translate(799.441 0.001)" fill="#fff"/><rect width="5.861" height="98.465" transform="translate(1307.005 0.001)" fill="#fff"/><rect width="4.689" height="98.465" transform="translate(1754.787 0.001)" fill="#fff"/><rect width="5.861" height="98.465" transform="translate(201.619 0.001)" fill="#fff"/><rect width="5.861" height="98.465" transform="translate(679.879 0.001)" fill="#fff"/><rect width="5.861" height="98.465" transform="translate(1158.134 0.001)" fill="#fff"/><rect width="5.861" height="98.465" transform="translate(1634.048 0.001)" fill="#fff"/><rect width="5.861" height="98.465" transform="translate(441.92 0.001)" fill="#fff"/><rect width="5.861" height="98.465" transform="translate(917.834 0.001)" fill="#fff"/><rect width="5.861" height="98.465" transform="translate(1544.962 0.001)" fill="#fff"/><rect width="5.861" height="98.465" transform="translate(1874.351 0.001)" fill="#fff"/><rect width="5.861" height="98.465" transform="translate(52.75 0.001)" fill="#fff"/><rect width="5.861" height="98.465" transform="translate(531.008 0.001)" fill="#fff"/><rect width="5.861" height="98.465" transform="translate(1009.265 0.001)" fill="#fff"/><rect width="5.861" height="98.465" transform="translate(1336.31 0.001)" fill="#fff"/><rect width="4.689" height="98.465" transform="translate(293.051 0.001)" fill="#fff"/><rect width="5.861" height="98.465" transform="translate(768.965 0.001)" fill="#fff"/><rect width="5.861" height="98.465" transform="translate(1247.222 0.001)" fill="#fff"/><rect width="5.861" height="98.465" transform="translate(1725.482 0.001)" fill="#fff"/><rect width="5.861" height="98.465" transform="translate(172.312 0.001)" fill="#fff"/><rect width="5.861" height="98.465" transform="translate(650.572 0.001)" fill="#fff"/><rect width="4.689" height="98.465" transform="translate(1127.658 0.001)" fill="#fff"/><rect width="5.861" height="98.465" transform="translate(1574.267 0.001)" fill="#fff"/><rect width="4.689" height="98.465" transform="translate(411.443 0.001)" fill="#fff"/><rect width="5.861" height="98.465" transform="translate(888.529 0.001)" fill="#fff"/><rect width="5.861" height="98.465" transform="translate(1485.179 0.001)" fill="#fff"/><rect width="4.689" height="98.465" transform="translate(1843.874 0.001)" fill="#fff"/><rect width="5.861" height="98.465" transform="translate(112.531 0.001)" fill="#fff"/><rect width="5.861" height="98.465" transform="translate(590.789 0.001)" fill="#fff"/><rect width="4.689" height="98.465" transform="translate(1067.877 0.001)" fill="#fff"/><rect width="5.861" height="98.465" transform="translate(1455.875 0.001)" fill="#fff"/><rect width="5.861" height="98.465" transform="translate(352.834 0.001)" fill="#fff"/><rect width="5.861" height="98.465" transform="translate(828.746 0.001)" fill="#fff"/><rect width="5.861" height="98.465" transform="translate(1366.787 0.001)" fill="#fff"/><rect width="4.689" height="98.465" transform="translate(1784.091 0.001)" fill="#fff"/><rect width="4.689" height="98.465" transform="translate(233.269 0.001)" fill="#fff"/><rect width="5.861" height="98.465" transform="translate(709.181 0.001)" fill="#fff"/><rect width="5.861" height="98.465" transform="translate(1187.441 0.001)" fill="#fff"/><rect width="4.689" height="98.465" transform="translate(1665.699 0.001)" fill="#fff"/><rect width="4.689" height="98.465" transform="translate(471.224 0.001)" fill="#fff"/><rect width="4.689" height="98.465" transform="translate(949.482 0.001)" fill="#fff"/><rect width="4.689" height="98.465" transform="translate(1605.916 0.001)" fill="#fff"/><rect width="5.861" height="98.465" transform="translate(1903.656 0.001)" fill="#fff"/></g></g></svg>