<svg xmlns="http://www.w3.org/2000/svg" width="329" height="72" viewBox="0 0 329 72">
  <g id="グループ_10312" data-name="グループ 10312" transform="translate(-4824 16110)">
    <g id="グループ_10309" data-name="グループ 10309">
      <rect id="長方形_15143" data-name="長方形 15143" width="329" height="72" rx="36" transform="translate(4824 -16110)" fill="#de0d20"/>
      <path id="パス_48302" data-name="パス 48302" d="M1.395-.87q1.335-.045,3.1-.1T8.2-1.1l3.833-.15L11.97.405q-1.83.1-3.712.188T4.68.758Q2.985.84,1.62.9ZM1.32-5.325H13.785v1.68H1.32ZM3.99-8.22h7.035v1.65H3.99Zm.99,3.99,2.055.555q-.345.705-.727,1.432T5.558-.855q-.368.66-.7,1.17L3.285-.21q.3-.555.63-1.253t.608-1.425Q4.8-3.615,4.98-4.23ZM8.715-2.685l1.575-.84q.675.585,1.335,1.26T12.84-.908a11.3,11.3,0,0,1,.9,1.253l-1.68,1.02A9.189,9.189,0,0,0,11.213.083q-.548-.713-1.2-1.448A17.161,17.161,0,0,0,8.715-2.685ZM7.485-11A11.638,11.638,0,0,1,5.94-9.248,17.5,17.5,0,0,1,3.84-7.56a18.047,18.047,0,0,1-2.4,1.395,2.737,2.737,0,0,0-.278-.5q-.187-.277-.39-.54a4.752,4.752,0,0,0-.4-.458A13.918,13.918,0,0,0,2.85-9.083a16.147,16.147,0,0,0,2.123-1.8A11.006,11.006,0,0,0,6.465-12.72h1.89A13.105,13.105,0,0,0,9.69-11.16a13.653,13.653,0,0,0,1.56,1.342,14.318,14.318,0,0,0,1.7,1.08,13.685,13.685,0,0,0,1.777.8,5.1,5.1,0,0,0-.63.78q-.3.45-.54.855a17.687,17.687,0,0,1-2.28-1.29A19.272,19.272,0,0,1,9.128-9.24,11.689,11.689,0,0,1,7.485-11ZM20.055-6.69h9.51v1.515h-9.51ZM21.69-4.47h6.165v1.425H21.69Zm.57-1.665,1.545.39A8.977,8.977,0,0,1,22.3-3.368,10.132,10.132,0,0,1,20.28-1.575q-.135-.15-.353-.367t-.45-.413a4.824,4.824,0,0,0-.413-.315,7.45,7.45,0,0,0,1.9-1.477A6.646,6.646,0,0,0,22.26-6.135ZM27.585-4.47H29.25l-.007.233a2.758,2.758,0,0,1-.038.4q-.09,1.455-.217,2.393A10.691,10.691,0,0,1,28.71.008a1.86,1.86,0,0,1-.36.742,1.215,1.215,0,0,1-.457.36,2.253,2.253,0,0,1-.548.15q-.255.03-.653.045a8.483,8.483,0,0,1-.862-.015,3.716,3.716,0,0,0-.12-.728,2.209,2.209,0,0,0-.285-.683q.36.03.645.038t.435.008a.857.857,0,0,0,.247-.03A.415.415,0,0,0,26.94-.24a1.478,1.478,0,0,0,.247-.578A9.79,9.79,0,0,0,27.4-2.07q.1-.825.188-2.145ZM22.98-9.225v.72h3.87v-.72Zm0-1.89v.705h3.87v-.705Zm-1.6-1.245h7.14v5.1h-7.14Zm-5.7,2.775H20.25v1.7H15.675Zm1.515-2.97h1.68v9.33H17.19Zm-1.86,9.63q.585-.21,1.358-.525t1.642-.683q.87-.367,1.725-.743l.39,1.545q-1.125.585-2.3,1.17T16-1.1ZM25.86-4.17l1.215.66a10.262,10.262,0,0,1-.765,1.838A12.651,12.651,0,0,1,25.2.075,7.161,7.161,0,0,1,23.91,1.41a4.541,4.541,0,0,0-.585-.54,4.494,4.494,0,0,0-.7-.465A6.1,6.1,0,0,0,23.985-.8,9.589,9.589,0,0,0,25.1-2.415,9.447,9.447,0,0,0,25.86-4.17ZM23.6-4.155l1.17.69a9.112,9.112,0,0,1-.982,1.575A12.913,12.913,0,0,1,22.455-.405a8.972,8.972,0,0,1-1.44,1.14,4.916,4.916,0,0,0-.532-.57,4.16,4.16,0,0,0-.637-.5,7.7,7.7,0,0,0,1.462-.99,10.02,10.02,0,0,0,1.327-1.358A7.886,7.886,0,0,0,23.6-4.155Zm12.96-1.92L37.92-7.05q.5.435,1.058.96T40.1-5.018q.555.548,1.035,1.058t.81.93L40.455-1.86q-.3-.42-.757-.945t-.99-1.1q-.532-.577-1.1-1.125T36.555-6.075Zm.03-6.675h1.86v3.6a12.876,12.876,0,0,1-.1,1.553A9.57,9.57,0,0,1,38-5.978,7.543,7.543,0,0,1,37.3-4.372a7.346,7.346,0,0,1-1.17,1.5A9.025,9.025,0,0,1,34.4-1.545a5.027,5.027,0,0,0-.36-.45q-.225-.255-.472-.5a4.147,4.147,0,0,0-.472-.413,7.047,7.047,0,0,0,1.62-1.1,5.4,5.4,0,0,0,1.02-1.253,5.51,5.51,0,0,0,.555-1.327,7.988,7.988,0,0,0,.24-1.328q.06-.652.06-1.238Zm-5.25,2.5H42.72V-8.49H33.135V1.38h-1.8Zm10.605,0h1.785v9.54a2.9,2.9,0,0,1-.18,1.133,1.207,1.207,0,0,1-.66.622,3.524,3.524,0,0,1-1.185.263q-.72.052-1.725.053A3.573,3.573,0,0,0,39.847.78q-.1-.33-.217-.645a4.145,4.145,0,0,0-.255-.555q.45.015.9.022t.8.008h.488a.536.536,0,0,0,.292-.082.329.329,0,0,0,.083-.263Zm11.925-.03q-.15,1.14-.39,2.43a23.639,23.639,0,0,1-.645,2.61,13.408,13.408,0,0,1-1.02,2.61A5.721,5.721,0,0,1,50.528-.937a2.3,2.3,0,0,1-1.522.592,2.374,2.374,0,0,1-1.522-.562,3.842,3.842,0,0,1-1.11-1.553,5.8,5.8,0,0,1-.413-2.25,5.875,5.875,0,0,1,.525-2.46,6.544,6.544,0,0,1,1.462-2.048,6.934,6.934,0,0,1,2.19-1.4,7.111,7.111,0,0,1,2.708-.51,6.675,6.675,0,0,1,2.512.45A5.655,5.655,0,0,1,57.27-9.435a5.4,5.4,0,0,1,1.215,1.86A6.2,6.2,0,0,1,58.9-5.28a6.04,6.04,0,0,1-.645,2.82A5.332,5.332,0,0,1,56.347-.405,8.2,8.2,0,0,1,53.19.705L52.065-1.08q.435-.045.765-.105t.63-.135A5.708,5.708,0,0,0,54.8-1.838a4.19,4.19,0,0,0,1.087-.84,3.675,3.675,0,0,0,.728-1.177A4.064,4.064,0,0,0,56.88-5.34a4.667,4.667,0,0,0-.27-1.62,3.647,3.647,0,0,0-.795-1.283,3.5,3.5,0,0,0-1.275-.84,4.725,4.725,0,0,0-1.725-.292,4.946,4.946,0,0,0-2.115.427,4.951,4.951,0,0,0-1.545,1.1A4.841,4.841,0,0,0,48.2-6.39a3.888,3.888,0,0,0-.322,1.485,3.751,3.751,0,0,0,.18,1.253,1.9,1.9,0,0,0,.442.75.81.81,0,0,0,.563.248.876.876,0,0,0,.622-.323,3.6,3.6,0,0,0,.607-.982,13.292,13.292,0,0,0,.6-1.665,20.487,20.487,0,0,0,.585-2.31,23.509,23.509,0,0,0,.345-2.4ZM66.96-8.55v.84h4.725v-.84Zm0-2.175v.84h4.725v-.84ZM65.28-12.15h8.175v5.865H65.28Zm.075,6.345h1.71V.09h-1.71Zm.855,1.56h3.045v1.56H66.21ZM63.99-.6Q65-.735,66.39-.93t2.82-.4L69.3.255l-2.565.42q-1.29.21-2.34.375ZM73.2-5.01l1.23,1.365q-.57.3-1.207.6t-1.275.555q-.638.255-1.238.465a3.588,3.588,0,0,0-.225-.645,6.128,6.128,0,0,0-.315-.63q.54-.225,1.1-.51t1.058-.6Q72.825-4.725,73.2-5.01Zm-3.585-.8h1.74V-1a.874.874,0,0,0,.075.457q.075.1.33.1h.945a.3.3,0,0,0,.255-.12,1.006,1.006,0,0,0,.128-.457q.038-.337.052-1.013a3.169,3.169,0,0,0,.713.383,6.087,6.087,0,0,0,.817.278A5.9,5.9,0,0,1,74.4.128a1.416,1.416,0,0,1-.562.758,1.8,1.8,0,0,1-.952.225H71.46A2.774,2.774,0,0,1,70.313.923,1.031,1.031,0,0,1,69.765.27,4.308,4.308,0,0,1,69.615-1ZM61.2-11.34l1.005-1.35q.435.165.938.413t.945.517a5.012,5.012,0,0,1,.728.525L63.765-9.75a4.587,4.587,0,0,0-.7-.555q-.427-.285-.923-.57A7.457,7.457,0,0,0,61.2-11.34Zm-.78,4.05L61.4-8.655q.45.165.945.39a9.717,9.717,0,0,1,.938.487,5.478,5.478,0,0,1,.727.5l-1.035,1.5a4.1,4.1,0,0,0-.69-.533q-.435-.277-.923-.533T60.42-7.29Zm.375,7.4q.345-.585.765-1.373t.855-1.68q.435-.893.795-1.778l1.425,1.08q-.33.81-.705,1.643T63.18-.368q-.375.8-.765,1.538ZM75.81-11.235H80.5V-9.69H75.81Zm-.135,6.12H82.23V-3.6H75.675Zm2.55-1.455H79.86V1.305H78.225ZM79.71-3.42q.21.12.585.39t.795.585q.42.315.773.585t.5.405L81.39-.06a6.713,6.713,0,0,0-.548-.608q-.337-.338-.705-.7t-.72-.675q-.353-.315-.608-.525ZM78.33-4.47l1.23.75a13.953,13.953,0,0,1-.923,1.613A15.428,15.428,0,0,1,77.452-.533,10.165,10.165,0,0,1,76.17.735Q76,.42,75.735-.015a5.2,5.2,0,0,0-.51-.705A8.114,8.114,0,0,0,76.4-1.733a10.806,10.806,0,0,0,1.1-1.32A9.333,9.333,0,0,0,78.33-4.47Zm-.855-8.3h1.5v1.455a12.454,12.454,0,0,1-.082,1.4,6.922,6.922,0,0,1-.338,1.47A5.543,5.543,0,0,1,77.8-7a5.747,5.747,0,0,1-1.342,1.3,4.629,4.629,0,0,0-.548-.577,3.488,3.488,0,0,0-.653-.488,5.231,5.231,0,0,0,1.2-1.088,4.315,4.315,0,0,0,.667-1.178,5.229,5.229,0,0,0,.285-1.2,10.1,10.1,0,0,0,.067-1.125Zm5.94,5.4h5.76v1.5h-5.76Zm0,3H89.19v1.5H83.415Zm.075,3.39h6.075V.66H83.49Zm.3-11.835,1.62.435a13.837,13.837,0,0,1-.728,1.7,15.866,15.866,0,0,1-.915,1.575,10.4,10.4,0,0,1-1,1.29,2.953,2.953,0,0,0-.412-.33q-.262-.18-.533-.36a3.566,3.566,0,0,0-.465-.27,8.459,8.459,0,0,0,1.4-1.815A12.007,12.007,0,0,0,83.79-12.81Zm3.045.135,1.77.42q-.33.78-.683,1.552T87.255-9.39L85.77-9.8q.195-.39.4-.892t.375-1.027Q86.715-12.24,86.835-12.675ZM84.5-10.41h4.9v1.6H84.5V1.32h-1.65V-9.78l.6-.63Zm1.425.78h1.65V-.51H85.92Zm-6.225-1.605h1.47V-7.83a1.418,1.418,0,0,0,.03.42.132.132,0,0,0,.052.052.135.135,0,0,0,.068.023h.18a.4.4,0,0,0,.15-.03.492.492,0,0,0,.06-.075.333.333,0,0,0,.045-.1.987.987,0,0,0,.037-.255q.007-.165.022-.39a1.981,1.981,0,0,0,.473.308,4.639,4.639,0,0,0,.563.232q-.03.3-.083.585a1.452,1.452,0,0,1-.127.42.932.932,0,0,1-.435.42.823.823,0,0,1-.307.105,2.237,2.237,0,0,1-.353.03h-.645a1.675,1.675,0,0,1-.487-.075A.969.969,0,0,1,80-6.405a1.022,1.022,0,0,1-.233-.465,4.6,4.6,0,0,1-.067-.945ZM95.5-8.565h8.835V-6.78H95.5Zm4.86.855a18.175,18.175,0,0,0,.938,3.037,11.621,11.621,0,0,0,1.455,2.6,7.53,7.53,0,0,0,2,1.868,4.277,4.277,0,0,0-.458.428q-.248.262-.472.548a5.949,5.949,0,0,0-.375.525A8.653,8.653,0,0,1,101.363-.9a13.788,13.788,0,0,1-1.485-2.963A26.542,26.542,0,0,1,98.865-7.4Zm.675-3.96,1.365-.75q.315.39.645.847t.607.908a8.713,8.713,0,0,1,.442.795l-1.455.885a7.188,7.188,0,0,0-.42-.825q-.27-.465-.57-.953T101.04-11.67Zm-2.46-1.05h1.785v3.84a22.668,22.668,0,0,1-.15,2.543,15.107,15.107,0,0,1-.555,2.67,10.588,10.588,0,0,1-1.208,2.61A11.008,11.008,0,0,1,96.36,1.335a4.659,4.659,0,0,0-.675-.6Q95.265.42,94.9.18A9.8,9.8,0,0,0,96.87-2.04a10,10,0,0,0,1.1-2.355A12.134,12.134,0,0,0,98.46-6.72a20.675,20.675,0,0,0,.12-2.16Zm-5.235-.045H95.13V1.32H93.345ZM90.51-10.02l1.41-.825q.315.435.653.945t.63,1a5.437,5.437,0,0,1,.442.892L92.13-7.1a6.556,6.556,0,0,0-.4-.9q-.27-.51-.592-1.042T90.51-10.02Zm-.09,6.675q.615-.45,1.507-1.17T93.72-6l.705,1.44q-.75.705-1.553,1.433T91.335-1.8Zm15.96-8.01.975-1.335q.48.165,1,.4t1,.51a5.136,5.136,0,0,1,.772.525l-1.05,1.47a4.973,4.973,0,0,0-.728-.548q-.458-.292-.975-.562T106.38-11.355Zm-.945,4.1.93-1.35a9.443,9.443,0,0,1,1.058.4q.563.248,1.073.518a5.166,5.166,0,0,1,.825.525l-1,1.5a4.825,4.825,0,0,0-.788-.555q-.487-.285-1.035-.562A11.172,11.172,0,0,0,105.435-7.26ZM105.99.06q.435-.6.952-1.4t1.073-1.725q.555-.923,1.02-1.822l1.32,1.095q-.435.84-.908,1.7t-.96,1.687Q108,.42,107.52,1.17Zm8.94-5.805h1.8v4.77a1.267,1.267,0,0,0,.052.473q.052.1.247.1h.66a.24.24,0,0,0,.225-.15,1.866,1.866,0,0,0,.105-.608q.03-.457.045-1.373a3.226,3.226,0,0,0,.457.278,5.162,5.162,0,0,0,.585.255q.308.113.533.172a9.222,9.222,0,0,1-.262,1.845,1.7,1.7,0,0,1-.548.93,1.562,1.562,0,0,1-.96.27H116.7a2.407,2.407,0,0,1-1.1-.2,1.075,1.075,0,0,1-.525-.683,4.689,4.689,0,0,1-.143-1.29Zm-2.43-4.68V-7.32h4.38v-3.105Zm-1.74-1.665h7.98v6.435h-7.98Zm1.26,6.33h1.77q-.045,1.305-.187,2.4a7.971,7.971,0,0,1-.5,1.98A4.649,4.649,0,0,1,112.05.188a5.929,5.929,0,0,1-1.83,1.178,2.737,2.737,0,0,0-.278-.5q-.187-.278-.39-.532a2.96,2.96,0,0,0-.4-.42A4.935,4.935,0,0,0,110.677-1a3.349,3.349,0,0,0,.84-1.223,6.063,6.063,0,0,0,.375-1.575Q111.99-4.68,112.02-5.76Zm15.27-6.27q-.075.4-.24,1.05a12.887,12.887,0,0,1-.48,1.455q-.24.555-.548,1.148A10.573,10.573,0,0,1,125.4-7.32a2.519,2.519,0,0,1,.495-.157,5.983,5.983,0,0,1,.623-.105,5.054,5.054,0,0,1,.577-.037,2.306,2.306,0,0,1,1.568.54,2.01,2.01,0,0,1,.622,1.605q0,.3.007.735t.023.908q.015.473.03.923t.015.81h-1.8q.03-.255.038-.608t.015-.742q.007-.39.015-.758t.007-.668a1.155,1.155,0,0,0-.382-1,1.41,1.41,0,0,0-.848-.278,2.9,2.9,0,0,0-1.268.308,4.081,4.081,0,0,0-1.072.727q-.33.33-.668.735t-.728.915l-1.6-1.2a20,20,0,0,0,1.688-1.74A12.652,12.652,0,0,0,123.96-8.07a10.47,10.47,0,0,0,.81-1.65,9.078,9.078,0,0,0,.367-1.253,7.631,7.631,0,0,0,.173-1.222Zm-5.64,1.38q.57.09,1.32.135t1.32.045q.99,0,2.168-.045t2.393-.158q1.215-.112,2.31-.292l-.015,1.74q-.795.105-1.717.188t-1.875.135q-.953.052-1.822.075t-1.545.023q-.3,0-.743-.008t-.907-.03q-.465-.023-.885-.053Zm11.88,4.26q-.24.075-.562.188l-.645.225q-.322.112-.577.218-.72.285-1.7.69T128-4.125a9.162,9.162,0,0,0-1.14.7,3.009,3.009,0,0,0-.705.7,1.344,1.344,0,0,0-.24.772.915.915,0,0,0,.135.518.918.918,0,0,0,.4.323,2.3,2.3,0,0,0,.675.165,8.84,8.84,0,0,0,.96.045q.96,0,2.115-.113t2.145-.308l-.06,1.935q-.48.06-1.215.128t-1.523.1q-.788.03-1.508.03a8.955,8.955,0,0,1-2.1-.225,2.954,2.954,0,0,1-1.463-.773,2.07,2.07,0,0,1-.533-1.508,2.838,2.838,0,0,1,.353-1.41,4.289,4.289,0,0,1,.938-1.14,8.632,8.632,0,0,1,1.283-.923q.7-.413,1.372-.758.69-.36,1.245-.615t1.043-.458q.487-.2.938-.412.435-.195.84-.382t.825-.4ZM2.94,9.245q.825.105,1.86.15t2.22.045q.75,0,1.53-.03t1.515-.083q.735-.052,1.3-.1v1.995L10.1,11.3q-.743.045-1.545.075t-1.522.03q-1.17,0-2.175-.052T2.94,11.24ZM4.2,15.6q-.1.39-.18.765a3.816,3.816,0,0,0-.075.75,1.367,1.367,0,0,0,.727,1.193,4.571,4.571,0,0,0,2.348.458q1.02,0,1.972-.075t1.793-.2a13.357,13.357,0,0,0,1.5-.308l.015,2.1q-.645.15-1.463.27t-1.755.188q-.938.068-1.988.067a9.131,9.131,0,0,1-2.865-.382,3.627,3.627,0,0,1-1.717-1.095,2.686,2.686,0,0,1-.577-1.748,6.338,6.338,0,0,1,.105-1.192q.1-.547.18-.968ZM11.76,7.7q.2.27.413.645t.427.75q.21.375.36.66l-1.215.525q-.225-.465-.548-1.065a11.055,11.055,0,0,0-.622-1.035Zm1.785-.675q.2.285.42.66t.443.742q.217.368.352.638l-1.2.51q-.24-.465-.57-1.057A8.977,8.977,0,0,0,12.345,7.5Zm9.69,7.515h5.61v1.32h-5.61Zm0,2.37h5.61v1.32h-5.61Zm-.03,2.385H29.55v1.47H23.205ZM21,8.66h8.475v2.73h-1.6V10.16H22.515v1.23H21Zm4.26,4.62h1.65V20H25.26Zm-1.47-1.23h5.385v1.485H23.79V21.35H22.1V13.61l1.53-1.56Zm.78-4.815,1.71.33A16.031,16.031,0,0,1,24.555,11.9a10.348,10.348,0,0,1-2.775,3.12q-.12-.165-.337-.427t-.458-.517a4.97,4.97,0,0,0-.42-.4A8.218,8.218,0,0,0,23.1,11,12.427,12.427,0,0,0,24.57,7.235Zm1.62,3.3,1.65.345q-.285.615-.577,1.193t-.532,1l-1.35-.345q.21-.465.45-1.08A8.8,8.8,0,0,0,26.19,10.535ZM15.72,8.15h5.4V9.785h-5.4Zm1.68,4.41h3.5v6.975H17.4V17.99h1.98V14.1H17.4Zm-.135-3.54,1.68.255q-.21,1.62-.57,3.172a19.619,19.619,0,0,1-.907,2.91,10.834,10.834,0,0,1-1.3,2.378,4.5,4.5,0,0,0-.248-.54q-.172-.33-.36-.66a3.507,3.507,0,0,0-.352-.525,7.975,7.975,0,0,0,.983-1.935,17.423,17.423,0,0,0,.66-2.4Q17.115,10.385,17.265,9.02Zm-.57,3.54H18.15V20.7H16.695Zm22.275-4.1h1.62a17.73,17.73,0,0,1-.307,1.808,7.893,7.893,0,0,1-.608,1.74,6.53,6.53,0,0,1-1.072,1.56,6.062,6.062,0,0,1-1.717,1.267,3.084,3.084,0,0,0-.435-.69,3.547,3.547,0,0,0-.57-.585,5.166,5.166,0,0,0,1.47-1.02,4.87,4.87,0,0,0,.9-1.26,6.167,6.167,0,0,0,.487-1.4A13.2,13.2,0,0,0,38.97,8.465Zm-2.6,2.565.84-1.245a13.179,13.179,0,0,1,1.538.54q.787.33,1.5.69t1.207.675L40.6,13.085a9.467,9.467,0,0,0-1.193-.742q-.712-.383-1.5-.735A12.709,12.709,0,0,0,36.375,11.03ZM42.4,7.835h1.68v.128q0,.128-.007.285a2.236,2.236,0,0,1-.022.248q-.06,1.71-.15,2.8a13.961,13.961,0,0,1-.217,1.68,2.059,2.059,0,0,1-.322.833,1.458,1.458,0,0,1-.458.4,1.718,1.718,0,0,1-.548.165,3.651,3.651,0,0,1-.705.067q-.435.008-.93-.007a3.678,3.678,0,0,0-.142-.833,3.75,3.75,0,0,0-.307-.787q.39.045.7.053t.495.007a.52.52,0,0,0,.45-.18,1.833,1.833,0,0,0,.2-.622,13.355,13.355,0,0,0,.157-1.433q.068-.96.127-2.535Zm-4.38,8.1h1.65V19.2a.808.808,0,0,0,.06.4q.06.082.27.082h.765a.258.258,0,0,0,.225-.1,1.118,1.118,0,0,0,.12-.442,10.193,10.193,0,0,0,.06-1.028,2.231,2.231,0,0,0,.412.247,5.118,5.118,0,0,0,.54.225q.277.1.5.172a6.417,6.417,0,0,1-.263,1.523,1.333,1.333,0,0,1-.525.75,1.689,1.689,0,0,1-.877.2H39.72a2.383,2.383,0,0,1-1.058-.187.993.993,0,0,1-.5-.622,4.146,4.146,0,0,1-.135-1.185Zm-1.53.585,1.425.375a12.64,12.64,0,0,1-.195,1.335,7.966,7.966,0,0,1-.36,1.267,3.621,3.621,0,0,1-.6,1.043l-1.32-.8a3.569,3.569,0,0,0,.525-.908,6.635,6.635,0,0,0,.337-1.118A11.068,11.068,0,0,0,36.495,16.52ZM38.37,14.9,39.4,13.85q.48.24.99.563t.968.675a5.678,5.678,0,0,1,.742.667l-1.125,1.17a4.626,4.626,0,0,0-.682-.69q-.427-.36-.937-.713T38.37,14.9Zm3.3,1.86,1.455-.585a9.3,9.3,0,0,1,.735,1.23,12.874,12.874,0,0,1,.57,1.313,8.011,8.011,0,0,1,.345,1.177l-1.59.66a5.592,5.592,0,0,0-.285-1.193q-.225-.652-.54-1.342A9.365,9.365,0,0,0,41.67,16.76ZM36.585,7.835H43.17v1.5H36.585Zm-5.46,4.02h4.4V13.22h-4.4Zm.06-4.125H35.49V9.08H31.185Zm-.06,6.18h4.4v1.35h-4.4ZM30.45,9.74h5.475v1.425H30.45Zm1.455,6.24H35.55v4.575H31.905V19.13H34.05V17.405H31.905Zm-.81,0H32.58v5.16H31.095ZM48.9,9.275a5.693,5.693,0,0,0-.1.615q-.038.345-.06.675t-.022.54q-.015.5-.007,1.02t.03,1.072q.022.548.068,1.088a14.424,14.424,0,0,0,.3,1.905,3.838,3.838,0,0,0,.51,1.282.937.937,0,0,0,.8.458.687.687,0,0,0,.5-.285,2.948,2.948,0,0,0,.45-.743,8.815,8.815,0,0,0,.36-.968q.157-.51.278-.96l1.5,1.83a11.85,11.85,0,0,1-.983,2.077,3.524,3.524,0,0,1-1.012,1.11,2.068,2.068,0,0,1-1.14.337,2.538,2.538,0,0,1-1.537-.54A4.1,4.1,0,0,1,47.6,18.042a11.536,11.536,0,0,1-.72-3.217q-.075-.69-.112-1.455t-.045-1.455q-.008-.69-.007-1.14,0-.315-.03-.75a7.665,7.665,0,0,0-.09-.78Zm7.5.345a7.454,7.454,0,0,1,.81,1.245,15.273,15.273,0,0,1,.72,1.575q.33.84.585,1.717t.413,1.71a12.7,12.7,0,0,1,.2,1.522l-1.98.765q-.075-.915-.27-2a19.615,19.615,0,0,0-.525-2.175,15.172,15.172,0,0,0-.787-2.07,7.17,7.17,0,0,0-1.073-1.68ZM67.11,8.03q-.09.3-.18.735t-.135.675q-.1.51-.262,1.245t-.345,1.56q-.187.825-.382,1.575-.195.8-.48,1.718t-.607,1.875q-.323.953-.652,1.815t-.645,1.537l-2.085-.7q.33-.57.705-1.387t.728-1.763q.352-.945.653-1.875t.51-1.725q.15-.525.285-1.08t.24-1.08q.1-.525.188-.983t.128-.8q.045-.42.06-.84a4.622,4.622,0,0,0-.015-.675Zm-3.825,2.235q.915,0,1.905-.09t1.995-.255q1.005-.165,2-.39V11.4q-.93.21-1.98.36T65.13,12q-1.02.083-1.875.083-.54,0-.975-.023t-.84-.037L61.4,10.145q.585.06,1.005.09T63.285,10.265ZM68,12.56q.63-.06,1.395-.1t1.485-.045q.645,0,1.313.03t1.327.1l-.045,1.8q-.555-.075-1.223-.127t-1.357-.053q-.765,0-1.478.038T68,14.33Zm.81,3.78a6.541,6.541,0,0,0-.15.653,3.439,3.439,0,0,0-.06.592.961.961,0,0,0,.435.818,1.772,1.772,0,0,0,.622.247,4.622,4.622,0,0,0,1,.09,14.469,14.469,0,0,0,1.537-.083q.772-.082,1.583-.233l-.075,1.92q-.63.075-1.395.142t-1.665.068a5.493,5.493,0,0,1-2.888-.622,1.966,1.966,0,0,1-1-1.763,6.117,6.117,0,0,1,.09-1.035q.09-.525.18-.975ZM81.66,8.195q-.09.315-.187.743t-.143.682q-.1.51-.263,1.245t-.337,1.552q-.18.818-.375,1.583-.21.78-.488,1.71t-.6,1.875q-.323.945-.653,1.815t-.645,1.545l-2.1-.7a12.726,12.726,0,0,0,.712-1.4q.368-.825.728-1.762t.66-1.875q.3-.937.51-1.717.135-.54.27-1.1T79,11.315q.113-.525.195-.983t.128-.787q.045-.42.06-.84a4.885,4.885,0,0,0-.015-.69Zm-3.825,2.25q.915,0,1.9-.09t2-.263q1-.172,2-.4V11.57q-.93.225-1.98.375t-2.07.233q-1.02.082-1.875.082-.54,0-.975-.023t-.84-.038l-.045-1.875q.585.06,1,.09T77.835,10.445Zm4.71,2.3q.63-.075,1.4-.113t1.485-.037q.645,0,1.313.03t1.327.105l-.045,1.8q-.555-.075-1.223-.135t-1.357-.06q-.78,0-1.485.038t-1.41.127Zm.81,3.765a6.381,6.381,0,0,0-.15.66,3.5,3.5,0,0,0-.06.585,1.025,1.025,0,0,0,.1.465,1,1,0,0,0,.33.368,1.685,1.685,0,0,0,.622.24,5.029,5.029,0,0,0,1,.083q.75,0,1.53-.075t1.59-.225l-.075,1.905q-.63.09-1.4.157t-1.665.068A5.439,5.439,0,0,1,82.3,20.1a1.971,1.971,0,0,1-1-1.755,6.754,6.754,0,0,1,.082-1.05q.083-.525.173-.96Zm3.1-7.875q.195.27.412.645t.428.75q.21.375.345.66l-1.2.525q-.15-.315-.345-.69t-.4-.75a5.16,5.16,0,0,0-.42-.645Zm1.77-.675a6.14,6.14,0,0,1,.435.653l.442.75a6.368,6.368,0,0,1,.338.637l-1.185.51q-.24-.48-.57-1.065a9.3,9.3,0,0,0-.645-1.005Zm13.44.12q-.03.24-.045.5t-.03.517q-.015.21-.007.637t.007.96v1.08q0,.547.007,1.012t.007.72q0,1.335-.1,2.423a8.213,8.213,0,0,1-.42,2,5.454,5.454,0,0,1-.975,1.695,7.722,7.722,0,0,1-1.777,1.5L96.615,19.76a6.013,6.013,0,0,0,.93-.517,3.973,3.973,0,0,0,.81-.683,4.384,4.384,0,0,0,.7-.945,4.847,4.847,0,0,0,.428-1.095,7.324,7.324,0,0,0,.21-1.335q.052-.735.052-1.695V12.47q0-.615-.015-1.275t-.03-1.222q-.015-.562-.045-.863a4.429,4.429,0,0,0-.068-.57q-.052-.285-.1-.465ZM95.76,11q.36.045.735.082t.757.06q.382.023.772.023.975,0,2.04-.045t2.055-.143q.99-.1,1.725-.233l-.015,1.95q-.705.075-1.665.142t-2.018.1q-1.057.038-2.077.038-.315,0-.72-.015l-.81-.03-.78-.03ZM94.215,8.33q-.09.27-.195.623t-.165.593q-.135.615-.285,1.477t-.255,1.792a16.24,16.24,0,0,0-.105,1.823,7.5,7.5,0,0,0,.15,1.582q.15-.345.345-.832t.375-.908l.93.6q-.21.645-.412,1.327t-.353,1.29q-.15.608-.255,1.042a2.406,2.406,0,0,0-.067.382q-.022.218-.022.353,0,.1.007.285t.022.33l-1.665.165q-.165-.45-.368-1.237a17.28,17.28,0,0,1-.345-1.74A12.711,12.711,0,0,1,91.41,15.4q0-1.23.082-2.37t.2-2.077q.12-.937.195-1.538a4.616,4.616,0,0,0,.075-.668Q91.98,8.39,92,8.1Zm19.74-.465q-.03.225-.053.5t-.037.563q-.015.3-.03.8t-.015,1.1v2.25q0,.63.03,1.4t.083,1.56q.052.787.09,1.47t.037,1.132a2.09,2.09,0,0,1-.33,1.148,2.23,2.23,0,0,1-.983.817,3.936,3.936,0,0,1-1.642.3,4.7,4.7,0,0,1-2.73-.66,2.28,2.28,0,0,1-.488-3.187,2.908,2.908,0,0,1,1.275-.907,5.389,5.389,0,0,1,1.988-.33,9.664,9.664,0,0,1,2.3.262,10.228,10.228,0,0,1,1.958.683,12.107,12.107,0,0,1,1.575.885q.69.465,1.17.84l-1.08,1.68a13.256,13.256,0,0,0-1.207-1.005,10.493,10.493,0,0,0-1.455-.9,8.931,8.931,0,0,0-1.665-.653,6.794,6.794,0,0,0-1.853-.247,2.262,2.262,0,0,0-1.207.27.778.778,0,0,0-.427.66.736.736,0,0,0,.18.495,1.088,1.088,0,0,0,.525.315,3.04,3.04,0,0,0,.87.1,2.387,2.387,0,0,0,.7-.09.835.835,0,0,0,.457-.33,1.181,1.181,0,0,0,.165-.675q0-.33-.022-.945t-.052-1.358q-.03-.742-.06-1.463t-.03-1.275q0-.54.007-1.132T112,10.775q0-.585.007-1.073t.008-.8q0-.21-.023-.517a3.873,3.873,0,0,0-.067-.517Zm-6.225,1.41q.4.06.9.12t1.013.113q.518.053.982.075t.81.023q1.53,0,3.053-.1t3.158-.368l-.015,1.725q-.765.1-1.77.195t-2.137.142q-1.133.053-2.273.053-.465,0-1.147-.038t-1.357-.105q-.675-.067-1.17-.127Zm-.075,3.24q.36.06.855.12t1.012.09q.518.03.982.052t.765.022q1.4,0,2.528-.06t2.122-.15q.99-.09,1.9-.21l-.015,1.77q-.78.09-1.507.15t-1.485.105q-.757.045-1.627.06t-1.95.015q-.435,0-1.08-.022t-1.312-.068q-.667-.045-1.178-.1Zm22.14-4.605q-.015.12-.037.383t-.038.525q-.015.263-.03.383-.015.3-.015.8V11.12q0,.615.007,1.238t.015,1.17q.008.548.008.907l-1.875-.63V12.012q0-.562-.007-1.118T127.8,9.89q-.015-.45-.03-.675-.03-.465-.075-.817t-.075-.488ZM121.32,9.77q.66,0,1.5-.015l1.755-.03,1.8-.03q.885-.015,1.665-.023t1.35-.007q.57,0,1.245-.008t1.335-.007h2.055l-.015,1.77q-.705-.03-1.86-.052t-2.82-.023q-1.02,0-2.07.023t-2.085.052q-1.035.03-2,.067t-1.815.1Zm8.115,4.44a6.077,6.077,0,0,1-.292,2.04,2.288,2.288,0,0,1-2.333,1.635,2.394,2.394,0,0,1-.877-.18,2.848,2.848,0,0,1-.848-.525,2.519,2.519,0,0,1-.622-.855,2.87,2.87,0,0,1-.232-1.2,2.649,2.649,0,0,1,.4-1.478,2.809,2.809,0,0,1,1.088-.975,3.236,3.236,0,0,1,1.507-.352,2.936,2.936,0,0,1,1.657.443,2.756,2.756,0,0,1,1.005,1.193,4.088,4.088,0,0,1,.337,1.695,5.288,5.288,0,0,1-.24,1.53,5.235,5.235,0,0,1-.788,1.552,5.651,5.651,0,0,1-1.47,1.372,8.122,8.122,0,0,1-2.3,1.005l-1.605-1.59a11.313,11.313,0,0,0,1.785-.51,5.658,5.658,0,0,0,1.448-.8,3.394,3.394,0,0,0,.975-1.185,3.755,3.755,0,0,0,.352-1.695,1.486,1.486,0,0,0-.352-1.08,1.144,1.144,0,0,0-.848-.36,1.227,1.227,0,0,0-.555.135,1.058,1.058,0,0,0-.435.4,1.243,1.243,0,0,0-.165.66,1.031,1.031,0,0,0,.353.818,1.187,1.187,0,0,0,.8.307.984.984,0,0,0,.638-.225,1.185,1.185,0,0,0,.368-.75,3.437,3.437,0,0,0-.15-1.41ZM136.41,16.3a2.187,2.187,0,0,1,1.215.315,2.563,2.563,0,0,1,.87.877,2.416,2.416,0,0,1,0,2.438,2.46,2.46,0,0,1-.878.878,2.335,2.335,0,0,1-1.207.323,2.26,2.26,0,0,1-1.23-.315,2.441,2.441,0,0,1-.877-.885,2.4,2.4,0,0,1,.885-3.307A2.416,2.416,0,0,1,136.41,16.3Zm0,3.765a1.3,1.3,0,0,0,.952-.4,1.317,1.317,0,0,0,.4-.968,1.418,1.418,0,0,0-.195-.667,1.341,1.341,0,0,0-.488-.487,1.342,1.342,0,0,0-1.342,0,1.487,1.487,0,0,0-.495.487,1.223,1.223,0,0,0-.2.667,1.423,1.423,0,0,0,.69,1.185A1.286,1.286,0,0,0,136.41,20.06Z" transform="translate(4927 -16077)" fill="#fff"/>
      <path id="パス_48303" data-name="パス 48303" d="M-25.552,0h11.68V-3.872h-5.952V-25.92h-5.728Zm14.208,0h5.728V-25.92h-5.728ZM1.712,0H7.76L12.5-25.92H7.312L4.72-8.32,1.936-25.92h-4.9ZM15.088,0H26.8V-3.872H20.816v-7.744h4.512v-3.968H20.816v-6.432h5.92v-3.9H15.088Z" transform="translate(4884 -16059)" fill="#ffec00"/>
      <g id="長方形_15144" data-name="長方形 15144" transform="translate(4829 -16107)" fill="none" stroke="#ffec00" stroke-width="1">
        <rect width="319" height="66" rx="33" stroke="none"/>
        <rect x="0.5" y="0.5" width="318" height="65" rx="32.5" fill="none"/>
      </g>
      <text id="_" data-name="→" transform="translate(5113 -16067)" fill="#ffec00" font-size="15" font-family="Noto Sans JP" font-weight="700"><tspan x="0" y="0">→</tspan></text>
      <path id="パス_48300" data-name="パス 48300" d="M4716.549-16088.2v30.234" transform="translate(386.951 -1.303)" fill="none" stroke="#fff" stroke-width="1" opacity="0.45"/>
    </g>
  </g>
</svg>
