<svg xmlns="http://www.w3.org/2000/svg" width="1041.34" height="470.936" viewBox="0 0 1041.34 470.936"><g transform="translate(-319.5 -324.528)"><path d="M-272.768-52.864c-.192,3.328-.32,5.12-.576,7.488h-9.536v9.536h8.32c-1.92,11.648-5.12,26.048-9.856,36.352l10.5,3.264c5.5-17.344,6.912-24.512,9.408-39.616h15.936v-9.536h-14.592c.64-4.544.7-5.056.9-6.784Zm16.256,33.024c-5.184,5.7-5.184,10.112-5.184,11.648,0,5.824,4.736,8.512,6.144,9.216,4.032,2.048,9.152,2.368,18.752,2.368,5.056,0,6.848-.128,8.512-.192l-.128-9.984a105.318,105.318,0,0,1-13.44.576c-6.4,0-10.24-.448-10.24-3.84,0-2.112,1.728-4.1,2.816-5.248Zm27.264-16.7c-14.144-.192-21.312,1.28-27.2,4.032l3.008,8.384c4.1-1.536,8.384-2.688,17.472-2.688,2.88,0,4.8.128,6.784.192Zm60.416,33.792c-8.256-6.848-24.96-15.936-30.976-19.2-2.112-1.152-3.264-1.728-3.264-3.008,0-.96,1.408-1.984,2.5-2.816,4.16-3.008,15.616-11.648,25.088-20.224l-11.328-5.76c-4.864,4.928-9.664,9.28-21.568,19.776-5.184,4.544-7.3,6.4-7.3,9.536,0,4.224,3.456,6.4,9.536,10.24,8.192,5.248,17.6,11.2,27.072,19.136ZM-133.376-51.9c.512,2.432,1.088,5.376,2.24,9.216h-23.936v9.6h27.328a96.472,96.472,0,0,0,9.92,18.5l9.856-4.544c-1.792-1.92-5.056-5.5-9.088-14.272a71.1,71.1,0,0,0,15.808-1.92l-2.432-9.856c-3.008,1.024-4.48,1.472-17.024,2.24a50.21,50.21,0,0,1-2.112-9.92Zm-2.368,24.064c-3.584,1.152-16.64,5.376-16.64,16.512A12.5,12.5,0,0,0-145.6-.192c4.416,2.432,9.088,3.52,22.144,3.52,5.824,0,10.624-.128,15.04-.512l.192-9.984a132.436,132.436,0,0,1-17.536.96c-9.92,0-16.576-.384-16.576-5.376,0-5.248,7.68-7.616,11.008-8.576Zm59.2-25.28C-78.208-47.488-86.976-19.968-88.768-13.7-89.92-9.728-91.84-3.136-93.248.64l10.816,3.392c3.008-13.312,3.264-13.888,4.1-16,1.344-3.264,4.032-8.576,8.832-8.576,3.264,0,3.264,1.792,3.264,7.232v3.136c0,11.008,6.784,13.824,12.8,13.824,10.688,0,17.536-7.1,18.816-26.88l-9.92-2.944C-45.7-10.24-48.384-6.592-52.352-6.592c-3.776,0-3.776-3.968-3.776-5.12v-4.224c0-4.544.064-14.4-10.56-14.4a11.673,11.673,0,0,0-6.656,2.048c1.856-5.44,7.424-20.288,8.32-22.528ZM.7,3.584C4.1,3.2,13.824,2.176,20.1-3.328c6.592-5.888,8.7-13.44,8.7-20.736,0-18.24-12.352-26.3-27.072-26.3-21.12,0-31.04,15.68-31.04,29.824,0,10.048,5.376,18.816,14.016,18.816,17.152,0,19.584-33.472,19.9-39.04,7.3.576,13.5,5.12,13.5,15.808C18.112-7.744,3.84-6.592-3.072-6.08ZM-5.12-40.32c-1.216,15.3-4.864,27.84-9.728,27.84-3.648,0-4.352-5.76-4.352-8.192C-19.2-22.272-19.2-36.224-5.12-40.32ZM39.552-23.744V5.888h9.6V3.648H78.72v2.24h9.472V-23.744H65.856a23.132,23.132,0,0,0,1.536-4.032A5.813,5.813,0,0,0,70.4-27.2H88.256a5.191,5.191,0,0,0,4.864-3.456c.64-1.344.7-1.792,1.536-9.088L85.5-41.92c-.256,5.824-.9,5.824-2.5,5.824h-7.36c-1.28,0-1.472-.7-1.472-1.792v-3.264c10.56-1.856,15.936-4.16,19.648-6.08l-5.952-7.04a53.153,53.153,0,0,1-13.7,5.248v-5.568H64.64V-32.7a5.029,5.029,0,0,0,2.24,4.672L58.5-29.056c1.28-.192,1.792-.32,3.776-.7l-.192-8.384A129.657,129.657,0,0,1,47.616-36.16v-5.5H62.08V-49.92H47.616v-4.672H38.208v19.328c-2.112.128-3.648.192-5.056.256l1.216,9.088c10.24-.9,18.112-1.984,23.424-3.008a31.359,31.359,0,0,1-1.28,5.184Zm9.6,7.36H78.72v3.2H49.152Zm0,9.024H78.72V-3.9H49.152ZM122.624-51.9c.512,2.432,1.088,5.376,2.24,9.216H100.928v9.6h27.328a96.472,96.472,0,0,0,9.92,18.5l9.856-4.544c-1.792-1.92-5.056-5.5-9.088-14.272a71.1,71.1,0,0,0,15.808-1.92l-2.432-9.856c-3.008,1.024-4.48,1.472-17.024,2.24a50.211,50.211,0,0,1-2.112-9.92ZM120.256-27.84c-3.584,1.152-16.64,5.376-16.64,16.512A12.5,12.5,0,0,0,110.4-.192c4.416,2.432,9.088,3.52,22.144,3.52,5.824,0,10.624-.128,15.04-.512l.192-9.984a132.436,132.436,0,0,1-17.536.96c-9.92,0-16.576-.384-16.576-5.376,0-5.248,7.68-7.616,11.008-8.576ZM165.568-47.3v8.96h22.848v4.672h-21.5V-24.9h21.5v4.16a13.173,13.173,0,0,0-3.84-.384c-10.368,0-17.408,4.736-17.408,12.48,0,7.168,5.952,12.352,16.832,12.352,7.808,0,14.08-2.368,14.656-11.2a68.818,68.818,0,0,1,11.584,9.6L216.7-7.1a71.107,71.107,0,0,0-18.048-11.264V-24.9h17.856v-8.768H198.656v-4.672h19.328V-47.3H198.656V-52.48h-10.24V-47.3ZM188.416-9.344c0,1.6.064,4.224-5.312,4.224-1.472,0-6.208-.256-6.208-3.84,0-3.392,4.224-4.16,6.592-4.16a13.38,13.38,0,0,1,4.928.96Zm43.392-42.368a300.641,300.641,0,0,0-2.24,33.664c0,12.032,1.152,18.5,1.728,21.568l10.624-.768a121.533,121.533,0,0,1-1.92-23.1,178.018,178.018,0,0,1,2.56-30.656Zm17.024,4.16V-37.5h32.9V-47.552Zm2.24,21.824c-4.16,6.272-4.16,11.136-4.16,12.8C246.912,0,260.8.512,271.3.512a101.839,101.839,0,0,0,11.648-.576l-.192-10.368a130.783,130.783,0,0,1-15.04.768c-6.208,0-11.072-.768-11.072-5.12,0-1.856.576-4.288,2.944-7.232ZM-203.264,45.016c-6.144,0-36.1.192-42.88,0v10.24c3.008-.256,18.3-.64,19.648-.576a24.767,24.767,0,0,0-6.464,3.456l7.3,5.7c5.632-3.776,13.76-7.936,22.4-9.024Zm-38.72,21.12c-3.712,4.1-7.168,8.7-7.168,15.168a13.391,13.391,0,0,0,6.72,11.648c5.824,3.52,11.648,4.16,25.152,4.16,11.968,0,14.912-.384,17.28-.7l-.128-10.5a179.989,179.989,0,0,1-19.712.96c-9.6,0-18.688-.064-18.688-6.528,0-3.9,2.944-7.232,4.544-8.96Zm38.208,4.48a49.549,49.549,0,0,0-6.144-9.856l-5.248,2.816a60.2,60.2,0,0,1,5.888,10.176Zm8.512-4.544a48.492,48.492,0,0,0-6.144-9.472l-5.312,2.816a63.4,63.4,0,0,1,6.08,9.664Zm12.416-9.728c1.664,3.264,2.624,7.04,3.712,11.2h-11.072v9.088h19.328A54.244,54.244,0,0,1-191.3,90.072l5.5,9.472c5.888-2.88,12.544-7.1,20.864-16.448v17.92h9.536V82.648a58.465,58.465,0,0,0,21.184,16.9l5.376-9.28a58.063,58.063,0,0,1-20.48-13.632h19.52V67.544h-11.136A74.4,74.4,0,0,0-136.9,56.152l-6.848-1.408h11.584v-8.96h-23.232V40.408h-9.536v5.376h-22.848v8.96h11.456Zm13.312,9.664a53.6,53.6,0,0,0-3.712-11.264h8.32v12.8h-11.648Zm27.2,1.536h-13.056v-12.8h8.7A91.625,91.625,0,0,1-150.4,65.56Zm36.1-4.48h36.992V42.2H-106.24ZM-96.7,82.2c-5.12,4.8-9.28,6.528-16.576,8.448l3.392,6.4c14.144-4.1,19.136-11.2,21.5-14.848h2.88c-1.408,2.752-4.736,9.088-16.768,14.208l5.44,5.5a34.729,34.729,0,0,0,10.688-7.168l1.28,6.208H-75.2c1.984,0,4.672-.256,6.144-3.84,1.664-3.9,1.92-17.408,1.984-22.08H-92.928c.576-.832.9-1.28,1.6-2.432H-65.6V65.368h-43.264V72.6h8.9a24.9,24.9,0,0,1-8.576,6.464l-.064-2.688a31.155,31.155,0,0,1-3.584,1.408V63.448h3.584V54.3h-3.584V40.536h-9.088V54.3h-5.12v9.152h5.12V80.536a56.581,56.581,0,0,1-5.952,1.472l1.024,9.984a138.3,138.3,0,0,0,17.856-6.464V84.7l1.088,1.664a39.523,39.523,0,0,0,7.3-4.16Zm18.368-34.24v2.88H-97.344V47.96Zm0,6.848V57.88H-97.344V54.808Zm-6.272,38.336A38.774,38.774,0,0,0-77.952,82.2H-75.9c-.448,10.368-1.28,10.944-3.456,10.944ZM-58.816,45.08c-.448,5.12-1.152,12.992-1.152,19.584,0,10.688,1.536,32.64,15.04,32.64,9.92,0,14.912-13.248,16.832-18.88l-8.32-4.864c-1.792,5.248-4.608,11.968-7.872,11.968-5.12,0-5.568-14.08-5.568-19.9A118.634,118.634,0,0,1-48,46.04ZM-3.392,90.328c.448-29.248-8.256-38.144-14.016-43.968L-25.6,51.8c4.1,3.456,11.264,12.736,11.264,34.56,0,1.984-.064,3.328-.128,4.608ZM15.232,42.136c-.192,3.328-.32,5.12-.576,7.488H5.12V59.16h8.32C11.52,70.808,8.32,85.208,3.584,95.512l10.5,3.264c5.5-17.344,6.912-24.512,9.408-39.616H39.424V49.624H24.832c.64-4.544.7-5.056.9-6.784ZM31.488,75.16C26.3,80.856,26.3,85.272,26.3,86.808c0,5.824,4.736,8.512,6.144,9.216C36.48,98.072,41.6,98.392,51.2,98.392c5.056,0,6.848-.128,8.512-.192l-.128-9.984a105.318,105.318,0,0,1-13.44.576c-6.4,0-10.24-.448-10.24-3.84,0-2.112,1.728-4.1,2.816-5.248Zm27.264-16.7c-14.144-.192-21.312,1.28-27.2,4.032l3.008,8.384c4.1-1.536,8.384-2.688,17.472-2.688,2.88,0,4.8.128,6.784.192ZM79.36,42.52c-.32,3.52-.384,4.8-.7,7.1H69.12V59.16h8.256c-.832,5.184-3.584,21.888-9.664,36.672l9.984,2.88c4.8-11.9,7.872-28.48,9.856-39.552h15.872V49.624h-14.4c.448-3.84.512-4.352.7-6.784ZM95.488,75.16c-1.28,1.408-5.248,5.824-5.248,11.584,0,6.016,5.248,9.92,10.88,10.88a79.237,79.237,0,0,0,13.312.7c5.312,0,7.68-.128,9.472-.192l-.32-9.92c-1.792.128-6.272.576-14.016.576-3.776,0-9.728,0-9.728-4.1,0-2.176,1.792-4.16,2.688-5.12Zm21.44-23.168a47.468,47.468,0,0,0-3.9-10.176l-5.632,1.6a49.868,49.868,0,0,1,3.776,10.5Zm5.824,6.528c-9.216-.192-17.344.128-27.2,3.968l3.008,8.384c2.56-.9,7.68-2.624,18.24-2.624,2.56,0,4.352.128,6.016.192Zm3.136-8.32a48.876,48.876,0,0,0-4.16-9.664l-5.568,1.6a53.506,53.506,0,0,1,3.9,9.856Zm29.376-7.552c.192,1.728.256,2.24.96,6.656H135.04v8.64h22.4c.576,3.712.64,4.16.9,5.44h-25.6v8.448h26.752a7,7,0,0,0,1.28-.064c2.944,7.424,5.7,10.5,7.488,12.48l9.088-5.5a30.662,30.662,0,0,1-5.184-7.36,97.729,97.729,0,0,0,15.424-2.112L186.112,60.7a87.2,87.2,0,0,1-17.28,2.368,37.241,37.241,0,0,1-1.28-5.568c8.192-.64,9.152-.7,14.912-1.92l-1.152-8.768a85.119,85.119,0,0,1-15.04,2.112c-.256-2.048-.384-3.968-.576-6.976ZM144.512,74.072c-2.112,1.92-6.784,6.08-6.784,12.1,0,2.176,1.152,8.768,11.2,11.328,2.816.7,6.912,1.216,19.136,1.216,7.232,0,10.752-.256,12.992-.448l-.384-9.856a134.884,134.884,0,0,1-17.024.832c-8.576,0-15.488-.32-15.488-4.672,0-2.816,2.688-5.056,4.1-6.272Zm73.28,18.944a133.858,133.858,0,0,0-13.888-15.1l-8,5.312A125.2,125.2,0,0,1,208.512,99.1Zm-626.24,103.448a36.821,36.821,0,0,0,8.384-6.72c1.152,2.944,3.328,6.528,7.3,6.528,4.288,0,6.656-4.8,8.192-9.024l-3.264-9.216c-2.3,4.864-2.816,6.08-3.968,6.08-1.024,0-1.664-1.984-1.856-2.624a60.1,60.1,0,0,0,8.064-22.72l-7.232-2.624A71.157,71.157,0,0,1-395.9,168.5c-.384-4.1-.384-5.248-.512-15.04h10.688v-8.64H-396.48v-9.408h-8.7c0,1.472,0,8.064.064,9.408h-18.56v24.9c0,8.512-.7,13.824-3.072,18.624V175.28h-17.984v20.736h7.616v-2.368h10.368v-2.3l6.144,5.12c3.712-6.208,4.1-11.328,4.608-17.6l.768,7.424h4.1a4.1,4.1,0,0,0,4.224-3.456c.832-3.584,1.152-14.976,1.152-23.936h-9.92v-5.44h10.624c.32,15.616,1.792,24.192,2.368,27.008a37.34,37.34,0,0,1-11.264,8.64Zm-7.232-29.888h3.392c.128,10.944-.128,11.584-1.6,11.584h-2.048c.256-4.672.256-7.1.256-7.936Zm-17.664,15.36v4.992H-437.7v-4.992Zm48.064-40.64a27.265,27.265,0,0,0-4.48-6.4l-6.144,2.88c.7,1.088,3.968,5.888,4.48,6.976Zm-59.456,2.5h17.984v-6.976h-17.984Zm-1.664,9.792h20.928v-7.232H-446.4Zm1.664,9.472h17.984v-7.04h-17.984Zm0,9.536h17.984v-7.04h-17.984Zm68.544-34.3a300.636,300.636,0,0,0-2.24,33.664c0,12.032,1.152,18.5,1.728,21.568l10.624-.768a121.531,121.531,0,0,1-1.92-23.1,178.02,178.02,0,0,1,2.56-30.656Zm17.024,4.16V152.5h32.9V142.448Zm2.24,21.824c-4.16,6.272-4.16,11.136-4.16,12.8,0,12.928,13.888,13.44,24.384,13.44a101.84,101.84,0,0,0,11.648-.576l-.192-10.368a130.782,130.782,0,0,1-15.04.768c-6.208,0-11.072-.768-11.072-5.12,0-1.856.576-4.288,2.944-7.232ZM-301.7,142.32h-12.48v9.344h12.416c0,1.408,0,3.328.128,6.656-6.784,2.944-14.976,9.664-14.976,19.776,0,3.9,1.216,12.544,12.544,12.544,13.12,0,23.808-15.3,26.688-25.792,7.232,2.368,7.232,8.128,7.232,9.024a9.9,9.9,0,0,1-5.44,8.64c-3.584,1.92-5.824,2.048-13.248,2.432l2.88,8.9c6.144-.384,25.856-1.6,25.856-19.328,0-12.608-10.432-19.136-25.216-19.136a55.773,55.773,0,0,0-6.592.384c0-1.28,0-2.88.064-4.1h28.8V142.32h-28.544l.192-4.992h-10.3Zm11.072,31.168a62.128,62.128,0,0,1-1.088-9.6,26.983,26.983,0,0,1,6.016-.384A32.739,32.739,0,0,1-290.624,173.488Zm-7.552,7.1a9,9,0,0,1-4.608,1.344c-4.224,0-4.416-3.9-4.416-4.672,0-5.248,4.864-8.64,6.272-9.664A56.116,56.116,0,0,0-298.176,180.592Zm55.424-43.584a282.523,282.523,0,0,0-2.5,33.664c0,1.92.256,5.248.448,7.04l10.432-.512c-.128-1.92-.448-8-.448-9.216,0-6.08,5.632-15.424,13.888-15.424,8.384,0,8.384,7.488,8.384,12.608,0,16.128-7.936,19.072-29.312,19.456l2.752,9.792c17.152-1.024,37.376-2.176,37.376-28.352,0-3.328-.32-11.9-4.48-17.216-2.624-3.392-8.064-5.888-13.056-5.888-5.76,0-10.624,2.688-14.528,6.976a102.455,102.455,0,0,1,2.3-12.1Zm66.5-.448c-.192,3.008-.512,6.784-1.088,11.456H-187.9v9.728l9.152-.128c-4.1,19.968-7.488,26.24-10.3,30.528l9.472,5.056c5.632-11.136,8.7-23.36,10.88-35.648l5.12-.064c6.08-.064,6.208,3.136,6.208,8.256,0,4.608-.832,13.376-2.624,16-.64.96-1.728,2.176-4.928,2.176a37.51,37.51,0,0,1-7.488-.9l.384,9.728a49.458,49.458,0,0,0,9.28.9c3.264,0,7.552-.256,10.816-4.544,4.1-5.44,4.544-19.328,4.544-22.976,0-8.64-1.472-18.112-14.208-18.112h-5.5c.768-5.5,1.088-8.256,1.408-10.752Zm45.824,38.144c-.768-12.864-3.2-20.608-6.4-26.048l-9.344,2.88c1.28,2.368,4.544,8.256,4.864,24.256Zm.832-29.568c-2.176-6.848-3.52-8.768-4.224-9.856l-5.568,1.536a48.334,48.334,0,0,1,4.224,9.984Zm-9.28,1.344a39.936,39.936,0,0,0-4.032-9.92l-5.632,1.536a45.009,45.009,0,0,1,3.9,10.3Zm31.232-8.768c0,4.864,0,8.384.32,13.568.32,5.44,1.856,7.1,2.752,8.128-4.928,2.3-16.128,7.616-16.128,18.816a12.818,12.818,0,0,0,7.232,11.584c3.968,2.048,8.768,3.712,24.064,3.712,8.512,0,14.464-.448,18.3-.7v-10.5a189.823,189.823,0,0,1-21.184,1.088c-9.92,0-17.408-.128-17.408-6.208,0-8.96,21.12-13.824,36.608-15.232l-2.048-10.5c-13.312,2.5-14.464,2.688-20.1,4.48-1.472-1.536-1.6-3.392-1.6-9.856,0-3.136.064-5.376.192-8.384Zm92.8,3.328A162.993,162.993,0,0,0-46.4,136.752l-1.408,9.28c10.176.512,21.312,1.92,31.04,4.8Zm-30.784,53.376c3.52-.064,12.992-.192,21.824-3.776,6.464-2.624,14.08-7.36,14.08-20.928,0-16.576-12.672-16.576-17.472-16.576-4.608,0-12.1.832-16.9,1.344-6.784.768-8.128.9-10.624,1.088l1.728,10.56c5.376-1.024,20.032-3.712,24.7-3.712,3.84,0,7.744.768,7.744,7.488,0,13.12-13.5,14.528-28.1,14.976Zm98.368-54.4c-6.144,0-36.1.192-42.88,0v10.24c3.008-.256,18.3-.64,19.648-.576a24.768,24.768,0,0,0-6.464,3.456l7.3,5.7c5.632-3.776,13.76-7.936,22.4-9.024Zm-38.72,21.12c-3.712,4.1-7.168,8.7-7.168,15.168a13.391,13.391,0,0,0,6.72,11.648c5.824,3.52,11.648,4.16,25.152,4.16,11.968,0,14.912-.384,17.28-.7l-.128-10.5a179.988,179.988,0,0,1-19.712.96c-9.6,0-18.688-.064-18.688-6.528,0-3.9,2.944-7.232,4.544-8.96Zm38.208,4.48a49.549,49.549,0,0,0-6.144-9.856l-5.248,2.816a60.2,60.2,0,0,1,5.888,10.176Zm8.512-4.544a48.493,48.493,0,0,0-6.144-9.472l-5.312,2.816a63.4,63.4,0,0,1,6.08,9.664ZM90.3,138.1c.512,2.432,1.216,5.7,2.368,9.408H68.928v9.664h24.9c.448,0,1.664,0,2.432-.064,5.568,12.544,8.384,16.128,10.5,18.752l9.472-4.416a76.388,76.388,0,0,1-9.344-14.784c9.856-.384,12.288-.96,14.592-1.536l-2.176-7.808-8.064,1.344c0-.576-.256-1.792-.256-1.984-1.792.192-3.072.32-7.68.64a44.3,44.3,0,0,1-2.24-10.176Zm27.9,7.232a49.141,49.141,0,0,0-3.008-9.344l-5.7.96a46.8,46.8,0,0,1,2.944,9.6ZM87.936,162.1c-8.768,2.816-16.32,8.064-16.32,16.576A12.537,12.537,0,0,0,78.4,189.808c4.352,2.432,8.96,3.584,21.312,3.584,5.312,0,10.624-.064,15.872-.512l.128-9.984a157.579,157.579,0,0,1-16.832.9c-12.1,0-17.088-.768-17.088-5.44,0-2.176,1.088-5.12,10.88-8.576Zm38.656-17.6a35.95,35.95,0,0,0-2.88-9.472l-5.632.96a47.423,47.423,0,0,1,2.944,9.664Zm6.592-4.416c-.448,5.12-1.152,12.992-1.152,19.584,0,10.688,1.536,32.64,15.04,32.64,9.92,0,14.912-13.248,16.832-18.88l-8.32-4.864c-1.792,5.248-4.608,11.968-7.872,11.968-5.12,0-5.568-14.08-5.568-19.9A118.634,118.634,0,0,1,144,141.04Zm55.424,45.248c.448-29.248-8.256-38.144-14.016-43.968L166.4,146.8c4.1,3.456,11.264,12.736,11.264,34.56,0,1.984-.064,3.328-.128,4.608Zm8.96-42.624v8.96h22.848v4.672h-21.5V165.1h21.5v4.16a13.173,13.173,0,0,0-3.84-.384c-10.368,0-17.408,4.736-17.408,12.48,0,7.168,5.952,12.352,16.832,12.352,7.808,0,14.08-2.368,14.656-11.2a68.818,68.818,0,0,1,11.584,9.6L248.7,182.9a71.106,71.106,0,0,0-18.048-11.264V165.1h17.856v-8.768H230.656v-4.672h19.328V142.7H230.656V137.52h-10.24V142.7Zm22.848,37.952c0,1.6.064,4.224-5.312,4.224-1.472,0-6.208-.256-6.208-3.84,0-3.392,4.224-4.16,6.592-4.16a13.38,13.38,0,0,1,4.928.96Zm46.848-43.2c0,4.48-.192,26.176-.192,31.04,0,13.12,1.344,24.9,20.544,24.9,7.3,0,22.976-1.088,27.84-25.344l-9.728-4.288c-1.344,8.384-4.224,19.712-18.176,19.712-8.32,0-10.048-4.224-10.048-12.48,0-1.92.448-23.808.9-33.344Zm67.968-.32c-.192,3.328-.32,5.12-.576,7.488H325.12v9.536h8.32c-1.92,11.648-5.12,26.048-9.856,36.352l10.5,3.264c5.5-17.344,6.912-24.512,9.408-39.616h15.936v-9.536H344.832c.64-4.544.7-5.056.9-6.784Zm16.256,33.024c-5.184,5.7-5.184,10.112-5.184,11.648,0,5.824,4.736,8.512,6.144,9.216,4.032,2.048,9.152,2.368,18.752,2.368,5.056,0,6.848-.128,8.512-.192l-.128-9.984a105.319,105.319,0,0,1-13.44.576c-6.4,0-10.24-.448-10.24-3.84,0-2.112,1.728-4.1,2.816-5.248Zm27.264-16.7c-14.144-.192-21.312,1.28-27.2,4.032l3.008,8.384c4.1-1.536,8.384-2.688,17.472-2.688,2.88,0,4.8.128,6.784.192Zm20.544,18.88A10.624,10.624,0,1,0,409.92,182.96,10.6,10.6,0,0,0,399.3,172.336Zm0,4.224a6.368,6.368,0,1,1-6.4,6.4A6.364,6.364,0,0,1,399.3,176.56Z" transform="translate(858.4 599)" fill="#004690"/><path d="M141.487-152.862h20.545V-98.22a49.363,49.363,0,0,1,10.3-9.768h0a35.138,35.138,0,0,1,10.36-4.532,49.526,49.526,0,0,1,12.54-1.5,55.4,55.4,0,0,1,11.241,1.071,36.791,36.791,0,0,1,9.359,3.239,29.169,29.169,0,0,1,7.427,5.435,30.476,30.476,0,0,1,5.42,7.6,41.4,41.4,0,0,1,3.57,11.221,82.846,82.846,0,0,1,1.175,14.68V1H212.37V-69.543c0-7.892-1-13.725-2.964-17.337h0a15.106,15.106,0,0,0-6.821-6.384,26.143,26.143,0,0,0-11.262-2.169,29.9,29.9,0,0,0-10.644,1.918,33.184,33.184,0,0,0-9.625,5.778c-2.963,2.508-5.225,6.207-6.723,11a62.14,62.14,0,0,0-2.3,18.221V1H141.487Zm18.545,2H143.487V-1h16.545V-58.52a64.091,64.091,0,0,1,2.389-18.818c1.613-5.157,4.082-9.17,7.34-11.927a35.172,35.172,0,0,1,10.208-6.121,31.889,31.889,0,0,1,11.353-2.048,28.1,28.1,0,0,1,12.125,2.364,17.071,17.071,0,0,1,7.706,7.215l0,.008a24.887,24.887,0,0,1,2.425,7.6,63.774,63.774,0,0,1,.787,10.705V-1h17.06V-70.78A80.863,80.863,0,0,0,230.287-85.1,39.421,39.421,0,0,0,226.9-95.776a28.475,28.475,0,0,0-5.061-7.1,27.172,27.172,0,0,0-6.919-5.061,34.793,34.793,0,0,0-8.851-3.059,53.4,53.4,0,0,0-10.833-1.029,47.532,47.532,0,0,0-12.032,1.435,33.147,33.147,0,0,0-9.777,4.274l0,0c-3.394,2.2-7.3,6.074-11.607,11.525l-1.785,2.259ZM2.4-152.347H127.208v20.03h-51V1H53.4V-132.317H2.4Zm122.809,2H4.4v16.03h51V-1H74.21V-134.317h51Zm367.911-2h19.824v86.494l46.189-45.489H585.69L542.28-68.885,587.444,1H561.354l-.293-.474L527.284-54.083,512.943-40.976V1H493.119Zm17.824,2H495.119V-1h15.824V-41.858l16.773-15.329.635,1.026L562.468-1h21.3L539.713-69.172l.584-.571,40.488-39.6H559.951L510.943-61.076Zm132.913-2h26.286l.291.487,42.619,71.3,42.91-71.788h26.389l-.971,1.535L724.355-60.7V1h-22.5V-60.7Zm25.151,2H647.489l56.364,89.065V-1h18.5V-61.282l.155-.245,56.209-88.82H757.1L713.052-76.661Zm351.818-2h22.915v50.8l0,.038-5.12,66.449h-12.356l-5.436-66.485Zm20.915,2h-18.915v48.722L1028.1-37.06h8.661l4.974-64.564ZM820.819-114.536a54.422,54.422,0,0,1,20.045,3.624,50.953,50.953,0,0,1,16.709,10.874,43.478,43.478,0,0,1,6.6,8.133,49.07,49.07,0,0,1,4.7,9.82,74.283,74.283,0,0,1,3.74,24.6,87.474,87.474,0,0,1-3.286,24.648A63.251,63.251,0,0,1,859.432-12.8a41.568,41.568,0,0,1-7.568,7.805,42.225,42.225,0,0,1-9.4,5.574,51.785,51.785,0,0,1-11.182,3.33,72.026,72.026,0,0,1-12.937,1.1,52.891,52.891,0,0,1-20.817-3.931,43.355,43.355,0,0,1-8.655-4.927,45.908,45.908,0,0,1-7.446-6.889,52.391,52.391,0,0,1-10.242-18.391,76.885,76.885,0,0,1-3.4-23.631,83.519,83.519,0,0,1,3.576-25.288,59.668,59.668,0,0,1,4.487-10.544,53.782,53.782,0,0,1,6.292-9.12,48.882,48.882,0,0,1,7.823-7.362,45.41,45.41,0,0,1,9.073-5.268,49.213,49.213,0,0,1,10.293-3.156A60.871,60.871,0,0,1,820.819-114.536ZM818.346,3.018a70.034,70.034,0,0,0,12.576-1.072,49.776,49.776,0,0,0,10.75-3.2,40.222,40.222,0,0,0,8.953-5.309,39.558,39.558,0,0,0,7.2-7.43,61.256,61.256,0,0,0,9.578-19.414,85.476,85.476,0,0,0,3.2-24.084,72.309,72.309,0,0,0-3.626-23.931,47.073,47.073,0,0,0-4.507-9.42,41.48,41.48,0,0,0-6.294-7.759,48.967,48.967,0,0,0-16.054-10.453,52.435,52.435,0,0,0-19.311-3.485,58.88,58.88,0,0,0-11.105,1.012,47.216,47.216,0,0,0-9.874,3.026,43.4,43.4,0,0,0-8.673,5.035,46.875,46.875,0,0,0-7.5,7.061,51.79,51.79,0,0,0-6.058,8.781,57.673,57.673,0,0,0-4.335,10.19A81.535,81.535,0,0,0,769.79-52.75a74.9,74.9,0,0,0,3.3,23.015,53.363,53.363,0,0,0,4.108,9.5,48.324,48.324,0,0,0,5.741,8.192,43.907,43.907,0,0,0,7.12,6.589,41.349,41.349,0,0,0,8.255,4.7A50.911,50.911,0,0,0,818.346,3.018ZM303.107-114.021a78.759,78.759,0,0,1,17.872,1.881,48.679,48.679,0,0,1,14.279,5.683,25.349,25.349,0,0,1,9.406,9.869,30.108,30.108,0,0,1,3.127,14.063v63.568a7.215,7.215,0,0,0,1.013,4.076c.4.6,1.457,1.312,4.169,1.312.788,0,1.69-.05,2.682-.15s2.085-.253,3.223-.453l1.174-.207V1.269l-.725.207a52,52,0,0,1-6.733,1.575,49.362,49.362,0,0,1-6.317.318c-6.722,0-11.685-2.444-14.752-7.263l0,0a24.48,24.48,0,0,1-2.973-8.383,41.975,41.975,0,0,1-5.656,5.364,58.64,58.64,0,0,1-9.538,6.055,49.488,49.488,0,0,1-11.383,4.18,54.9,54.9,0,0,1-12.462,1.391,40.956,40.956,0,0,1-14.3-2.394,33.276,33.276,0,0,1-11.483-7.208,32.106,32.106,0,0,1-7.533-10.833,34.169,34.169,0,0,1-2.511-13.225,37.415,37.415,0,0,1,2.468-14A27.76,27.76,0,0,1,263.6-53.5a40.524,40.524,0,0,1,11.354-7,55.67,55.67,0,0,1,14.321-3.648l29.569-3.709a12.186,12.186,0,0,0,4.925-1.607,7.443,7.443,0,0,0,2.848-3.189l.008-.016a15.456,15.456,0,0,0,1.131-6.662,17.49,17.49,0,0,0-1.585-7.737,12.693,12.693,0,0,0-4.7-5.172c-4.315-2.734-10.635-4.12-18.782-4.12a34.2,34.2,0,0,0-12.06,1.892,17.437,17.437,0,0,0-7.756,5.551l0,0c-2.141,2.725-3.562,6.89-4.224,12.38l-.106.88H259.324l.026-1.025a44.554,44.554,0,0,1,3.661-17.693,26.578,26.578,0,0,1,10.046-11.513,51.746,51.746,0,0,1,14.012-6.107A61.483,61.483,0,0,1,303.107-114.021ZM352.972-11.569a10.684,10.684,0,0,1-3.486-.494,4.535,4.535,0,0,1-2.339-1.7,9.14,9.14,0,0,1-1.357-5.2V-82.525a28.142,28.142,0,0,0-2.9-13.137,23.374,23.374,0,0,0-8.678-9.09,46.685,46.685,0,0,0-13.69-5.441,76.768,76.768,0,0,0-17.415-1.828,59.491,59.491,0,0,0-15.515,1.961,49.744,49.744,0,0,0-13.471,5.87,24.163,24.163,0,0,0-5.377,4.579,25.87,25.87,0,0,0-3.92,6.085,41.686,41.686,0,0,0-3.44,15.873h15.4a36.514,36.514,0,0,1,1.556-6.821,19.332,19.332,0,0,1,2.967-5.676,19.4,19.4,0,0,1,8.622-6.189,36.163,36.163,0,0,1,12.77-2.023,53,53,0,0,1,11.33,1.093,26.654,26.654,0,0,1,8.523,3.338c4.786,3.032,7.213,7.944,7.213,14.6a17.107,17.107,0,0,1-1.335,7.542c-1.592,3.333-4.729,5.323-9.325,5.916l-29.572,3.71a53.667,53.667,0,0,0-13.805,3.512A38.527,38.527,0,0,0,264.927-52a25.775,25.775,0,0,0-6.92,9.8,35.437,35.437,0,0,0-2.323,13.252A32.183,32.183,0,0,0,258.04-16.5a30.117,30.117,0,0,0,7.071,10.159,31.289,31.289,0,0,0,10.8,6.778,38.969,38.969,0,0,0,13.6,2.268A52.9,52.9,0,0,0,301.514,1.37a47.488,47.488,0,0,0,10.922-4.011,56.643,56.643,0,0,0,9.213-5.845,38.473,38.473,0,0,0,6.729-6.751l1.452-1.9.333,2.368a25.418,25.418,0,0,0,3.05,9.807,12.842,12.842,0,0,0,5.233,4.734,17.75,17.75,0,0,0,7.829,1.6,47.506,47.506,0,0,0,6.047-.3A46.873,46.873,0,0,0,358.05-.242V-12.009c-.763.117-1.5.211-2.2.28C354.8-11.623,353.826-11.569,352.972-11.569ZM430.86-113.815a54.271,54.271,0,0,1,11,1.045A35.844,35.844,0,0,1,451-109.608a28.261,28.261,0,0,1,7.235,5.307,29.449,29.449,0,0,1,5.254,7.418,40.5,40.5,0,0,1,3.491,11.171,86.952,86.952,0,0,1,1.149,14.933V1H447.272V-69.543c0-6.547-.972-11.878-2.888-15.843a16.29,16.29,0,0,0-6.552-7.3,20.827,20.827,0,0,0-10.474-2.443,35.712,35.712,0,0,0-10.516,1.293l-.017.005a24.967,24.967,0,0,0-6.885,3.269,30.117,30.117,0,0,0-6.031,5.485A26.435,26.435,0,0,0,398.092-74.2c-.9,3.787-1.364,9.307-1.364,16.407V1H376.183V-111.342H395.8v13.917a58.693,58.693,0,0,1,6.419-6.342,42.266,42.266,0,0,1,8.734-5.724,42.6,42.6,0,0,1,9.469-3.245A49.346,49.346,0,0,1,430.86-113.815ZM466.126-1V-70.78a84.971,84.971,0,0,0-1.118-14.585A38.533,38.533,0,0,0,461.7-95.982a27.454,27.454,0,0,0-4.9-6.918,26.269,26.269,0,0,0-6.725-4.931,33.851,33.851,0,0,0-8.631-2.981,52.289,52.289,0,0,0-10.588-1,47.344,47.344,0,0,0-10.013,1.033,40.6,40.6,0,0,0-9.024,3.091,40.277,40.277,0,0,0-8.317,5.455,59.465,59.465,0,0,0-7.927,8.182l-1.778,2.2v-17.487H378.183V-1h16.545V-57.8c0-7.256.477-12.932,1.418-16.871a28.406,28.406,0,0,1,6.237-11.7,32.109,32.109,0,0,1,6.435-5.847,26.969,26.969,0,0,1,7.428-3.528,37.662,37.662,0,0,1,11.111-1.383c9.031,0,15.366,3.657,18.828,10.87,2.047,4.236,3.086,9.86,3.086,16.711V-1ZM892.247-111.342H913.2V-37.09c0,5.449.866,9.943,2.573,13.359a15.662,15.662,0,0,0,6.661,6.984,22.926,22.926,0,0,0,10.886,2.354,33.794,33.794,0,0,0,8.655-1.048,24.163,24.163,0,0,0,7.075-3.115,23.222,23.222,0,0,0,5.58-5.187,30.654,30.654,0,0,0,4.138-7.334l0-.005c2.48-6.032,3.737-14.465,3.737-25.067v-55.192h20.545V1H963.529l.174-13.758a37.862,37.862,0,0,1-7.29,7.869,38.341,38.341,0,0,1-12.055,6.661,44.941,44.941,0,0,1-14.33,2.216,57.033,57.033,0,0,1-11.051-1,37.594,37.594,0,0,1-9.222-3.039,29.027,29.027,0,0,1-7.348-5.1A29.1,29.1,0,0,1,897-12.3a36.245,36.245,0,0,1-3.578-10.14,64.633,64.633,0,0,1-1.18-12.9Zm18.957,2H894.247v74a62.655,62.655,0,0,0,1.139,12.5,34.272,34.272,0,0,0,3.374,9.585A27.114,27.114,0,0,0,903.792-6.6a27.023,27.023,0,0,0,6.844,4.749,35.6,35.6,0,0,0,8.731,2.873,55.052,55.052,0,0,0,10.662.966A42.949,42.949,0,0,0,943.721-.124a36.356,36.356,0,0,0,11.432-6.318,36.6,36.6,0,0,0,8.728-10.335l1.916-3.339L965.555-1h15.5V-109.342H964.512V-56.15a99.765,99.765,0,0,1-.964,14.6,48.791,48.791,0,0,1-2.923,11.23h0a32.642,32.642,0,0,1-4.411,7.806,25.218,25.218,0,0,1-6.062,5.631,26.165,26.165,0,0,1-7.658,3.376,35.787,35.787,0,0,1-9.169,1.115c-9.366,0-15.871-3.514-19.336-10.443-1.847-3.7-2.784-8.491-2.784-14.253ZM820.3-98.361a40.183,40.183,0,0,1,9.1.979,29.148,29.148,0,0,1,7.721,2.962,27.834,27.834,0,0,1,11.061,11.85,43.558,43.558,0,0,1,3.8,11.391,74.176,74.176,0,0,1,1.255,14.2,76.926,76.926,0,0,1-1.736,16.532,66.534,66.534,0,0,1-5.217,14.971,24.384,24.384,0,0,1-10.164,10.905c-4.346,2.4-9.738,3.615-16.027,3.615a34.464,34.464,0,0,1-14.959-3.034,25.53,25.53,0,0,1-10.4-9.161,45.611,45.611,0,0,1-5.927-13.508,64.681,64.681,0,0,1-1.965-16.4A72.193,72.193,0,0,1,788.811-70.3a53.554,53.554,0,0,1,5.907-14.593A26.392,26.392,0,0,1,805.157-95,32.311,32.311,0,0,1,820.3-98.361Zm-.206,85.41c5.948,0,11.015-1.132,15.061-3.365a21.469,21.469,0,0,0,5.35-4.169,24.266,24.266,0,0,0,3.984-5.867,64.537,64.537,0,0,0,5.06-14.521,74.931,74.931,0,0,0,1.689-16.1,72.178,72.178,0,0,0-1.218-13.819,41.558,41.558,0,0,0-3.618-10.865,28.541,28.541,0,0,0-4.464-6.444,24.2,24.2,0,0,0-5.8-4.576,27.157,27.157,0,0,0-7.192-2.756,38.191,38.191,0,0,0-8.646-.927,30.347,30.347,0,0,0-14.217,3.131,23.234,23.234,0,0,0-5.371,3.889,26.418,26.418,0,0,0-4.28,5.473,51.56,51.56,0,0,0-5.684,14.049,70.2,70.2,0,0,0-1.9,16.76,62.69,62.69,0,0,0,1.9,15.9,43.618,43.618,0,0,0,5.664,12.918A23.557,23.557,0,0,0,806-15.789,32.5,32.5,0,0,0,820.1-12.951ZM329.245-57.971v16.761a28.2,28.2,0,0,1-4.017,15.239,28.45,28.45,0,0,1-12,10.284h0a45.4,45.4,0,0,1-9.529,3.473,42.473,42.473,0,0,1-9.866,1.161,22.846,22.846,0,0,1-14.528-4.851,16.291,16.291,0,0,1-6.253-13.457c0-7.428,3.048-12.921,9.058-16.324,3.459-1.977,8.678-3.439,15.506-4.345l11.242-1.444a73.961,73.961,0,0,0,10.368-2.033,30.9,30.9,0,0,0,8.481-3.484ZM293.834-13.054a40.472,40.472,0,0,0,9.4-1.106,43.406,43.406,0,0,0,9.113-3.324l.006,0a30.766,30.766,0,0,0,6.549-4.22,23.408,23.408,0,0,0,4.633-5.329,23.29,23.29,0,0,0,2.777-6.477,30.368,30.368,0,0,0,.933-7.7v-13.2a36.2,36.2,0,0,1-7.5,2.836,75.96,75.96,0,0,1-10.65,2.088l-11.222,1.441c-6.567.871-11.539,2.251-14.776,4.1a15.354,15.354,0,0,0-6.035,5.9,17.758,17.758,0,0,0-2.013,8.685,15.99,15.99,0,0,0,1.375,6.766,14.041,14.041,0,0,0,4.117,5.122,20.1,20.1,0,0,0,6.11,3.313A22.673,22.673,0,0,0,293.834-13.054Zm726.991-9.375h22.5V1h-22.5Zm20.5,2h-18.5V-1h18.5Z" transform="translate(317.1 477.391)" fill="#004690"/></g></svg>