<svg xmlns="http://www.w3.org/2000/svg" width="308.193" height="189.054" viewBox="0 0 308.193 189.054"><g transform="translate(-33.5 -198.145)"><path d="M-386.828-54c-.066,1.142-.11,1.757-.2,2.569H-390.3v3.272h2.855a53.045,53.045,0,0,1-3.382,12.472l3.6,1.12A78.641,78.641,0,0,0-384-48.158h5.468V-51.43h-5.006c.22-1.559.242-1.735.307-2.328Zm5.577,11.33a5.616,5.616,0,0,0-1.779,4,3.589,3.589,0,0,0,2.108,3.162c1.383.7,3.14.812,6.434.812,1.735,0,2.35-.044,2.92-.066l-.044-3.425a36.133,36.133,0,0,1-4.611.2c-2.2,0-3.513-.154-3.513-1.317a2.958,2.958,0,0,1,.966-1.8ZM-371.9-48.4c-4.853-.066-7.312.439-9.332,1.383l1.032,2.877a15.229,15.229,0,0,1,5.995-.922c.988,0,1.647.044,2.328.066Zm20.728,11.594c-2.833-2.35-8.564-5.468-10.628-6.587-.725-.4-1.12-.593-1.12-1.032,0-.329.483-.681.856-.966,1.427-1.032,5.358-4,8.608-6.939l-3.887-1.976c-1.669,1.691-3.316,3.184-7.4,6.785-1.779,1.559-2.5,2.2-2.5,3.272,0,1.449,1.186,2.2,3.272,3.513a86.118,86.118,0,0,1,9.288,6.565ZM-339-53.67c.176.834.373,1.844.769,3.162h-8.212v3.294h9.376a33.1,33.1,0,0,0,3.4,6.346l3.382-1.559a16.691,16.691,0,0,1-3.118-4.9,24.393,24.393,0,0,0,5.424-.659l-.834-3.382c-1.032.351-1.537.505-5.841.769a17.227,17.227,0,0,1-.725-3.4Zm-.812,8.256c-1.23.4-5.709,1.844-5.709,5.665a4.289,4.289,0,0,0,2.328,3.821c1.515.834,3.118,1.208,7.6,1.208,2,0,3.645-.044,5.16-.176l.066-3.425a45.438,45.438,0,0,1-6.017.329c-3.4,0-5.687-.132-5.687-1.844,0-1.8,2.635-2.613,3.777-2.942Zm20.311-8.673c-.571,1.932-3.579,11.374-4.194,13.526-.4,1.361-1.054,3.623-1.537,4.919l3.711,1.164c1.032-4.567,1.12-4.765,1.405-5.49.461-1.12,1.383-2.942,3.03-2.942,1.12,0,1.12.615,1.12,2.481v1.076c0,3.777,2.328,4.743,4.392,4.743,3.667,0,6.016-2.437,6.456-9.222l-3.4-1.01c-.4,5.468-1.318,6.719-2.679,6.719-1.3,0-1.3-1.361-1.3-1.757v-1.449c0-1.559.022-4.941-3.623-4.941a4,4,0,0,0-2.284.7c.637-1.866,2.547-6.961,2.855-7.729ZM-293-34.632c1.164-.132,4.5-.483,6.653-2.371a9.145,9.145,0,0,0,2.986-7.114c0-6.258-4.238-9.025-9.288-9.025-7.246,0-10.65,5.38-10.65,10.232,0,3.447,1.844,6.456,4.809,6.456,5.885,0,6.719-11.484,6.829-13.394,2.5.2,4.633,1.757,4.633,5.424,0,5.907-4.9,6.3-7.268,6.478ZM-295-49.7c-.417,5.248-1.669,9.552-3.338,9.552-1.252,0-1.493-1.976-1.493-2.811C-299.83-43.5-299.83-48.29-295-49.7Zm15.327,5.687v10.167h3.294v-.769h10.145v.769h3.25V-44.008h-7.663a7.939,7.939,0,0,0,.527-1.383,1.994,1.994,0,0,0,1.032.2h6.126a1.781,1.781,0,0,0,1.669-1.186c.22-.461.242-.615.527-3.118l-3.14-.747c-.088,2-.307,2-.856,2h-2.525c-.439,0-.505-.242-.505-.615v-1.12a22.034,22.034,0,0,0,6.741-2.086l-2.042-2.415a18.236,18.236,0,0,1-4.7,1.8v-1.91h-3.272v7.51a1.725,1.725,0,0,0,.769,1.6l-2.876-.351c.439-.066.615-.11,1.3-.242l-.066-2.877a44.486,44.486,0,0,1-4.963.681v-1.888h4.963v-2.833h-4.963v-1.6h-3.228v6.631c-.725.044-1.252.066-1.735.088l.417,3.118c3.513-.307,6.214-.681,8.037-1.032a10.759,10.759,0,0,1-.439,1.779Zm3.294,2.525h10.145v1.1h-10.145Zm0,3.1h10.145V-37.2h-10.145Zm25.208-15.283c.176.834.373,1.844.769,3.162h-8.212v3.294h9.376a33.1,33.1,0,0,0,3.4,6.346l3.382-1.559a16.691,16.691,0,0,1-3.118-4.9,24.394,24.394,0,0,0,5.424-.659l-.834-3.382c-1.032.351-1.537.505-5.841.769a17.227,17.227,0,0,1-.725-3.4Zm-.812,8.256c-1.23.4-5.709,1.844-5.709,5.665a4.289,4.289,0,0,0,2.328,3.821c1.515.834,3.118,1.208,7.6,1.208,2,0,3.645-.044,5.16-.176l.066-3.425a45.437,45.437,0,0,1-6.016.329c-3.4,0-5.687-.132-5.687-1.844,0-1.8,2.635-2.613,3.777-2.942Zm15.546-6.675v3.074h7.839v1.6h-7.378V-44.4h7.378v1.427a4.52,4.52,0,0,0-1.317-.132c-3.557,0-5.973,1.625-5.973,4.282,0,2.459,2.042,4.238,5.775,4.238,2.679,0,4.831-.812,5.028-3.843a23.611,23.611,0,0,1,3.974,3.294l2.218-3.162a24.4,24.4,0,0,0-6.192-3.865V-44.4h6.126v-3.008h-6.126v-1.6h6.631v-3.074h-6.631v-1.779H-228.6v1.779Zm7.839,13.021c0,.549.022,1.449-1.823,1.449-.505,0-2.13-.088-2.13-1.317,0-1.164,1.449-1.427,2.262-1.427a4.591,4.591,0,0,1,1.691.329ZM-213.711-53.6a103.147,103.147,0,0,0-.769,11.55,37.677,37.677,0,0,0,.593,7.4l3.645-.263a41.7,41.7,0,0,1-.659-7.927,61.076,61.076,0,0,1,.878-10.518Zm5.841,1.427v3.447h11.286v-3.447Zm.769,7.488a7.564,7.564,0,0,0-1.427,4.392c0,4.436,4.765,4.611,8.366,4.611a34.941,34.941,0,0,0,4-.2l-.066-3.557a44.871,44.871,0,0,1-5.16.263c-2.13,0-3.8-.263-3.8-1.757a3.9,3.9,0,0,1,1.01-2.481Zm-155.88,24.272c-2.108,0-12.384.066-14.712,0V-16.9c1.032-.088,6.28-.22,6.741-.2a8.5,8.5,0,0,0-2.218,1.186l2.5,1.954a18.616,18.616,0,0,1,7.685-3.1Zm-13.285,7.246a7.646,7.646,0,0,0-2.459,5.2,4.594,4.594,0,0,0,2.306,4c2,1.208,4,1.427,8.63,1.427a39.9,39.9,0,0,0,5.929-.242l-.044-3.6a61.752,61.752,0,0,1-6.763.329c-3.294,0-6.412-.022-6.412-2.24a4.905,4.905,0,0,1,1.559-3.074Zm13.109,1.537a17,17,0,0,0-2.108-3.382l-1.8.966a20.656,20.656,0,0,1,2.02,3.491Zm2.92-1.559a16.638,16.638,0,0,0-2.108-3.25l-1.823.966a21.751,21.751,0,0,1,2.086,3.316Zm4.26-3.338a19.233,19.233,0,0,1,1.274,3.843h-3.8V-9.57h6.631a18.611,18.611,0,0,1-7,4.611l1.888,3.25a22.221,22.221,0,0,0,7.158-5.643V-1.2h3.272v-6.3a20.059,20.059,0,0,0,7.268,5.8l1.844-3.184a19.921,19.921,0,0,1-7.027-4.677h6.7v-3.118h-3.821a25.526,25.526,0,0,0,1.383-3.909l-2.349-.483h3.974v-3.074h-7.971V-22h-3.272v1.844h-7.839v3.074h3.93Zm4.567,3.316a18.389,18.389,0,0,0-1.274-3.865h2.855v4.392h-4Zm9.332.527h-4.479v-4.392h2.986a31.427,31.427,0,0,1-1.274,3.711Zm12.384-1.537H-317v-7.158h-12.692Zm3.272,6.565a11.36,11.36,0,0,1-5.687,2.9l1.164,2.2c4.853-1.405,6.565-3.843,7.378-5.094h.988c-.483.944-1.625,3.118-5.753,4.875L-326.465-.9A11.915,11.915,0,0,0-322.8-3.356l.439,2.13h3.316a1.994,1.994,0,0,0,2.108-1.317c.571-1.339.659-5.973.681-7.576h-8.871c.2-.285.307-.439.549-.834h8.827v-2.481h-14.844v2.481h3.052a8.542,8.542,0,0,1-2.942,2.218l-.022-.922a10.692,10.692,0,0,1-1.23.483v-4.919h1.23v-3.14h-1.23v-4.721h-3.118v4.721h-1.757v3.14h1.757V-8.23a19.413,19.413,0,0,1-2.042.505l.351,3.425a47.452,47.452,0,0,0,6.126-2.218V-6.8l.373.571a13.56,13.56,0,0,0,2.5-1.427Zm6.3-11.748v.988h-6.522v-.988Zm0,2.35V-16h-6.522v-1.054ZM-322.271-3.9a13.3,13.3,0,0,0,2.284-3.755h.7c-.154,3.557-.439,3.755-1.186,3.755Zm8.849-16.49c-.154,1.757-.4,4.457-.4,6.719,0,3.667.527,11.2,5.16,11.2,3.4,0,5.116-4.545,5.775-6.478l-2.855-1.669c-.615,1.8-1.581,4.106-2.7,4.106-1.757,0-1.91-4.831-1.91-6.829a40.7,40.7,0,0,1,.637-6.719Zm19.016,15.524c.154-10.035-2.833-13.087-4.809-15.085l-2.811,1.866c1.405,1.186,3.865,4.37,3.865,11.857,0,.681-.022,1.142-.044,1.581Zm6.39-16.534c-.066,1.142-.11,1.757-.2,2.569h-3.272v3.272h2.855a53.045,53.045,0,0,1-3.382,12.472l3.6,1.12a78.638,78.638,0,0,0,3.228-13.592h5.468v-3.272h-5.006c.22-1.559.242-1.735.307-2.328Zm5.577,11.33a5.616,5.616,0,0,0-1.779,4,3.589,3.589,0,0,0,2.108,3.162c1.383.7,3.14.812,6.434.812,1.735,0,2.35-.044,2.92-.066L-272.8-5.6a36.133,36.133,0,0,1-4.611.2c-2.2,0-3.513-.154-3.513-1.317a2.958,2.958,0,0,1,.966-1.8Zm9.354-5.731c-4.853-.066-7.312.439-9.332,1.383l1.032,2.877a15.228,15.228,0,0,1,5.995-.922c.988,0,1.647.044,2.328.066Zm7.07-5.468c-.11,1.208-.132,1.647-.242,2.437h-3.272v3.272h2.833a60,60,0,0,1-3.316,12.582l3.425.988c1.647-4.084,2.7-9.771,3.382-13.57h5.446v-3.272H-262.7c.154-1.317.176-1.493.242-2.328Zm5.533,11.2a6.2,6.2,0,0,0-1.8,3.974c0,2.064,1.8,3.4,3.733,3.733a27.186,27.186,0,0,0,4.567.242c1.823,0,2.635-.044,3.25-.066l-.11-3.4c-.615.044-2.152.2-4.809.2-1.3,0-3.338,0-3.338-1.405a2.883,2.883,0,0,1,.922-1.757Zm7.356-7.949a16.285,16.285,0,0,0-1.339-3.491l-1.932.549a17.109,17.109,0,0,1,1.3,3.6Zm2,2.24a22.4,22.4,0,0,0-9.332,1.361l1.032,2.877a17.4,17.4,0,0,1,6.258-.9c.878,0,1.493.044,2.064.066Zm1.076-2.855a16.769,16.769,0,0,0-1.427-3.316l-1.91.549a18.358,18.358,0,0,1,1.339,3.382Zm10.079-2.591c.066.593.088.769.329,2.284h-7.268v2.964h7.685c.2,1.274.22,1.427.307,1.866H-247.7v2.9h9.178a2.4,2.4,0,0,0,.439-.022,12.529,12.529,0,0,0,2.569,4.282l3.118-1.888a10.52,10.52,0,0,1-1.779-2.525,33.53,33.53,0,0,0,5.292-.725l-.505-2.942a29.919,29.919,0,0,1-5.929.812,12.777,12.777,0,0,1-.439-1.91,28.975,28.975,0,0,0,5.116-.659l-.4-3.008a29.2,29.2,0,0,1-5.16.725c-.088-.7-.132-1.361-.2-2.393Zm-3.689,10.781c-.725.659-2.328,2.086-2.328,4.15,0,.747.4,3.008,3.843,3.887.966.242,2.371.417,6.565.417,2.481,0,3.689-.088,4.457-.154l-.132-3.382a46.279,46.279,0,0,1-5.841.285c-2.942,0-5.314-.11-5.314-1.6,0-.966.922-1.735,1.405-2.152Zm25.142,6.5a45.925,45.925,0,0,0-4.765-5.182l-2.745,1.823A42.956,42.956,0,0,1-221.7-1.862ZM-433.379,31.544a12.633,12.633,0,0,0,2.876-2.306c.4,1.01,1.142,2.24,2.5,2.24,1.471,0,2.284-1.647,2.811-3.1l-1.12-3.162c-.79,1.669-.966,2.086-1.361,2.086-.351,0-.571-.681-.637-.9a20.619,20.619,0,0,0,2.767-7.8l-2.481-.9a24.41,24.41,0,0,1-1.054,4.238c-.132-1.405-.132-1.8-.176-5.16h3.667V13.824h-3.689V10.6h-2.986c0,.505,0,2.767.022,3.228H-438.6v8.542c0,2.92-.242,4.743-1.054,6.39V24.276h-6.17V31.39h2.613v-.812h3.557v-.79l2.108,1.757a12.354,12.354,0,0,0,1.581-6.038l.263,2.547h1.405a1.408,1.408,0,0,0,1.449-1.186,58.676,58.676,0,0,0,.4-8.212h-3.4V16.788h3.645a53.747,53.747,0,0,0,.812,9.266,12.811,12.811,0,0,1-3.865,2.964ZM-435.86,21.29h1.164c.044,3.755-.044,3.974-.549,3.974h-.7c.088-1.6.088-2.437.088-2.723Zm-6.06,5.27v1.713h-1.493V26.559Zm16.491-13.943a9.354,9.354,0,0,0-1.537-2.2l-2.108.988c.242.373,1.361,2.02,1.537,2.393Zm-20.4.856h6.17V11.079h-6.17Zm-.571,3.36h7.18V14.351h-7.18Zm.571,3.25h6.17V17.666h-6.17Zm0,3.272h6.17V20.938h-6.17Zm23.517-11.77a103.141,103.141,0,0,0-.769,11.55,37.678,37.678,0,0,0,.593,7.4l3.645-.263a41.7,41.7,0,0,1-.659-7.927,61.079,61.079,0,0,1,.878-10.518Zm5.841,1.427v3.447h11.286V13.011Zm.769,7.488a7.564,7.564,0,0,0-1.427,4.392c0,4.436,4.765,4.611,8.366,4.611a34.943,34.943,0,0,0,4-.2l-.066-3.557a44.87,44.87,0,0,1-5.16.263c-2.13,0-3.8-.263-3.8-1.757a3.9,3.9,0,0,1,1.01-2.481Zm18.95-7.532h-4.282v3.206h4.26c0,.483,0,1.142.044,2.284-2.328,1.01-5.138,3.316-5.138,6.785,0,1.339.417,4.3,4.3,4.3,4.5,0,8.168-5.248,9.156-8.849a3.189,3.189,0,0,1,2.481,3.1,3.4,3.4,0,0,1-1.866,2.964c-1.23.659-2,.7-4.545.834l.988,3.052c2.108-.132,8.871-.549,8.871-6.631,0-4.326-3.579-6.565-8.651-6.565a19.135,19.135,0,0,0-2.262.132c0-.439,0-.988.022-1.405h9.881V12.967h-9.793l.066-1.713h-3.535Zm3.8,10.694a21.316,21.316,0,0,1-.373-3.294,9.258,9.258,0,0,1,2.064-.132A11.233,11.233,0,0,1-392.954,23.661Zm-2.591,2.437a3.089,3.089,0,0,1-1.581.461,1.478,1.478,0,0,1-1.515-1.6c0-1.8,1.669-2.964,2.152-3.316A19.254,19.254,0,0,0-395.545,26.1Zm19.016-14.953a96.93,96.93,0,0,0-.856,11.55c0,.659.088,1.8.154,2.415l3.579-.176c-.044-.659-.154-2.745-.154-3.162,0-2.086,1.932-5.292,4.765-5.292,2.876,0,2.876,2.569,2.876,4.326,0,5.533-2.723,6.544-10.057,6.675l.944,3.36c5.885-.351,12.823-.747,12.823-9.727,0-1.142-.11-4.084-1.537-5.907a6.023,6.023,0,0,0-4.479-2.02,6.662,6.662,0,0,0-4.984,2.393,35.151,35.151,0,0,1,.79-4.15Zm22.814-.154c-.066,1.032-.176,2.328-.373,3.93h-3.623v3.338l3.14-.044c-1.405,6.851-2.569,9-3.535,10.474l3.25,1.735a43.861,43.861,0,0,0,3.733-12.231l1.757-.022c2.086-.022,2.13,1.076,2.13,2.833,0,1.581-.285,4.589-.9,5.49a1.748,1.748,0,0,1-1.691.747,12.869,12.869,0,0,1-2.569-.307l.132,3.338a16.969,16.969,0,0,0,3.184.307,4.2,4.2,0,0,0,3.711-1.559c1.405-1.866,1.559-6.631,1.559-7.883,0-2.964-.505-6.214-4.875-6.214h-1.888c.264-1.888.373-2.833.483-3.689Zm15.722,13.087c-.263-4.414-1.1-7.07-2.2-8.937l-3.206.988c.439.812,1.559,2.833,1.669,8.322Zm.285-10.145a12.015,12.015,0,0,0-1.449-3.382l-1.91.527a16.582,16.582,0,0,1,1.449,3.425Zm-3.184.461a13.7,13.7,0,0,0-1.383-3.4l-1.932.527a15.441,15.441,0,0,1,1.339,3.535Zm10.716-3.008c0,1.669,0,2.877.11,4.655a3.929,3.929,0,0,0,.944,2.789c-1.691.79-5.533,2.613-5.533,6.456a4.4,4.4,0,0,0,2.481,3.974c1.361.7,3.008,1.274,8.256,1.274,2.92,0,4.963-.154,6.28-.242v-3.6a65.126,65.126,0,0,1-7.268.373c-3.4,0-5.973-.044-5.973-2.13,0-3.074,7.246-4.743,12.56-5.226l-.7-3.6a45.521,45.521,0,0,0-6.895,1.537c-.505-.527-.549-1.164-.549-3.382,0-1.076.022-1.844.066-2.877Zm31.839,1.142a55.922,55.922,0,0,0-10.825-1.471l-.483,3.184A47,47,0,0,1-299,15.888ZM-308.9,30.841a21.214,21.214,0,0,0,7.488-1.3c2.218-.9,4.831-2.525,4.831-7.18,0-5.687-4.348-5.687-5.995-5.687-1.581,0-4.15.285-5.8.461-2.328.263-2.789.307-3.645.373l.593,3.623a78.609,78.609,0,0,1,8.476-1.274c1.317,0,2.657.263,2.657,2.569,0,4.5-4.633,4.984-9.64,5.138Zm33.75-18.664c-2.108,0-12.384.066-14.712,0V15.69c1.032-.088,6.28-.22,6.741-.2a8.5,8.5,0,0,0-2.218,1.186l2.5,1.954a18.616,18.616,0,0,1,7.685-3.1Zm-13.285,7.246a7.646,7.646,0,0,0-2.459,5.2,4.6,4.6,0,0,0,2.306,4c2,1.208,4,1.427,8.629,1.427a39.9,39.9,0,0,0,5.929-.242l-.044-3.6a61.753,61.753,0,0,1-6.763.329c-3.294,0-6.412-.022-6.412-2.24a4.905,4.905,0,0,1,1.559-3.074Zm13.109,1.537a17,17,0,0,0-2.108-3.382l-1.8.966a20.655,20.655,0,0,1,2.02,3.491Zm2.92-1.559a16.637,16.637,0,0,0-2.108-3.25l-1.823.966a21.751,21.751,0,0,1,2.086,3.316Zm10.145-7.883c.176.834.417,1.954.812,3.228h-8.146v3.316h8.542c.154,0,.571,0,.834-.022,1.91,4.3,2.877,5.533,3.6,6.434l3.25-1.515a26.207,26.207,0,0,1-3.206-5.072,21.492,21.492,0,0,0,5.006-.527l-.747-2.679-2.767.461c0-.2-.088-.615-.088-.681-.615.066-1.054.11-2.635.22a15.2,15.2,0,0,1-.769-3.491ZM-252.686,14a16.861,16.861,0,0,0-1.032-3.206l-1.954.329a16.059,16.059,0,0,1,1.01,3.294Zm-10.386,5.753c-3.008.966-5.6,2.767-5.6,5.687a4.3,4.3,0,0,0,2.328,3.821c1.493.834,3.074,1.23,7.312,1.23,1.823,0,3.645-.022,5.446-.176l.044-3.425a54.064,54.064,0,0,1-5.775.307c-4.15,0-5.863-.263-5.863-1.866,0-.747.373-1.757,3.733-2.942Zm13.263-6.038a12.334,12.334,0,0,0-.988-3.25l-1.932.329a16.27,16.27,0,0,1,1.01,3.316Zm2.262-1.515c-.154,1.757-.4,4.457-.4,6.719,0,3.667.527,11.2,5.16,11.2,3.4,0,5.116-4.545,5.775-6.478l-2.855-1.669c-.615,1.8-1.581,4.106-2.7,4.106-1.757,0-1.91-4.831-1.91-6.829a40.7,40.7,0,0,1,.637-6.719Zm19.016,15.524c.154-10.035-2.833-13.087-4.809-15.085l-2.811,1.866c1.405,1.186,3.865,4.37,3.865,11.857,0,.681-.022,1.142-.044,1.581Zm3.074-14.624v3.074h7.839v1.6H-225v3.008h7.378v1.427a4.519,4.519,0,0,0-1.317-.132c-3.557,0-5.973,1.625-5.973,4.282,0,2.459,2.042,4.238,5.775,4.238,2.679,0,4.831-.812,5.028-3.843a23.611,23.611,0,0,1,3.974,3.294l2.218-3.162a24.4,24.4,0,0,0-6.192-3.865v-2.24h6.126V17.776h-6.126v-1.6h6.631V13.1h-6.631V11.321h-3.513V13.1Zm7.839,13.021c0,.549.022,1.449-1.823,1.449-.505,0-2.13-.088-2.13-1.317,0-1.164,1.449-1.427,2.262-1.427a4.591,4.591,0,0,1,1.691.329ZM-201.546,11.3c0,1.537-.066,8.981-.066,10.65,0,4.5.461,8.542,7.049,8.542,2.5,0,7.883-.373,9.552-8.7l-3.338-1.471c-.461,2.877-1.449,6.763-6.236,6.763-2.855,0-3.447-1.449-3.447-4.282,0-.659.154-8.168.307-11.44Zm23.319-.11c-.066,1.142-.11,1.757-.2,2.569H-181.7V17.03h2.855A53.045,53.045,0,0,1-182.223,29.5l3.6,1.12a78.643,78.643,0,0,0,3.228-13.592h5.468V13.758h-5.006c.22-1.559.242-1.735.307-2.328Zm5.577,11.33a5.616,5.616,0,0,0-1.779,4,3.589,3.589,0,0,0,2.108,3.162c1.383.7,3.14.812,6.434.812,1.735,0,2.35-.044,2.92-.066L-163.009,27a36.135,36.135,0,0,1-4.611.2c-2.2,0-3.513-.154-3.513-1.317a2.958,2.958,0,0,1,.966-1.8Zm9.354-5.731c-4.853-.066-7.312.439-9.332,1.383l1.032,2.877a15.228,15.228,0,0,1,5.995-.922c.988,0,1.647.044,2.328.066Zm7.049,6.478a3.636,3.636,0,0,0-3.645,3.645,3.636,3.636,0,0,0,3.645,3.645,3.664,3.664,0,0,0,3.645-3.645A3.636,3.636,0,0,0-156.246,23.266Zm0,1.449a2.184,2.184,0,0,1,2.174,2.2,2.179,2.179,0,0,1-2.174,2.174,2.2,2.2,0,0,1-2.2-2.174A2.188,2.188,0,0,1-156.246,24.715Z" transform="translate(487.4 355.654)" fill="#004690"/><path d="M43.375-152.862h7.463V-137.9a11.763,11.763,0,0,1,1.947-1.633,12.807,12.807,0,0,1,7.13-1.891c5.1,0,8.626,1.848,10.482,5.494a17.9,17.9,0,0,1,1.475,7.951v21.852H64.258v-21.488a10.661,10.661,0,0,0-.785-4.766c-.809-1.451-2.349-2.156-4.71-2.156a8.262,8.262,0,0,0-5.516,2.1c-1.6,1.352-2.408,4.067-2.408,8.069v18.24H43.375Zm5.463,2H45.375v42.739h3.463v-16.24a19.57,19.57,0,0,1,.736-5.754,8.048,8.048,0,0,1,2.38-3.842,10.318,10.318,0,0,1,6.807-2.574c3.109,0,5.282,1.071,6.458,3.184l0,.008a12.24,12.24,0,0,1,1.033,5.73v19.488h3.615v-19.852a16.01,16.01,0,0,0-1.258-7.046c-1.507-2.959-4.353-4.4-8.7-4.4a10.856,10.856,0,0,0-6.038,1.567l0,0a14.922,14.922,0,0,0-3.249,3.241l-1.785,2.259ZM2.4-152.711H40.58v7.312H25.555v39.276H17.424V-145.4H2.4Zm36.18,2H4.4v3.312H19.424v39.276h4.131V-147.4H38.58Zm108.388-2h7.251v24.5l12.613-12.422h9.843l-13.614,13.315,13.7,21.192h-9.375l-9.8-15.838-3.367,3.077v12.761h-7.251Zm5.251,2h-3.251v42.587h3.251v-11.642l5.8-5.3L168.5-108.123h4.587L160.494-127.6l11.275-11.028h-4.119l-15.432,15.2Zm38.581-2h9.425l12.241,20.48,12.241-20.48h9.456L216.5-124.8v18.679h-8.04V-124.8Zm8.291,2h-4.658l16.029,25.329v17.258h4.04v-17.258l16.029-25.329h-4.688l-13.376,22.378Zm103.341-2h8.161v15.7l0,.038-1.558,20.227h-4.943l-1.657-20.263Zm6.161,2h-4.161v13.619l1.5,18.345h1.248l1.413-18.342Zm-64.379,9.139a15.752,15.752,0,0,1,11.318,4.469,14.17,14.17,0,0,1,3.5,5.562,22.582,22.582,0,0,1,1.142,7.48c0,5.436-1.353,10.008-4.023,13.589-2.737,3.671-7,5.532-12.669,5.532a14.414,14.414,0,0,1-11.408-4.881c-2.781-3.2-4.191-7.519-4.191-12.843a25.305,25.305,0,0,1,1.087-7.664,17.267,17.267,0,0,1,3.312-6.038A14.973,14.973,0,0,1,244.214-141.571Zm-.728,34.632a16.612,16.612,0,0,0,6.592-1.2,10.9,10.9,0,0,0,4.474-3.527,17.343,17.343,0,0,0,2.711-5.5,24.479,24.479,0,0,0,.915-6.9,20.607,20.607,0,0,0-1.028-6.816,12.19,12.19,0,0,0-3.007-4.788,13.724,13.724,0,0,0-4.5-2.931,14.746,14.746,0,0,0-5.43-.977,14.727,14.727,0,0,0-5.9,1.131,12.461,12.461,0,0,0-4.511,3.376,15.28,15.28,0,0,0-2.925,5.344,23.32,23.32,0,0,0-.992,7.057,21.368,21.368,0,0,0,.938,6.563,14.148,14.148,0,0,0,2.763,4.967,11.73,11.73,0,0,0,4.274,3.139A14.3,14.3,0,0,0,243.486-106.939ZM91.694-141.42a18.742,18.742,0,0,1,9.839,2.332,8.388,8.388,0,0,1,4.03,7.653v18.727a1.537,1.537,0,0,0,.163.784,1.465,1.465,0,0,0,.658.1c.208,0,.451-.014.72-.041s.579-.07.9-.126l1.174-.207v5.983l-.725.207a15.968,15.968,0,0,1-2.082.485,14.994,14.994,0,0,1-1.956.1,5.453,5.453,0,0,1-4.941-2.466l0,0a6.378,6.378,0,0,1-.655-1.444,16.794,16.794,0,0,1-3.777,2.591,15.891,15.891,0,0,1-7.347,1.72,11.256,11.256,0,0,1-8.082-3.025,10.129,10.129,0,0,1-3.177-7.6,9.848,9.848,0,0,1,3.161-7.761,14.466,14.466,0,0,1,7.942-3.308l8.711-1.093c1.2-.155,1.568-.654,1.741-1.017l.008-.017a3.8,3.8,0,0,0,.259-1.647,3.475,3.475,0,0,0-1.523-3.207,9.782,9.782,0,0,0-5.156-1.1c-2.515,0-4.292.646-5.281,1.92l0,0a6.691,6.691,0,0,0-1.1,3.3l-.106.88H78.073l.026-1.025c.11-4.344,1.579-7.434,4.368-9.184A17.069,17.069,0,0,1,91.694-141.42Zm14.69,31.593a2.587,2.587,0,0,1-2.3-.956,3.378,3.378,0,0,1-.521-1.926v-18.727a6.424,6.424,0,0,0-3.075-5.947,16.81,16.81,0,0,0-8.794-2.037,15.1,15.1,0,0,0-8.164,2.2,6.469,6.469,0,0,0-2.475,2.842,10.91,10.91,0,0,0-.9,3.673h3.182a7.634,7.634,0,0,1,1.377-3.408c1.388-1.787,3.7-2.693,6.86-2.693a11.5,11.5,0,0,1,6.226,1.415,5.4,5.4,0,0,1,2.453,4.9,5.706,5.706,0,0,1-.465,2.532,3.92,3.92,0,0,1-3.29,2.132l-8.715,1.093a12.517,12.517,0,0,0-6.869,2.823,7.839,7.839,0,0,0-2.484,6.261,8.094,8.094,0,0,0,2.56,6.153,9.2,9.2,0,0,0,6.7,2.469,13.912,13.912,0,0,0,6.432-1.5,12.985,12.985,0,0,0,4.459-3.512l1.452-1.9.333,2.368a6.834,6.834,0,0,0,.8,2.609,3.531,3.531,0,0,0,3.253,1.538,13.327,13.327,0,0,0,1.686-.082,10.116,10.116,0,0,0,1.078-.228v-2.129C106.89-109.839,106.624-109.826,106.385-109.826Zm22.946-31.533c5,0,8.447,1.809,10.242,5.377a17.9,17.9,0,0,1,1.442,8.007v21.852h-7.554v-21.488a10.19,10.19,0,0,0-.781-4.361,4.055,4.055,0,0,0-1.647-1.845,5.448,5.448,0,0,0-2.734-.626,9.845,9.845,0,0,0-2.885.348l-.017.005a7.167,7.167,0,0,0-3.468,2.359,7.1,7.1,0,0,0-1.565,2.909,21.565,21.565,0,0,0-.382,4.669v18.028h-7.463V-140.63h7.19v3.052a13.762,13.762,0,0,1,3.452-2.437A14.081,14.081,0,0,1,129.331-141.359Zm9.684,33.236v-19.852a16.29,16.29,0,0,0-1.228-7.106c-1.448-2.879-4.214-4.277-8.456-4.277a12.1,12.1,0,0,0-5.3,1.145,13.646,13.646,0,0,0-4.544,3.826l-1.778,2.2v-6.441h-3.19v30.507h3.463v-16.028a23.069,23.069,0,0,1,.437-5.134,9.062,9.062,0,0,1,1.986-3.738,9.227,9.227,0,0,1,4.415-2.98,11.629,11.629,0,0,1,3.48-.439,7.4,7.4,0,0,1,3.731.892,6.068,6.068,0,0,1,2.452,2.711,12.109,12.109,0,0,1,.979,5.228v19.488ZM264.552-140.63h7.585v22.58a8.179,8.179,0,0,0,.684,3.62c.794,1.589,2.279,2.361,4.539,2.361,3.386,0,5.625-1.464,6.843-4.474l0-.005a19.387,19.387,0,0,0,1.048-7.117V-140.63h7.463v34.507h-7.173l.035-2.774a11.572,11.572,0,0,1-.974.883,12.642,12.642,0,0,1-8.216,2.772c-5.007,0-8.489-1.738-10.349-5.167a14.854,14.854,0,0,1-1.487-7.124Zm5.585,2h-3.585v21.1a12.94,12.94,0,0,0,1.243,6.166,7.044,7.044,0,0,0,3.191,3.066,12.287,12.287,0,0,0,5.4,1.059,10.557,10.557,0,0,0,6.956-2.325,10.081,10.081,0,0,0,2.405-2.849l1.916-3.339-.1,7.633h3.147V-138.63h-3.463v14.965a21.288,21.288,0,0,1-1.2,7.872h0a9,9,0,0,1-3.353,4.285,9.572,9.572,0,0,1-5.344,1.439,8.019,8.019,0,0,1-3.819-.847,5.884,5.884,0,0,1-2.509-2.619,10.111,10.111,0,0,1-.895-4.514Zm-26.074,1.824c4.151,0,7.126,1.694,8.842,5.035a17.337,17.337,0,0,1,1.567,7.863,21.573,21.573,0,0,1-2.121,9.592,7.876,7.876,0,0,1-3.287,3.519A10.386,10.386,0,0,1,244-109.644c-3.641,0-6.352-1.316-8.059-3.911a16.464,16.464,0,0,1-2.441-9.2,18.787,18.787,0,0,1,2.417-9.739C237.622-135.355,240.362-136.806,244.062-136.806ZM244-111.644c3.237,0,5.38-1.162,6.554-3.553a19.593,19.593,0,0,0,1.916-8.711,15.406,15.406,0,0,0-1.348-6.951c-1.363-2.655-3.674-3.947-7.062-3.947-2.987,0-5.089,1.091-6.425,3.336a16.829,16.829,0,0,0-2.136,8.716,14.517,14.517,0,0,0,2.112,8.1C238.946-112.629,241.035-111.644,244-111.644ZM100.1-125.487v6.223a9,9,0,0,1-1.291,4.864,9.072,9.072,0,0,1-3.82,3.287,13.506,13.506,0,0,1-6.026,1.438,7.419,7.419,0,0,1-4.717-1.581,5.474,5.474,0,0,1-2.11-4.518,6.5,6.5,0,0,1,.755-3.185,5.8,5.8,0,0,1,2.272-2.238,13.452,13.452,0,0,1,4.823-1.366l3.321-.426a21.076,21.076,0,0,0,2.955-.58,8.414,8.414,0,0,0,2.3-.94ZM88.963-111.674a11.525,11.525,0,0,0,5.142-1.232l.006,0a6.535,6.535,0,0,0,3.99-6.355v-2.8a13.317,13.317,0,0,1-1.32.426,23.087,23.087,0,0,1-3.234.634l-3.3.424a11.79,11.79,0,0,0-4.093,1.121,3.838,3.838,0,0,0-2.015,3.685,3.519,3.519,0,0,0,1.35,2.948A5.4,5.4,0,0,0,88.963-111.674Zm213.468-2.762h8.04v8.313h-8.04Zm6.04,2h-4.04v4.313h4.04Z" transform="translate(31.1 351.007)" fill="#004690"/></g></svg>