<svg xmlns="http://www.w3.org/2000/svg" width="213" height="213" viewBox="0 0 213 213"><g transform="translate(-1395 -1001)"><circle cx="106.5" cy="106.5" r="106.5" transform="translate(1395 1001)" fill="#de0d20"/><path d="M99.5,2A98.23,98.23,0,0,0,79.848,3.981,96.955,96.955,0,0,0,44.988,18.65a97.79,97.79,0,0,0-35.327,42.9,96.994,96.994,0,0,0-5.68,18.3,98.47,98.47,0,0,0,0,39.3,96.955,96.955,0,0,0,14.669,34.86,97.79,97.79,0,0,0,42.9,35.327,96.994,96.994,0,0,0,18.3,5.68,98.47,98.47,0,0,0,39.3,0,96.955,96.955,0,0,0,34.86-14.669,97.79,97.79,0,0,0,35.327-42.9,96.994,96.994,0,0,0,5.68-18.3,98.47,98.47,0,0,0,0-39.3,96.955,96.955,0,0,0-14.669-34.86,97.79,97.79,0,0,0-42.9-35.327,96.994,96.994,0,0,0-18.3-5.68A98.23,98.23,0,0,0,99.5,2m0-2A99.5,99.5,0,1,1,0,99.5,99.5,99.5,0,0,1,99.5,0Z" transform="translate(1402 1008)" fill="#df0"/><g transform="translate(0 7)"><path d="M-30.343,0h13.87V-4.6h-7.068V-30.78h-6.8Zm16.872,0h6.8V-30.78h-6.8Zm15.5,0H9.215l5.624-30.78H8.683L5.605-9.88,2.3-30.78H-3.515ZM17.917,0H31.825V-4.6H24.719v-9.2h5.358v-4.712H24.719v-7.638h7.03V-30.78H17.917Z" transform="translate(1500.343 1062)" fill="#ffec00"/><path d="M-43.825-10.9a20,20,0,0,1,2.15-.1h8.35a18.991,18.991,0,0,1,2.25.1v-1.95A26.657,26.657,0,0,0-26.8-10.575a11.133,11.133,0,0,1,1.375-2.8A26.426,26.426,0,0,1-31.85-16.75a15.183,15.183,0,0,1-4.225-4.15H-39.05A16.462,16.462,0,0,1-43-16.7a23.329,23.329,0,0,1-6.275,3.475,11.611,11.611,0,0,1,1.45,2.55,23.523,23.523,0,0,0,4-2.15Zm2.175-2.7c-.45,0-.6,0-1.025-.025a21.343,21.343,0,0,0,5.2-4.85,20.365,20.365,0,0,0,5.225,4.85c-.475.025-.7.025-1.1.025Zm.25,7.225a25.886,25.886,0,0,1-2.675,5c-1.275.075-2.025.1-2.2.1-.35,0-.775-.025-1.45-.075l.4,3.05A29.728,29.728,0,0,1-44.1,1.35c1-.075,5.95-.525,8.425-.75.925-.1,2.425-.275,4.5-.55.425.6.675.95,1.5,2.175l2.4-1.575A51.162,51.162,0,0,0-33.05-6.025l-2.475,1.1c1.4,1.45,1.825,1.9,2.625,2.775-3.5.375-3.5.375-7.925.625a27.177,27.177,0,0,0,2.6-4.85h8.6a23.26,23.26,0,0,1,2.925.15v-2.9a23.539,23.539,0,0,1-2.925.15H-45.2a24.555,24.555,0,0,1-2.95-.15v2.9a23.42,23.42,0,0,1,2.95-.15Zm29.475.725a12.98,12.98,0,0,1-5.8,3.575,6.181,6.181,0,0,1,1.6,1.9A15.054,15.054,0,0,0-9.2-5.65h1.5a11.159,11.159,0,0,1-2.6,3.325,15.274,15.274,0,0,1-4.55,2.7,6.813,6.813,0,0,1,1.8,1.9A17.98,17.98,0,0,0-8.925-.475a6.034,6.034,0,0,1,.675,2.3c.975.05,1.425.075,2.1.075,2.2,0,3-.325,3.5-1.475a21.733,21.733,0,0,0,1.025-6.8,14.529,14.529,0,0,1,.1-1.475c-.725.05-1.2.075-2.425.075H-11.9A8.942,8.942,0,0,0-11.225-8.8h7.65A24.461,24.461,0,0,1-1-8.7v-2.5a16.576,16.576,0,0,1-2.6.15H-14.525a13.9,13.9,0,0,1-2.35-.125v2.5A17.888,17.888,0,0,1-14.55-8.8H-14a9.873,9.873,0,0,1-2.975,2.525V-8c-.8.45-1,.575-1.675.925V-12.45h.475a12.941,12.941,0,0,1,1.75.1v-2.625a10.729,10.729,0,0,1-1.775.1h-.45V-17.95a16.842,16.842,0,0,1,.15-2.8h-2.9a19.714,19.714,0,0,1,.15,2.775v3.1h-.7A11.219,11.219,0,0,1-23.925-15v2.675a12.179,12.179,0,0,1,1.95-.125h.725v6.625a18.036,18.036,0,0,1-2.825,1L-23.45-1.9a1.131,1.131,0,0,1,.25-.125,2.941,2.941,0,0,0,.325-.2A47.079,47.079,0,0,0-17.9-4.85a5.757,5.757,0,0,1,.95,1.325A14.39,14.39,0,0,0-13.875-5.65Zm7.725,0a30.414,30.414,0,0,1-.425,3.775C-4.85-.8-5.125-.55-6.05-.55a17.483,17.483,0,0,1-2.575-.2,13.97,13.97,0,0,0,3.5-4.9ZM-5.225-12.1c1,0,1.75.025,2.275.075a19.363,19.363,0,0,1-.1-2.4v-3.45a20.233,20.233,0,0,1,.1-2.475,18.833,18.833,0,0,1-2.675.125H-12.9a17.584,17.584,0,0,1-2.525-.125,19.45,19.45,0,0,1,.1,2.275v3.65a22.32,22.32,0,0,1-.1,2.425,18.07,18.07,0,0,1,2.3-.1Zm-7.525-5.925h7.075v1.05H-12.75Zm0,2.875h7.075v1.025H-12.75ZM20.125-1.725c0,.725-.125.8-1.35.8a23.379,23.379,0,0,1-3.25-.275A9.313,9.313,0,0,1,16.3,1.65c1,.05,1.75.075,2.425.075,2.35,0,3.25-.2,3.8-.9.3-.375.375-.75.375-1.8V-15.3a21.454,21.454,0,0,1,.1-2.425,21.682,21.682,0,0,1-2.85.125H13.775c.025-.4.025-.4.05-.925.05-1.025.05-1.025.075-1.375a5.9,5.9,0,0,1,.15-1.25H10.925a12.962,12.962,0,0,1,.15,2.2c0,.425,0,.775-.025,1.35H4.925a23.75,23.75,0,0,1-2.9-.125,22.028,22.028,0,0,1,.1,2.425V-1.05A20.982,20.982,0,0,1,1.95,1.975H5.025A20.618,20.618,0,0,1,4.9-1V-5.85a9.364,9.364,0,0,1,1.6,2.1,14.336,14.336,0,0,0,4.75-4.425,11.124,11.124,0,0,0,1.2-2.375A18.59,18.59,0,0,0,18.475-4.2a9.538,9.538,0,0,1,1.65-2.35Zm0-13.375v8.275A16.879,16.879,0,0,1,16.2-9.75a14.68,14.68,0,0,1-2.825-4.15c.075-.45.1-.575.175-1.2ZM4.9-15.1h5.925A12.746,12.746,0,0,1,9.05-9.9,11.363,11.363,0,0,1,4.9-6.15Zm34.55-.925a5.464,5.464,0,0,1,2.525.75,6.194,6.194,0,0,1,3.075,5.55,7,7,0,0,1-3.475,6.25A13.286,13.286,0,0,1,36.6-2.1,7.975,7.975,0,0,1,38.125.825,16.344,16.344,0,0,0,42.05-.225,9.631,9.631,0,0,0,48.125-9.55c0-5.625-3.9-9.275-9.9-9.275a11.222,11.222,0,0,0-8.6,3.5,10.739,10.739,0,0,0-2.75,7.275c0,4.025,2.05,6.925,4.9,6.925,2.05,0,3.65-1.475,5.075-4.7A36.167,36.167,0,0,0,39.45-16.025ZM36.4-16a32.948,32.948,0,0,1-2.075,8.45c-.9,2.15-1.75,3.2-2.575,3.2-1.1,0-1.975-1.625-1.975-3.675a8.37,8.37,0,0,1,3.4-6.75A6.364,6.364,0,0,1,36.4-16ZM-54.075,27.8a14.143,14.143,0,0,1-2.225.225l.675,2.85c.5-.15.725-.2,2.275-.55a47.671,47.671,0,0,0,5.65-1.45v-2.55c-1.625.475-2.6.75-3.8,1V23.75h1.95a12.566,12.566,0,0,1,1.725.1V21.2a7.533,7.533,0,0,1-1.75.125H-51.5v-.2A11.815,11.815,0,0,1-51.35,19h-2.875a12.2,12.2,0,0,1,.15,2.125Zm9.775-3.1a27.57,27.57,0,0,0,4.375-1.925c1.075-.6,1.1-.6,1.4-.75l-1.4-2.3A14.592,14.592,0,0,1-44.3,22.2V21.1a10.555,10.555,0,0,1,.15-2.15h-2.875a10.582,10.582,0,0,1,.15,2.125V28.4c0,1.625.825,2.125,3.6,2.125,2.375,0,3.3-.175,3.9-.775.65-.625.875-1.675.975-4.25a9.133,9.133,0,0,1-2.5-.825c.025.35.025.6.025.775a4.805,4.805,0,0,1-.325,2.2c-.225.3-.65.4-1.675.4-1.15,0-1.425-.1-1.425-.575ZM-60.675,10A23.592,23.592,0,0,1-56.4,13.45l1.7-2.15A29.011,29.011,0,0,0-59,7.95Zm-.925,6.25a21.68,21.68,0,0,1,4.425,3.35l1.575-2.275A37.7,37.7,0,0,0-60.1,14.1Zm3.75,4.95a27.293,27.293,0,0,1-2.35,5.75,9.322,9.322,0,0,1-1.3,1.875L-59,30.9l.275-.55c.45-.825.525-.975.775-1.5a40.665,40.665,0,0,0,2.425-6.05Zm15.425-2.975c1.2,0,1.65,0,2.3.05a20.691,20.691,0,0,1-.1-2.25V10.95a20.194,20.194,0,0,1,.1-2.3,21.336,21.336,0,0,1-2.575.1h-8.725a21.391,21.391,0,0,1-2.55-.1c.05.625.075,1.3.075,2.2v5.125c0,.975-.025,1.675-.075,2.325.6-.05,1.4-.075,2.325-.075Zm-8.9-7.15H-42.9v1.45h-8.425Zm0,3.475H-42.9v1.475h-8.425ZM-32.2,17.575a10.193,10.193,0,0,1,.125,1.675v.6H-34a10.323,10.323,0,0,1-2.275-.15v2.7a13.324,13.324,0,0,1,2.225-.125h1.425A12.061,12.061,0,0,1-36.85,26.95a3.66,3.66,0,0,1,.775,1.15,12.6,12.6,0,0,1,.6,1.325A11.815,11.815,0,0,0-32,25.125c-.05.725-.075,1.2-.075,1.875v1.875A15.105,15.105,0,0,1-32.2,31.05h2.725a13.058,13.058,0,0,1-.125-2.3v-2a16.125,16.125,0,0,0-.1-1.9,13.349,13.349,0,0,0,3.075,3.3,11.865,11.865,0,0,1,1.35-2.3,11.208,11.208,0,0,1-3.875-3.575h1.2a14.072,14.072,0,0,1,2.225.125V19.7A10.187,10.187,0,0,1-28,19.85h-1.6v-.575c0-.625,0-.8.025-1.175a2.737,2.737,0,0,0,1.7.35,2.036,2.036,0,0,0,1.75-.625c.325-.425.425-.825.5-2.225.45.375.55.45.825.7V28.425a18.574,18.574,0,0,1-.15,2.625h2.75v-1.2h6.325a22.208,22.208,0,0,1,2.525.125V27.3a15.247,15.247,0,0,1-2.475.125h-1.4v-2.95h1a14.135,14.135,0,0,1,2.05.1V22.05a10.471,10.471,0,0,1-2.05.125h-1V19.45h1.05a14.135,14.135,0,0,1,2.05.1V17.025a10.629,10.629,0,0,1-2.05.125h-1.05V14.475h.95a16.156,16.156,0,0,1,2.525.125V11.925a21.562,21.562,0,0,1-2.525.125h-.875A26.923,26.923,0,0,0-15.525,8.5l-2.65-.625a18,18,0,0,1-1.6,4.175H-22.05c.275-.675.85-2.1,1.075-2.675.15-.4.25-.7.375-.975l-2.625-.75a18,18,0,0,1-2.925,6.8c-.35-.15-.375-.15-1.075-.5,0,2.15,0,2.175-.3,2.175-.225,0-.3-.075-.3-.275V12.075a16.833,16.833,0,0,1,.075-1.725,14.54,14.54,0,0,1-1.975.1H-30.85c.025-.425.05-.675.075-1.075a6.037,6.037,0,0,1,.125-1.4h-2.6a12.292,12.292,0,0,1,.1,1.4c0,.325-.025.525-.05,1.075h-1.175a9.41,9.41,0,0,1-1.875-.125V12.95a14.245,14.245,0,0,1,1.85-.1h.8a7.22,7.22,0,0,1-3.2,4.575,9.129,9.129,0,0,1,1.6,2.1,10.914,10.914,0,0,0,4-6.675h1.25v4.2a1.961,1.961,0,0,0,.05.525Zm10-.425V14.475h2.425V17.15Zm0,2.3h2.425v2.725H-22.2Zm0,5.025h2.425v2.95H-22.2Zm31.05-7.4a19.587,19.587,0,0,1,2.625.15V14.45a18.718,18.718,0,0,1-2.65.15H4.675l.025-.625c.05-1.4.075-2.05.075-3.025,0-.8,0-.8.025-1.35.05-.825.1-1.325.125-1.475H1.9a11.815,11.815,0,0,1,.15,2.125c0,.375-.025,1.825-.1,4.35H-.95a19.36,19.36,0,0,1-2.675-.15v2.775a20.4,20.4,0,0,1,2.675-.15H1.8A20.241,20.241,0,0,1,.175,23.2,13,13,0,0,1-4.25,28.5a7.365,7.365,0,0,1,1.825,2.4,14.87,14.87,0,0,0,4.3-5.2A19.957,19.957,0,0,0,3.65,21.075a18.759,18.759,0,0,0,1.85,4.7A14.953,14.953,0,0,0,9.95,31a9.044,9.044,0,0,1,1.825-2.6A23.056,23.056,0,0,1,9.7,26.7a14.148,14.148,0,0,1-2.65-3.675,24.5,24.5,0,0,1-2.025-5.95Zm-15.975,2.75a21.59,21.59,0,0,1-4.725,2.55l1.175,2.875c.175-.125.425-.3.625-.45.925-.55,2.05-1.3,2.925-1.925v5.4a21.789,21.789,0,0,1-.15,2.775H-4.3a17.088,17.088,0,0,1-.125-2.45V10.5A17.088,17.088,0,0,1-4.3,8.05H-7.275a14.289,14.289,0,0,1,.15,2.45ZM-11.55,12.3a21.375,21.375,0,0,1,1.9,5.475l2.35-1.15a25.447,25.447,0,0,0-1.975-5.4Zm22.1.525A22.174,22.174,0,0,0,7.475,8.55l-2,1.35A16.719,16.719,0,0,1,8.4,14.225Zm13.475,6.25c-.125,2.85-.4,4.25-1.15,5.6a9.509,9.509,0,0,1-4.925,3.95,9.637,9.637,0,0,1,1.8,2.35,11.079,11.079,0,0,0,5.65-5.35,15.827,15.827,0,0,0,1.275-6.55H28.6V28.6c0,1.65.7,2.05,3.65,2.05,3.85,0,4.25-.525,4.4-6.05a7.1,7.1,0,0,1-2.5-1.025c-.05,2.625-.125,3.725-.325,4.125-.15.3-.525.425-1.25.425-1.15,0-1.325-.1-1.325-.625V19.075h1.575c.7,0,1.325.025,2.175.1a14.181,14.181,0,0,1-.1-2.15v-5.8A15.375,15.375,0,0,1,35,9a17.432,17.432,0,0,1-2.375.1H23.7A17.786,17.786,0,0,1,21.25,9c.075,1.05.1,1.375.1,2.15v5.775c0,.775-.025,1.425-.075,1.925a1.793,1.793,0,0,1-.025.325,20.244,20.244,0,0,1,2.025-.1Zm.025-7.325h8.1v4.8h-8.1ZM14.425,9.975A23,23,0,0,1,18.8,13.55l1.7-2.175A28.088,28.088,0,0,0,16.125,8.05Zm-1,6.225a22.513,22.513,0,0,1,4.45,3.4l1.675-2.2a30.566,30.566,0,0,0-4.575-3.225Zm3.95,4.95c-1.3,3.8-2.325,5.8-3.875,7.6l2.375,2.1c.2-.4.2-.4.4-.75.875-1.575.875-1.575,1.075-1.975A32.875,32.875,0,0,0,19.6,22.75ZM40.25,13.875a2.762,2.762,0,0,1,.4-.025c.225,0,.225,0,.7.025.55,0,2.75.05,3.15.05,0,0,.325-.025.425-.025a1.223,1.223,0,0,0-.2.325,33.112,33.112,0,0,1-3,4.275,15.315,15.315,0,0,1-2.25,2.225l2.275,2.25A11.241,11.241,0,0,1,43.925,20.7C45.85,19,47.6,18.125,49.05,18.125a1.372,1.372,0,0,1,1.525,1.35C47.75,20.65,46.325,21.6,45.2,23a3.984,3.984,0,0,0-1.1,2.775A3.625,3.625,0,0,0,45.925,29c1.275.75,2.925,1.05,5.575,1.05a45.344,45.344,0,0,0,6.4-.45,7.366,7.366,0,0,1,1.15-.1l-.25-3.225a21.721,21.721,0,0,1-7.35,1.05c-3.025,0-4.225-.525-4.225-1.825a2.632,2.632,0,0,1,1.3-2.05,15.194,15.194,0,0,1,2.4-1.3v.6a19.792,19.792,0,0,1-.15,2.9l2.9-.075A10.264,10.264,0,0,1,53.6,24.25c0-.175,0-.4.025-.825v-1c0-.35,0-.35-.025-1V21.15q3.225-1.125,3.75-1.275a22.067,22.067,0,0,1,2.775-.675L58.95,16.325a7.81,7.81,0,0,1-1.85.75q-.937.3-3.825,1.35a3.289,3.289,0,0,0-3.575-2.65A6.043,6.043,0,0,0,46.175,16.9c-.325.25-.325.25-.5.375l-.025-.05a12.937,12.937,0,0,0,2.3-3.325c2.525-.075,5.7-.275,7.525-.5,1.275-.15,1.275-.15,1.975-.2l-.175-2.85a33.773,33.773,0,0,1-6.55.85c-1.375.075-1.375.075-1.575.1.05-.1.1-.175.225-.45a19.1,19.1,0,0,1,1-2.25L47.1,8.25a9.9,9.9,0,0,1-1,3.1,30.21,30.21,0,0,1-5.8-.325ZM-16,49.125a10.357,10.357,0,0,1,.925,1.625,8.792,8.792,0,0,0,1.125-1.375c0,.175-.025.75-.05,1.725v6.25a20.617,20.617,0,0,1-.15,2.8h2.65V59.025h7.8a19.034,19.034,0,0,1,2.4.15V56.65a14.266,14.266,0,0,1-2.35.125H-6.1V54.95h1.875a16.947,16.947,0,0,1,2.075.1V52.8a14.261,14.261,0,0,1-2.1.1H-6.1V51.075h1.875a17.481,17.481,0,0,1,2.075.1v-2.25a14.044,14.044,0,0,1-2.1.1H-6.1v-1.8h2.325a17.278,17.278,0,0,1,2,.1v-2.4a14.306,14.306,0,0,1-2.075.1h-1.8a14.446,14.446,0,0,0,.95-2.2L-7.15,42.3a12.886,12.886,0,0,1-1.025,2.725h-2.4a22.827,22.827,0,0,0,1.75-3.5h4.95V43.95H-1.25a15.119,15.119,0,0,1-.075-1.625v-1.45a16.526,16.526,0,0,1,.075-1.85,13.926,13.926,0,0,1-2.2.125H-8c.375-1.225.6-1.925.65-2.1l-2.825-.35c-.15.85-.25,1.4-.525,2.45h-2.95a11.016,11.016,0,0,1-1.825-.075,8.2,8.2,0,0,1,.075,1.25V42.45a11.347,11.347,0,0,1-.1,1.625h2.475v-2.55h1.5A17.108,17.108,0,0,1-16,48.1v-.55c0-.75.025-1.325.075-1.85a13.5,13.5,0,0,1-1.525.075H-19.9a28.284,28.284,0,0,0,1.5-5.5h.975a9.75,9.75,0,0,1,1.475.1V37.7a16.387,16.387,0,0,1-2.4.15h-2.925a16.629,16.629,0,0,1-2.4-.15v2.7a13.5,13.5,0,0,1,2.125-.125H-21a17.928,17.928,0,0,1-.8,3.575,14.937,14.937,0,0,1-2.775,5.25,10.551,10.551,0,0,1,.95,3.1,7.611,7.611,0,0,0,1.35-2.275c-.05.675-.075,1.425-.075,1.925V57a19.052,19.052,0,0,1-.15,2.575H-20v-2.35h1.775v1.1h2.3A16.859,16.859,0,0,1-16,56.4Zm4.475-.1v-1.8H-8.5v1.8Zm0,2.05H-8.5V52.9h-3.025Zm0,3.875H-8.5v1.825h-3.025ZM-20,48.175h1.775V54.8H-20Zm30.35-4.95c1.425.5,1.9.7,2.95,1.15a8.938,8.938,0,0,1-4.2,3.45,8.326,8.326,0,0,1,1.75,2,12.282,12.282,0,0,0,4.6-4.35,13.131,13.131,0,0,1,1.4.85l-.15-.05a9.4,9.4,0,0,1,.625,2.5,17.128,17.128,0,0,0,1.975.1c2.05,0,2.75-.525,3.2-2.5a40.714,40.714,0,0,0,.675-6.25c.1-1.75.1-1.775.15-2.175a19.489,19.489,0,0,1-2.35.1h-7.95A21.224,21.224,0,0,1,10.3,37.9v2.65a18.407,18.407,0,0,1,2.675-.125h1.65a9.076,9.076,0,0,1-.4,2.025c-.95-.375-1.45-.575-2.85-1.025Zm10.2-2.8a25.418,25.418,0,0,1-.5,5.025c-.225.875-.475,1.075-1.25,1.075a8.906,8.906,0,0,1-1.375-.1l1.1-1.85c-1.05-.575-1.375-.75-2.1-1.125a13.17,13.17,0,0,0,.7-3.025ZM9.15,57.25l2.025,1.2A22.939,22.939,0,0,0,12.85,51.6l-2.15-.475A13.529,13.529,0,0,1,9.15,56.9V53.775a14.094,14.094,0,0,1,.075-1.8,12.521,12.521,0,0,1-1.7.075H3.875a13.689,13.689,0,0,1-1.95-.1,16.844,16.844,0,0,1,.1,1.975v3.7c0,.8-.05,1.625-.125,2.45H4.4V58.85H6.875v.875H9.25a11.846,11.846,0,0,1-.1-1.925Zm-4.825-3.1h2.55v2.5H4.325ZM1.9,40.2a15.593,15.593,0,0,1,2.025-.1H7.25a16.1,16.1,0,0,1,2.025.1V37.7a11.315,11.315,0,0,1-2.025.125H3.925A11.146,11.146,0,0,1,1.9,37.7Zm-.825,3.625a15.676,15.676,0,0,1,2-.1h4.9a18.223,18.223,0,0,1,1.9.075V41.25a12.736,12.736,0,0,1-2,.1h-4.8a10.683,10.683,0,0,1-2-.125Zm.9,3.45A12.386,12.386,0,0,1,3.55,47.2H7.675a13.5,13.5,0,0,1,1.525.075V44.95a10.516,10.516,0,0,1-1.525.075H3.55a12.661,12.661,0,0,1-1.575-.075Zm0,3.5a13.355,13.355,0,0,1,1.55-.075h4.1a12.66,12.66,0,0,1,1.575.075V48.45a10.689,10.689,0,0,1-1.55.075H3.55a12.661,12.661,0,0,1-1.575-.075ZM15.725,52.4a7.136,7.136,0,0,1,.125-1.6H13.175a15.68,15.68,0,0,1,.125,1.85V57.8c0,1.55.625,1.85,3.7,1.85,3.6,0,4.05-.475,4.325-4.775A8.775,8.775,0,0,1,19,54.1a9.913,9.913,0,0,1-.275,2.725c-.175.375-.5.45-1.925.45-.95,0-1.075-.075-1.075-.65ZM20,51.975a19.129,19.129,0,0,1,2.65,6.05l2.125-1.3a30.035,30.035,0,0,0-2.75-5.825ZM14.175,49.15a15.2,15.2,0,0,1,3.775,3.7l1.875-1.625A21.243,21.243,0,0,0,15.95,47.75Z" transform="translate(1502.6 1102)" fill="#fff"/></g></g></svg>