<svg xmlns="http://www.w3.org/2000/svg" width="10.472" height="20.35" viewBox="0 0 10.472 20.35">
  <path id="パス_48299" data-name="パス 48299" d="M16.434-9.482a11.236,11.236,0,0,1-1.507-1.342A16.87,16.87,0,0,1,13.508-12.5l1.98-1.1A23.981,23.981,0,0,0,17.2-11.671a24.406,24.406,0,0,0,1.991,1.8Q20.24-9.02,21.23-8.36a22.037,22.037,0,0,0-2.035,1.5A25.966,25.966,0,0,0,17.2-5.049a23.98,23.98,0,0,0-1.716,1.925l-1.98-1.1a14.767,14.767,0,0,1,1.419-1.683,11.609,11.609,0,0,1,1.507-1.331H.88V-9.482Z" transform="translate(-3.124 -0.88) rotate(90)" fill="#004690"/>
</svg>
