<svg xmlns="http://www.w3.org/2000/svg" xmlns:xlink="http://www.w3.org/1999/xlink" width="1920" height="1080" viewBox="0 0 1920 1080"><defs><clipPath id="b"><rect width="1920" height="1080"/></clipPath></defs><g id="a" clip-path="url(#b)"><g transform="translate(2563.554 -279.286) rotate(132)"><rect width="3071.708" height="16.725" transform="translate(0 124.503)" fill="#fff"/><rect width="3071.708" height="18.583" transform="translate(0 16.723)" fill="#fff"/><rect width="9.291" height="156.094" transform="translate(37.165 0)" fill="#fff"/><rect width="9.291" height="156.094" transform="translate(795.337 0)" fill="#fff"/><rect width="7.433" height="156.094" transform="translate(1551.648 0)" fill="#fff"/><rect width="9.291" height="156.094" transform="translate(2023.646 0)" fill="#fff"/><rect width="9.291" height="156.094" transform="translate(414.391 0)" fill="#fff"/><rect width="9.291" height="156.094" transform="translate(1172.565 0)" fill="#fff"/><rect width="9.291" height="156.094" transform="translate(1930.734 0)" fill="#fff"/><rect width="7.433" height="156.094" transform="translate(2687.047 0)" fill="#fff"/><rect width="7.433" height="156.094" transform="translate(228.565 0)" fill="#fff"/><rect width="9.291" height="156.094" transform="translate(983.02 0)" fill="#fff"/><rect width="9.291" height="156.094" transform="translate(1741.19 0)" fill="#fff"/><rect width="7.433" height="156.094" transform="translate(2404.591 0)" fill="#fff"/><rect width="7.433" height="156.094" transform="translate(605.794 0)" fill="#fff"/><rect width="7.433" height="156.094" transform="translate(1363.965 0)" fill="#fff"/><rect width="9.291" height="156.094" transform="translate(2259.649 0)" fill="#fff"/><rect width="9.291" height="156.094" transform="translate(2876.59 0)" fill="#fff"/><rect width="9.291" height="156.094" transform="translate(131.938 0)" fill="#fff"/><rect width="7.433" height="156.094" transform="translate(888.25 0)" fill="#fff"/><rect width="7.433" height="156.094" transform="translate(1646.422 0)" fill="#fff"/><rect width="9.291" height="156.094" transform="translate(2213.192 0)" fill="#fff"/><rect width="7.433" height="156.094" transform="translate(511.023 0)" fill="#fff"/><rect width="9.291" height="156.094" transform="translate(1267.335 0)" fill="#fff"/><rect width="9.291" height="156.094" transform="translate(2071.962 0)" fill="#fff"/><rect width="7.433" height="156.094" transform="translate(2781.818 0)" fill="#fff"/><rect width="9.291" height="156.094" transform="translate(319.622 0)" fill="#fff"/><rect width="9.291" height="156.094" transform="translate(1077.793 0)" fill="#fff"/><rect width="9.291" height="156.094" transform="translate(1835.964 0)" fill="#fff"/><rect width="9.291" height="156.094" transform="translate(2590.417 0)" fill="#fff"/><rect width="9.291" height="156.094" transform="translate(700.564 0)" fill="#fff"/><rect width="9.291" height="156.094" transform="translate(1455.02 0)" fill="#fff"/><rect width="9.291" height="156.094" transform="translate(2449.19 0)" fill="#fff"/><rect width="9.291" height="156.094" transform="translate(2971.363 0)" fill="#fff"/><rect width="9.291" height="156.094" transform="translate(83.623 0)" fill="#fff"/><rect width="9.291" height="156.094" transform="translate(841.794 0)" fill="#fff"/><rect width="9.291" height="156.094" transform="translate(1599.964 0)" fill="#fff"/><rect width="9.291" height="156.094" transform="translate(2118.419 0)" fill="#fff"/><rect width="7.433" height="156.094" transform="translate(464.566 0)" fill="#fff"/><rect width="9.291" height="156.094" transform="translate(1219.019 0)" fill="#fff"/><rect width="9.291" height="156.094" transform="translate(1977.192 0)" fill="#fff"/><rect width="9.291" height="156.094" transform="translate(2735.362 0)" fill="#fff"/><rect width="9.291" height="156.094" transform="translate(273.164 0)" fill="#fff"/><rect width="9.291" height="156.094" transform="translate(1031.335 0)" fill="#fff"/><rect width="7.433" height="156.094" transform="translate(1787.647 0)" fill="#fff"/><rect width="9.291" height="156.094" transform="translate(2495.647 0)" fill="#fff"/><rect width="7.433" height="156.094" transform="translate(652.252 0)" fill="#fff"/><rect width="9.291" height="156.094" transform="translate(1408.566 0)" fill="#fff"/><rect width="9.291" height="156.094" transform="translate(2354.418 0)" fill="#fff"/><rect width="7.433" height="156.094" transform="translate(2923.047 0)" fill="#fff"/><rect width="9.291" height="156.094" transform="translate(178.393 0)" fill="#fff"/><rect width="9.291" height="156.094" transform="translate(936.564 0)" fill="#fff"/><rect width="7.433" height="156.094" transform="translate(1692.879 0)" fill="#fff"/><rect width="9.291" height="156.094" transform="translate(2307.961 0)" fill="#fff"/><rect width="9.291" height="156.094" transform="translate(559.338 0)" fill="#fff"/><rect width="9.291" height="156.094" transform="translate(1313.792 0)" fill="#fff"/><rect width="9.291" height="156.094" transform="translate(2166.735 0)" fill="#fff"/><rect width="7.433" height="156.094" transform="translate(2828.276 0)" fill="#fff"/><rect width="7.433" height="156.094" transform="translate(369.795 0)" fill="#fff"/><rect width="9.291" height="156.094" transform="translate(1124.249 0)" fill="#fff"/><rect width="9.291" height="156.094" transform="translate(1882.42 0)" fill="#fff"/><rect width="7.433" height="156.094" transform="translate(2640.591 0)" fill="#fff"/><rect width="7.433" height="156.094" transform="translate(747.021 0)" fill="#fff"/><rect width="7.433" height="156.094" transform="translate(1505.191 0)" fill="#fff"/><rect width="7.433" height="156.094" transform="translate(2545.818 0)" fill="#fff"/><rect width="9.291" height="156.094" transform="translate(3017.818 0)" fill="#fff"/></g><g transform="translate(1598.414 -854.611) rotate(132)"><rect width="3071.708" height="16.725" transform="translate(0 124.503)" fill="#fff"/><rect width="3071.708" height="18.583" transform="translate(0 16.723)" fill="#fff"/><rect width="9.291" height="156.094" transform="translate(37.165 0)" fill="#fff"/><rect width="9.291" height="156.094" transform="translate(795.337 0)" fill="#fff"/><rect width="7.433" height="156.094" transform="translate(1551.648 0)" fill="#fff"/><rect width="9.291" height="156.094" transform="translate(2023.646 0)" fill="#fff"/><rect width="9.291" height="156.094" transform="translate(414.391 0)" fill="#fff"/><rect width="9.291" height="156.094" transform="translate(1172.565 0)" fill="#fff"/><rect width="9.291" height="156.094" transform="translate(1930.734 0)" fill="#fff"/><rect width="7.433" height="156.094" transform="translate(2687.047 0)" fill="#fff"/><rect width="7.433" height="156.094" transform="translate(228.565 0)" fill="#fff"/><rect width="9.291" height="156.094" transform="translate(983.02 0)" fill="#fff"/><rect width="9.291" height="156.094" transform="translate(1741.19 0)" fill="#fff"/><rect width="7.433" height="156.094" transform="translate(2404.591 0)" fill="#fff"/><rect width="7.433" height="156.094" transform="translate(605.794 0)" fill="#fff"/><rect width="7.433" height="156.094" transform="translate(1363.965 0)" fill="#fff"/><rect width="9.291" height="156.094" transform="translate(2259.649 0)" fill="#fff"/><rect width="9.291" height="156.094" transform="translate(2876.59 0)" fill="#fff"/><rect width="9.291" height="156.094" transform="translate(131.938 0)" fill="#fff"/><rect width="7.433" height="156.094" transform="translate(888.25 0)" fill="#fff"/><rect width="7.433" height="156.094" transform="translate(1646.422 0)" fill="#fff"/><rect width="9.291" height="156.094" transform="translate(2213.192 0)" fill="#fff"/><rect width="7.433" height="156.094" transform="translate(511.023 0)" fill="#fff"/><rect width="9.291" height="156.094" transform="translate(1267.335 0)" fill="#fff"/><rect width="9.291" height="156.094" transform="translate(2071.962 0)" fill="#fff"/><rect width="7.433" height="156.094" transform="translate(2781.818 0)" fill="#fff"/><rect width="9.291" height="156.094" transform="translate(319.622 0)" fill="#fff"/><rect width="9.291" height="156.094" transform="translate(1077.793 0)" fill="#fff"/><rect width="9.291" height="156.094" transform="translate(1835.964 0)" fill="#fff"/><rect width="9.291" height="156.094" transform="translate(2590.417 0)" fill="#fff"/><rect width="9.291" height="156.094" transform="translate(700.564 0)" fill="#fff"/><rect width="9.291" height="156.094" transform="translate(1455.02 0)" fill="#fff"/><rect width="9.291" height="156.094" transform="translate(2449.19 0)" fill="#fff"/><rect width="9.291" height="156.094" transform="translate(2971.363 0)" fill="#fff"/><rect width="9.291" height="156.094" transform="translate(83.623 0)" fill="#fff"/><rect width="9.291" height="156.094" transform="translate(841.794 0)" fill="#fff"/><rect width="9.291" height="156.094" transform="translate(1599.964 0)" fill="#fff"/><rect width="9.291" height="156.094" transform="translate(2118.419 0)" fill="#fff"/><rect width="7.433" height="156.094" transform="translate(464.566 0)" fill="#fff"/><rect width="9.291" height="156.094" transform="translate(1219.019 0)" fill="#fff"/><rect width="9.291" height="156.094" transform="translate(1977.192 0)" fill="#fff"/><rect width="9.291" height="156.094" transform="translate(2735.362 0)" fill="#fff"/><rect width="9.291" height="156.094" transform="translate(273.164 0)" fill="#fff"/><rect width="9.291" height="156.094" transform="translate(1031.335 0)" fill="#fff"/><rect width="7.433" height="156.094" transform="translate(1787.647 0)" fill="#fff"/><rect width="9.291" height="156.094" transform="translate(2495.647 0)" fill="#fff"/><rect width="7.433" height="156.094" transform="translate(652.252 0)" fill="#fff"/><rect width="9.291" height="156.094" transform="translate(1408.566 0)" fill="#fff"/><rect width="9.291" height="156.094" transform="translate(2354.418 0)" fill="#fff"/><rect width="7.433" height="156.094" transform="translate(2923.047 0)" fill="#fff"/><rect width="9.291" height="156.094" transform="translate(178.393 0)" fill="#fff"/><rect width="9.291" height="156.094" transform="translate(936.564 0)" fill="#fff"/><rect width="7.433" height="156.094" transform="translate(1692.879 0)" fill="#fff"/><rect width="9.291" height="156.094" transform="translate(2307.961 0)" fill="#fff"/><rect width="9.291" height="156.094" transform="translate(559.338 0)" fill="#fff"/><rect width="9.291" height="156.094" transform="translate(1313.792 0)" fill="#fff"/><rect width="9.291" height="156.094" transform="translate(2166.735 0)" fill="#fff"/><rect width="7.433" height="156.094" transform="translate(2828.276 0)" fill="#fff"/><rect width="7.433" height="156.094" transform="translate(369.795 0)" fill="#fff"/><rect width="9.291" height="156.094" transform="translate(1124.249 0)" fill="#fff"/><rect width="9.291" height="156.094" transform="translate(1882.42 0)" fill="#fff"/><rect width="7.433" height="156.094" transform="translate(2640.591 0)" fill="#fff"/><rect width="7.433" height="156.094" transform="translate(747.021 0)" fill="#fff"/><rect width="7.433" height="156.094" transform="translate(1505.191 0)" fill="#fff"/><rect width="7.433" height="156.094" transform="translate(2545.818 0)" fill="#fff"/><rect width="9.291" height="156.094" transform="translate(3017.818 0)" fill="#fff"/></g></g></svg>