<svg xmlns="http://www.w3.org/2000/svg" xmlns:xlink="http://www.w3.org/1999/xlink" width="1920" height="1080" viewBox="0 0 1920 1080"><defs><clipPath id="b"><rect width="1920" height="1080"/></clipPath></defs><g id="a" clip-path="url(#b)"><g transform="translate(2519.506 17335.926)"><path d="M2039.14,1120.557c-.619-4.308-4.5-7.678-6.148-8.927-.1-.079-.016-.315.2-.528s.469-.32.573-.241c1.663,1.264,5.6,4.68,6.23,9.079a17.855,17.855,0,0,0,1.942,5.955q-.458.3-.892.574a18.091,18.091,0,0,1-1.9-5.912" transform="translate(-4088.037 -17823.293)" fill="#286e55"/><path d="M2045.012,1200.531a2.607,2.607,0,0,1-.659-1.905c.118-1.732.926-4.51-.313-7.894s-1.014-2.9-2.234-5.881a12.59,12.59,0,0,1-.78-7.813,12.777,12.777,0,0,0-1.632-8.74c-1.687-2.9-3.584-3.183-7.154-3.265s-3.33,3.192-3.668,7.34c-.275,2.658-.459,4.981,1.154,7.72a24.036,24.036,0,0,1,2.839,7.631,33.932,33.932,0,0,0,3.488,8.965c.949,1.506,2.466,4.391,1.478,6.244a3.676,3.676,0,0,1-.529.771c2.992,1.059,6.2-.455,8.012-3.173" transform="translate(-4086.41 -17842.627)" fill="#de0d20"/><path d="M2048.444,1220.218c-1.81,2.718-5.02,4.233-8.012,3.173-.748.818-1.4.568-2.174,3.174-1.245,4.188,2.382,4.753,5.827,2.942,2.413-1.269,7.8-5.636,5.818-7.731-.569-.6-1.077-1.078-1.458-1.559" transform="translate(-4089.841 -17862.316)" fill="#382e28"/><path d="M2063.159,1116.657c1.684,1.363,2.484.828,4.059.694s2.4-.988,4.952-.15c.36.118,2.614-.216,2.266,1.4-.37,1.725-.633,2.072-1.966,2.6-1.1.437-1.411-.028-1.525.7-.149.953-3.673,1.974-6.325,1.353-1.309-.116-1.115-2.287-2.573-2.613-.276-.062-1.454-1.8-2.625-2.409.517-1.219,1.7-1.8,2.261-2.965a15.64,15.64,0,0,1,1.477,1.4" transform="translate(-4097.48 -17824.873)" fill="#fdce9d"/><path d="M1980.7,1050.906c-1-1.253-1.351-1.773-1.321-2.488s.308-2.542-.17-3.461c-.836-1.606-2.094-1-2.823-1.368s-1.475-.5-2.306-.844-2.071-.387-2.52.275-1.615.6-1.567,1.191.23,1.259-.619,1.583-.472.752-.1,1.611.618.825.431,1.6.017.92.577,1.393,2.491.846,4.117,1.29,2.593.823,3.283,2.146a3.653,3.653,0,0,0,.225.356c1.224-.753,2.526-1.423,3.819-2.183-.5-.513-.865-.9-1.021-1.1" transform="translate(-4065.173 -17798.914)" fill="#fdce9d"/><path d="M2016.483,1089.873c-.975-4.777,7.276,3.727,14.2,8.785,2,1.463,4.534-1.383,4.792-3.55.354-2.968-9.273-10.56-13.932-14.819a69.475,69.475,0,0,0-10.743-8.48c-3.677-2.28-6.045-2.656-7.837-2.742-2.19-.1-3.867,1.377-5.921,1.092-2.39-.259-10.857-18.5-13.389-15.071-1.577,2.137-4.973,4.487-5.058,5.147-.232,1.792,6.049,10.957,7.72,13.4,1.153,1.686,4.759,8.928,4.348,11a97.485,97.485,0,0,0-1.774,18.99c.088,3.364,2.307,12.6,5.59,12.156,8.941-1.208,21.474-1.864,23.071-3.9,3.461-3.638-.177-17.659-1.065-22.006" transform="translate(-4068.643 -17803.254)" fill="#de0d20"/><path d="M1987.481,1222.132c-1.669.98-1.826-.459-4.117,1.789-3.024,2.967-.185,5.8,3.611,6.387,2.658.408,9.314-.058,8.6-3.216a12.993,12.993,0,0,1-.567-3.231c-2.882.825-5.238-.069-7.522-1.729" transform="translate(-4069.894 -17862.998)" fill="#382e28"/><path d="M2008.305,1174.32c-.088-3.691-9.9-2.968-12.47,3.7-1.258,3.265-2.167,6.867-2.743,8.555-.9,2.645-.522,7.538-.641,10.937-.064,1.851-.229,5.722-1.94,6.754-.015.009-.028.014-.042.022,2.284,1.661,4.641,2.554,7.521,1.729a2.585,2.585,0,0,1,.375-1.244c.911-1.481,2.9-3.46,3.424-7.3s.488-3.259.838-6.722a12.885,12.885,0,0,1,2.987-7.526,13.634,13.634,0,0,0,2.691-8.906" transform="translate(-4072.882 -17845.152)" fill="#de0d20"/><path d="M2021.217,1069.387a9.627,9.627,0,0,1-9.168.456,13.72,13.72,0,0,1-5.319-5.48,11.977,11.977,0,0,1-.733-5.709,7.2,7.2,0,0,1,1.242-2.64c1.389-1.881-.113-2.677,3.692-5.914,1.156-.984,7.19-5.087,13.534-1.957,5.576,2.751,3.794,17.363-3.248,21.245" transform="translate(-4078.387 -17800.516)" fill="#fdce9d"/><path d="M2012.384,1046.132a7.27,7.27,0,0,1,5.493-1.852c2.867.355,3.8-1.321,6.607-.381,3.918,1.31,6.915,4.065,7.736,5.479,1.763,3.038,1.209,4.874,1.43,6.777.4,3.452,5.134,12.6-8.132,14.379-1.231.165-2.351-.932-2.174-3.328.443-2.839,1.986-2.284,3.239-3.061,1.287-.8,1.436-3.454-.444-3.239-1.553.177-1.673-.712-1.73-3.86-.071-3.838-16.459-2.5-12.025-10.915" transform="translate(-4080.429 -17799.311)" fill="#382e28"/><path d="M2028.035,1060.021c-.861-.317-1.676-.227-1.511.571a17.062,17.062,0,0,0,.7,2.58c.2.4.447.887,1.266-.068a5.356,5.356,0,0,1,1.476-1.373c.54-.365.54-.26,1.508.293s1.717,1.054,2.134.719.423-.964.182-2.083-.2-2.254-.852-1.81a10.081,10.081,0,0,0-1.63,1.384,1.363,1.363,0,0,1-1.442.423,10.438,10.438,0,0,1-1.826-.636" transform="translate(-4085.737 -17804.713)" fill="#de0d20"/><path d="M2031.486,1060.662a.982.982,0,0,0-.37,1.187c.2.712.421,1.1.692,1.142.509.075.568-.031.8-.479s.144-.819-.177-1.4-.58-.567-.946-.454" transform="translate(-4087.362 -17805.373)" fill="#de0d20"/><path d="M1991.058,1135.977c2.1-1.384,10.064-1.213,14.677-1.737,4.476-.51,6.743.224,11.644-.964,3.834-.928,2.789,3.464,7.222,12.328,2.928,5.857,10.542,14.093,8.252,16.106s-7.959,4.683-11.176,3.808-4.242-1.134-7.991.717c-3.272,1.615-8.822-.024-13.177-.4a24.422,24.422,0,0,0-8.784.666c-5.457,1.331-9.6-.464-10.515-1.2-1.331-1.065-1.319-6.315,3.328-13.044s3.943-13.51,6.522-16.283" transform="translate(-4069.306 -17831.256)" fill="#ffcb52"/><path d="M2023.108,1142.13c-.216-2.019-.8-3.159,1.24-4.27a23.262,23.262,0,0,1,5.871-2.58,21.389,21.389,0,0,0,5.094-1.338c1.965-.851,4.123-1.961,4.828-1.071s3.253,7.6,3.229,9.738.432,4.036-1.716,4.138-2.991.974-5.745,2.078-4.44,2.6-6.348,2.575-4.309,1.59-4.4-1.309-2.067-7.078-2.057-7.96" transform="translate(-4084.439 -17831.037)" fill="#286e55"/><path d="M2015.671,1105.941c-4.362-8.662-6.6-21.954-7.363-27.266a.594.594,0,0,0-.628-.54.566.566,0,0,0-.454.677c.77,5.38,3.042,18.847,7.5,27.691a95.94,95.94,0,0,1,5.655,14.053c.319-.234.626-.471.917-.711a96.716,96.716,0,0,0-5.624-13.9" transform="translate(-4078.858 -17811.625)" fill="#286e55"/><path d="M1899.024,926.742c2.045,3.041,13.551,38.742,15.622,42.616s10.078,21.253,7.246,22.371c-9.163,3.617-13.448-12.375-13.865-17.362s-9.244-35.327-9.967-38.944c-.54-2.7-3.9-10.963-2.732-11.9.961-.767,2.917,2.055,3.7,3.215" transform="translate(-4038.853 -17756.426)" fill="#de0d20"/><path d="M1955.036,1013.591c2.415,3.284,4.146,7.847,5.23,8.833s3.81,3.877,5.551,5.734c.708.755.989,2.321,1.445,5.445.2,1.381-1.655-.014-2.12,1.558-.784,2.646-1.937,1.173-2.621,1.658-1.183.84-1.495,1.1-2.307-.665a16.769,16.769,0,0,1-1.3-3.863c-.175-.874-.731-2.115-1.428-.641s-1.168,2.239-2.282,2.5-1.553-.481-.515-2.166c.782-2.213.309-5.3.449-6.646s-1.3-2.438-3.016-4.711.5-10.323,2.913-7.039" transform="translate(-4058.985 -17788.324)" fill="#fdce9d"/><path d="M1783.644,931.108c-3.252-2.878-11.9-9.084-12.843-10.329s-5.325-5.861-7.9-6.723a14.114,14.114,0,0,1-4.968-2.6c-2.741-2.247-3.249-.6-1.831,1.04,2.337,2.707,4.3,3.285,4.461,4.7.092.823.28.629-.658,1.574-.614.619-1.754-1.071-2.632.028-.79,1.439,7.412,6.942,9.935,7.138,2.448.19,2.462,1.612,4.708,3.652a71.894,71.894,0,0,0,7.767,6.246c1.67.989,7.21-1.849,3.957-4.727" transform="translate(-3989 -17751.773)" fill="#fdce9d"/><path d="M1875.948,907.3c-.272.007-3.836.371-4.177.346a28.057,28.057,0,0,1-.825,3.629c-.321.757-4.7,8.217-5.034,8.6,4.038,3.5,12.971,1.893,15.539-1.44-.724-.356-4.413-6.467-4.757-7.938-.252-1.078-.736-2.788-.746-3.2" transform="translate(-4028.447 -17750.682)" fill="#fdce9d"/><path d="M1821.548,1224.487c7.536-.782,1.514-7.69,4.992-14.282,0,0,4.207-3.194,5.334-.333.858,2.181,2.1,10.555,2.545,16.3a12.526,12.526,0,0,1-12.871-1.681" transform="translate(-4012.62 -17858.201)" fill="#fdce9d"/><path d="M1815.2,1233.259l.051-.006a12.526,12.526,0,0,0,12.871,1.681,37.163,37.163,0,0,1,.145,4.339c-.227,4.245-14.043,4.808-20.239,1.455-7.11-3.848-5.269-6.238,7.171-7.47" transform="translate(-4006.32 -17866.965)" fill="#382e28"/><path d="M1898.038,1216.666c-.735-3.844-.517-8.979-.613-12.7-3.742-2.659-6.5-2.587-6.6,5.068s-.923,11.656-5.448,14.222l-.123.072a19.676,19.676,0,0,0,12.788-6.665" transform="translate(-4035.346 -17855.953)" fill="#fdce9d"/><path d="M1894.537,1224.586a19.675,19.675,0,0,1-12.788,6.665c-4.473,2.553-8.272,5.669-5.2,7.106,3.1,1.451,7.373,1.034,11.3-1.21s9.646-5.759,7.716-9.383a11.349,11.349,0,0,1-1.022-3.178" transform="translate(-4031.845 -17863.873)" fill="#382e28"/><path d="M1835.365,1017.728c-.3,1.615-3.905,44.3-5.175,48.46s-4.008,83.446-3.976,84.708,3.826,2.292,5.317,2.253,4.615.519,5.37-1.892c1.914-6.106,16.633-87.854,16.8-90.269s1.137-4.851,1.492-.039,13.457,86.345,13.821,87.139,6.328.049,7.7.013,1.428-.3,2.174-4.253c1.028-5.446,3.162-55.586,2.952-59.6s-3.479-63.834-4.922-66.386-41.557-.138-41.557-.138" transform="translate(-4014.285 -17789.711)" fill="#ffcb52"/><path d="M1897.147,983.158c-.472-.756-14.74-23.7-15.691-26.217s-11.483-19.992-17.754-26.8c-5.661-6.143-13.278-8.893-14.593-8.8-2.2.157-5.16,4.68-8.352,4.13-4.564-.785-2.48-3.687-3.869-3.735-2.367-.081-7.686,2.138-9.872,3.469-9.638,5.865-6.572,4.217-16.842,8.5-4.711,1.965-16.957-7.04-23.4-6.72-1.788.089-7.939,5.25-7.605,7.522.527,3.583,20.784,16.11,26.79,16.179,6.117.069,9.864-3.354,12.6.169,2.4,3.093-.042,16.454-.953,22.536-1.572,10.486-4.744,17.735-.288,19.032,4.028,1.173,8.692-.674,11.787-.9,8.191-.612,8.484,2.983,14.9,3.218,3.411.125,8.207-.012,11.607-.1,2.545-.066,8.285,4.061,8.6-.223.594-8.022-1.328-15.206-1.88-20.181-.538-4.841-2.6-11.765-2-12.083,2.371-1.263,21.386,20.2,26.116,25.085,3.593,3.708,12.792-.731,10.7-4.08" transform="translate(-3997.497 -17755.693)" fill="#286e55"/><path d="M1892.784,900.193a8.344,8.344,0,0,1-8.732,2.867c-5.717-1.929.686-6.321,1.224-8.8.394-1.811.311-5.1.94-6.422s-.882-8.12,3.79-3.492c1.228,1.216.953,2.83,2.86,5.239.591.747,2.579,1.292,2.347,2.917-.279,1.944-1.863,2.307-1.86,3.456s1.437,2.215-.57,4.231" transform="translate(-4034.077 -17741.928)" fill="#382e28"/><path d="M1862.831,896.293c2.876,3.326,6.6,4.552,9.429,4.036a14.5,14.5,0,0,0,7.457-3.944,13.911,13.911,0,0,0,2.74-5.963,8.821,8.821,0,0,0-.385-3.368c-.8-2.593,1.043-2.884-1.816-7.894-.868-1.521-5.76-8.338-13.475-7.361-6.782.858-9.972,17.531-3.95,24.495" transform="translate(-4026.212 -17737.984)" fill="#fdce9d"/><path d="M1868.81,878.637c1.348-4.391,9.378,3.858,9.534,1.272.415-6.88-8.6-10.909-11.864-10.964-4.55-.079-14.572,6.313-15.014,12.624-.351,5.025,1.277,6.393-.639,9.1-1.1,1.547.327,3.6,1.725,5.474,2,2.684-1.578,3.674,1.388,5.245,3.685,1.952,7.028.081,9.142-1.9,1.629-1.524-1.384-5.839-3.4-6.458-3.1-1.8-2.846-2.875-2.553-3.964s1.853-2.118,2.55-1.344c3.47,3.848.971-.208,1.974-1.48,2.724-3.456,2.365,1.687,7.161-7.6" transform="translate(-4022.927 -17737)" fill="#382e28"/><path d="M1905.705,969.626c-5.185-1.688-7.114-2.532-8.319-4.823-2.067-3.929-2.589-9.013-2.563-16.656.02-6.063,1.344-22.794.151-24.1-1.082-1.182-2.391-2.992-3.617-.6s-1.9,32.909-2.976,39.964-.48,31.689-.657,37.475-1.3,9.282,6.143,10.5c6.519,1.068,5.87-1.661,12.681-1.13,6.216.484,8.722-1.741,11.213-2.412,3.135-.844,7.79-1.705,4.7-12.539-2.8-9.835-13.089-24.486-16.76-25.681" transform="translate(-4036.171 -17756.025)" fill="#de0d20"/></g><g transform="translate(2626.405 14914.051)"><path d="M1974.09,1487.544c1.468-.15,1.968.278,2.22,1.852.068.425.209.836.317,1.254.728-1.954.134-3.478-1.258-3.953a3.132,3.132,0,0,0-4.027,1.837c-.866,1.937-.707,4,2.08,4.9a2.722,2.722,0,0,1,1.508.953,3.069,3.069,0,0,1-.153,3.232,2.639,2.639,0,0,1-2.867.971,2.087,2.087,0,0,1-1.964-1.958c-.064-.692-.354-1.022-1.406-.934.177.628.286,1.094.438,1.546a3.892,3.892,0,0,0,5.5,2.031c1.682-.976,1.643-2.56,1.536-4.139a2.832,2.832,0,0,0-2.4-2.938c-1.42-.3-1.875-1.069-1.74-2.26a2.384,2.384,0,0,1,2.218-2.4" transform="translate(-4024.777 -16364.153)" fill="#382e28"/><path d="M1945.936,1485.45c-.788,2.72.021,5.23,1.158,7.642a2.454,2.454,0,0,0,2.788,1.052,3.334,3.334,0,0,0,1.335-4.392,15.987,15.987,0,0,1-.936,2.526,1.416,1.416,0,0,1-2.638-.173,7.283,7.283,0,0,1-.328-1.4c1.619-.052,2.115-1.109,2.353-2.438a4.826,4.826,0,0,0-.625-3.442,1.977,1.977,0,0,0-1.343-.766,1.653,1.653,0,0,0-1.764,1.394m1.78-.25a1.52,1.52,0,0,1,1.062.811,3.221,3.221,0,0,1-.235,2.893c-.35.732-.994.569-1.86.343a25.96,25.96,0,0,1,.11-3.118,1.353,1.353,0,0,1,.924-.929" transform="translate(-4016.166 -16363.23)" fill="#382e28"/><path d="M1929.391,1486.776c-.644-4.337-1.275-8.582-1.905-12.828l-.355.086a2.043,2.043,0,0,0-.07.5c.358,3.3.707,6.61,1.1,9.91.131,1.1.021,2.543.664,3.191.727.732,2.162.825,3.317,1.051a9.754,9.754,0,0,0,4.6.081c.127-.954-.375-.978-1.013-.939a12.758,12.758,0,0,1-6.334-1.05" transform="translate(-4009.19 -16359.436)" fill="#382e28"/><path d="M1955.726,1487.167l2.623.481c.024,1.56.05,3,.069,4.438.027,2.11.333,3.381,1.061,4.214.752-1.531-.109-2.985-.1-4.448.01-1.481-.024-2.962-.038-4.469l2-.069c-.008-1.607-1.5-.651-1.928-1.323-.494-.736.4-1.849-.864-2.432-.077.93-.147,1.779-.221,2.675l-2.537.376c-.022.186-.044.372-.066.557" transform="translate(-4019.963 -16363.046)" fill="#382e28"/><path d="M1969.631,1479.6a7.954,7.954,0,0,0-1.337,4.756c.01.3.29.59.446.884a18.013,18.013,0,0,0,.891-5.64" transform="translate(-4024.684 -16361.56)" fill="#382e28"/><path d="M1958.908,1514.961c-.037-1.17-.728-1.2-1.458-1.223-1.436-.039-2.872-.129-4.308-.142a9.893,9.893,0,0,0-1.553.217c.211,2.347.409,4.583.615,6.817.2,2.2-.019,4.442.5,6.69,2.267-1.186,4.568-.262,7.095-.8-2.065-1.73-4.419-.173-6.436-1.419-.083-1.374-.176-2.9-.277-4.567l5.006.261c-.106-.338-.137-.717-.246-.74-1.5-.325-3.006-.6-4.818-.948-.082-1.416-.164-2.827-.252-4.356l6.129.212" transform="translate(-4018.408 -16374.334)" fill="#382e28"/><path d="M2001.394,1539.28c2.905-3.36,3.873-7.541,4.83-11.713.037-.162-.3-.409-.536-.71-1.038,1.663-.659,3.712-2.2,5.391-.5-1.7-1-3.114-1.312-4.566-.154-.7-.243-1.2-1.566-1.005.765,2.348,1.487,4.536,2.186,6.732.125.392.343.921.187,1.206a38.692,38.692,0,0,1-2.365,3.817c-.4.559-1.53.978-.764,1.716.674.648,1.15-.413,1.544-.869" transform="translate(-4036.446 -16379.233)" fill="#382e28"/><path d="M1991.9,1533.229a2.393,2.393,0,0,0,1.353-1.357,18.357,18.357,0,0,0,.2-3.341l-.11-.018a16.934,16.934,0,0,0-.487-2.385,2.058,2.058,0,0,0-1.906-1.579c-.962-.016-1.428.7-1.76,1.471-.984,2.295-.323,4.431.751,6.478a1.561,1.561,0,0,0,1.963.73m-1.2-7.547c.106-.11.347-.091.6-.15a17.671,17.671,0,0,1,1.013,2.78,8.964,8.964,0,0,1,.066,2.955,1.009,1.009,0,0,1-1.763.415c-1.061-1.112-1.022-4.85.081-6" transform="translate(-4032.355 -16378.45)" fill="#382e28"/><path d="M1977.427,1538.19c2.7,1.618,3.42,1.145,3.833-1.741a3.064,3.064,0,0,0,.068-.561q-.2-4.682-.419-9.363l-.471.018a2.385,2.385,0,0,0-.455,2.026c.142,1.817.346,3.632.4,5.451a6.959,6.959,0,0,1-.928,4.172l-3.653-2.484c-.2,1.535.871,2.03,1.627,2.484" transform="translate(-4027.497 -16379.192)" fill="#382e28"/><path d="M1973.863,1525.375a3.961,3.961,0,0,1,.388,2.142,17.75,17.75,0,0,1-.649,2.792c.53-.217.995-.261,1.078-.463a5.668,5.668,0,0,0,.028-4.74c-.956-1.979-2.653-2.107-4.039-.419a4.5,4.5,0,0,1-.557.482c-.3-1.444-.3-1.444-.845-2.165a15.3,15.3,0,0,0,1.083,7.361,22.483,22.483,0,0,1,.3-2.264,12.144,12.144,0,0,1,.841-2.645,1.291,1.291,0,0,1,2.371-.081" transform="translate(-4025.014 -16377.869)" fill="#382e28"/><path d="M2025.851,1533.3c.339-1.473.647-2.953,1.022-4.417.916-3.575.929-3.572.257-4.735a1.451,1.451,0,0,0-.348.8c-.569,2.49-1.154,4.977-1.694,7.473-.052.246.167.551.26.828l.5.049" transform="translate(-4046.025 -16378.298)" fill="#382e28"/><path d="M2019.268,1522.352c.029,2.651.044,5.3.115,7.95.005.182.435.351.751.59.312-2.277.016-7.628-.429-8.542l-.437,0" transform="translate(-4043.84 -16377.623)" fill="#382e28"/><path d="M1982.785,1519.382a3.489,3.489,0,0,0-1.975-3.008,3.489,3.489,0,0,0,1.975,3.008" transform="translate(-4029.388 -16375.378)" fill="#382e28"/><path d="M2018.963,1541.169c.736-.926.457-1.564-.117-2.348a1.457,1.457,0,0,0,.117,2.348" transform="translate(-4043.479 -16383.813)" fill="#382e28"/><path d="M2024.058,1544.112c.027.156.4.406.536.363.761-.242.74-.876.632-1.51-.017-.1-.145-.187-.258-.325-.837.151-1.038.735-.909,1.472" transform="translate(-4045.627 -16385.248)" fill="#382e28"/><path d="M1928.582,1541.43a4.906,4.906,0,0,0,1.453,6.156,13.233,13.233,0,0,0,7.565,2.763c2,.169,4.026.227,6.008.532,4.144.639,6.224,2.39,7.808,6.43,1.044-.787,2.094-1.5,3.055-2.319a4.777,4.777,0,0,1,5.617-.784c2.165,1.107,4.233,2.411,6.3,3.692,1.826,1.129,3.471,2.592,5.768,2.748,3.043.206,5.539-.654,7.09-3.473a6.465,6.465,0,0,1,.341-.55c.038-.056.115-.085.338-.242,1.094,2.437,3.309,2.12,5.413,2.162a9.345,9.345,0,0,0,8.232-3.887c1.282-1.755,2.2-3.6.691-5.719-.093-.131.014-.4.033-.689,1.234-.277,1.562.567,1.633,1.426a7.472,7.472,0,0,1-1.492,5.481c-3.5,4.391-8.582,5.411-14.44,3.592-.131-.041-.282-.016.08,0a32.754,32.754,0,0,1-4.435,2.461c-3.422,1.234-6.479.154-9.335-1.845a58.594,58.594,0,0,0-5.241-3.4c-3.938-2.171-8.108-.385-9.393,3.924-.175.589-.062,1.36-1.151,1.416a3.228,3.228,0,0,1-.249-1.122c.655-4.228-2.513-7.773-7.408-8.307-2.787-.3-5.591-.5-8.355-.945a9.43,9.43,0,0,1-6.443-3.95,6.279,6.279,0,0,1-1.066-4.533c-3.88-1-7-2.877-7.336-7.154-.233-3,1.327-5.216,3.612-5.863-2.145,2.415-3.736,4.78-2.17,7.968,1.5,3.063,4.225,3.855,7.471,4.035" transform="translate(-4006.405 -16380.282)" fill="#382e28"/><path d="M1927.641,1852.651a199.93,199.93,0,0,0,3.634-23.56c.42-4.584.72-15.154,2.847-19.687,8.632-18.4-3.564-35.078-6.388-22.14-2.289,10.483-3.565,14.2-4.458,19.592-2.469,14.907-2.035,41.321-2.195,42.175-.1.539-.718,3.484-.285,4.778.276,1.615,6.647-.537,6.846-1.157" transform="translate(-4006.78 -16475.447)" fill="#382e28"/><path d="M1945.039,1810.5c-1.537,4.725-4.528,10.629,1.992,19.322,7.244,9.657,23.257,31.293,24.292,31.567,3.083.817,5.769-1.3,4.386-4.618-1.856-4.447-15.084-28.467-18.17-35.336-1.715-3.815,2.91-12.3,4.439-16.722,4.179-12.093-12.6-7.537-16.939,5.787" transform="translate(-4015.182 -16481.086)" fill="#382e28"/><path d="M1991.017,1889.24c-.52-1.326-3.327,1.792-5.252,2.422-1.549.508-4.183.708-2.431,3.92s3.75,6.107,2.366,9.438-5.6,7.7-3.378,10.084,2.9,3.255,6.583.678a18.888,18.888,0,0,0,6.34-7.125c.827-1.731,2.033-1.477,3.222-2.422,2.3-1.825,1.2-3.307-.435-5.58s-2.712-3.065-3.968-5.386-2.763-5.3-3.048-6.03" transform="translate(-4029.719 -16515.369)" fill="#bf8000"/><path d="M1982.511,1899.8c.652-.365,1.235-.973,1.931-.318.015.015.057.127.037-.042-2.669,4.263,1.3,2.137,1.728,3.746-2.468,1.461.494,2.748,1.049,4.205-2.685-.491-3.159,2.187-1.926,3.742-3.157-.5-2.594,1.378-1.891,2.709-.555.6-2.273-.279-1.9.941,2.416.491,2.813-1.335,1.752-2.924,2.431.4,2.979-.779,1.765-2.89-.041-1.467,3.333-.155,2.574-2.413a15.879,15.879,0,0,0-2.031-2.269,2.278,2.278,0,0,0,1.063-1.34c.67-2-2.508-.348-2.591-1.911,2.392-3.691-1.712-2.871-1.564-1.237" transform="translate(-4029.644 -16518.941)" fill="#de0d20"/><path d="M1922.6,1882.044c.224-1.406-3.777-.144-5.755-.576-1.592-.348-3.964-1.511-4.084,2.146s.135,7.165-2.747,9.334-8.727,3.795-8.026,6.979.853,4.278,5.331,3.923a18.9,18.9,0,0,0,9.076-2.924c1.591-1.073,2.5-.242,4.005-.454,2.9-.408,2.708-2.243,2.455-5.029s-.783-4.017-.688-6.655.308-5.971.432-6.743" transform="translate(-3999.748 -16512.4)" fill="#bf8000"/><path d="M1912.645,1885.09c.747.016,1.558-.212,1.825.706.006.021-.015.138.054-.019-4.463,2.322.032,2.5-.41,4.106-2.867.007-.968,2.619-1.229,4.157-2.066-1.785-3.832.283-3.557,2.249-2.467-2.033-2.935-.128-3,1.375-.783.237-1.817-1.393-2.112-.151,1.833,1.649,3.1.277,2.993-1.632,1.892,1.578,2.963.84,2.986-1.6.708-1.285,2.951,1.558,3.442-.775a15.839,15.839,0,0,0-.6-2.986,2.274,2.274,0,0,0,1.6-.615c1.592-1.383-1.986-1.572-1.264-2.961,3.933-1.967-.02-3.343-.72-1.859" transform="translate(-4000.605 -16513.697)" fill="#de0d20"/><path d="M1922.59,1745.251c-7.942,11.785-27.135,45.535-32.95,60.227-2.677,6.763,10.628,7.155,26.435,12.5s27.759,10.639,39.3,9.775,20.137,3.319,9.049-13.173-15.666-32.814-13.682-41.529-.145-16.621-2.142-23.187-1.9-6.981-11.034-9.059-9.846-3.172-14.981,4.447" transform="translate(-3995 -16459.139)" fill="#d9bf74"/><path d="M2028.6,1739.783c-.014-.524-.129-1.139.68-1.571,2.7-1.441,3.05-2,4.662-.884a17.443,17.443,0,0,1,3.779,3.123,6.99,6.99,0,0,1,1.423,5.051c-.054,1.444-2.278,3.106-3.087,3.365-1.727.551-3.38.263-3.9-.694-.875-1.624-1.184.128-2.475-1.16-1.479-1.476-.531-3.458-.655-4.844.009-1.849-.4-1.3-.431-2.385" transform="translate(-4047.344 -16458.184)" fill="#6fb9be"/><path d="M1997.121,1660.809c2.132,2.194,1.371,2.639,6.046,3.708s5.788-.466,8.51,3.843c2.6,4.112,7.315,4.491,10.956,3.644,5.716-1.33,8.588-2.284,8.126-4.911-1.125-6.4-1.51-5.957-4.681-3.638-3.113,2.277-8.3,3.839-10.868,1.4-2.237-2.129-4.738-6.229-7.971-5.966-3.924.318-8.463,1.986-9.819.51s-1.653.021-.3,1.414" transform="translate(-4035.188 -16428.893)" fill="#6fb9be"/><path d="M1974.732,1714.4c-.308-5.961-1.455-11.18-.727-14.917.589-3.023,2.641-12.19,6.732-13.6,4.855-1.671,7.62-4.8,6.613-9.931-.9-4.577-3.408-8.067-7.157-13.3-2.974-4.151-3.675-4.207-3.642-6.869.025-1.911-2.248-2.494-3.952-3.35-3.763-1.889-2.684.781-3.931,1.813-3.773,4.32-6.257,3.2-10.9,7.408-3.7,3.35-5.49,6.516-7.968,5.76-2.3-.7-5.084,9.257-.88,11.958,4.255,2.734-6.052,16.636-8.792,22.13-1.484,2.975-3.856,7.427-4.4,11.254,1.877,4.391,12.109,5.458,18.991,6.634,9.412,1.609,14.821,7.875,17.337,5.842,4.757-2.872,2.846-7.635,2.681-10.831" transform="translate(-4012.446 -16426.26)" fill="#de0d20"/><path d="M2000.514,1645.334a8.526,8.526,0,0,1-8.123.266,12.146,12.146,0,0,1-4.626-4.931,10.593,10.593,0,0,1-.562-5.064,6.363,6.363,0,0,1,1.138-2.318c1.258-1.644-.059-2.371,3.358-5.18,1.037-.853,6.441-4.394,12.009-1.529,4.895,2.519,3.1,15.427-3.195,18.756" transform="translate(-4031.751 -16416.377)" fill="#fdce9d"/><path d="M1995.02,1624.917a6.438,6.438,0,0,1,4.89-1.557c2.532.358,3.382-1.112,5.854-.238a13.936,13.936,0,0,1,6.765,4.966c1.515,2.716,1.658,4.4,1.164,6.021s-4.154,10.6-13.805,11.355c-1.543.12-2.427-.28-1.431-3,1.424-1.418,3.649-2.775,3.7-3.642s-1.106-1.232-1.919-1.115c-2.043.295-1.464-.137-1.468-2.925-.005-3.4-7.19-6.048-3.753-9.865" transform="translate(-4034.378 -16415.385)" fill="#382e28"/><path d="M1998.026,1623.157c.514-1.152,3.32-1.892,6.357-2.051s9.36-.18,11.939,1.871,3.215,3.3,1.866,6.093-5.179,10.477-6.9,11.679-4.719-3.7-7.45-6.985-6.582-8.891-5.817-10.608" transform="translate(-4035.821 -16414.709)" fill="#d9bf74"/><path d="M2011.578,1686.419c2.92,8.616,6.411,20.386,9.507,24.57,2.866,3.874,4.414,4.662,1.5,6.872s-4.222,4.141-7.057-.024c-3.127-4.595-8.235-12.271-11.148-18.76s-3.828-13.453-.181-14.168c4.073-.8,7.063.572,7.382,1.51" transform="translate(-4037.28 -16438.619)" fill="#de0d20"/><path d="M1982.567,1652.844c-1.178,1.6-3.767,3.9-2.18,5.045s3.519,4.8,8.034,5.183,4.843,1.984,8.013,2.122,3.524-6.357,2.344-8.144-1.956-.632-3.975-1.139a28.261,28.261,0,0,1-7.318-3.18c-1.952-1.3-3.478-1.848-4.918.112" transform="translate(-4029.041 -16426.178)" fill="#6fb9be"/><path d="M2007.389,1650.264c.481,2.667-2,5.9-.924,8.6,1.461,3.661-4.072,3.207-6.612,2.446-3.752-1.122-5.025-3.212-4.459-5.241,1.1-3.953,6.576-5.787,8.731-6.587s3.019-.579,3.265.783" transform="translate(-4034.82 -16425.221)" fill="#382e28"/><path d="M1995.21,1621.865c-2,1.292-3.883,2.8-2.408,5.2s8.56,7.852,10.1,11.269a64.806,64.806,0,0,0,2.726,5.961c.85,1.411,2.988-1.313,3.873-2.541s.384-1.767-.759-3.389-7.151-10.3-8.426-12.109-3.608-5.352-5.1-4.386" transform="translate(-4033.696 -16414.957)" fill="#bf8000"/><path d="M1943.609,1644.56c-.141-1.464.39-2.039.226-3.438s-.315-5.221-.4-7.668c-.036-1-.554-2.85,2.392-4.865,1.108-.758,1.192,1.056,2.522.209,2.241-1.425,2.146.373,2.95.453,1.389.138,2.407,1.758,1.879,3.555s.565.652.93,2.446c.22,1.08-1.487,3.73-3.306,5.081a5.851,5.851,0,0,0-2.156,4.443c-.087,1.074-4.96.533-5.032-.215" transform="translate(-4015.321 -16417.418)" fill="#6fb9be"/><path d="M1948.784,1649.442c-1.032,5.527-1.192,14,1.68,15.421,1.413.7,2.39.784,5.234,1.541,1.642.437,2.348,10.913-3.481,10.766-6.2-.156-11.79-5.248-13.975-9.259-1.639-3.007-.328-10.989,1.687-20.211.587-2.69,2.216-3.471,6.851-1.957,2.911.951,2.3,2.141,2,3.7" transform="translate(-4013.114 -16423.705)" fill="#de0d20"/><path d="M2011.969,1732.769a.512.512,0,0,1-.32-.252c-1.677-3.094-5.237-5.766-7.592-7.534-.727-.546-1.355-1.017-1.776-1.39-2.678-2.366-3.542-8.11-3.578-8.354a.514.514,0,0,1,1.018-.148c.008.056.846,5.615,3.241,7.732.39.345,1,.805,1.713,1.338,2.427,1.822,6.094,4.574,7.878,7.866a.514.514,0,0,1-.584.742" transform="translate(-4036.111 -16449.885)" fill="#55ab9d"/><path d="M1989.868,1719.21a.871.871,0,0,1-.443-.19,26.886,26.886,0,0,1-2.367-2.627,59.683,59.683,0,0,0-4.543-4.993c-3.058-2.909-2.9-5.7-2.728-8.94l.055-1.052a47.166,47.166,0,0,0-1.624-16.69c-2.114-7.019-.142-16.316.805-19.988.059-.229.384-.361.753-.292s.6.31.539.539c-.935,3.625-2.885,12.8-.814,19.676a47.7,47.7,0,0,1,1.65,16.891l-.055,1.056c-.175,3.2-.314,5.727,2.463,8.369a60.591,60.591,0,0,1,4.626,5.081,27.248,27.248,0,0,0,2.247,2.506.333.333,0,0,1-.086.6.87.87,0,0,1-.479.058" transform="translate(-4028.06 -16431.01)" fill="#55ab9d"/><path d="M1986.267,1748.964c.068-2.321-.445-3.712,2.173-4.617a28.915,28.915,0,0,1,7.435-1.907,27,27,0,0,0,6.306-.635c2.486-.625,5.246-1.508,5.945-.38s2.661,9.156,2.286,11.574-.137,4.641-2.72,4.386-3.733.587-7.2,1.36-5.728,2.172-8,1.819-5.409,1.056-5.044-2.239-1.326-8.365-1.172-9.362" transform="translate(-4031.435 -16459.742)" fill="#55ab9d"/></g><g transform="translate(4329.08 15797.451)"><path d="M1330.871,2467.013c2.621,1.6,1.781,4.364.225,6.473s-5.16,2.711-8.522,2.067c-2.051-.392-6.833-2.452-5.5-5.517,1.663-3.821,2.716-2.2,5-2.439.973-.1,2.454-1.44,4.007-1.751,2.085-.418,4.8,1.167,4.8,1.167" transform="translate(-4037.343 -17816.959)" fill="#de0d20"/><path d="M1334.4,2431.142c.158-1.485-.188-11.952.031-13.981.458-6.42-4.681-16.151-10.775-11.182-1,.814,0,2.438-2.771,5.795-4.8,5.818-.4,16.285.793,21.369.562,2.4,2.569,17.45,3.15,18.213,1.426,1.867,5.622,2.6,7.611,2.1s1.8-6.264,1.74-9.484c-.06-3.015-.076-10.031.221-12.826" transform="translate(-4037.815 -17801.338)" fill="#286e55"/><path d="M1350.9,2465.175c3.005.631,3.138,3.517,2.378,6.025s-3.956,4.281-7.34,4.8c-2.065.316-6.792.762-6.071-2.5.341-1.546.863-3.844,2.934-4.829.883-.419,1.831-2.178,3.19-2.99,1.825-1.093,4.909-.5,4.909-.5" transform="translate(-4043.204 -17816.764)" fill="#de0d20"/><path d="M1357.614,2424.445c.24-1.863-.181-4.425.15-6.971-.188-8.344-11.592-10.276-13.852-4.218,0,5.815,2.208,13.836,1.865,16.885-.346,3.079.433,19.473.987,20.366,1.359,2.19,5.609,2.7,7.668,1.891s2.175-7.968,2.28-11.97c.1-3.746.451-12.478.9-15.984" transform="translate(-4044.257 -17802.643)" fill="#286e55"/><path d="M1243.08,2475.764c-3.006,1.442-4.648,4.245-2.5,7.213s6.976,3.659,11.43,2.567c2.717-.667,8.911-4.554,7.02-8.908-2.358-5.43-6.333-1.238-9.378-1.465a25.74,25.74,0,0,0-6.576.594" transform="translate(-4017.616 -17819.02)" fill="#382e28"/><path d="M1273.368,2475.764c-3.006,1.442-4.648,4.245-2.5,7.213s6.976,3.659,11.43,2.567c2.717-.667,8.912-4.554,7.021-8.908-2.359-5.43-6.333-1.238-9.379-1.465a25.739,25.739,0,0,0-6.576.594" transform="translate(-4025.352 -17819.02)" fill="#382e28"/><path d="M1203.8,2399.547c-.6,15.816,13.9,15.329,16.905,29.863,1.923,9.315,8.178,25.8,8.266,28.441.1,2.973,14.171,1.288,13.775-2.279-.092-.828-3.726-24.947-3.468-29.135s2.06-8.662,2.477-7.155,10.265,34.531,11.514,38.979c.484,1.722,10.844-.758,10.747-3.482-.028-.774-3.019-27.807-3.019-38.068,0-10.347-18.807-26.03-19.452-26.971s-37.3-1.95-37.745,9.806" transform="translate(-4008.466 -17797.406)" fill="#286e55"/><path d="M1451.365,2474.9c3.366,1.234,5.412,4.066,3.414,7.464s-7.091,4.635-11.971,3.925c-2.978-.434-10.008-3.958-8.432-8.814,1.966-6.055,6.651-1.977,9.888-2.533a27.727,27.727,0,0,1,7.1-.041" transform="translate(-4067.305 -17819.088)" fill="#382e28"/><path d="M1418.945,2478.015c3.366,1.234,5.412,4.066,3.414,7.464s-7.091,4.635-11.971,3.925c-2.978-.434-10.008-3.958-8.432-8.814,1.966-6.056,6.651-1.977,9.888-2.534a27.734,27.734,0,0,1,7.1-.041" transform="translate(-4059.024 -17819.883)" fill="#382e28"/><path d="M1472.635,2389.617c2.27,16.868-13.306,17.84-15.023,33.706-1.1,10.169-6.1,28.459-5.921,31.294.2,3.192-15.037,2.837-14.98-1.023.013-.9,1.421-27.087.715-31.543s-3.1-9.061-3.389-7.4-7.435,38.019-8.314,42.908c-.34,1.893-11.686.3-11.862-2.621-.05-.833.371-30.076-.685-41.06-1.065-11.076,17.452-29.8,18.046-30.871s39.725-5.925,41.412,6.614" transform="translate(-4061.937 -17795.354)" fill="#286e55"/><rect width="332.601" height="12.479" rx="3.647" transform="translate(-2858.294 -15386.852)" fill="#382e28"/><path d="M1377.19,2310.3c-1.982-2.907-8.043-5.8-10.438-3.7-3.171,2.775-.529,8.457,3.435,12.421s8.186,3.713,9.514,1.057c1.453-2.907-.529-6.871-2.511-9.778m-.772,4.5c-.239.984-1.969.375-2.805-.566a4.591,4.591,0,0,1-1.444-3.236c.049-.743,1.04-1.09,2.18-.05,1.061.97,2.386,2.55,2.069,3.853" transform="translate(-4049.731 -17776.121)" fill="#c09c6c"/><path d="M1339.415,2340.6c.314.011,3.463.007,3.856-.016a27.579,27.579,0,0,0,.935,3.842,34.892,34.892,0,0,0,2.109,4.024c-.743,1.054-8.877.749-10.415-.345.839-.368,2.421-3.012,2.7-4.153s.8-2.921.819-3.352" transform="translate(-4042.211 -17784.984)" fill="#fdce9d"/><path d="M1310.793,2339.058c-.808-1.22-5.547-11.555-5.925-12.228a6.285,6.285,0,0,0-2.512-2.232c-1.158-.561-6.73-3.2-7.4-3.7s-1.11-1.2-.749-1.71,1.143-.62,1.379-1.181-.046-1.635.263-2.019.171-1.1,1.133-.772,4.31,1.448,4.835,1.6.535-1.1,1.228-1.172,2.495,5.236,2.944,6.086,9.371,12.2,9.955,13.25-5.153,4.086-5.153,4.086" transform="translate(-4031.529 -17778.482)" fill="#fdce9d"/><path d="M1359.606,2356.188c.433-.841,8.894-6.969,10.859-12.486.843-2.366.643-6.254.717-8.31.027-.771.562-2.841,1.654-3.525s5.034-3.106,5.646-3.677.973-1.315.558-1.782-1.2-.493-1.5-1.026-.132-1.63-.48-1.978-.289-1.077-1.209-.644-4.128,1.907-4.634,2.11-.651-1.031-1.347-1.031-1.92,5.7-2.276,6.6c-.142.358-1.256,8.447-1.672,10.868-.311,1.81-10.485,10.594-10.765,11.26-.467,1.111,4.447,3.625,4.447,3.625" transform="translate(-4047.122 -17780.396)" fill="#fdce9d"/><path d="M1349.632,2331.649c2.606-5.036,3.681-11.976-2.586-14.751s-9.884,2.327-11.2,3.717c-1.614,1.7-1.189,3.613-2.114,6.19-.484,4.1-.01,4.874.359,5.83a9.911,9.911,0,0,0,4.242,4.73c1.615.768,4.291.21,5.858-.468a11.821,11.821,0,0,0,3.419-2.235,2.4,2.4,0,0,0,1.666-.424,3.623,3.623,0,0,0,1.194-1.742.743.743,0,0,0-.839-.847" transform="translate(-4041.605 -17778.727)" fill="#fdce9d"/><path d="M1347.266,2312.334c.694.342,1.088.4,2.537.065a6.711,6.711,0,0,1,4.509.1,5.1,5.1,0,0,1,2.564,2.38c.311.758,1.149,2.887.487,4.6a5.068,5.068,0,0,0-.134,4.077c.486,1.092-.353,4.98-1.048,5.894a11.5,11.5,0,0,1-3.159,2.552c-.858.427-5.039,3.232-6.691,3.568-1.467.3-4.292.41-4.5-.3-.432-1.5-2.682.394-3.76-1.5-1.147-2.014,2.63-5.327,2.247-6.94-.311-1.306-1.01-1.234-1.7-.841s.888-5.491.037-4.957-2.608,1.109-3.561-.493-1.468-3.125.3-4.739,3.355-1.268,4.036-3.023,2.124-3.457,4.47-2.686,2.584,1.708,3.356,2.239" transform="translate(-4041.784 -17777.148)" fill="#382e28"/><path d="M1350.886,2413.989c3.478-.083,4.737-2.539,5.663-4.375,1.513-3-.249-10.159-1.2-12.986s-1.717-4.683-3.726-4.874-6.228,1.079-10.858.739-8.8-.607-10.407-.76c-2.31-.219-2.01,2.121-3.048,3.442a16.415,16.415,0,0,0-2.45,5.744c-.561,2.154-.887,6.08.437,8.363.537.928,2.756,4.692,6.884,4.84,1.823.067,5.783-.594,8.048-.594,3.039,0,5.817.578,10.653.462" transform="translate(-4039.268 -17798.043)" fill="#286e55"/><path d="M1330.7,2403.785c.914-.007,4.567-.032,6.517-.235s1.858-.314,1.924,1.011.628,3.717-.713,4.9a25.98,25.98,0,0,1-3.835,2.746c-.644.338-1.517-.057-2.626-1.085s-2.422-2.078-2.345-3.794a9.575,9.575,0,0,1,1.079-3.54" transform="translate(-4040.606 -17801.035)" fill="#c09c6c"/><path d="M1341.51,2404.528a.141.141,0,0,1,.094-.158c.061-.011.12.048.13.13l.089.7c.014.094-.031.159-.092.169s-.12-.047-.131-.13l-.089-.7v-.011" transform="translate(-4043.644 -17801.275)" fill="#1e1f1e"/><path d="M1341.651,2407.165a.14.14,0,0,1,.094-.158c.062-.011.12.048.13.13l.089.7c.014.095-.031.159-.092.169s-.12-.048-.131-.13l-.089-.7v-.011" transform="translate(-4043.68 -17801.947)" fill="#1e1f1e"/><path d="M1341.4,2409.8a.141.141,0,0,1,.168-.074.13.13,0,0,1,.03.183l-.336.625c-.043.086-.117.112-.173.084a.129.129,0,0,1-.031-.182l.336-.625.006-.01" transform="translate(-4043.522 -17802.641)" fill="#1e1f1e"/><path d="M1340.1,2411.44a.14.14,0,0,1,.182-.021.129.129,0,0,1-.025.183l-.506.5a.135.135,0,0,1-.191.029.13.13,0,0,1,.024-.183l.506-.5.008-.008" transform="translate(-4043.139 -17803.068)" fill="#1e1f1e"/><path d="M1338.637,2412.843a.14.14,0,0,1,.182.018c.036.052.007.129-.062.173l-.6.379a.135.135,0,0,1-.193-.013.129.129,0,0,1,.063-.174l.6-.378.01-.006" transform="translate(-4042.734 -17803.434)" fill="#1e1f1e"/><path d="M1336.583,2414.04a.14.14,0,0,1,.182.018c.036.052.007.129-.062.173l-.6.379a.135.135,0,0,1-.193-.013.129.129,0,0,1,.063-.174l.6-.378.01-.006" transform="translate(-4042.209 -17803.738)" fill="#1e1f1e"/><path d="M1334.542,2414.264a.139.139,0,0,1,.028.181.128.128,0,0,1-.183-.016l-.519-.484a.134.134,0,0,1-.038-.189.13.13,0,0,1,.185.017l.518.483.009.008" transform="translate(-4041.676 -17803.664)" fill="#1e1f1e"/><path d="M1332.587,2412.531a.139.139,0,0,1,.029.181.129.129,0,0,1-.184-.017l-.519-.484a.134.134,0,0,1-.037-.189.129.129,0,0,1,.184.017l.519.483.008.008" transform="translate(-4041.177 -17803.223)" fill="#1e1f1e"/><path d="M1331.1,2410.9a.14.14,0,0,1,0,.184.13.13,0,0,1-.179-.048l-.431-.563a.134.134,0,0,1,0-.193.129.129,0,0,1,.178.048l.431.564.007.009" transform="translate(-4040.818 -17802.779)" fill="#1e1f1e"/><path d="M1330.458,2408.889a.14.14,0,0,1-.112.145c-.062,0-.113-.062-.113-.146v-.71c0-.1.051-.154.113-.156s.112.063.112.146v.72" transform="translate(-4040.763 -17802.209)" fill="#1e1f1e"/><path d="M1330.763,2406.651c-.019.076-.08.13-.139.12s-.1-.083-.082-.165l.141-.7c.017-.094.08-.14.142-.131s.1.083.082.165l-.141.7,0,.011" transform="translate(-4040.841 -17801.635)" fill="#1e1f1e"/><path d="M1359.747,2401.878c-.887.223-4.43,1.117-6.367,1.41s-1.879.163-1.608,1.463.327,3.756,1.92,4.561a25.934,25.934,0,0,0,4.4,1.694c.708.166,1.453-.436,2.269-1.71s1.821-2.619,1.316-4.262a9.579,9.579,0,0,0-1.933-3.155" transform="translate(-4046.229 -17800.639)" fill="#c09c6c"/><path d="M1352.327,2405.188c-.016-.077-.075-.132-.134-.125s-.1.079-.089.162l.112.7c.013.094.074.144.136.136s.1-.079.089-.162l-.112-.7,0-.011" transform="translate(-4046.349 -17801.453)" fill="#1e1f1e"/><path d="M1352.929,2407.759c-.016-.077-.074-.133-.134-.125s-.1.079-.089.162l.112.7c.013.094.074.144.136.136s.1-.079.089-.162l-.112-.7,0-.011" transform="translate(-4046.503 -17802.109)" fill="#1e1f1e"/><path d="M1353.785,2410.257a.141.141,0,0,0-.182-.025.13.13,0,0,0,.022.184l.5.506a.133.133,0,0,0,.19.032.129.129,0,0,0-.022-.183l-.5-.507-.008-.007" transform="translate(-4046.725 -17802.766)" fill="#1e1f1e"/><path d="M1355.426,2411.484a.138.138,0,0,0-.181.031c-.033.054,0,.129.074.169l.625.336a.134.134,0,0,0,.191-.025c.032-.053,0-.129-.075-.169l-.624-.336-.01-.005" transform="translate(-4047.149 -17803.088)" fill="#1e1f1e"/><path d="M1357.188,2412.429a.14.14,0,0,0-.171.069c-.02.059.029.126.109.149l.682.2a.134.134,0,0,0,.181-.066c.02-.059-.029-.126-.109-.149l-.682-.2-.011,0" transform="translate(-4047.603 -17803.332)" fill="#1e1f1e"/><path d="M1359.495,2413a.139.139,0,0,0-.171.068c-.02.059.029.126.109.149l.682.2a.134.134,0,0,0,.181-.066c.02-.059-.029-.126-.109-.149l-.682-.2-.011,0" transform="translate(-4048.192 -17803.48)" fill="#1e1f1e"/><path d="M1361.6,2412.584a.141.141,0,0,0,.022.183.13.13,0,0,0,.172-.068l.363-.61a.135.135,0,0,0-.017-.192.13.13,0,0,0-.172.068l-.364.61-.005.01" transform="translate(-4048.77 -17803.193)" fill="#1e1f1e"/><path d="M1363,2410.373a.14.14,0,0,0,.022.182.129.129,0,0,0,.172-.067l.363-.61a.135.135,0,0,0-.017-.192.13.13,0,0,0-.172.068l-.364.61-.005.01" transform="translate(-4049.126 -17802.631)" fill="#1e1f1e"/><path d="M1364.009,2408.4a.139.139,0,0,0,.053.176c.057.025.128-.017.158-.1l.256-.661a.134.134,0,0,0-.048-.187c-.057-.025-.128.017-.159.1l-.256.662,0,.01" transform="translate(-4049.388 -17802.105)" fill="#1e1f1e"/><path d="M1364.156,2406.285a.14.14,0,0,0,.149.108.13.13,0,0,0,.068-.172l-.2-.682c-.024-.092-.092-.133-.152-.118s-.091.091-.068.172l.2.681,0,.01" transform="translate(-4049.374 -17801.543)" fill="#1e1f1e"/><path d="M1363.189,2404.235a.139.139,0,0,0,.167.076.129.129,0,0,0,.033-.182l-.33-.628c-.042-.085-.116-.112-.173-.085a.129.129,0,0,0-.032.182l.33.628.005.01" transform="translate(-4049.09 -17801.029)" fill="#1e1f1e"/><path d="M1339.877,2346.915c1.068-.751,3.813,1.3,8.305.068,3.153-.862,5.009-2.721,7.666,1.981,2.916,5.159,2.259,4.26-1.412,6.871-3.26,2.319-3.307,11.665-3.072,12.809.581,2.83,3.611,5.326,2.657,8.577-.882,3.008-6.826,3.782-9.656,4.083-4.2.448-7.62-1.406-8.746-1.719s-5.39.354-7.146.933-4.361,1-4.85-.81c-1.187-4.4,1.094-11.279,1.224-12.626s-.829-11.316-1.284-12.5c-.354-.92-3.707-4.339-4.972-5.955a62.673,62.673,0,0,0-4.6-5.351c-1.3-.872,4.27-7.217,5.657-7.775.579-.232,6.123,7.142,8.8,8.245,1.277.525,3.383.957,4.1,1.393.836.506,3.536,3.718,7.327,1.771" transform="translate(-4036.564 -17783.686)" fill="#87b235"/><path d="M1257.147,2276.253c-1.882-2.2-7.1-4.023-8.874-2.094-2.348,2.555.324,6.969,3.922,9.858s7.031,2.306,7.881.014c.929-2.509-1.048-5.576-2.929-7.778m-.308,3.976c-.242.212-.675.227-1.486-.29a5.7,5.7,0,0,1-1.791-1.81c-.441-.753-.261-1.151.052-1.334s.96.064,1.109.163a5.583,5.583,0,0,1,1.8,1.606c.66.875.664,1.364.32,1.664" transform="translate(-4019.604 -17767.811)" fill="#c09c6c"/><path d="M1258.291,2277.027c-2.165-2.519-3.586-3.235-5.116-3.7a7.58,7.58,0,0,0-4.1.109c-.649.176-2.4,1.329-1.386,1.958s1.822.667,2.091,1.29c.22.509-.4,1.808.739,3.017s2.627.676,3.6,1.6c.389.368.957,2.029,1.847,2.26,1.774.463,1.365,1.41,1.576,1.839s.218.674,1.173.405a2.734,2.734,0,0,0,1.8-2.29,8.379,8.379,0,0,0-2.227-6.487m-1.453,3.136c-.242.212-.675.227-1.486-.29a5.7,5.7,0,0,1-1.791-1.81c-.441-.753-.261-1.151.052-1.334s.96.064,1.109.163a5.583,5.583,0,0,1,1.8,1.606c.66.875.664,1.364.32,1.664" transform="translate(-4019.602 -17767.744)" fill="#382e28"/><path d="M1203.4,2385.278c-4.1-.372-7.505,7.747-7.747,11.863s-.666,9.109,1.937,11.863c2.1,2.223,7.748,4.116,14.526,3.389s8.958-2.179,14.526-.726,10.41.726,13.073-1.7,2.905-8.715.726-13.315-3.631-11.379-10.168-12.1-24.21.968-26.873.726" transform="translate(-4006.344 -17796.166)" fill="#286e55"/><path d="M1270.791,2292.543c-.259-1.148-1.538-6.148-3.036-7.54s-3.062-1.953-5.914-2.741c-1.081-.3-.849.911-1.287.948-1.241.106-1.866.845-1.369,1.546.9,1.276,3.788,4.76,4.065,5.421.485,1.163,2.478,4.358,3.471,4.792.873.382,1.133,1.545,1.8,3.251,2.271,4.06,5.281.692,3.743-2.974a16.5,16.5,0,0,1-1.474-2.7" transform="translate(-4022.573 -17770.076)" fill="#fdce9d"/><path d="M1230.063,2289.381c-.325.011-4.569.463-4.976.439a29.937,29.937,0,0,1-.954,4.072c-.377.852-3.149,5.749-3.54,6.182,4.842,3.871,11.39,3.111,14.425-.653-.866-.389-3.617-4.828-4.039-6.47-.31-1.205-.9-3.114-.915-3.57" transform="translate(-4012.76 -17771.906)" fill="#fdce9d"/><path d="M1216.511,2273.407c-1.924-6.427-1.648-14.731,6.246-16.581s10.98,4.878,12.2,6.782c1.5,2.336-1.19,5.08,1.1,7.661-.339,4.877-1.06,5.669-1.7,6.7a11.726,11.726,0,0,1-5.971,4.566c-2.045.538-5.033-.7-6.706-1.832a13.98,13.98,0,0,1-3.483-3.35,2.844,2.844,0,0,1-1.844-.858,4.3,4.3,0,0,1-1.005-2.287.88.88,0,0,1,1.162-.8" transform="translate(-4011.42 -17763.51)" fill="#fdce9d"/><path d="M1220.031,2252.572c-1.74-.263-5.608-.164-7.5.726a14.424,14.424,0,0,0-5.272,5.176c-1.115,2.1-1.284,5.287-1.19,8.914.1,3.855,2.933,8.494,2.718,11.048-.2,2.322-3.778,3.526-3.7,4.657.072.975,3.071,1.934,5.256,2.439,3.4.788,17.807-1.023,20-2.626,1.4-1.023-2.818-3.125-2.611-5.692.331-4.121-2.973-4.721-2.212-6.529.617-1.464,1.015-1.24,1.74-.648s1.134-2.622,1.585-4.328c.573-2.167,2.695-4.963,2.243-7.145s-7.205-5.411-11.056-5.992" transform="translate(-4008.8 -17762.473)" fill="#382e28"/><path d="M1244.4,2312.067c-1.75,1.549-2.631-4.465-7.362-8.435-2.675-2.051-5.887-4.875-8.765-5.433-2.632-.369-.949,1.348-7.841,1.308-5.667-.033-5.687-1.567-6.786-1.491a45.288,45.288,0,0,0-7.167.824c-3.094.4-8.841,3.991-12.7,8.96-3.318,4.274-8.455,12.977-8.581,20.569-.26,15.61,8.305,19.7,8,24.211s-.338,12.344-.277,14.1,3.03,5,10.717,5.349c6.678.3,26.373.654,31.512-1.133,4.729-1.644,1.986-13.341,1.744-18.133s-1.591-19.3-1.8-20.814,3.312-2,4.661-.45,5.628,2.3,7.489,2.158c13.1-.979,7.822-26.445,8.479-30.434.77-4.673-6.876-5.141-12.557-3.8-2.623.618,2.416,11.6,1.226,12.65" transform="translate(-4003.72 -17774.111)" fill="#de0d20"/><path d="M1200.881,2298.36c3.5-1.922,4.672.4,8.066-.183s2.557-.991,7.873-1.019,3.444,1.478,7.555,1.292c2.459-.112,2.818-.661,5.129-1.4s7.256,2.745,5,6.211c-1.025,1.575-8.549,3.406-7.161,6.557s3.036,10.957,4.985,12.946c3.235,3.3,4.1,13.881.131,12.893s-5.671.922-9.572,2.668-9.626-.658-12.992-1.506-11.261,1.929-15.169.033c-3.632-1.762-5.152-5.592-2.383-11.267s.954-5.58,1.416-10.649.842-4.223,2.042-6.417c.861-1.577,2.191-2.018,1.747-3.98s.689-4.728,3.333-6.182" transform="translate(-4005.181 -17773.84)" fill="#6fb9be"/><path d="M1544.431,2381.216a1.755,1.755,0,0,1,.093.285c.509,4.8,3.584,9.383,5.051,14.059s4.3,6.966,4.4,11-3.173,6.714-8.013,6.87a30.856,30.856,0,0,0-4.863.7c1.684-10.964-2.5-26,3.33-32.915" transform="translate(-4094.621 -17795.361)" fill="#bf8000"/><path d="M1513.221,2390.249c1.611-6.178,3.514-9.619,3.732-10.613s2.289-.243,8.188-.867c5.649-.6,10.471-.359,11.268,1.749-5.826,6.911-1.647,21.95-3.331,32.916-3.2.622-6.5,1.194-10.33-.5-5.773-2.548-6.281-1.227-10.984-5.895s-.153-10.615,1.458-16.794" transform="translate(-4086.598 -17794.664)" fill="#d9bf74"/><path d="M1537.9,2378.89c-1.832-.36-2.141-.936-3.748-.905s-.823-.756-5.241-.38-6.237.753-8.45.9-2.319.322-2.964,1.25-3.274,2.755-.065,2.195,1.543.071,6.511.2,6.352-2,8.573-.908,2.895,1.479,4.346,1.033,3,.512,2.7-1.12a3.23,3.23,0,0,0-1.666-2.264" transform="translate(-4088.177 -17794.414)" fill="#bf8000"/><path d="M1403.816,2298.587a.783.783,0,0,1-.917.457l-9.619-2.673a.783.783,0,0,1-.55-.864l2.874-17.041a.611.611,0,0,1,.78-.494l13.35,3.709a.61.61,0,0,1,.411.826Z" transform="translate(-4056.724 -17768.986)" fill="#c09c6c"/><path d="M.925,0h.936a.925.925,0,0,1,.925.925V16.038a.926.926,0,0,1-.926.926H.925A.925.925,0,0,1,0,16.038V.925A.925.925,0,0,1,.925,0Z" transform="matrix(0.268, -0.963, 0.963, 0.268, -2662.016, -15490.785)" fill="#382e28"/><path d="M1411.956,2278.074a.553.553,0,0,1-.724.5l-12.767-3.548a.553.553,0,0,1-.361-.8l.768-1.571a.863.863,0,0,1,.967-.435l11.666,3.243a.862.862,0,0,1,.6.87Z" transform="translate(-4058.082 -17767.518)" fill="#382e28"/><path d="M1399.132,2314.4c-2.488-4.981-2-10.794-3.341-11.453s-3.428-1.962-5.654-3.291c-.9-.54-1.622-1.993-2.947-4.924-.586-1.295,1.623-.451,1.637-2.121.022-2.811,1.566-1.693,2.1-2.361.923-1.155,1.153-1.5,2.447,0a17.134,17.134,0,0,1,2.358,3.416c.418.806,1.31,1.865,1.578.227s.514-2.521,1.53-3.093,1.654.034,1.113,1.976c-.143,2.386,1.19,5.281,1.431,6.632a94.044,94.044,0,0,0,3.2,10.85c1.542,3.755-3.595,7.856-5.451,4.142" transform="translate(-4055.286 -17771.875)" fill="#fdce9d"/><path d="M1475.739,2385.191c4.623-.373,8.464,7.747,8.738,11.863s.951,9.1-2.185,11.863c-4.094,3.612-8.739,4.116-16.383,3.389s-10.1-2.178-16.385-.726-11.741.726-14.744-1.695-3.277-8.716-.819-13.316,4.1-11.379,11.468-12.1,27.306.968,30.31.726" transform="translate(-4066.833 -17796.145)" fill="#286e55"/><path d="M1456.7,2275.138c.325.01,4.586.458,4.994.433a30.033,30.033,0,0,0,.964,4.085c.379.853,3.168,5.763,3.561,6.2-4.852,3.892-11.423,3.139-14.474-.631.868-.392,3.622-4.851,4.042-6.5.309-1.209.9-3.125.913-3.583" transform="translate(-4071.799 -17768.268)" fill="#fdce9d"/><path d="M1466.271,2257.473c.63-6.7-1.271-14.819-9.4-15.088s-10.907,8.209-10.721,14.938c-.366-.395-1.3-.515-1.338.586a3.527,3.527,0,0,0,.789,2.148,3.974,3.974,0,0,0,1.793,1.263,9.653,9.653,0,0,0,2.214,4.145,11.762,11.762,0,0,0,6.772,3.321c2.118.128,4.816-1.675,6.24-3.12a14,14,0,0,0,2.769-3.98,2.855,2.855,0,0,0,1.647-1.207,4.3,4.3,0,0,0,.539-2.448.882.882,0,0,0-1.3-.559" transform="translate(-4070.027 -17759.902)" fill="#fdce9d"/><path d="M1451.161,2236.672c.914.088,1.377-.012,2.843-1s3.161-1.96,5.048-1.783a6.048,6.048,0,0,1,3.848,1.561c.665.71,2.491,2.721,2.476,4.9a6.015,6.015,0,0,0,1.569,4.583c1,1.008,1.7,5.677,1.317,6.983a13.656,13.656,0,0,1-2.432,4.163c-.773.835-.847,5.646-2.636,5.741-1.326.072-1.207,2.17-3.394,3.4-1.935,1.087-2.34-.6-4.81.993-1.444.928-3.449-.564-4.911-1.2a8.749,8.749,0,0,1-4.063-4.778c-.911-2.265-.275-5.035-1.611-6.4a30.417,30.417,0,0,0-3.293-2.928c-1.732-1.376-2.945-2.851-1.657-5.388s3.19-2.819,3.207-5.055.9-4.73,3.831-4.863,3.586.807,4.667,1.072" transform="translate(-4068.523 -17757.729)" fill="#382e28"/><path d="M1432.89,2282.905c2.022-1.294,5.542-2.842,6.122-2.736,2.319.422,4.045,1.823,6.179,2.046s5.586-1.083,6.688-1.156a21.725,21.725,0,0,1,9.471,1.675c6.38,2.832,10.165,8.508,12.01,10.913,3.436,4.477,7.988,15.06,8.384,24.522.517,12.354-4.135,24.453-7.913,22.64-2.989-1.435-1.689,12.057-2.083,20.209-.085,1.756-3.6,4.782-9.551,4.509s-9.809-2.675-12.487-4c-2.162-1.071-12.83-1.237-16.061-.656s-9.421,1.228-10.06-2.56c-1.448-8.584,3.141-19.841,3.377-24.65s1.9-15.135.325-16.177c-1.722-1.14-13.049,12.826-18.063,11.279-5.623-1.736-11.024-17.244-12.478-19.51s6.945-11.392,10.972-6.851c2.663,3,3.138,9.677,4.415,8.037s10.187-18.19,11.461-19.677a35.24,35.24,0,0,1,9.291-7.857" transform="translate(-4057.71 -17769.551)" fill="#ffcb52"/><path d="M1168.355,2412a.926.926,0,0,1-.9.81H1155.65a.927.927,0,0,1-.9-.81l-2.119-20.322a.72.72,0,0,1,.73-.811h16.383a.72.72,0,0,1,.73.811Z" transform="translate(-3995.401 -17797.826)" fill="#6fb9be"/><rect width="20.058" height="3.294" rx="1.094" transform="translate(-2843.877 -15409.462)" fill="#382e28"/><path d="M1170.195,2386.256a.654.654,0,0,1-.666.8h-15.667a.654.654,0,0,1-.666-.8l.378-2.033a1.02,1.02,0,0,1,.963-.8h14.316a1.02,1.02,0,0,1,.964.8Z" transform="translate(-3995.543 -17795.926)" fill="#382e28"/><path d="M1128.576,2458.016c-1.392,5.247-1.342,10.183.113,11.026l2.964,1.714c1.455.842,3.765-2.729,5.156-7.977l7.566-28.5c1.392-5.246,1.343-10.184-.112-11.025l-2.964-1.714c-1.456-.842-3.764,2.73-5.157,7.977Z" transform="translate(-3989 -17805.629)" fill="#382e28"/><path d="M1294.864,2248.808c.949,4.168,3.425,6.334,7.348,6.676,4.44.386,8.447-.986,12.243-3.146,2.744-1.562,5.41-3.283,8.248-4.649,5.93-2.853,10.176-2.437,15.814,1.384.652-1.946,1.376-3.8,1.893-5.715.928-3.434,3.128-5.559,6.573-6,3.785-.49,7.618-.641,11.436-.823,3.366-.161,6.793.271,9.9-1.568,4.121-2.437,6.587-5.767,6.089-10.792-.034-.337-.047-.677-.048-1.015a3.011,3.011,0,0,1,.224-.613c3.58,2.181,6.164-.2,8.925-2.012,4.455-2.93,7.04-6.948,7.2-12.344.1-3.409-.351-6.6-4.186-8.014-.237-.086-.34-.534-.57-.921,1.35-1.455,2.526-.655,3.38.4a11.724,11.724,0,0,1,2.938,8.418c-.629,8.793-6.3,14.626-15.494,17.475-.2.063-.377.23.1-.074-1.366,2.8-2.154,5.18-3.552,7.125-3.331,4.636-8.248,5.954-13.717,5.905a92.111,92.111,0,0,0-9.8.252c-7.025.69-10.834,6.705-8.668,13.422.3.917,1.127,1.815-.232,2.855-.434-.393-1.073-.718-1.319-1.231-2.909-6.053-10.158-7.826-16.966-4.169-3.876,2.082-7.68,4.315-11.651,6.2a14.8,14.8,0,0,1-11.846.613,9.856,9.856,0,0,1-5.407-4.918c-5.911,2.15-11.618,2.5-15.849-2.741-2.962-3.669-2.915-7.928-.533-10.8-.63,5.031-.588,9.5,4.271,12.238,4.668,2.627,8.892,1.236,13.251-1.415" transform="translate(-4026.81 -17748.686)" fill="#382e28"/><path d="M1396.821,2183.08c.844-.982,1.385-1.7,2.014-2.32.993-.982,2.115-1.9,3.558-.931a3.193,3.193,0,0,1,1.48,3.813,6.2,6.2,0,0,1-1.926,3.067A34.009,34.009,0,0,1,1396,2189.7a2.114,2.114,0,0,1-1.8-.543c-1.984-2-3.354-4.34-2.7-7.273a3.719,3.719,0,0,1,1.651-2.276c1.09-.552,1.818.46,2.367,1.364.346.567.7,1.132,1.3,2.112" transform="translate(-4056.371 -17743.822)" fill="#382e28"/><path d="M1362.469,2222.5c-1.75-2.758-2-5.873-3.132-9.435,3.52,1.83,3.829-1.913,6.242-2.5l2.048,2.591a4.425,4.425,0,0,0,.771-.859c.48-.919.988-2.133,2.147-1.732a5.929,5.929,0,0,1,3.115,2.2c1.125,1.963.634,4.284,1.042,6.44l-.753.243c-.366-.427-.958-.81-1.05-1.289a28.233,28.233,0,0,1-.152-3.038,3.079,3.079,0,0,0-2.3-3.161c-2.176,2.091-1.01,5.18-2.305,7.884-2.3-1.935-.973-5.171-3.078-7.054-3.9,2.441-1.4,6.477-2.595,9.7" transform="translate(-4048.197 -17751.756)" fill="#382e28"/><path d="M1337.416,2220.158l4.235-3.024,2.839,3.389c.493-.982.9-1.863,1.368-2.708a1.792,1.792,0,0,1,2.812-.783c1.624,1.023,3.11,5.962,2.4,8.316-2.292-1.733-.908-5.37-3.585-6.711-2.267,1.973-1.031,5.115-2.735,8.02l-2.986-7.385c-2.8,2.77-.972,5.825-1.286,8.681-1.748-1.41-1.748-1.41-3.063-7.8" transform="translate(-4042.598 -17753.326)" fill="#382e28"/><path d="M1303.119,2233.042c1.776-2.422.532-5.372,3.229-6.913-1.115,6.315-2.217,12.633-3.377,18.94-.082.442-.586.808-1.39,1.856-.771-4.424.976-7.9.855-11.72l-8.361-6.032c.651-1.325,1.465-1.426,2.453-.658,1.153.9,2.229,1.9,3.422,2.731.981.685,2.088,1.192,3.169,1.8" transform="translate(-4031.528 -17755.75)" fill="#382e28"/><path d="M1383.729,2225.091c1.734-2.383,3.076-4.151,4.334-5.977,1.222-1.773.821-3.352-.683-4.8a33.853,33.853,0,0,1-2.987-3.213,15.17,15.17,0,0,1-1.31-2.4l.7-.5,6.035,6.613c.383-2.991.665-5.2.948-7.416l.631-.135a8.348,8.348,0,0,1,.712,2.19c.218,6.1-2.419,11.1-6.247,15.579-.238.278-1.072.046-2.138.057" transform="translate(-4054.262 -17750.934)" fill="#382e28"/><path d="M1317.343,2223.446c1.242,2.26.421,5.146,2.511,7.23a4.965,4.965,0,0,0,3.924-3.712,32.2,32.2,0,0,0,.575-5.776c1.416,1.77,3.972,8.61,3.825,10.567l-2.675-3.567a43.924,43.924,0,0,1-3.809,3.567c-1.666,1.245-2.952.93-3.838-.925-1.106-2.315-1.765-4.759-.514-7.385" transform="translate(-4037.298 -17754.488)" fill="#382e28"/><path d="M1127.879,2319.935c.455,7.385,7.019,14.691,1.771,22.453,0,0,13.293-7.733,18.778-13.393,3.455-3.287,6.024-11.061-1-12.281-3.521-.61-7.156,4.465-9.185,6.853.021-3.193.066-9.576-3.185-11.291-6.1-3.109-7.983,3.865-7.177,7.66" transform="translate(-3989.035 -17777.557)" fill="#de0d20"/><path d="M1178.826,2257.857c3.376-5.214,1.024-10.526-5.2-9.066-5.007,1.275-5.794,5.591-7.109,9.745-2.68-4.273-4.672-8.9-10.754-9.682-4.352-.8-12.631,1.717-8.877,8.042,1.962,2.9,10.729,4.771,13.505,8.269a21.393,21.393,0,0,1,2.931,4.808c1.782-4.465,13.912-9.939,15.5-12.116" transform="translate(-3993.693 -17761.477)" fill="#de0d20"/><path d="M1447.505,2163.574c.586,9.507,9.036,18.913,2.28,28.906,0,0,17.114-9.956,24.176-17.242,4.448-4.231,7.755-14.24-1.29-15.812-4.532-.785-9.214,5.749-11.825,8.823.026-4.113.084-12.329-4.1-14.536-7.85-4-10.277,4.976-9.24,9.861" transform="translate(-4070.658 -17737)" fill="#de0d20"/></g><g transform="translate(3150.485 18927.66)"><path d="M1412.513,322.563c-2.468-.316-4.664-.762-6.871-.833-2.184-.071-4.38.238-6.57.38l-.153-.46c.3-.235.559-.6.892-.684a29.146,29.146,0,0,1,11.264-.117c.951.143.946.151,1.438,1.713" transform="translate(-3128.495 -18487.094)" fill="#382e28"/><path d="M1407.1,301.035a13.2,13.2,0,0,1,2.3.762c1.625.882,3.2,1.852,4.755,2.86.3.194.376.723.556,1.1a10.026,10.026,0,0,1-1.4.2c-.187,0-.37-.256-.567-.376-1.7-1.038-3.42-2.06-5.113-3.117a5.748,5.748,0,0,1-.867-.829l.336-.6" transform="translate(-3131.208 -18480.414)" fill="#382e28"/><path d="M1565.791,266.435c.416.858.038,1.26-.544,1.621a63.513,63.513,0,0,0-11.3,8.337c-.226.222-.628.264-1.359.551.306-.75.353-1.23.619-1.462,1.787-1.569,3.558-3.169,5.456-4.6,1.965-1.479,4.061-2.786,6.117-4.14a3.772,3.772,0,0,1,1.014-.308" transform="translate(-3181.627 -18468.451)" fill="#382e28"/><path d="M1545.418,267.2a21.814,21.814,0,0,1,5.147-7c.8.6.821,1.3.237,1.626-2.012,1.134-2.737,3.223-3.95,4.955a5.319,5.319,0,0,1-.936.833l-.5-.419" transform="translate(-3179.149 -18466.295)" fill="#382e28"/><path d="M1437.76,315.1c3.139-1.325,6.09-2.59,9.058-3.814a2.173,2.173,0,0,0,1.475-2.956q-.622-2.113-1.106-4.263a3.166,3.166,0,0,1,.352-2.392,10.705,10.705,0,0,1,1.248,2.116c.784,2.475,1.48,4.979,2.139,7.489.631,2.4,1.165,4.827,1.757,7.238.279,1.142.3,1.138-.779,2.663-2.056-2.4-1.4-5.685-3.233-8.51-3.238,1.295-6.728,2.2-9.679,4.332,1.652,3.093,3.246,6.063,4.809,9.05.065.124-.158.391-.417.979-2.351-1.435-2.516-4.155-3.942-5.986a37.285,37.285,0,0,1-3.853-6.016c-1.074-2.12-3.1-3.774-3.834-6.794,3.462,1.584,3.55,5.009,6.005,6.864" transform="translate(-3139.848 -18480.635)" fill="#382e28"/><path d="M1515.5,304.527c.23,3.613.421,6.606.611,9.6l-.661.3c-.438-.487-1.073-.91-1.271-1.477a10.179,10.179,0,0,1-.377-2.678c-.326-5.178-.627-10.357-.931-15.445,1.395-.769,2.542-1.437,3.722-2.044a3.466,3.466,0,0,1,4.664.785,7.843,7.843,0,0,1,.556,9.74c-1.535,2-3.534,2.37-6.314,1.221m6.035-5.722c.027-2.482-1.322-4.743-2.878-4.823-1.6-.082-3.222,2.011-3.443,4.436-.223,2.443,1.3,4.863,3.1,4.924,1.655.056,3.195-2.112,3.221-4.536" transform="translate(-3167.896 -18477.363)" fill="#382e28"/><path d="M1490.834,303.2a29.725,29.725,0,0,0,3.3-2.825c2.048-2.425,4.381-2.525,6.269-.025a7.77,7.77,0,0,1,1.132,7.714c-.936,2.529-2.876,3.365-6.666,3.067-.627,2.876,1.759,5.759.421,8.585a3,3,0,0,1-.6.054c-.109-.024-.278-.087-.294-.16-1.225-5.592-2.436-11.187-3.568-16.41m9.515,2.011c-.1-.835.013-1.52-.279-1.919-.758-1.038-1.526-2.421-2.6-2.794-1.377-.478-2.216,1.013-2.593,2.162-.442,1.344-.967,2.93-.609,4.179a4.645,4.645,0,0,0,2.847,2.471c.58.186,1.832-1.015,2.472-1.823a6.466,6.466,0,0,0,.767-2.275" transform="translate(-3160.276 -18479.543)" fill="#382e28"/><path d="M1532.989,288.378l4.934,7.948.9-.114c.772-2.828,1.544-5.655,2.392-8.765.574.526,1.023.771.995.935-1.194,6.892-2,13.942-7.156,19.416a10.13,10.13,0,0,1-2.754,1.921c-.3.156-.946-.321-1.722-.618.484-.542.694-1,1.032-1.122,2.364-.869,3.56-2.757,4.627-4.811,1.338-2.576,1.82-4.919-.554-7.367a23.531,23.531,0,0,1-3.254-5.191,5.978,5.978,0,0,1-.317-1.991l.88-.24" transform="translate(-3174.016 -18475.715)" fill="#382e28"/><path d="M1476.584,316.729l-4.1,4.692c-4.466-2.65-5.942-7.783-3.71-11.669a3.7,3.7,0,0,1,4.011-2c.985.139,1.971.265,2.987.4,1.437,3.78,2.882,7.545,4.277,11.329.083.224-.229.586-.44,1.076-2.177-.506-1.557-2.921-3.023-3.828m-4.215,2.306c2.048-2.388,3.169-5.192,2.478-7.264a4.7,4.7,0,0,0-2.434-2.446c-.453-.2-1.794.823-2.287,1.571-1.9,2.893-.992,6.134,2.243,8.138" transform="translate(-3152.292 -18482.717)" fill="#382e28"/><path d="M1991.208,403.147a5.754,5.754,0,0,1-.437-.855c-1.124-3.3-.118-5.029.923-5.9,2.51-2.108,7.549-1.2,10.22.266a13.2,13.2,0,0,1,5.638,5.122,31.432,31.432,0,0,1,2.671,6.232l.041.12c1.686-2.975,3.719-6.106,8.505-5.655a7.338,7.338,0,0,1,5.681,3.19c1.609,2.627.859,6.048-1.87,8.514-.862.686-2.717,1.136-5.925,1.874-4.069.938-9.645,2.222-11.046,4.228l-1.087,1.557-.385-1.861a26.8,26.8,0,0,0-1.529-4.461q-.178-.434-.349-.862c-1.071-1.852-3.444-3.968-5.736-6.007-2.2-1.961-4.282-3.814-5.314-5.5m14.947-.515a11.5,11.5,0,0,0-4.993-4.521c-2.581-1.416-6.706-1.9-8.417-.466-.943.791-1.09,2.164-.438,4.08a4.261,4.261,0,0,0,.3.568,29.064,29.064,0,0,0,5.008,5.13c2.412,2.149,4.908,4.378,6.1,6.472l.048.1c.119.3.241.6.366.9.444,1.093.9,2.21,1.247,3.333,2.377-1.805,6.873-2.84,10.916-3.773,2.292-.528,4.662-1.074,5.235-1.528,2.084-1.885,2.716-4.475,1.531-6.408a5.749,5.749,0,0,0-4.453-2.417c-3.989-.377-5.475,2.273-7.2,5.34-.2.355-.4.713-.606,1.066l-.879,1.513-.6-1.643c-.222-.611-.434-1.224-.646-1.835a29.748,29.748,0,0,0-2.518-5.912" transform="translate(-3332.965 -18512.955)" fill="#de0d20"/><path d="M1945.99,474.083l1.242-1.713a37.6,37.6,0,0,0,3.5-6.438c.2-.43.4-.858.6-1.28.8-2.917-.039-6.879-.848-10.712-.9-4.257-1.747-8.279-.46-11,2.724-4.994,6.678-6.147,9.518-6.241,5.225-.173,10.44,3.011,12.477,6.2a11.845,11.845,0,0,1,1.44,2.5c2.23,5.358-.709,10.813-3.552,16.088q-.263.488-.525.977l.555-.237c6.9-2.942,13.407-5.721,19.911-2.47a8.294,8.294,0,0,1,4.059,3.925,5.339,5.339,0,0,1-.336,4.678c-1.729,3.254-6.365,5.995-12.1,7.154-1.934.309-5.807-.315-10.71-1.106-7.866-1.27-17.657-2.849-22.769-1.033Zm26.25-28.181a10.546,10.546,0,0,0-1.295-2.243l-.027-.041c-1.791-2.82-6.635-5.766-11.339-5.609-3.583.118-6.485,2.027-8.391,5.524-1.081,2.29-.276,6.1.575,10.135.846,4.01,1.723,8.158.813,11.391l-.038.1c-.206.435-.41.877-.614,1.32a49.641,49.641,0,0,1-2.648,5.184c5.645-1.144,14.462.279,21.687,1.445,4.6.742,8.567,1.38,10.267,1.112,5.335-1.08,9.626-3.564,11.176-6.48,1.375-2.586.231-5.035-3.162-6.818-5.949-2.973-12.19-.309-18.8,2.51-.747.319-1.5.64-2.254.954l-1.657.69.822-1.6c.45-.877.921-1.751,1.388-2.619,2.821-5.236,5.484-10.181,3.5-14.962" transform="translate(-3317.653 -18527.318)" fill="#de0d20"/><path d="M1525.1,463.386c-4.814,2.841-23.53,4.067-28.166,1.8-5.633-2.756-7.924-11.77-4.195-21.094,1.918-4.795,2.786-12.709,3.716-15.581,3.049-9.421,6.99-15.106,14.981-16.9,5.873-1.319,12.816,1.5,15.1,3.237s3.385,45.7-1.438,48.54" transform="translate(-3160.304 -18518.527)" fill="#884284"/><path d="M1500.94,453.3a5.263,5.263,0,0,1-1.28-.7.95.95,0,0,1-.377-.7c-.057-.738.612-1.772,2.236-3.458.6-.618,1.062-.578,1.343-.433.772.39.573,1.713.547,1.862-.028.164-.057.423-.091.722-.224,1.963-.391,3.07-1.223,3a4.563,4.563,0,0,1-1.156-.293m-.588-1.521a4.516,4.516,0,0,0,1.58.706,15.025,15.025,0,0,0,.321-2.016c.037-.323.069-.6.1-.779a1.958,1.958,0,0,0,.012-.578c-.022.021-.047.045-.074.073-1.738,1.8-1.928,2.428-1.939,2.595" transform="translate(-3163.196 -18531.201)" fill="#382e28"/><path d="M1504.52,440.615a.322.322,0,0,1-.043,0,.327.327,0,0,1-.28-.367,117.579,117.579,0,0,1,2.886-14.43.326.326,0,0,1,.627.182,118.511,118.511,0,0,0-2.867,14.336.327.327,0,0,1-.323.282" transform="translate(-3164.895 -18523.477)" fill="#382e28"/><path d="M1492.03,457.924c1.584-.528,2.517,2.756,6.232,2.157s4.674-1.558,4.674.48-.36,11.267-1.079,14.263-1.917,6.832-4.315,6.712-5.873-3-7.191-5.993-.719-8.749-.12-11.026,1.079-6.353,1.8-6.592" transform="translate(-3159.836 -18534.641)" fill="#87b235"/><path d="M1545.267,595.588c1.106-.779,3.114-2.069,3.571-2.326,1.2-.673,4.987-2.936,7.288-4.505.252-.171,3.679,5.706,4.921,7.36-1.9,1.014-2.8,1.468-3.178,2.03a6.613,6.613,0,0,0-1.344,3.138,6.248,6.248,0,0,0,.36,4c1.025,2.639,2.592,5.8,2.234,7.046-.206.718-.128,2.639-2.973,1.564s-9.612-3.581-11.79-10.6-.469-6.737.911-7.708" transform="translate(-3178.422 -18579.895)" fill="#382e28"/><path d="M1562.125,604.722a1.323,1.323,0,0,0-.658-.313c-.177-.029-.409-.054-.3.174.228.457.616.852.882,1.291a1.3,1.3,0,0,1,.206,1.11,1.025,1.025,0,0,1-.982.575c-.47,0-.9-.222-1.371-.233a.976.976,0,0,0-.58.192c.028-.016-.158.155-.078.031l-.024-.052a.543.543,0,0,0,.128.075,1.414,1.414,0,0,0,.344.114c.5.1,1.013.048,1.513.138a2.025,2.025,0,0,1,1.25.681,1.916,1.916,0,0,1,.4,1.385,3,3,0,0,1-.18.745c-.046.132-.216.285-.152.315.129.06.348-.251.53-.33.293-.128.748.583.385.741-.507.22-1.174.677-1.582.062-.332-.5.156-1.093.284-1.594a1.527,1.527,0,0,0,.035-.777c-.087-.308-.392-.413-.679-.474-.61-.13-1.241-.033-1.843-.218-.481-.148-1.162-.6-1.038-1.193.109-.52.747-.626,1.185-.578.518.057,1.2.44,1.676.062a.412.412,0,0,0,.084-.593c-.16-.277-.364-.534-.546-.8-.234-.337-.907-1.187-.354-1.55a1.064,1.064,0,0,1,.809.008,2.351,2.351,0,0,1,.913.523c.12.107.273.368.171.528s-.322.048-.432-.049" transform="translate(-3183.708 -18585.041)" fill="#c09c6c"/><path d="M1473.124,383.081c-.33-1.167-.256-2.756-1.09-4.226s-.5-3.272-2.987-3.121-2-.609-2.944-.845-2.07-.6-2.38.362-.6,1.537-1.123,1.617a1.6,1.6,0,0,0-1.392,1.354c-.161.938-.1,1.842-.5,2.207s-.123,1.191.3,1.986,1.64,3.273,3.43,3.533,3.008-.23,4.276,1.1c.194.2.61,1.059,1.055,1.681,1.155,1.227,6.13-2.62,4.834-4.183-.4-.594-1.405-1.19-1.483-1.463" transform="translate(-3149.792 -18505.855)" fill="#fdce9d"/><path d="M1479.276,574.8c1.352.067,3.728.283,4.247.362,1.356.2,5.737.752,8.518.93.3.02-.609,6.761-.647,8.83-2.12-.367-3.114-.567-3.755-.353a6.608,6.608,0,0,0-2.99,1.647,6.249,6.249,0,0,0-2.177,3.378c-.815,2.711-1.522,6.166-2.572,6.93-.6.439-1.725,2-3.306-.6s-5.377-8.736-2.778-15.61,3.774-5.6,5.46-5.517" transform="translate(-3154.085 -18575.02)" fill="#382e28"/><path d="M1490.436,589.663a1.317,1.317,0,0,0-.327-.652c-.121-.132-.29-.294-.34-.045-.1.5-.038,1.051-.1,1.56a1.3,1.3,0,0,1-.52,1,1.024,1.024,0,0,1-1.128-.15c-.373-.287-.576-.731-.939-1.026a.964.964,0,0,0-.574-.206c.031,0-.22.025-.08-.025,0-.018.008-.037.012-.056a.554.554,0,0,0,.054.139,1.439,1.439,0,0,0,.2.3c.328.389.77.661,1.108,1.039a2.025,2.025,0,0,1,.567,1.306,1.916,1.916,0,0,1-.537,1.337,3.007,3.007,0,0,1-.6.477c-.117.076-.345.092-.313.156.065.126.429.016.621.065.31.08.231.92-.152.821-.535-.137-1.343-.188-1.286-.924.046-.6.795-.765,1.2-1.082a1.523,1.523,0,0,0,.505-.591.779.779,0,0,0-.244-.792c-.4-.477-.958-.789-1.319-1.305-.288-.413-.548-1.187-.085-1.579.406-.343.975-.035,1.291.273.374.363.676,1.085,1.283,1.079a.412.412,0,0,0,.431-.415c.044-.317.042-.646.06-.966.023-.41.014-1.494.675-1.441.266.022.49.308.633.5a2.348,2.348,0,0,1,.4.974c.029.158-.011.458-.19.522s-.283-.16-.31-.3" transform="translate(-3158.574 -18579.623)" fill="#c09c6c"/><path d="M1539.248,406.537c-.341.031-4.786.762-5.215.761-.1.736.468,4.735.048,5.622-.963,2.033-4.088,2-5.438,3.129-1.447,1.206-2.947,3.521-2.609,5.293.253,2.481,1.289,11.609,1.466,12.437,1.183,5.527,11.481,4.587,13.768,4.3,8.615-1.091,14.411-4.253,13.882-12.468-.761-3.387-3.734-8.127-8.221-11.17-1.165-.791-5.021-.512-6.48-1.97-.928-.926-1.157-5.451-1.2-5.931" transform="translate(-3172.43 -18516.893)" fill="#fdce9d"/><path d="M1526.758,395.79a9.278,9.278,0,0,0,16.154-4.207c2.57-8.234-1.687-24.158-14.076-20.932s-8.338,19.2-2.077,25.139" transform="translate(-3170.632 -18504.338)" fill="#fdce9d"/><path d="M1536.446,367.3a4.979,4.979,0,0,0-5.084-.712c-2.741.883-6.472,2.2-8.234,1.3a5.891,5.891,0,0,0-5.338.032c-1.068.788-2.192,3.965-1.857,5.575a3,3,0,0,1-2.116,3.606c-1.589.414-2.927,2.12-2.634,3.571s1.014,3.894,2.4,4.637,3.285,1.86,3.278,3.135.081,4.222,1.6,4.506,4.336-.62,4.34-2.234.5-2.335,1.228-2.781,1.021-3.575.8-5.386,1.794-4.188,3.372-4.648,4.728-.092,6.812-.889,3.75-3.522,3.574-5.174a6.168,6.168,0,0,0-2.137-4.535" transform="translate(-3167.298 -18502.949)" fill="#382e28"/><path d="M1546.937,557.079c3.868-5.079,7.071-13.444,9.17-19.254,1.463-4.05-7.117-9.36-13.853-24.426-3.5-7.833-4.458-15,5.994-18.192,4.177-1.274,9.88,2.38,11.357,3.735,2.913,2.674,9.883,13.867,15.293,21.428,8.108,11.334,7.068,13.021,2.619,19.693-2.765,4.148-11.613,21.207-16.775,25.9-3.11,2.826-15.658-6.446-13.8-8.88" transform="translate(-3177.22 -18547.459)" fill="#87b235"/><path d="M1493.117,543.7c6.205-1.5,9.885-3.942,15.178-7.127,3.69-2.219.566-10.669,4.979-26.571,4.741-17.087,13.946-15.774,28.463-11.879,3.819,1.025-6.884,27.354-7.85,36.759-1.424,13.863-2.729,14.562-10.39,16.933-4.762,1.474-19.793,7.545-26.758,7.927-4.2.23-6.6-15.323-3.622-16.043" transform="translate(-3160.608 -18547.709)" fill="#87b235"/><path d="M1603,409.962c-.37-1.187-1.322-2.51-1.43-4.24s-1.4-3.09.818-4.353,1.373-1.641,2.056-2.374,1.443-1.672,2.247-1.021,1.378.983,1.87.76a1.634,1.634,0,0,1,1.953.383c.663.715,1.117,1.526,1.666,1.615s.773.955.852,1.875.424,3.73-.968,4.955-2.713,1.486-3.059,3.337c-.052.283.069,1.252.036,2.035-.306,1.7-6.732,1.182-6.5-.886.013-.736.541-1.81.455-2.087" transform="translate(-3198.4 -18513.855)" fill="#fdce9d"/><path d="M1557.833,406.277c-2.544-.235-2.371,10.527-4.315,11.986-1.035.777-4.859-.642-8.752-2.709-9.558-5.509-17.925-11.156-19.893-9.4-1.541,1.378-1.438,3.236-4.674,3.6-3.812.423-4.463-3.405-6.592-3.6a36.361,36.361,0,0,1-12.586-4.674c-2.922-1.9-17.087-12.552-18.816-13.424-3.077-1.553-3.715.6-6.592,2.517-2.475,1.65-3.674,3.5-1.678,5.274,1.442,1.284,9.925,7.442,12.824,10.067,3.725,3.373,11.205,9.758,12.345,11.626,4.249,6.963,2.641,22.293,3.285,30.292.382,4.75-1.454,20.454.51,24.7,1.575,3.4,10.257,2.8,18.379,2.423,7.322-.342,12.646-2.713,15.217-2.577,6.453.343,11.166-2.4,9.353-7.011-3.955-10.068-4.3-24.824-4.911-30.012-.895-7.594,3.146-5.458,8.267-3.906,3.955,1.2,8.939,2.514,10.307,1.2,3.115-3,5.763-17.044,6.472-23.611.137-1.269-3.98-2.372-8.15-2.757" transform="translate(-3154.085 -18510.318)" fill="#6fb9be"/><path d="M1521.2,413.187c.9-1.162,3.732,1.07,3.732,1.07s-2.894,21.343-4.691,26.856c-2.344,7.187-4.434,11.147-7.79,12.465-2.709,1.064-.54-4.222,1.318-7.431,2.637-4.555,5.656-20.928,6.1-23.98.341-2.362.223-7.551,1.334-8.98" transform="translate(-3167.309 -18519.076)" fill="#884284"/><path d="M1559.794,416.728c.36-.839,4.315.839,6.113,3.236,4.867,6.489,7.122,16.346,6.472,20.735-.48,3.236-1.948,4.024-2.517.359a68.285,68.285,0,0,0-4.555-15.821c-2.4-5.513-6.226-6.846-5.513-8.51" transform="translate(-3184.09 -18520.34)" fill="#884284"/><path d="M1650.965,354.273a33.515,33.515,0,0,0-2.691-4.135,11.849,11.849,0,0,0-1.6-1.747c-1.236-1.038-7.2-5.96-7.859-6.777s-.98-1.8-.384-2.309c.385-.328.987.383,1.182.281.171-.132-.211-.53-.345-1.061-.29-1.148-.676-1.758.449-1.993s1.88-.048,1.935-.794-1.74-1.818-1.047-2.554,1.734.148,2.7.745a34.021,34.021,0,0,1,3.664,3.7,10.608,10.608,0,0,0,1.443,1.125c.593.342.988-1.168,1.853-1.047s1.424,7.133,1.709,8.3c.069.283,1.5,2,2.065,3.246.692,1.534-3.019,5.125-3.08,5.015" transform="translate(-3211.202 -18491.434)" fill="#fdce9d"/><path d="M1691.672,444.786c4.234,3.033,21.5,5.709,25.993,3.985,5.455-2.095,8.323-10.273,5.628-19.233-1.385-4.608-1.54-12.024-2.167-14.767-2.055-8.994-5.245-14.595-12.515-16.917-5.342-1.707-12.018.336-14.282,1.761s-6.9,42.136-2.657,45.17" transform="translate(-3229.122 -18513.666)" fill="#fbd649"/><path d="M1731.656,438.519c-.778-.005-.842-1.047-.888-2.888-.007-.28-.013-.521-.025-.676s-.088-1.385.661-1.683c.273-.112.708-.11,1.211.513,1.369,1.7,1.9,2.712,1.791,3.393a.887.887,0,0,1-.408.622,4.891,4.891,0,0,1-1.245.543,4.253,4.253,0,0,1-1.1.177m.181-4.108h0c-.022-.028-.044-.052-.063-.074a1.856,1.856,0,0,0-.036.538c.014.167.021.429.028.731a13.945,13.945,0,0,0,.133,1.9,4.214,4.214,0,0,0,1.524-.525c0-.156-.121-.75-1.586-2.568" transform="translate(-3243.225 -18526.115)" fill="#de0d20"/><path d="M1730.869,426.272a.3.3,0,0,1-.3-.29,110.51,110.51,0,0,0-1.482-13.541.3.3,0,1,1,.6-.116,109.311,109.311,0,0,1,1.493,13.63.3.3,0,0,1-.289.317h-.014" transform="translate(-3242.652 -18518.809)" fill="#de0d20"/><path d="M1735.892,443.38c-1.426-.62-2.563,2.351-5.962,1.49s-4.21-1.831-4.378.06-.593,10.486-.172,13.326,1.218,6.5,3.453,6.584,5.7-2.3,7.167-4.97,1.387-8.061,1.019-10.224-.479-5.984-1.127-6.266" transform="translate(-3241.311 -18529.602)" fill="#de0d20"/><path d="M1689.8,393.474c1.109.9,4.184,1.842,5.254,1.414-2.919,7.287,6.343,8.808,3.011,14.393-2.376,5.29-7.218,8.063-11.068,6.787a10.841,10.841,0,0,1-7.138-11.976c1.113-4.135,11.158-5.748,9.941-10.618" transform="translate(-3225.601 -18512.375)" fill="#fdce9d"/><path d="M1685.62,367.751c-2.913,5.477-9.237,3.813-8.709,7.745s5.373,4.266,7.987,4.705,4.575-10.387,7.26-12.505Z" transform="translate(-3224.604 -18503.461)" fill="#382e28"/><path d="M1688.976,376.349a8.6,8.6,0,0,0,14.749,4.662c6.076-5.193,10.585-19.787-.726-23.363s-16.009,10.958-14.023,18.7" transform="translate(-3228.633 -18499.795)" fill="#fdce9d"/><path d="M1706.3,353.645c-1.293-.436-5.276-1.684-7.488-.341s-6.881,5.109-7.658,6.927-1.387,2.447-1.288,2.738,7.365-.921,10.677,1.938c1.761.861,3.73,3.263,5.059,6.434,1.155,2.76-3.7,6.045.264,8.128,1.025.539,4.782,3.895,7.662-1.361.962-1.757.016-9.471-.281-13.605a15.655,15.655,0,0,0-3.7-8.84,9.846,9.846,0,0,0-3.245-2.019" transform="translate(-3229.092 -18498.277)" fill="#382e28"/><path d="M1750.639,383.388a24.161,24.161,0,0,1,5.908-4.25c1.5-.6,8.7-3.416,9.581-3.986s1.494-1.407,1.085-2.075c-.263-.432-1.057.057-1.211-.1-.121-.179.366-.438.659-.9.633-1,1.191-1.46.2-2.033s-1.772-.632-1.591-1.358,2.221-1.185,1.792-2.1-1.693-.4-2.8-.135a33.941,33.941,0,0,0-4.635,2.372,10.722,10.722,0,0,1-1.721.619c-.67.139-.574-1.418-1.434-1.573s-3.579,6.333-4.215,7.358c-.154.247-3.53,1.852-4.454,2.861-1.136,1.242,2.748,5.389,2.841,5.3" transform="translate(-3249.053 -18502.898)" fill="#fdce9d"/><path d="M1682.288,565.213c-1.079-4.794-.24-2.756-3.083-17.587-1.18-6.15-2.667-12.016-3.625-15.563a7.151,7.151,0,0,1-.39-2.865c1.022-4.833,13.1-22.237,7.069-26.678-2.793-2.055-14.578-4.807-15.985-2.78-2.989,4.308-3.773,21.617-3.127,26.85a35.65,35.65,0,0,0,1.273,5.988c.952,3.179,2.206,6.094,3.393,9.977,3.363,11,5.258,17.355,6.554,21.123,1.305,3.8,9.074,6.657,7.921,1.534" transform="translate(-3219.783 -18548.873)" fill="#fdce9d"/><path d="M1735.635,538.855c-9.109-3.235-9.109-2.157-18.484-7.559a97.313,97.313,0,0,0-11.108-5.217c-1.961-.8-3.33-1.492-3.378-2.213-.248-3.763,5.522-10.284,3.155-11.585-2.837-1.559-14.5-4.222-14.635-1.923-.476,8.111-1.725,19.732,3.375,22.388,1.046.544,1.957,1,2.8,1.391a59.862,59.862,0,0,0,10.012,3.47c10.312,2.991,16.246,4.756,19.853,5.668,3.635.92,12.018-3.139,8.412-4.42" transform="translate(-3229.382 -18552.479)" fill="#fdce9d"/><path d="M1675.818,398.678c3.775,2.4,4.59,2.764,9.109,2.4s8.544-3.1,7.791,2.432-2.764,33.675-2.262,41.968.5,18.6,7.79,26.387c6.147,6.571,10.807,8.042,4.524,11.057-5.386,2.585-19.6,6.031-28.9,7.288-8.72,1.178-25.13,4.021-24.126-.754s1.855-19.348,3.016-26.889c1.507-9.8,3.661-16.041,6.031-27.9,2.514-12.565,8.545-26.89,8.8-31.413s2.7-8.1,8.231-4.578" transform="translate(-3215.206 -18513.684)" fill="#de0d20"/><path d="M1680.121,380.572c-2.4-1.2-3.824.684-5.44-.16s-5.1-4.7-7.558-9.991c-3.388-7.291-5.857-16.62-8.187-18.368-1.458-1.093-2.639.126-5.026,2.513-1.374,1.375-2.979,2.665-2.073,4.964,1.759,4.461,4,9.223,6.031,15.015.82,2.343,4.055,9.627,3.33,14.7a190.282,190.282,0,0,1-4.775,22.366c-.764,2.943-4.875,9.8-4.02,12.816.66,2.332,4.2,2.776,8.242,2.587,5.077-.239,6.84,1.692,8.179-1.657,2.243-5.614,2.876-10.1,3.91-13.817,1.863-6.7,8.731-30.3,7.388-30.97" transform="translate(-3215.854 -18497.914)" fill="#87b235"/><path d="M1698.119,390.073c2.644-.48,2.175,2.294,4.734,2.1,3.116-.239,15.06-5.771,20.507-10.345,6.283-5.277,7.909-6.372,10.052-3.77,3.518,4.273,5.87,6.357,3.518,8.545-3.273,3.046-6.93,5.077-11.812,8.795-2.368,1.8-10.052,5.781-12.565,9.551-2,2.993-2.591,19.113-2.513,26.889.031,3.042,1.166,7.144-.5,9.8-1.289,2.053-5.5-1.287-9.322-2.6-4.806-1.655-7.172-2.352-7.516-5.942-.577-6.018.5-7.948.8-11.8.528-6.684,3.137-30.954,4.615-31.223" transform="translate(-3230.016 -18506.576)" fill="#87b235"/><path d="M1710.659,398.755c-.086-1.15-3.878-.872-3.956.03,0,0,1.767,21.226,3.565,26.739,2.343,7.187,3.094,9.59,5.971,10.428,2.793.815,1.858-3.622,0-6.831-2.637-4.554-5.154-19.49-5.6-22.543-.341-2.362.151-6.018.015-7.823" transform="translate(-3234.916 -18513.938)" fill="#fbd649"/><path d="M1677.88,394.906c-.288-.866-3.6-.629-6.245,1.25-6.615,4.693-9.846,13.132-9.667,18.256.115,3.269.941,1.42,2.427-1.978a97.865,97.865,0,0,1,6.718-11c4.518-5.993,7.125-5.453,6.765-6.532" transform="translate(-3219.446 -18512.705)" fill="#fbd649"/><path d="M1686.131,606.6c-.341-1.424-1.047-3.906-1.235-4.443-.49-1.4-1.948-5.949-2.693-8.869-.081-.319-7.066,2-9.257,2.454.814,2.18,1.225,3.2,1.126,3.921a7.144,7.144,0,0,1-1.153,3.508,6.763,6.763,0,0,1-3.156,2.99c-2.719,1.409-6.251,2.851-6.852,4.12-.346.729-1.783,2.234,1.294,3.4s10.363,3.969,17.151-.17,5.2-5.132,4.773-6.907" transform="translate(-3219.554 -18581.453)" fill="#382e28"/><path d="M1676.935,605.645a1.426,1.426,0,0,1,.758.217c.164.1.37.249.116.353-.512.208-1.11.25-1.639.416a1.4,1.4,0,0,0-.962.753,1.108,1.108,0,0,0,.385,1.17c.379.339.892.466,1.279.792a1.055,1.055,0,0,1,.334.57c-.011-.033.016.239.041.08l.057-.024a.591.591,0,0,1-.158-.031,1.525,1.525,0,0,1-.36-.154c-.479-.271-.857-.686-1.327-.97a2.2,2.2,0,0,0-1.5-.341,2.074,2.074,0,0,0-1.314.839,3.224,3.224,0,0,0-.387.734c-.057.14-.029.385-.1.364-.147-.044-.1-.453-.194-.647-.147-.313-1.025-.062-.843.326.254.542.47,1.39,1.24,1.182.627-.169.654-1,.909-1.5a1.648,1.648,0,0,1,.528-.655.845.845,0,0,1,.89.1c.586.331,1.031.86,1.651,1.141.5.224,1.371.345,1.695-.226.283-.5-.158-1.043-.549-1.317-.461-.325-1.289-.5-1.4-1.148a.446.446,0,0,1,.354-.542c.329-.11.678-.173,1.015-.257.431-.106,1.585-.314,1.4-1-.076-.279-.426-.459-.663-.572a2.522,2.522,0,0,0-1.115-.228c-.174,0-.485.1-.518.306s.227.27.386.269" transform="translate(-3222.603 -18585.539)" fill="#d9bf74"/><path d="M1758.827,550.91c-1.409-.4-3.923-.987-4.482-1.084-1.461-.254-6.144-1.194-9.058-1.964-.319-.084-1.693,7.146-2.362,9.281,2.3.35,3.39.485,3.974.924a7.156,7.156,0,0,1,2.5,2.714,6.76,6.76,0,0,1,1.076,4.212c-.092,3.061-.551,6.849.265,7.991.469.658,1.083,2.645,3.6.522s8.511-7.121,8.2-15.064-1.953-7.04-3.711-7.532" transform="translate(-3247.44 -18565.758)" fill="#382e28"/><path d="M1751.114,564.292a1.426,1.426,0,0,1,.559-.557c.169-.094.4-.2.365.071-.068.548-.322,1.091-.435,1.634a1.4,1.4,0,0,0,.19,1.206,1.108,1.108,0,0,0,1.209.232c.481-.167.841-.552,1.314-.731a1.053,1.053,0,0,1,.661-.014c-.034-.007.217.1.09,0,0-.02,0-.041.007-.062a.6.6,0,0,1-.1.124,1.537,1.537,0,0,1-.31.24c-.47.286-1.016.414-1.494.687a2.19,2.19,0,0,0-1.029,1.146,2.071,2.071,0,0,0,.093,1.556,3.248,3.248,0,0,0,.453.7c.094.118.323.213.268.267-.111.107-.446-.13-.66-.145-.345-.025-.552.865-.125.895.6.042,1.442.266,1.636-.508.157-.63-.554-1.058-.865-1.523a1.647,1.647,0,0,1-.316-.78c-.022-.345.251-.563.522-.728.575-.352,1.254-.482,1.8-.887.437-.325.968-1.029.627-1.59-.3-.491-.988-.369-1.418-.162-.508.245-1.066.881-1.687.667a.445.445,0,0,1-.3-.574c.063-.34.178-.677.269-1.011.116-.428.5-1.538-.2-1.709a1.153,1.153,0,0,0-.823.3,2.544,2.544,0,0,0-.742.864c-.083.152-.146.474.016.6s.345-.067.422-.206" transform="translate(-3250.091 -18570.896)" fill="#d9bf74"/><path d="M1605.378,352.082a.951.951,0,0,0-.712.258,1.115,1.115,0,0,0-.527.752c-.221,1.91-.6,3.8-.886,5.7a5.05,5.05,0,0,0-3.216.132,2.858,2.858,0,0,0-1.212.614,4.766,4.766,0,0,0-2.265,4.276c.139,2.024,2.8,2.022,4.162,1.49a3.962,3.962,0,0,0,.623-.312,5.923,5.923,0,0,0,2.569-2.14,13.287,13.287,0,0,0,.848-2.785c.23-1.993.627-3.959.921-5.94,2.235,1.053,2.358,4.255,1.263,6.381-.608,1.18,1.142,1.022,1.587.161,1.651-3.2,1-8.008-3.153-8.584" transform="translate(-3196.828 -18498.063)" fill="#de0d20"/><path d="M1610.614,323.6c.832-2.2.993-4.688,3.049-6.2.249-.181.2-.55-.126-.792-3.218-2.371-6.354-4.9-10.073-6.536-.988-.435-1.757.2-1.1.771a.4.4,0,0,0-.086.113c-.925,1.916-2.121,3.675-2.918,5.649-2.344-1.382-4.846-1.887-6.956-.726a.356.356,0,0,0-.135.449c1.293,3.565,9.228,5.779,8.535,2.226a.389.389,0,0,0,.31-.254c.761-2.311,2.152-4.277,3.205-6.442a56.95,56.95,0,0,1,7.082,4.83c-1.659,1.5-1.991,3.581-2.7,5.625-1.436-.569-2.968-.862-4.124-.228-1.085.6-2.1,2.066-1.031,3.448,2.593,3.345,8.234,1.435,7.063-1.935" transform="translate(-3195.34 -18483.488)" fill="#de0d20"/><path d="M1575.132,327.124a33.232,33.232,0,0,0-.071,4.768c.1,1.724.066,3.452.107,5.177a4.537,4.537,0,0,0-2.823.62,2.578,2.578,0,0,0-.976.733,4.28,4.28,0,0,0-1.334,4.135c.438,1.769,2.789,1.352,3.912.667a3.477,3.477,0,0,0,.5-.373,5.317,5.317,0,0,0,1.938-2.294,11.909,11.909,0,0,0,.314-2.6c-.108-1.8-.035-5.9-.085-7.7.145-3.445-1.282-3.836-1.485-3.138" transform="translate(-3187.62 -18489.334)" fill="#de0d20"/><path d="M1832.837,425.658a.454.454,0,0,0-.333-.612l-3.9-.892a.4.4,0,0,0-.511.409l.037,13.424c0,.29.082.3.182.032Z" transform="translate(-3276.889 -18522.979)" fill="#fbd649"/><path d="M1815.034,424.6a.434.434,0,0,0-.654-.28l-2.385,1.291a.539.539,0,0,0-.2.762l6.373,10.374c.165.269.233.239.15-.065Z" transform="translate(-3271.223 -18523.018)" fill="#fbd649"/><path d="M1803.835,440.854a.4.4,0,0,0-.634.26l-.886,3.464a.526.526,0,0,0,.422.656l11.373,2.021c.311.056.344-.032.073-.194Z" transform="translate(-3267.969 -18528.732)" fill="#fbd649"/><path d="M1839.11,470.556a1.552,1.552,0,0,1-1.013,1.911l-7.887,1.588c-.738.149-2.351.507-2.531-.4l-3.161-17.9c-.18-.9.756-2.592,1.494-2.741l7.887-1.588a1.545,1.545,0,0,1,1.668,1.371Z" transform="translate(-3275.644 -18532.406)" fill="#6fb9be"/><path d="M1838.8,470.622a.387.387,0,0,1-.253.478l-8.137,1.638a.386.386,0,0,1-.417-.343l-3.341-16.745a.387.387,0,0,1,.253-.478l8.137-1.638a.386.386,0,0,1,.417.342Z" transform="translate(-3276.388 -18533.141)" fill="#fff"/><path d="M1839.565,482.589a.155.155,0,0,1-.1.191l-2.5.5a.155.155,0,0,1-.167-.137l-.014-.071a.155.155,0,0,1,.1-.191l2.5-.5a.154.154,0,0,1,.167.137Z" transform="translate(-3279.89 -18543.115)" fill="#fff"/><path d="M1833.16,453.481a.255.255,0,1,1-.3-.25.282.282,0,0,1,.3.25" transform="translate(-3278.468 -18533.035)" fill="#fff"/><path d="M1868.784,733.558c-.047-1.3-.227-3.581-.3-4.081-.18-1.3-.651-5.516-.787-8.186-.015-.292-6.5.5-8.483.512.326,2.039.506,3,.293,3.608a6.338,6.338,0,0,1-1.618,2.85,6,6,0,0,1-3.269,2.048c-2.611.749-5.937,1.385-6.683,2.383-.429.574-1.943,1.63.531,3.18s8.319,5.268,14.949,2.858,5.422-3.553,5.363-5.172" transform="translate(-3283.456 -18625.699)" fill="#382e28"/><path d="M1850.73,627.465c-2.154,5.7,2.708,32.215,6.344,43.271,2.634,8.009-.509,12.164,6.266,12.109,6.722-.054,9.011-.742,8.271-10.312-.62-8-3.123-27.6-1.513-35.235s21.4-24.371,20.226-29.96-15.523-17.925-19.07-13.972-17.673,26.555-20.524,34.1" transform="translate(-3284.531 -18581.227)" fill="#6fb9be"/><path d="M1939.579,724.528c-.935-.9-2.648-2.421-3.045-2.733-1.035-.814-4.3-3.519-6.248-5.348-.214-.2-4.33,4.869-5.752,6.255,1.649,1.242,2.443,1.806,2.714,2.4a6.346,6.346,0,0,1,.813,3.174,6,6,0,0,1-.933,3.743c-1.36,2.353-3.313,5.117-3.157,6.354.09.711-.267,2.522,2.589,1.922s9.646-1.98,12.746-8.315,1.438-6.321.272-7.446" transform="translate(-3310.036 -18624.047)" fill="#382e28"/><path d="M1867.166,572.662c-2.058.57-1.013,8.632-.347,15.062.942,9.087,5.417,26.468,8.641,35.535,2.54,7.143,11.238,24.007,13.018,26.561,4.364,6.261,13.828,26.715,16.584,27.06,2.776.347,9.7-6.275,10.48-6.682,2.461-1.274-20.745-40.535-22.315-49.288-1.322-7.371,2.123-14.589,4.5-18.775,4.1-7.228,4.43-17.325,3.155-23.872-1.868-9.592-3.86-8.834-7.472-8.854-2.951-.016-18.692,1.161-26.241,3.251" transform="translate(-3289.979 -18573.205)" fill="#6fb9be"/><path d="M1878.6,640.649a.407.407,0,0,1-.388-.254c-1.734-4.256-5.714-19.024-6.589-23.042a.408.408,0,1,1,.8-.174c.871,4,4.827,18.686,6.548,22.907a.408.408,0,0,1-.224.533.415.415,0,0,1-.144.03" transform="translate(-3291.938 -18589.613)" fill="#382e28"/><path d="M1888.186,480.2c-.265.011-6.509,1.982-6.842,1.965a24.318,24.318,0,0,1-.756,3.335c-.3.7-2.54,4.719-2.857,5.076,3.982,3.136,12.118,2.512,14.578-.584a16.414,16.414,0,0,1-3.951-5.326,29.82,29.82,0,0,1-.172-4.466" transform="translate(-3294.051 -18542.361)" fill="#fdce9d"/><path d="M1890.787,461.592c1.4-6.318.545-14.287-7.181-15.508s-10.217,5.467-11.26,7.386c-1.279,2.353,1.5,4.8-.514,7.448.671,4.667,1.42,5.377,2.107,6.323a11.312,11.312,0,0,0,6.066,3.971c2.005.373,4.792-1.027,6.322-2.236a13.5,13.5,0,0,0,3.114-3.468,2.744,2.744,0,0,0,1.713-.956,4.14,4.14,0,0,0,.805-2.272.848.848,0,0,0-1.174-.688" transform="translate(-3292.012 -18530.514)" fill="#fdce9d"/><path d="M1881.587,440.717c.862.192,1.315.152,2.83-.612a7.661,7.661,0,0,1,5.027-1.1,5.813,5.813,0,0,1,3.486,1.946c.55.756,2.053,2.89,1.781,4.967a5.785,5.785,0,0,0,.953,4.557c.834,1.08.953,5.617.429,6.818a13.142,13.142,0,0,1-2.813,3.683c-.837.7-4.715,4.943-6.456,5.763-1.546.728-4.648,1.613-5.067.881-.883-1.544-2.867,1.16-4.573-.646-1.816-1.923,1.477-6.616.617-8.3-.7-1.365-1.453-1.1-2.109-.474s-.5-6.328-1.3-5.506-2.593,1.933-4.082.415-2.472-3.068-.942-5.337,3.378-2.311,3.659-4.442,1.421-4.406,4.231-4.184,3.325,1.195,4.325,1.576" transform="translate(-3290.895 -18528.08)" fill="#382e28"/><path d="M1870.686,503.332c-2.669,1.23-9.738-12.828-9.932-13.772-.286-1.393-2.083-6.911-3.86-8.628a12.87,12.87,0,0,1-3.067-4.09c-1.375-2.924-2.437-1.77-1.915.137.861,3.144,1.205,3.762.779,4.992-.247.714-1.337,1.627-1.608,3.072-.795,2.586,2.7,6.2,4.7,7.354,1.94,1.116,1.394,2.292,2.441,4.851.427,1.041,2.794,5.446,3.384,6.727.862,1.869,4.883,7.66,7.276,7.691,4.442.057,12.869-5.634,15.751-8.222.668-.6,1.908-3.147-2.415-5.828-5.07-3.144-7.916,4.05-11.53,5.715" transform="translate(-3284.797 -18540.588)" fill="#fdce9d"/><path d="M1848,495.726c-4.016-3.092-8.64,6.979-10.746,3.275-1.323-2.326-4.691-7.513-5.8-10.277-.653-1.623-2.948-4.387-2.7-5.938a6.311,6.311,0,0,1,.671-2.491c.415-.763.413-4.558-1.073-5.607-.992-.7-1.157.057-1.753-.735s-1.908-2.414-2.626-3.235-1.766.521-2.027,1.189-.9.283-2,.179-.915.566-.975,1.7.231,1.228-.387,1.968-.473,1.009-.118,1.823,2.256,2.254,3.787,3.606a13.413,13.413,0,0,1,1.355,1.331c.947,1.262,2.751,9.263,3.61,12.184,1.8,6.116,6.406,16.491,10.479,16.491,7.558,0,10.944-3.03,12.884-7.558,1.231-2.874.371-5.633-2.577-7.9" transform="translate(-3273.454 -18538.994)" fill="#fdce9d"/><path d="M1854.2,501.47c3.623-2.508,5.517-6.658,10.135-9.792,4.81-3.264,7.252-4.026,12.2-4.466,5.125-.457,4.939.313,7.072.78,1.834.328,9.627,6.195,11.751,9.186,7.8,10.991,4.6,18.55,1.39,21.3-1.761,1.51-2.781,8.894-2.366,12.975s8.079,13.084,3.969,19.092c-2.978,4.352-37.793,3.206-38.938-2.519-1.429-7.143,2.158-19.149,2.994-25.21.6-4.317,3-8.533.731-10.031-1.159-.767-3.866,6.479-6.792-.313-2.721-6.317-5.906-7.376-2.145-11" transform="translate(-3285.321 -18544.738)" fill="#de0d20"/><path d="M1894.894,479.466c.508,2.3,1.611,6.763-1.719,7.778-1.975.6-5.243,3.995-9.73,2.58s-7.208.928-10.307-.217-.856-8.9.972-10.441,3.849-.336,5.985-.081a25.376,25.376,0,0,0,8.265-.6c2.379-.673,5.912-1.829,6.535.984" transform="translate(-3291.931 -18541.484)" fill="#286e55"/><path d="M1844.958,502.369s-1.352,1-3.215,2.139-3.24-2.964-3.24-3.653-2.747-5.252-2.747-6.537-1.208-4.359-2.795-4.623-4.1,2.151-5.678,2.151-2.025-.43-.948,2.472,1.9,12.947,3.334,14.378,5.793,7.977,7.6,9.135c4.981,3.2,18.675-6.709,17.051.964s10.156-10.875,10.156-10.875Z" transform="translate(-3276.076 -18545.637)" fill="#de0d20"/></g><g transform="translate(4126.883 18961.098)"><g transform="translate(-4033.392 -18277.391)"><path d="M373.388,255.569a2.173,2.173,0,0,0,2.513,1.917l162.667-25.6a2.241,2.241,0,0,0,1.861-2.607l-6.067-34.337a2.474,2.474,0,0,0-2.671-2L370.7,211.055a2.294,2.294,0,0,0-2.017,2.528Z" transform="translate(-368.672 -133.313)" fill="#e4a725"/><path d="M376.252,255.569a2.173,2.173,0,0,0,2.513,1.917l162.667-25.6a2.241,2.241,0,0,0,1.861-2.607l-6.067-34.337a2.474,2.474,0,0,0-2.671-2L373.567,211.055a2.294,2.294,0,0,0-2.017,2.528Z" transform="translate(-369.41 -133.313)" fill="#ffcb52"/><path d="M658.208,290.4c0,1.134,1.251,2.063,2.78,2.063h2.556c1.529,0,2.78-.929,2.78-2.063v-30.2c0-1.134-1.251-2.062-2.78-2.062h-2.556c-1.529,0-2.78.928-2.78,2.062Z" transform="translate(-443.3 -150.122)" fill="#ffcb52"/><path d="M379.376,316.136c0,1.134,1.251,2.062,2.78,2.062h2.556c1.529,0,2.78-.928,2.78-2.062v-30.2c0-1.134-1.251-2.063-2.78-2.063h-2.556c-1.529,0-2.78.929-2.78,2.063Z" transform="translate(-371.431 -156.755)" fill="#ffcb52"/><path d="M430.586,325.465c0,1.134,1.251,2.063,2.78,2.063h2.556c1.529,0,2.78-.929,2.78-2.063v-30.2c0-1.134-1.251-2.063-2.78-2.063h-2.556c-1.529,0-2.78.929-2.78,2.063Z" transform="translate(-384.63 -159.159)" fill="#ffcb52"/><path d="M375.941,272.857c-.681-1.088-1.5-3.755-.518-3.8,1.45-.066,29.646-1.442,32.314-1.905,1.885-.327,74.2-9.112,118.664-14.29l19.83-2.78a40.917,40.917,0,0,1,6.715-.234c4.076-.439,6.7-.693,7.42-.71,6.11-.133,20.626,2.931,22.582,3.244,1.13.181,9,1.4,9.954,2.485a36.106,36.106,0,0,1,3,4.721c.787,1.332.1,1.869-2.881,2.287L427.741,285.046c-5.038.706-14.288-.009-20.557-1.589l-23.992-6.047c-1.223-.309-2.151-.618-3.011-.868a4.027,4.027,0,0,1-1.706-.776,29.4,29.4,0,0,1-2.533-2.908" transform="translate(-370.295 -147.799)" fill="#bf8000"/><path d="M404.824,276.918c6.268,1.58,15.519,2.3,20.557,1.589l165.278-23.171c5.038-.707,4.03-2.577-2.238-4.157l-23.992-6.047c-6.268-1.58-15.519-2.3-20.557-1.589L381.205,265.7c-3.149.442-4.132.85-3.143,2.615.779,1.391,1.794,1.718,3.839,2.281Z" transform="translate(-370.997 -146.288)" fill="#ffcb52"/><path d="M389.517,275.06a.372.372,0,0,0,.064-.005c5.212-.819,54.687-8.669,67.434-10.9a.4.4,0,0,0-.139-.8c-12.741,2.236-62.209,10.083-67.421,10.9a.4.4,0,0,0,.062.8" transform="translate(-373.941 -151.463)" fill="#e4a725"/><path d="M606.361,300.315c-3.223-6.947-6.278-29.089-5.2-29.36,0,0,9.475-.635,9.875,1.556,1.9,10.393,2.445,27.232,3.382,30.977a7.92,7.92,0,0,0,4.382,5.439c3,1.631,6.374,2.082,7.35,3.545,1.948,2.92-2.768,4.7-4.976,4.74s-10.029.175-13-1.559c-2.547-1.49-1.486-5.424-.488-7.262,1.079-1.99.054-5.088-1.332-8.076" transform="translate(-428.54 -153.402)" fill="#382e28"/><path d="M578.705,302.339c-2.3-7.3-4.946-25.964-4.8-27.527,0,0,12.872,1.022,12.986,3.246.541,10.551-.716,25.317-.271,29.151.339,2.908,1.353,3.855,3.314,5.275,2.769,2.006,6.052,2.887,6.831,4.464,1.556,3.148-3.35,4.3-5.546,4.059s-9.968-1.12-12.685-3.222c-2.334-1.806-.774-5.571.452-7.264,1.327-1.834.71-5.039-.279-8.181" transform="translate(-421.569 -154.418)" fill="#382e28"/><path d="M529.067,228.332a22.365,22.365,0,0,0-3.175,23.96c4.989,10.953,27.938,11.343,30.827,12.764,1.619.8,1.956,2.349,2.932,10.993.923,8.177.125,22.413,2.239,22.413a106.211,106.211,0,0,0,14.249-.89c2.143-.318,1-8.011.835-15.355-.191-8.39-.5-17.19,1.168-17.524,1.8-.36,2.945,6.677,3.838,12.184,1,6.175,2.346,15.762,3.227,18.8.244.843,4.652-.084,7.566-.557,3.011-.488,5.53-.021,5.452-2.559-.156-5.125-4.152-33.253-5.32-42.319-.721-5.6-17.494-10.954-21.516-13.463-8.047-5.021-11.751-10.685-14.457-11.964-3.714-1.756-27.866,3.513-27.866,3.513" transform="translate(-408.636 -141.439)" fill="#6fb9be"/><path d="M578.545,201.122c2.582-8.954-6.126-15.294-11.044-23.11-2.852-4.533-2.158-12.522-10.063-19.887a11.73,11.73,0,0,0-9.358-3.356c-2.629.17-.085,3.267-6.259,3.338-6.259-.167-5.563-4.667-10.265-3.755-6.046,1.173-7.427,3-9.68,5.674-2.17,2.572-1.9,10.57-1.963,17.144-.1,10.8-.018,20.791,3.655,27.674,1.882,3.528,11.286,8.9,13.915,8.71,1.482-.11,19.835-2.426,21.035-3.2,3.809-2.455,3.183-2.631,2.593-6.838s1.4-5.882,3.138-4.164c6.512,6.436,12.506,7.974,14.3,1.77" transform="translate(-407.649 -123.338)" fill="#87b235"/><path d="M551.793,140.992c-3.067,3.023-6.59,3.883-9.066,3.1a12.165,12.165,0,0,1-6.144-4.62,14.139,14.139,0,0,1-1.609-6.174,9.839,9.839,0,0,1,.831-3.3c1.095-2.494-.524-2.959,2.769-7.653,1-1.425,2.521-4.707,9.324-3,5.98,1.5,16.3,13,3.9,21.651" transform="translate(-411.535 -114.221)" fill="#fdce9d"/><path d="M540.844,120.879c-1.932.695-3.517,4.477-4.324,2.778-1.554-3.27,1.423-9.948,5.188-9.807,3.871.145,1.228-2.18,9.09-.8,5.733,1.005,13.983,12.465,9.272,17.411-3.117,3.273-2.718,7.8-8.758,9.653-1.127.347.73-3.757,1.405-4.01,3.313-1.4,3.2-2.507,3.045-3.631s-1.581-2.345-2.374-1.661c-3.946,3.4-1.264-1.156-3.69-1.531-5.092-.788-7.831-8.961-8.855-8.4" transform="translate(-411.827 -112.61)" fill="#382e28"/><path d="M590.176,269.527a.311.311,0,0,0,.045,0,.368.368,0,0,0,.305-.422c-.17-1.058-.5-3.653-.819-6.161-.161-1.273-.316-2.5-.44-3.427-.362-2.736-1.433-3.37-3.056-4.329l-.318-.189c-1.754-1.047-11.589-6.477-14.728-8.108a.367.367,0,1,0-.339.652c3.13,1.628,12.94,7.044,14.688,8.088l.321.19c1.539.909,2.387,1.41,2.7,3.792.122.929.278,2.151.439,3.423.32,2.515.649,5.116.822,6.186a.368.368,0,0,0,.376.309" transform="translate(-420.726 -147.209)" fill="#382e28"/><path d="M582.4,202.952a13.52,13.52,0,0,0-8.524,1.822c-2.411,1.3-2.294.71-6.614.059-2.886-.434-11.511,1.311-12.786,2.352-.6.488-2.521,7.694-3.469,10.691-.917,2.905-2.07,8.259-2.763,10.59-.672,2.261,1.175,3.241,3.41,2.589a40.183,40.183,0,0,1,10.846-2.084c2.812-.016,3.382-.132,6.63-1.756a29.089,29.089,0,0,1,7.414-2.266c1.079-.117,1.011-.84,1.961-3.584,1.141-3.293,3.481-10.043,4.287-12.781s1.9-5.408-.393-5.632" transform="translate(-414.92 -135.873)" fill="#fff"/><path d="M583.216,205.93c-3.424.329-6.675.719-9.82,2.588-2.171,1.29-1.782-.03-5.343-.134-3-.088-9.845,1.1-11.12,2.137-.6.488-2.034,6.323-2.98,9.32-.917,2.905-2.3,8.355-3.059,10.622s-.2,2.372,2.037,1.721a36.061,36.061,0,0,1,10.345-1.535c2.811-.015,3.382-.131,6.63-1.755a29.082,29.082,0,0,1,7.414-2.266c1.079-.116,1.01-.841,1.961-3.584,1.14-3.293,3.48-10.043,4.287-12.781s1.937-4.552-.351-4.332" transform="translate(-415.557 -136.659)" fill="#de0d20"/><path d="M571.33,230.511a.262.262,0,0,0,.217-.173c1.155-2.959,2.793-8.525,4.11-13,.539-1.831,1-3.413,1.37-4.593.03-.1-.016-.17-.1-.162a.274.274,0,0,0-.209.189c-.367,1.185-.833,2.767-1.372,4.6-1.314,4.465-2.949,10.022-4.1,12.96-.038.1,0,.177.079.179" transform="translate(-420.883 -138.378)" fill="#382e28"/><path d="M594.912,224.015c.5-2.129,1.755-2.3,1.123-5.962-.089-.516-.811-4.6-2.365-2.926-1.391,1.495-2.055-.011-3.051,1.708-.819,1.413-.009,1.775-.869,2.311-1.467.917-.046,1.593-.721,2.876-.891.978-.958,3.423.914,3.994,1.122.343,4.468.128,4.969-2" transform="translate(-425.314 -138.931)" fill="#fdce9d"/><path d="M553.99,227.7c-.7-1.051-1.392-1.367-.952-2.248s1.724-1.15,1.681-2.076c-.05-1.083-1.18-1.05-2.3-1.052a20.758,20.758,0,0,0-4.446,1.1c-.515.164-2.337.485-1.712-.816,1.1-2.3.711-2.8.39-3.532-.263-.6-1.492-.51-2.263,1.033a21.886,21.886,0,0,1-2.959,4.813c-.529.481-7.532-3.451-8.061.7-.618,4.847,2.348,5.565,6.316,5.653.58-.01,4.322,2.171,5.041,2.3,2.037.368,4.356,1.042,5.268.672s1.228-.462,1.535-1.782.551-1.1,1.512-2.194,1.649-1.513.951-2.564" transform="translate(-411.102 -139.963)" fill="#fdce9d"/><path d="M531.007,163.718c-1.444-5.389-9.024-8.217-12.684-3.338-2.107,2.807-16.422,30.113-13.859,38.519,3.292,10.8,14.984,15.768,22.457,18.791,2.717,1.1,4.232.118,5.291-5.643.981-5.339,1.5-6.756-2.909-9.336-8.23-4.821-9.9-7.361-9.2-9.123.736-1.859,9.6-19.782,10.152-21.773.857-3.067,1.306-6.032.753-8.1" transform="translate(-403.594 -124.275)" fill="#87b235"/><path d="M552.839,150.2c-1.263-6.187-6.213,1.386-12.253-1.482-4.777-2.269-7.771-2.259-7.912,3.718-.036,1.519-2.527,2.132-2.164,4.586.428,2.893,8.168,3.768,9.338,4.164,3.558,1.2,5.131,3.966,7.706,2.665a23.348,23.348,0,0,0,4.6-3.707c1.473-1.509.527-3.166,2.328-4.9,1.222-1.18-1.31-3.408-1.643-5.04" transform="translate(-410.377 -121.556)" fill="#286e55"/><path d="M500.823,321.3c-.016-1.54-.684-2.406,5.155-1.668,5.874.742,5.7.634,5.1,4.585-.755,4.946-3.843,9.107-1.361,12.321,2.386,3.089,9.337,10.491,8.61,12.513-.721,2-3.767.967-7.25-.094a11.962,11.962,0,0,1-6.9-4.663c-1.92-2.878-1.059,2.2-2.635,1.735-3.042-.9-4.1-1.042-3.285-3.958a56.282,56.282,0,0,0,1.735-11.892c.189-2.849.84-8.035.831-8.879" transform="translate(-402.005 -165.902)" fill="#cb0011"/><path d="M520.87,325.825c-.531-1.447-1.45-2.037,4.3-3.295,5.784-1.263,5.585-1.309,6.337,2.618.943,4.914-.577,9.867,2.836,12.067,3.281,2.113,12.307,6.766,12.3,8.915-.01,2.129-3.227,2.17-6.864,2.333a11.958,11.958,0,0,1-8.06-2.088c-2.772-2.07-.263,2.429-1.9,2.517-3.168.168-4.208.387-4.419-2.633a56.275,56.275,0,0,0-2.34-11.787c-.774-2.749-1.893-7.854-2.184-8.647" transform="translate(-407.798 -166.521)" fill="#cb0011"/><path d="M436.369,199.139c6.227,2.756,14.806.924,17.958-1.2,4.727-3.192,14.359-1.666,12.943-7.955-.36-1.6-.012-7.073-1.032-9.543-1.2-2.914-17.525-3.2-18.854-3.31-4.036-.327-5.289-1.314-8.759-.773-.94.146-7.473,3.2-8.827,5.514a9.063,9.063,0,0,0-.595,8.158c.781,1.657,2.32,6.97,7.165,9.114" transform="translate(-384.088 -128.999)" fill="#de0d20"/><path d="M515.86,245.078c-.331-1.358-.707-1.367-.24-2.46s.2-1.359-.505-2.195-3.462-1.862-5.749-2.917a8.948,8.948,0,0,1-4.307-3.973c-.426-.649-6.959,1.3-6.355,2.314,1.271,2.128,2.661,4.534,2.512,5.243-.22,1.047-.477,3.6-.6,5.142s.451,2.323,1.286,2.148.7-1.45,1.449-3.563,1.1-.974,2.084-.249,4.473,5.185,5.611,5.9,2.36,1.771,3.186.908-1.286-2.148-1.213-3.029.963-.652,2.294-.919.881-.992.55-2.351" transform="translate(-402.178 -143.745)" fill="#fdce9d"/><path d="M457.386,184.892c-1.082-2.57.271-3.111,2.729-5.237,2.643-2.285,2.026-7.929,2.388-8.755.471.143,5.585.75,5.969.825a22.477,22.477,0,0,0-.056,5.309,28.045,28.045,0,0,0,3.039,7.316c2.164,4.87-11.092,5.952-14.068.541" transform="translate(-391.441 -127.635)" fill="#fdce9d"/><path d="M454.708,165.811c2.495,3.172,5.851,4.453,8.47,4.1a13.3,13.3,0,0,0,7-3.3,12.764,12.764,0,0,0,2.766-5.349,8.1,8.1,0,0,0-.21-3.1c-.624-2.411,1.079-2.6-1.328-7.313-.731-1.432-4.923-7.887-12.036-7.322-6.253.5-9.887,15.643-4.665,22.282" transform="translate(-390.203 -120.571)" fill="#fdce9d"/><path d="M469.222,147.235a7.64,7.64,0,0,0-4.5-4.016c-2.829-.79-3.1-2.816-6.085-3.007-4.167-.265-7.991,1.263-9.279,2.334-2.765,2.3-3.327,4.082-4.375,5.829-.9,1.492-3.592,6.718-.923,12.029,2.982,5.934,6.818,6.476,8.58,6.639,1.85.172,2.043,2.31,3.243,1.031.8-.858.911-3.219.215-4.882-.59-.59-2.414-2.306-2.253-2.9.206-.754.911-1.5,1.824-1.073,1.441.678,2.2.863,2.574-2.521a3.743,3.743,0,0,1,3.272-3.379c1.556-.16,3-2.9,4.828-3,3.341-.2,3.637-.866,2.879-3.084" transform="translate(-387.807 -119.716)" fill="#382e28"/><path d="M441.313,155.018c-2.429,1.808-1.8-.053-4.433.814a2.647,2.647,0,0,1-3.254-1.984c-.258-1.34.545-.743.206-2.409s-.374-2.4.557-3.371,1.027-2.271,2.595-2.308,1.764.848,2.634.919,1.977-.22,2.362,1.541,1.689,2.356,1.358,3.358.307,2.267-2.024,3.441" transform="translate(-385.4 -121.154)" fill="#382e28"/><path d="M477.749,237.334c5.059,7.231,29.821,14.362,34.014,21.795,1.463,2.593,2.939,8.405,3.787,15.16a126.14,126.14,0,0,0,3.78,19.11c1.78,6.676,6.68,13.307,2.671,14.242-3.157.737-46.714,9.049-51.628,2.225-3.683-5.115,2.67-17.556,2.67-23.588,0-5.341,2.127-14.207-1.245-13.775-7.958,1.021-15.668.292-20.831-7.575-5.681-8.656-8.252-17.652-4.521-24.3,1.274-2.554,30.2-6.037,31.3-3.3" transform="translate(-388.267 -144.5)" fill="#286e55"/><path d="M447.57,191.334c1.411-5.643,4.576-10.187,6-8.817,1.943-.316-.693-5.044,6.878-4.057,1.8.235,6.023-2.446,6.349,1.94.212,2.849,3.521,4.547,4.36,5.163,2.5,1.835,4.879,15.466,4.506,20.194-.264,3.35.427,10.043,1.98,13.377,1.482,3.181,2.881,4.63,3.449,5.9,1.452,3.847-37.374,13.421-37.274,8.957.1-4.566-.49-10.071-.2-12.542.885-7.536,3.134-26.829,3.955-30.112" transform="translate(-387.968 -129.428)" fill="#ffcb52"/><path d="M448.4,182.479c2.227-1.039,5.663-1.035,7.319,1.411,1.179,1.742.765,5.251,1.5,8.113,1.764,6.878,1.588,21.692,3.175,29.276S467.8,238.209,472.56,243.5s14.008,13.982,16.754,22.221c1.588,4.762-5,9.936-11.7,10.464s-14.167,2.176-13.639-2.587,6.584-14.814-2.351-14.109c-4.747.375-12.345-2.587-16.754-6.643s-6.408-14.635-6.408-20.281c0-2.939-8.7-3.762-8.818-15.4-.068-6.759,5.428-20.576,6.936-24.456,2.469-6.349,9.171-8.995,11.817-10.229" transform="translate(-384.388 -130.449)" fill="#de0d20"/><path d="M478.373,184.3c4.056,2.646,9.876,7.055,13.933,17.989s12.874,17.578,8.818,19.341-7.7,1.411-6.819,4.233,20.041,12.425,24.22,14.814c6.584,3.762,6.6,10.281,6.819,14.814.224,4.558.94,7.761-6.349,4.939-3.327-1.289-4.887-6.05-8.7-10.817-4.7-5.879-11.192-8.118-13.639-11.993-1.105-1.751-8.615-6.184-9.876-9.641-4.056-11.111-13.522-35.743-13.168-40.5.176-2.381-.978-4.353.823-7.054,1.176-1.764,1.839,2.51,3.938,3.879" transform="translate(-395.668 -129.981)" fill="#de0d20"/><path d="M480.479,214.95a.9.9,0,0,1-.922.719l-9.4-.6a.9.9,0,0,1-.822-.831l-.917-17.193a.681.681,0,0,1,.739-.73l13.786.883a.681.681,0,0,1,.64.819Z" transform="translate(-394.381 -134.184)" fill="#bf8000"/><rect width="3.197" height="16.673" rx="1.054" transform="translate(73.291 62.949) rotate(-86.335)" fill="#382e28"/><path d="M482.768,194.13a.785.785,0,0,1-.831.731l-10.519-.675a.784.784,0,0,1-.73-.831l.148-2.313a.784.784,0,0,1,.831-.731l10.518.674a.785.785,0,0,1,.731.831Z" transform="translate(-394.966 -132.637)" fill="#382e28"/><path d="M469.406,195.992a.206.206,0,0,1-.187-.154,10.815,10.815,0,0,1-.124-1.193c-.025-.315-.053-.671-.068-.745a.207.207,0,1,1,.4-.088c.022.1.042.354.077.8.033.417.077.989.111,1.119a.206.206,0,0,1-.147.252.2.2,0,0,1-.066.007" transform="translate(-394.537 -133.498)" fill="#fff"/><path d="M475.5,196.3a.206.206,0,0,1-.193-.22c0-.03,0-.15.005-.314.008-.632.019-1.264.051-1.45a.207.207,0,0,1,.408.072c-.03.169-.041.989-.045,1.384,0,.175,0,.3-.007.336a.207.207,0,0,1-.22.192" transform="translate(-396.156 -133.626)" fill="#fff"/><path d="M478.7,196.474a.207.207,0,0,1-.193-.22c.006-.1.024-.5.041-.877.016-.354.031-.7.036-.778a.207.207,0,1,1,.413.027c-.005.082-.02.419-.036.77-.017.382-.035.78-.042.885a.207.207,0,0,1-.22.193" transform="translate(-396.983 -133.693)" fill="#fff"/><path d="M482.022,196.562a.206.206,0,0,1-.193-.22l.1-1.567a.207.207,0,1,1,.413.026l-.1,1.568a.207.207,0,0,1-.22.193" transform="translate(-397.838 -133.738)" fill="#fff"/><path d="M487.9,197.063l-.017,0a.207.207,0,0,1-.174-.234c.025-.162.083-.477.146-.8.068-.357.138-.729.165-.922a.2.2,0,0,1,.235-.177.209.209,0,0,1,.176.235c-.027.2-.1.577-.169.941-.06.319-.119.626-.142.786a.207.207,0,0,1-.218.175" transform="translate(-399.352 -133.826)" fill="#fff"/><path d="M484.916,196.729a.206.206,0,0,1-.193-.22l.1-1.51a.207.207,0,1,1,.413.026l-.1,1.51a.207.207,0,0,1-.22.193" transform="translate(-398.584 -133.796)" fill="#fff"/><path d="M472.473,196.06a.206.206,0,0,1-.214-.2l-.057-1.512a.207.207,0,1,1,.414-.016l.056,1.512a.206.206,0,0,1-.2.214" transform="translate(-395.357 -133.623)" fill="#fff"/><path d="M437.336,196.762a.316.316,0,0,1-.115-.022.32.32,0,0,1-.184-.413c2.861-7.455,6.86-9.728,8.781-10.82l.177-.1a.32.32,0,0,1,.318.555l-.18.1c-1.856,1.055-5.72,3.252-8.5,10.493a.322.322,0,0,1-.3.2" transform="translate(-386.288 -131.363)" fill="#382e28"/><path d="M439.042,182.423a4.685,4.685,0,0,1-2.219-.744.319.319,0,0,1,.31-.559c1.561.861,2.037.715,2.757.494a4.871,4.871,0,0,1,1.586-.269c.572,0,1.32-.063,2.11-.131,1.983-.169,4.035-.344,4.871.284a.319.319,0,1,1-.383.511c-.641-.481-2.744-.3-4.433-.157-.8.068-1.565.134-2.164.134a4.287,4.287,0,0,0-1.4.24,3.342,3.342,0,0,1-1.035.2" transform="translate(-386.196 -130.252)" fill="#382e28"/><path d="M477.149,215.718c-.589,1.076-.91,1-.763,2.029s-.139,1.2-.928,1.743-3.356.789-5.533,1.162-5.3,2.359-7.306,3.182c-3.483,1.43-5.924-5.7-3.527-6.173,2.882-.57,4.255-.436,4.747-1.9.3-.889.416-3.156.659-4.491s.911-1.865,1.578-1.526.26,1.387.416,3.347.71,1.076,1.709.685,4.968-3.373,6.1-3.719,2.4-.962,2.905-.043-1.578,1.526-1.718,2.289.668.771,1.735,1.3.52,1.04-.07,2.115" transform="translate(-391.731 -137.592)" fill="#fdce9d"/><path d="M448.311,220.371c3.41-1.176,8.407-5.173,10.347-.94s1.176,3.115,2.058,6.29.658,2.556-4.292,4.88c-5.761,2.7-9.876,3.939-11.287-.823s-.01-8.307,3.175-9.406" transform="translate(-388.239 -139.654)" fill="#c09c6c"/><path d="M449.458,219.68a1.648,1.648,0,0,1-1.262-.468c-.75-.812-.417-2.527,1.015-5.243a.32.32,0,0,1,.566.3c-1.669,3.163-1.412,4.184-1.111,4.511.456.492,1.694.209,2.7-.222a38.926,38.926,0,0,1,5.792-1.519.32.32,0,0,1,.131.626,38.748,38.748,0,0,0-5.672,1.48,5.915,5.915,0,0,1-2.16.536" transform="translate(-389.069 -138.691)" fill="#382e28"/><path d="M448.978,238.545a.32.32,0,0,1-.125-.614c.4-.171,1.1-.44,1.98-.777,3.047-1.17,8.719-3.346,10.548-4.9a.32.32,0,0,1,.415.487c-1.912,1.628-7.434,3.748-10.734,5.014-.869.333-1.562.6-1.957.768a.311.311,0,0,1-.125.026" transform="translate(-389.289 -143.428)" fill="#382e28"/><path d="M497.755,233.515a.319.319,0,0,1-.266-.143c-1.611-2.417-3.023-6.655-4.055-9.75-.345-1.036-.652-1.958-.917-2.66a.32.32,0,0,1,.6-.225c.265.709.575,1.637.923,2.683,1.021,3.06,2.418,7.252,3.981,9.6a.321.321,0,0,1-.089.443.316.316,0,0,1-.177.053" transform="translate(-400.588 -140.427)" fill="#382e28"/></g></g></g></svg>