<svg xmlns="http://www.w3.org/2000/svg" xmlns:xlink="http://www.w3.org/1999/xlink" width="184.148" height="24.389" viewBox="0 0 184.148 24.389"><defs><clipPath id="a"><rect width="184.148" height="24.389" fill="#fff"/></clipPath></defs><g transform="translate(0 0)"><g transform="translate(0 0)" clip-path="url(#a)"><path d="M121.948,8.434h3.785c.979,0,1.562.179,1.772.553a1.97,1.97,0,0,1-.057,1.5A3.282,3.282,0,0,1,126.2,12.16a3.6,3.6,0,0,1-2.036.459h-1.017c-.947.043-1.286.247-1.49.9l-.2.553h4.564l-.478,1.344H119.2l.553-1.557c.652-1.914,1.758-2.671,3.916-2.671h.97c.665,0,.828-.111,1.04-.706s.073-.715-.8-.715h-3.4Z" transform="translate(-86.425 -6.115)" fill="#fff"/><path d="M155.334,8.309a1.582,1.582,0,0,1,1.238.476c.3.383.319.706.078,1.412l-1.182,3.327a2.707,2.707,0,0,1-2.762,1.8h-2.254c-1.375.042-1.883-.587-1.454-1.8l1.188-3.344a2.5,2.5,0,0,1,2.637-1.88ZM153.04,9.653a1.044,1.044,0,0,0-1.184.842l-.937,2.637c-.274.825-.254.851.57.859h1.284c.649-.009.769-.1,1.014-.766l.985-2.773c.212-.6.063-.765-.7-.8Z" transform="translate(-107.924 -6.024)" fill="#fff"/><path d="M177.722,8.434h3.784c.979,0,1.563.179,1.772.553a1.969,1.969,0,0,1-.057,1.5,3.281,3.281,0,0,1-1.252,1.676,3.6,3.6,0,0,1-2.036.459h-1.017c-.947.043-1.286.247-1.49.9l-.2.553h4.564l-.478,1.344h-6.342l.553-1.557c.652-1.914,1.757-2.671,3.916-2.671h.97c.666,0,.828-.111,1.04-.706s.073-.715-.8-.715h-3.4Z" transform="translate(-126.864 -6.115)" fill="#fff"/><path d="M205.193,8.434h6.266l-.475,1.336h-4.526l-.466,1.31h2.682c1.313.026,1.759.536,1.415,1.583l-.4,1.123a2.7,2.7,0,0,1-2.853,1.634h-4.1l.478-1.344h3.366a6.508,6.508,0,0,0,.78-.026l.041-.008h.029a.638.638,0,0,0,.583-.409l.239-.672c.162-.51.1-.553-.837-.536h-3.642Z" transform="translate(-146.995 -6.115)" fill="#fff"/><path d="M312.975,39.48H300.216l-.928,1.828h9.189l-.963,2.532c-.976,2.176-1.618,3.125-2.553,3.769-.912.675-1.737.864-3.833.877H297.02L295.7,51.623h4.743a10.375,10.375,0,0,0,6.812-2.033,13.2,13.2,0,0,0,3.7-5.433Z" transform="translate(-214.393 -28.625)" fill="#fff"/><path d="M362.151,48.3l.9-2.145H352.49l-.694,1.329h7.655c-.369.745-1.243,2.062-2.367,2.037h-2.49l-.9,2.124a2.466,2.466,0,0,1-2.749,1.538h-1.4l-1.026,2.43h1.908a6.82,6.82,0,0,0,3.646-.9,6.418,6.418,0,0,0,2.363-2.81h.989a5.535,5.535,0,0,0,4.722-3.607" transform="translate(-252.695 -33.464)" fill="#fff"/><path d="M407.036,39.48l-2.586,5.642a5.183,5.183,0,0,1-2.8,2.684,11.735,11.735,0,0,1-4.043.583H393.2l-1.307,3.1h4.656c3.233-.028,5.092-.4,6.854-1.375a9.866,9.866,0,0,0,4.552-5.215l2.489-5.414Z" transform="translate(-284.138 -28.625)" fill="#fff"/><path d="M413.455,41.831,414.5,39.48h-7.128l-1.035,2.351Z" transform="translate(-294.613 -28.625)" fill="#fff"/><path d="M467.716,39.48H454.957l-.928,1.828h9.189l-.859,2.406c-.977,2.176-1.618,3.125-2.553,3.769-.912.675-1.736.864-3.833.877h-4.108L450.541,51.5h4.743a10.377,10.377,0,0,0,6.813-2.033,13.2,13.2,0,0,0,3.7-5.433Z" transform="translate(-326.662 -28.625)" fill="#fff"/><path d="M510.158,53.925l1.783-4.542h3.6l.729-1.412H506.137l-.73,1.412h3.6l-1.783,4.542h-4.159l-1.011,2.4h11.213l1.011-2.4Z" transform="translate(-364.012 -34.782)" fill="#fff"/><path d="M560.6,44.372a53.933,53.933,0,0,0,4.689-5.552l.418-.554H554l-.9,1.759h7.262c-1.463,1.74-4.137,4.678-5.209,5.707a6.081,6.081,0,0,1-5,1.971h-1.169l-1.283,3.04h2.421a11.7,11.7,0,0,0,7.5-3.429,14.171,14.171,0,0,1,.333,2.941l.009.336h3.956l-.039-.381a24.427,24.427,0,0,0-1.28-5.838" transform="translate(-397.108 -27.745)" fill="#fff"/><path d="M610.916,38.367l-.1.192c-1.354,2.734-2.01,2.628-3.529,3.056l-.16.045-1.065,2.524.65-.14c2.923-.63,4.854-1.5,6.314-3.946H617.8l-.973,2.793s-.393,1.093-.709,1.732a9.7,9.7,0,0,1-.835,1.3c-.983,1.189-2.355,1.7-4.5,1.671h-5.495l-1.265,3h5.712c5.038,0,8.054-1.888,9.778-6.118l2.578-6.109Z" transform="translate(-437.946 -27.818)" fill="#fff"/><path d="M626.624,53.841,625.258,55.7h8.287l.995-1.859Z" transform="translate(-453.34 -39.037)" fill="#fff"/><path d="M219.118,42.369c-.459,0-.586-.066-.7-.47-.221-.787-.406-1.407-.7-2.315-.094-.292-.189-.445-.615-.436-1.063.024-2.147.007-3.212.01h-.563c.285,1.078.519,2.142.8,3.2-.256.01-12.714.021-13.093.021a.592.592,0,0,0-.472.246,8.419,8.419,0,0,0-.481.9c2.17,0,7.13.005,7.13.005h.09l-2.19,5.894a.4.4,0,0,1-.282.219c-.869.018-2.359.01-3.322.01l1.224-4.032s-2.227-.01-3.285.012a.535.535,0,0,0-.371.258c-.44.839-.888,1.677-1.271,2.535-.672,1.5.171,2.591,2.19,2.728a25.989,25.989,0,0,0,3.176-.1c2.989-.165,12.056-.636,13.226-.7.056.184.1.38.143.517.105.365.232.413.753.413h4.158c-.877-2.662-1.794-5.159-2.707-7.777h5.309s.368,0,.452-.3c.069-.24.169-.568.26-.848Zm-7.48,1.4a.437.437,0,0,1,.334-.251h2.153a.422.422,0,0,1,.384.233c.243.709.451,1.423.685,2.186h-4.56c.352-.771.66-1.476,1-2.167m-2.193,5.8c.246-.766.555-1.478.809-2.18a.319.319,0,0,1,.283-.21c1.545-.015,3.112-.016,4.659,0a.561.561,0,0,1,.4.269c.179.537.307,1.083.473,1.7l-6.625.417" transform="translate(-143.252 -28.384)" fill="#fff"/><path d="M221.642,43.094a.5.5,0,0,0,.448-.246,5.573,5.573,0,0,0,.364-.877H211.731l-.494,1.133,10.4-.009" transform="translate(-153.156 -30.431)" fill="#fff"/><path d="M280.753,41.97l-.533,1.3,4.877.005.4-1.3Z" transform="translate(-203.172 -30.43)" fill="#fff"/><path d="M119.376,40.889c2.466,0,5.875,0,8.34-.009a.979.979,0,0,0,.639-.206,3,3,0,0,0,.345-.841h-9.128l.236-.681.151-.35h-.029v0H114.71l-.361,1.029a.958.958,0,0,1-.21.02c-2.466,0-5.271-.013-7.736,0-.224,0-.553.027-.641.14a5.173,5.173,0,0,0-.487,1h8.67l-.334.952a2.341,2.341,0,0,1-.914.093c-2.336,0-4.672-.006-7.006.011-.213,0-.543.108-.6.237-.629,1.365-1.253,2.734-1.8,4.125-.352.9.262,1.5,1.463,1.533.38.011.759,0,1.307,0-1.645,1.046-4.821,3.087-4.821,3.087h.532s3.439.01,5.156-.009a1.381,1.381,0,0,0,.681-.231c.895-.577,1.768-1.176,2.65-1.766.357-.239.716-.476,1.074-.714h.048l-.948,2.707,5.227.082.976-2.809c1,.889,1.919,1.722,2.871,2.526a1.47,1.47,0,0,0,.815.3c1.309.031,3.924.012,3.924.012l.694.006s-2.72-2.188-4.081-3.294c1.528,0,2.922-.011,4.316.007.4.005.589-.094.706-.4.617-1.636,1.264-3.263,1.9-4.9.057-.147.09-.3.162-.543h-9.121l.376-1.081a.517.517,0,0,1,.181-.032m-10.8,2.3a.323.323,0,0,1,.239-.144c1.442-.009,2.886-.007,4.411-.006l-.4,1.142a.326.326,0,0,1-.157.055c-1.482.009-2.965.006-4.523.006.146-.364.277-.712.431-1.052m3.195,3.347c-1.454.014-2.91.009-4.474.009.167-.423.3-.8.47-1.156a.416.416,0,0,1,.307-.127c1.409-.008,2.82-.006,4.374-.006l-.409,1.167a.489.489,0,0,1-.269.113m9.876-.13a.507.507,0,0,1-.3.13c-1.34.013-2.685.01-4.112.009l.446-1.284c1.417-.008,2.837-.006,4.405-.005Zm1.3-3.368c-.166.4-.295.731-.45,1.056a.334.334,0,0,1-.248.141c-1.381.008-2.766.006-4.208.006l.416-1.2c1.466-.008,2.934-.006,4.49-.006" transform="translate(-73.404 -28.131)" fill="#fff"/><path d="M95.151,20.741l.6,2.97a.058.058,0,0,0,.051.046l.6.06H96.4a.058.058,0,0,0,.057-.049l.417-2.7a.066.066,0,0,0,0-.022l-.6-2.573a.058.058,0,0,0-.037-.041l-.527-.189a.058.058,0,0,0-.076.043l-.486,2.429a.064.064,0,0,0,0,.023" transform="translate(-68.988 -13.227)" fill="#fff"/><path d="M93.543,18.968h0a.058.058,0,0,0,.056-.046l.361-1.687a.058.058,0,0,0-.035-.065l-.694-.284a.059.059,0,0,0-.058.008.057.057,0,0,0-.021.055l.333,1.971a.058.058,0,0,0,.056.048" transform="translate(-67.54 -12.24)" fill="#fff"/><path d="M93.9,31.231a.058.058,0,0,0-.057.048l-.319,1.845a.058.058,0,0,0,.012.046.057.057,0,0,0,.041.022l.651.044h0a.058.058,0,0,0,.057-.068l-.331-1.889a.058.058,0,0,0-.057-.048" transform="translate(-67.809 -22.644)" fill="#fff"/><path d="M100.847,21.264h0a.058.058,0,0,0,.057-.046l.332-1.56a.058.058,0,0,0-.037-.066l-.636-.235a.058.058,0,0,0-.077.064l.3,1.794a.058.058,0,0,0,.056.048" transform="translate(-72.858 -14.033)" fill="#fff"/><path d="M101.173,32.417a.058.058,0,0,0-.057.048l-.291,1.679a.058.058,0,0,0,.053.068l.592.04h0a.057.057,0,0,0,.043-.019.058.058,0,0,0,.014-.049l-.3-1.719a.058.058,0,0,0-.057-.048" transform="translate(-73.103 -23.504)" fill="#fff"/><path d="M102.343,22.639l.557,2.782a.058.058,0,0,0,.051.046l.549.056h.006a.058.058,0,0,0,.057-.049l.374-2.531a.053.053,0,0,0,0-.022l-.548-2.365a.058.058,0,0,0-.037-.041l-.484-.173a.057.057,0,0,0-.048,0,.058.058,0,0,0-.028.039l-.447,2.232a.063.063,0,0,0,0,.023" transform="translate(-74.203 -14.745)" fill="#fff"/><path d="M107.549,22.946h0a.058.058,0,0,0,.056-.046l.284-1.327a.058.058,0,0,0-.04-.067l-.536-.162a.058.058,0,0,0-.055.012.057.057,0,0,0-.019.053l.252,1.489a.058.058,0,0,0,.056.048" transform="translate(-77.754 -15.473)" fill="#fff"/><path d="M107.751,33.889a.058.058,0,0,0-.057.048l-.241,1.394a.058.058,0,0,0,.053.067l.492.033h0a.058.058,0,0,0,.057-.068l-.25-1.427a.058.058,0,0,0-.057-.048" transform="translate(-77.907 -24.571)" fill="#fff"/><path d="M72.818,9.518l-.152.5a.053.053,0,0,0,0,.024l.736,6.278a.058.058,0,0,0,.053.051l1.493.13h0a.058.058,0,0,0,.057-.045l.629-2.762v-.684l-.931-4.222a.059.059,0,0,0-.03-.039.058.058,0,0,0-.049,0l-1.775.736a.056.056,0,0,0-.033.037" transform="translate(-52.684 -6.338)" fill="#fff"/><path d="M57.579,14.882l-.195-.216a.057.057,0,0,0-.081,0l-1.718,1.5-2.6,3.291a.059.059,0,0,0-.01.019l-.152.5a.059.059,0,0,0,.014.058l.282.282a.061.061,0,0,0,.038.017l4.871.216h0a.058.058,0,0,0,.03-.008c.17-.1.244-.19.221-.259-.024-.105-.462-3.553-.691-5.362a.059.059,0,0,0-.015-.031" transform="translate(-38.299 -10.619)" fill="#fff"/><path d="M63.488.219l1.644.693a.058.058,0,0,0,.023,0,.059.059,0,0,0,.031-.009L66.248.215a.058.058,0,0,0-.029-.106L63.9,0a.046.046,0,0,0-.018,0l-.39.108a.058.058,0,0,0-.007.109" transform="translate(-46.006 0)" fill="#fff"/><path d="M5.015,14.4H8.63a5.944,5.944,0,0,0,.853-.087c.56-.09,1.2-1.024,1.229-1.063l1.706-2.419,4.89-5.323L21.14,1.871a.058.058,0,0,0-.018-.1L18.459.714a.062.062,0,0,0-.027,0l-3.755.37L9.07,2.6a6.073,6.073,0,0,0-.81.285,1.432,1.432,0,0,0-.516.4A14,14,0,0,0,5.395,7.024,23.619,23.619,0,0,0,4.243,13.1a3.572,3.572,0,0,0,.133.85c.117.324.6.447.639.454m5.3-2.692a.191.191,0,0,1,.187.214.23.23,0,0,1-.221.214.191.191,0,0,1-.187-.214.23.23,0,0,1,.221-.214m-.583,0a.191.191,0,0,1,.187.214.23.23,0,0,1-.221.214.191.191,0,0,1-.187-.214.23.23,0,0,1,.221-.214M6.645,13.115a.194.194,0,0,1-.2-.214.236.236,0,0,1,.23-.214.194.194,0,0,1,.2.214.236.236,0,0,1-.23.214m.612,0A.191.191,0,0,1,7.07,12.9a.23.23,0,0,1,.221-.214.19.19,0,0,1,.187.214.23.23,0,0,1-.22.214m.611,0a.191.191,0,0,1-.187-.214.23.23,0,0,1,.221-.214.191.191,0,0,1,.187.214.23.23,0,0,1-.221.214m.611,0a.191.191,0,0,1-.187-.214.23.23,0,0,1,.221-.214A.19.19,0,0,1,8.7,12.9a.23.23,0,0,1-.22.214m.672-1.408a.191.191,0,0,1,.187.214.23.23,0,0,1-.221.214.191.191,0,0,1-.187-.214.23.23,0,0,1,.221-.214m-.143.7a.23.23,0,0,1-.221.214.191.191,0,0,1-.187-.214.23.23,0,0,1,.221-.214.191.191,0,0,1,.187.214m-.44-.7a.19.19,0,0,1,.187.214.23.23,0,0,1-.22.214.191.191,0,0,1-.187-.214.23.23,0,0,1,.221-.214m-.155.7a.23.23,0,0,1-.22.214.191.191,0,0,1-.187-.214.23.23,0,0,1,.221-.214.191.191,0,0,1,.187.214m-.428-.7a.191.191,0,0,1,.187.214.23.23,0,0,1-.221.214.191.191,0,0,1-.187-.214.23.23,0,0,1,.221-.214m-.166.7a.23.23,0,0,1-.22.214.191.191,0,0,1-.187-.214.23.23,0,0,1,.221-.214.191.191,0,0,1,.187.214m-.417-.7a.191.191,0,0,1,.187.214.23.23,0,0,1-.221.214.191.191,0,0,1-.187-.214.231.231,0,0,1,.221-.214m-.178.7A.23.23,0,0,1,7,12.626a.19.19,0,0,1-.187-.214.23.23,0,0,1,.22-.214.191.191,0,0,1,.187.214m-.4-.7a.188.188,0,0,1,.178.214.225.225,0,0,1-.21.214.188.188,0,0,1-.178-.214.225.225,0,0,1,.21-.214m-.208.7a.224.224,0,0,1-.21.214.188.188,0,0,1-.178-.214.225.225,0,0,1,.21-.214.188.188,0,0,1,.178.214m-.365-.7a.183.183,0,0,1,.168.214.224.224,0,0,1-.2.214.183.183,0,0,1-.168-.214.224.224,0,0,1,.2-.214m-.536-.005a.183.183,0,0,1,.17.214.226.226,0,0,1-.207.214.183.183,0,0,1-.17-.214.225.225,0,0,1,.207-.214m-.5,0a.179.179,0,0,1,.156.214.218.218,0,0,1-.191.214.18.18,0,0,1-.156-.214.218.218,0,0,1,.191-.214" transform="translate(-3.076 -0.515)" fill="#fff"/><path d="M21.156,3.373l.016,0L24.7,2.39a.066.066,0,0,0,.017-.008l.274-.184a.058.058,0,0,0,.022-.067.06.06,0,0,0-.059-.038,12.188,12.188,0,0,0-1.546.232c-.6.148-1.932.567-1.946.571a.056.056,0,0,0-.026.016l-.327.365a.058.058,0,0,0-.006.069.057.057,0,0,0,.049.027" transform="translate(-15.297 -1.517)" fill="#fff"/><path d="M86.432,15.116l.589.206v2.246h0l.02,6.736a.058.058,0,0,0,.058.058h.281a.058.058,0,0,0,.058-.058V17.569a.058.058,0,0,0-.058-.058h-.05V15.225a.057.057,0,0,0-.039-.055l-.821-.282a.058.058,0,0,0-.076.055v.118a.058.058,0,0,0,.039.055" transform="translate(-62.639 -10.793)" fill="#fff"/><path d="M85.3,26.519h.216a.058.058,0,0,0,.058-.058V22.809l.282.036h.007a.057.057,0,0,0,.058-.058V17.94a.058.058,0,0,0-.042-.056l-.472-.137a.058.058,0,0,0-.074.056v1.5h-.054a.058.058,0,0,0-.058.058l.02,7.1a.058.058,0,0,0,.058.058" transform="translate(-61.793 -12.866)" fill="#fff"/><path d="M29.527,55.316l-.049.009-7.65,1.345c-1.706.277-4.517.709-6.256.856-2.517.213-4.694.276-4.88.281a1.411,1.411,0,0,1-.546-.407c-.171-.258-.467-.869-.47-.875a.058.058,0,0,0-.052-.032h0c-.055,0-5.482.082-6.6,0-1.137-.083-2.886-.2-2.886-.2a.052.052,0,0,0-.054.028.058.058,0,0,0,0,.061l.695,1.075.17.622L.511,61.911c0,.078.111.476,2.3.646,2.22.173,6.259.185,6.3.185h0a.058.058,0,0,0,.057-.051l.511-4.118,10.288-.958-.506,2.377-2.9,2.912a61.8,61.8,0,0,1-9.848,1.037,35.244,35.244,0,0,1-4.5-.319,12.784,12.784,0,0,1-1.571-.33,1.621,1.621,0,0,1-.535-.3.058.058,0,0,0-.063-.012A.058.058,0,0,0,0,63.031v.4a.058.058,0,0,0,.018.042,3.345,3.345,0,0,0,1.349.505,26.376,26.376,0,0,0,4.328.506c.25.01.515.014.791.014,3.032,0,7.361-.533,7.409-.539.018,0,1.813-.269,2.656-.407.28-.046.735-.524,1.067-.872.085-.089.159-.166.212-.218.211-.2.42-.406.576-.559h.705l.016,0a1.647,1.647,0,0,0,.963-.726,2.99,2.99,0,0,0,.253-.729l1.895-.4a.812.812,0,0,0,.632.4h.478a1.193,1.193,0,0,0,.934-.955,2.1,2.1,0,0,0,.01-.61l.839.153a.059.059,0,0,0,.022,0l.791-.167a.058.058,0,0,0,.046-.057v-.393l.831.1a.051.051,0,0,0,.024,0l.509-.161a.11.11,0,0,0,.034-.018.125.125,0,0,0,.02-.026l2.049-2.871s.063-.087.074-.1h0c.013-.019.011-.022,0-.02m-28.2,1.625L4.161,57s.136.019.136.093a5.7,5.7,0,0,1-1.288.777,4.427,4.427,0,0,1-1.4-.071,1.12,1.12,0,0,1-.4-.651.269.269,0,0,1,.112-.2m-.095,2.5c-.016-.007-.038-.04.018-.137.109-.191.18-.3.261-.422.013-.02.047-.054.056-.068s.071-.093.071-.124c0-.208,0-.46,0-.606,0-.045.025-.069.055-.067s.043.029.043.073c0,.154,0,.487,0,.628a.062.062,0,0,0,.066.057l1.113.056c.065,0,.134.013.134.053s-.027.059-.111.055l-1.257-.064c-.035,0-.066.028-.1.07s-.167.275-.241.4c-.039.065-.065.127-.108.1m2.638.812h0l-2.177-.11a.906.906,0,0,0-.112.418,1.079,1.079,0,0,0,.127.5.052.052,0,0,1-.018.071.051.051,0,0,1-.026.007.052.052,0,0,1-.044-.025,1.162,1.162,0,0,1-.142-.558,1,1,0,0,1,.143-.5.05.05,0,0,1,.046-.023l2.208.111a.052.052,0,0,1,0,.1m.268,1.012a.736.736,0,0,1-.161-.533.67.67,0,0,1,.161-.517Zm.247-1.721a5.641,5.641,0,0,1-.978-.668.232.232,0,0,1-.074-.227,5.494,5.494,0,0,1,0-.644,7.545,7.545,0,0,1,1.052-.764s.074,2.282,0,2.3" transform="translate(0 -40.107)" fill="#fff"/></g></g></svg>