<svg xmlns="http://www.w3.org/2000/svg" width="762.205" height="100.947" viewBox="0 0 762.205 100.947">
  <g id="グループ_9163" data-name="グループ 9163" transform="translate(-459 -936.553)">
    <path id="パス_42984" data-name="パス 42984" d="M130.576,8.434h15.664c4.054,0,6.466.74,7.334,2.29.757,1.3.653,3.7-.234,6.2a13.583,13.583,0,0,1-5.182,6.937c-2.088,1.337-4.611,1.9-8.429,1.9h-4.211c-3.921.178-5.322,1.021-6.168,3.734l-.813,2.289h18.891l-1.977,5.564H119.2l2.29-6.445c2.7-7.923,7.276-11.057,16.208-11.057h4.016c2.754,0,3.428-.458,4.3-2.921.864-2.431.3-2.959-3.317-2.959H128.612Z" transform="translate(475.457 937.718)" fill="#004690"/>
    <path id="パス_42985" data-name="パス 42985" d="M175.687,8.309a6.547,6.547,0,0,1,5.124,1.972c1.246,1.585,1.322,2.923.323,5.845L176.241,29.9c-1.507,4.684-6.114,7.677-11.431,7.466h-9.328c-5.69.175-7.795-2.43-6.018-7.43l4.919-13.84c1.6-5.175,5.232-7.747,10.913-7.782Zm-9.5,5.564c-2.9.071-3.843.74-4.9,3.487l-3.88,10.916c-1.134,3.414-1.053,3.521,2.358,3.556h5.314c2.688-.035,3.181-.423,4.2-3.17l4.079-11.48c.876-2.465.261-3.168-2.877-3.311Z" transform="translate(479.551 937.701)" fill="#004690"/>
    <path id="パス_42986" data-name="パス 42986" d="M186.35,8.434h15.664c4.054,0,6.468.74,7.334,2.29.757,1.3.653,3.7-.234,6.2a13.583,13.583,0,0,1-5.182,6.937c-2.088,1.337-4.611,1.9-8.429,1.9h-4.211c-3.92.178-5.322,1.021-6.168,3.734l-.813,2.289H203.2l-1.977,5.564H174.974l2.291-6.445c2.7-7.923,7.273-11.057,16.208-11.057h4.014c2.756,0,3.429-.458,4.305-2.921.864-2.431.3-2.959-3.317-2.959H184.386Z" transform="translate(483.158 937.718)" fill="#004690"/>
    <path id="パス_42987" data-name="パス 42987" d="M212.9,8.434h25.935l-1.964,5.529H218.133L216.2,19.386h11.1c5.433.106,7.279,2.219,5.858,6.551l-1.65,4.648c-1.876,4.613-5.67,6.761-11.809,6.761H202.739l1.978-5.564h13.932a26.938,26.938,0,0,0,3.226-.107l.168-.033h.118a2.642,2.642,0,0,0,2.412-1.691l.989-2.783c.67-2.112.419-2.289-3.463-2.218H207.026Z" transform="translate(486.992 937.718)" fill="#004690"/>
    <path id="パス_42988" data-name="パス 42988" d="M367.216,39.48H314.4l-3.842,7.566H348.6l-3.986,10.478c-4.041,9.006-6.7,12.935-10.566,15.6-3.775,2.794-7.188,3.575-15.866,3.63h-17L295.7,89.742h19.632c12.052,0,21.017-2.677,28.2-8.414,5.8-4.519,10.523-11.451,15.309-22.489Z" transform="translate(499.826 942.005)" fill="#004690"/>
    <path id="パス_42989" data-name="パス 42989" d="M404.929,55.032l3.745-8.877H364.942l-2.874,5.5h31.686c-1.526,3.083-5.146,8.534-9.8,8.432H373.65l-3.709,8.793c-2.105,4.762-5.284,6.538-11.38,6.366h-5.793l-4.246,10.059h7.9c6.609-.154,11.691-1.409,15.092-3.721a26.566,26.566,0,0,0,9.779-11.631h3.7c.132,0,.263.006.4.006,7.819,0,15.812-6.082,19.545-14.928" transform="translate(507.119 942.926)" fill="#004690"/>
    <path id="パス_42990" data-name="パス 42990" d="M454.582,39.48l-10.7,23.353a21.452,21.452,0,0,1-11.608,11.109c-3.333,1.454-9.593,2.356-16.735,2.412H397.3L391.89,89.167h19.273c13.38-.117,21.075-1.662,28.371-5.691,8.612-4.614,14.422-11.268,18.841-21.586l10.3-22.41Z" transform="translate(513.107 942.005)" fill="#004690"/>
    <path id="パス_42991" data-name="パス 42991" d="M435.8,49.211l4.325-9.73h-29.5l-4.283,9.73Z" transform="translate(515.102 942.005)" fill="#004690"/>
    <path id="パス_42992" data-name="パス 42992" d="M521.628,39.48h-52.81l-3.842,7.566H503.01l-3.554,9.96c-4.044,9.006-6.7,12.935-10.566,15.6-3.776,2.794-7.187,3.575-15.866,3.63h-17l-5.48,12.985h19.632c12.052,0,21.016-2.677,28.2-8.414,5.8-4.52,10.523-11.452,15.307-22.489Z" transform="translate(521.205 942.005)" fill="#004690"/>
    <path id="パス_42993" data-name="パス 42993" d="M535.593,72.615l7.38-18.8h14.905l3.019-5.845H518.95l-3.02,5.845h14.906l-7.38,18.8H506.24l-4.185,9.914h46.41l4.185-9.914Z" transform="translate(528.318 943.177)" fill="#004690"/>
    <path id="パス_42994" data-name="パス 42994" d="M601.079,63.539a223.245,223.245,0,0,0,19.41-22.98l1.731-2.293H573.756l-3.721,7.28h30.06c-6.056,7.2-17.125,19.361-21.562,23.623-6.721,6.457-11.623,8.2-20.682,8.158h-4.838L547.7,89.909h2.157l7.863,0c11.389-.675,21.3-5.2,31.024-14.194a58.654,58.654,0,0,1,1.379,12.173l.038,1.391h16.376l-.159-1.575a101.1,101.1,0,0,0-5.3-24.162" transform="translate(534.619 941.837)" fill="#004690"/>
    <path id="パス_42995" data-name="パス 42995" d="M632.543,38.367l-.395.8c-5.6,11.315-8.322,10.878-14.6,12.65L616.88,52l-4.409,10.445,2.689-.579c12.1-2.606,20.089-6.209,26.135-16.332h19.746l-4.025,11.559s-1.626,4.525-2.935,7.169a40.139,40.139,0,0,1-3.457,5.388c-4.069,4.92-9.746,7.05-18.616,6.916H609.263l-5.237,12.411h23.641c20.852,0,33.336-7.814,40.472-25.322l10.669-25.286Z" transform="translate(542.396 941.851)" fill="#004690"/>
    <path id="パス_42996" data-name="パス 42996" d="M630.912,53.841l-5.654,7.693h34.3l4.116-7.693Z" transform="translate(545.328 943.987)" fill="#004690"/>
    <path id="パス_42997" data-name="パス 42997" d="M286.736,52.481c-1.9,0-2.427-.272-2.9-1.945-.916-3.256-1.68-5.825-2.892-9.584-.389-1.207-.782-1.843-2.545-1.8-4.4.1-8.888.027-13.3.042-.578,0-1.534,0-2.332,0,1.181,4.46,2.149,8.867,3.309,13.24-1.061.043-52.623.086-54.195.086a2.452,2.452,0,0,0-1.952,1.019,34.832,34.832,0,0,0-1.99,3.741c8.982,0,29.51.022,29.51.022h.374s-6.09,16.388-9.064,24.4a1.642,1.642,0,0,1-1.168.908c-3.6.073-9.766.041-13.749.041,1.721-5.671,5.066-16.689,5.066-16.689s-9.216-.04-13.6.049a2.212,2.212,0,0,0-1.536,1.068c-1.821,3.473-3.674,6.941-5.262,10.493-2.781,6.217.709,10.725,9.064,11.292a107.568,107.568,0,0,0,13.147-.411c12.373-.682,49.9-2.633,54.742-2.888.233.76.429,1.572.592,2.14.435,1.51.958,1.709,3.115,1.709h17.209c-3.63-11.017-7.425-21.352-11.205-32.188h21.974s1.522-.006,1.872-1.227c.285-.992.7-2.35,1.074-3.511Zm-30.962,5.776a1.809,1.809,0,0,1,1.382-1.038h8.911a1.746,1.746,0,0,1,1.59.963c1,2.933,1.868,5.892,2.834,9.047H251.616c1.457-3.192,2.731-6.108,4.157-8.971M246.695,82.28c1.02-3.17,2.3-6.118,3.349-9.024a1.319,1.319,0,0,1,1.17-.871c6.4-.061,12.88-.066,19.283.014a2.323,2.323,0,0,1,1.659,1.113c.74,2.222,1.27,4.481,1.96,7.04L246.695,82.28" transform="translate(486.279 941.959)" fill="#004690"/>
    <path id="パス_42998" data-name="パス 42998" d="M254.3,46.621a2.074,2.074,0,0,0,1.853-1.02,23.059,23.059,0,0,0,1.508-3.63H213.281l-2.044,4.688s40.777-.038,43.066-.038" transform="translate(488.164 942.349)" fill="#004690"/>
    <path id="パス_42999" data-name="パス 42999" d="M282.426,41.97l-2.206,5.4,20.185.022,1.635-5.4Z" transform="translate(497.689 942.349)" fill="#004690"/>
    <path id="パス_43000" data-name="パス 43000" d="M176.3,47.449c10.208,0,24.317.02,34.521-.038a4.051,4.051,0,0,0,2.646-.851c.714-.851.869-2.013,1.427-3.48h-37.78l.979-2.817.625-1.449H178.6l0-.016H156.99L155.5,43.06a3.962,3.962,0,0,1-.869.082c-10.208,0-21.817-.052-32.022-.014-.926,0-2.289.11-2.652.582a21.416,21.416,0,0,0-2.014,4.125h35.886l-1.38,3.941a9.691,9.691,0,0,1-3.784.386c-9.668,0-19.337-.025-29,.044-.881.006-2.247.448-2.491.982-2.6,5.651-5.186,11.316-7.441,17.073-1.458,3.725,1.085,6.2,6.056,6.345,1.572.047,3.141.008,5.41.008-6.81,4.331-19.956,12.778-19.956,12.778h2.2s14.233.043,21.341-.038A5.718,5.718,0,0,0,127.6,88.4c3.7-2.389,7.318-4.866,10.968-7.309,1.477-.99,2.965-1.971,4.446-2.956h.2L139.29,89.339l21.635.339,4.04-11.628c4.141,3.681,7.944,7.127,11.883,10.455a6.083,6.083,0,0,0,3.372,1.255c5.417.129,16.241.05,16.241.05l2.871.024S188.074,80.778,182.44,76.2c6.327,0,12.093-.046,17.865.028,1.655.022,2.439-.389,2.921-1.67,2.553-6.772,5.232-13.508,7.854-20.261.236-.608.374-1.244.669-2.247H174l1.555-4.473a2.141,2.141,0,0,1,.75-.132M131.6,56.98a1.335,1.335,0,0,1,.988-.6c5.968-.035,11.946-.027,18.256-.026l-1.656,4.726a1.351,1.351,0,0,1-.651.226c-6.134.035-12.272.025-18.722.025.605-1.506,1.145-2.946,1.786-4.354m13.224,13.854c-6.018.059-12.043.038-18.519.038.693-1.749,1.248-3.291,1.946-4.787a1.723,1.723,0,0,1,1.272-.526c5.83-.033,11.672-.024,18.1-.023l-1.691,4.83a2.023,2.023,0,0,1-1.113.468M185.7,70.3a2.1,2.1,0,0,1-1.221.537c-5.546.053-11.114.041-17.019.039l1.846-5.315c5.867-.033,11.744-.023,18.233-.022Zm5.379-13.94c-.689,1.649-1.22,3.027-1.861,4.369a1.381,1.381,0,0,1-1.025.584c-5.717.033-11.447.026-17.418.025l1.721-4.953c6.069-.034,12.145-.025,18.584-.025" transform="translate(472.979 941.91)" fill="#004690"/>
    <path id="パス_43001" data-name="パス 43001" d="M95.155,28.582l2.471,12.292a.238.238,0,0,0,.211.191l2.468.25h.025a.239.239,0,0,0,.237-.2L102.29,29.95a.272.272,0,0,0,0-.091L99.815,19.208a.239.239,0,0,0-.151-.171l-2.183-.781a.242.242,0,0,0-.315.179L95.155,28.488a.264.264,0,0,0,0,.094" transform="translate(472.137 939.072)" fill="#004690"/>
    <path id="パス_43002" data-name="パス 43002" d="M94.766,25.517h.006A.24.24,0,0,0,95,25.328L96.5,18.347a.239.239,0,0,0-.143-.271L93.483,16.9a.243.243,0,0,0-.24.034.238.238,0,0,0-.086.226l1.378,8.158a.24.24,0,0,0,.231.2" transform="translate(471.861 938.885)" fill="#004690"/>
    <path id="パス_43003" data-name="パス 43003" d="M95.084,31.231a.239.239,0,0,0-.236.2l-1.321,7.635a.24.24,0,0,0,.048.189.235.235,0,0,0,.171.091l2.694.182h.016a.24.24,0,0,0,.236-.281L95.32,31.429a.24.24,0,0,0-.236-.2" transform="translate(471.912 940.865)" fill="#004690"/>
    <path id="パス_43004" data-name="パス 43004" d="M101.977,27.258h0a.24.24,0,0,0,.234-.189l1.376-6.455a.239.239,0,0,0-.151-.274l-2.631-.971a.239.239,0,0,0-.319.264l1.255,7.426a.24.24,0,0,0,.231.2" transform="translate(472.875 939.226)" fill="#004690"/>
    <path id="パス_43005" data-name="パス 43005" d="M102.267,32.417a.239.239,0,0,0-.236.2l-1.2,6.95a.24.24,0,0,0,.22.28l2.45.166h.017a.238.238,0,0,0,.178-.08.241.241,0,0,0,.058-.2L102.5,32.615a.24.24,0,0,0-.236-.2" transform="translate(472.92 941.029)" fill="#004690"/>
    <path id="パス_43006" data-name="パス 43006" d="M102.347,29.863l2.3,11.514a.239.239,0,0,0,.211.191l2.27.23h.025a.239.239,0,0,0,.237-.2l1.55-10.477a.218.218,0,0,0,0-.09l-2.269-9.79a.24.24,0,0,0-.152-.171l-2.005-.716a.234.234,0,0,0-.2.017.241.241,0,0,0-.117.162l-1.848,9.238a.263.263,0,0,0,0,.094" transform="translate(473.131 939.361)" fill="#004690"/>
    <path id="パス_43007" data-name="パス 43007" d="M108.517,27.983h.006a.24.24,0,0,0,.233-.189L109.93,22.3a.239.239,0,0,0-.164-.279l-2.217-.671a.241.241,0,0,0-.228.049.236.236,0,0,0-.077.22l1.041,6.164a.24.24,0,0,0,.231.2" transform="translate(473.807 939.5)" fill="#004690"/>
    <path id="パス_43008" data-name="パス 43008" d="M108.689,33.889a.239.239,0,0,0-.236.2l-1,5.77a.238.238,0,0,0,.22.279l2.035.138h.016a.24.24,0,0,0,.236-.281l-1.037-5.907a.24.24,0,0,0-.236-.2" transform="translate(473.836 941.232)" fill="#004690"/>
    <path id="パス_43009" data-name="パス 43009" d="M73.3,11.957l-.628,2.061a.22.22,0,0,0-.01.1L75.713,40.1a.241.241,0,0,0,.219.211l6.181.537h.02a.241.241,0,0,0,.234-.187l2.605-11.433L84.967,26.4,81.114,8.929a.244.244,0,0,0-.125-.16.24.24,0,0,0-.2-.009l-7.349,3.047a.233.233,0,0,0-.135.151" transform="translate(469.033 937.761)" fill="#004690"/>
    <path id="パス_43010" data-name="パス 43010" d="M72.506,15.621l-.807-.9a.238.238,0,0,0-.335-.02l-7.11,6.215L53.5,34.541a.246.246,0,0,0-.041.079l-.627,2.061a.243.243,0,0,0,.059.239l1.165,1.165a.252.252,0,0,0,.159.069l20.162.9h.01a.239.239,0,0,0,.123-.034c.7-.422,1.011-.788.915-1.072-.1-.435-1.914-14.706-2.861-22.192a.244.244,0,0,0-.06-.13" transform="translate(466.293 938.576)" fill="#004690"/>
    <path id="パス_43011" data-name="パス 43011" d="M63.6.909,70.4,3.776A.24.24,0,0,0,70.5,3.8a.243.243,0,0,0,.13-.039L75.024.89A.24.24,0,0,0,74.9.45L65.316,0a.191.191,0,0,0-.075.008L63.627.458A.24.24,0,0,0,63.6.909" transform="translate(467.762 936.554)" fill="#004690"/>
    <path id="パス_43012" data-name="パス 43012" d="M7.439,57.372H22.4a24.605,24.605,0,0,0,3.533-.361c2.316-.371,4.977-4.237,5.087-4.4L38.082,42.6,58.322,20.568,74.182,5.514a.24.24,0,0,0-.076-.4L63.085.727a.256.256,0,0,0-.113-.016L47.43,2.242,24.222,8.515a25.139,25.139,0,0,0-3.354,1.179,5.927,5.927,0,0,0-2.134,1.665A57.946,57.946,0,0,0,9.01,26.842C5.229,35.783,4.252,51.791,4.243,51.975a14.785,14.785,0,0,0,.552,3.519c.485,1.342,2.5,1.85,2.644,1.878M29.383,46.228a.79.79,0,0,1,.774.887.954.954,0,0,1-.913.888.789.789,0,0,1-.774-.888.954.954,0,0,1,.913-.887m-2.413,0a.789.789,0,0,1,.774.887.954.954,0,0,1-.913.888.79.79,0,0,1-.774-.888.954.954,0,0,1,.913-.887M14.186,52.056a.8.8,0,0,1-.809-.887.977.977,0,0,1,.954-.887.8.8,0,0,1,.809.887.978.978,0,0,1-.954.887m2.532,0a.789.789,0,0,1-.774-.887.953.953,0,0,1,.913-.887.788.788,0,0,1,.773.887.952.952,0,0,1-.912.887m2.529,0a.79.79,0,0,1-.774-.887.953.953,0,0,1,.913-.887.789.789,0,0,1,.774.887.954.954,0,0,1-.913.887m2.53,0A.789.789,0,0,1,21,51.17a.953.953,0,0,1,.913-.887.788.788,0,0,1,.773.887.953.953,0,0,1-.912.887m2.781-5.828a.789.789,0,0,1,.773.887.954.954,0,0,1-.913.888.789.789,0,0,1-.773-.888.953.953,0,0,1,.913-.887m-.592,2.915a.954.954,0,0,1-.913.887.789.789,0,0,1-.774-.887.954.954,0,0,1,.913-.888.79.79,0,0,1,.774.888m-1.821-2.915a.788.788,0,0,1,.773.887.952.952,0,0,1-.912.888.79.79,0,0,1-.774-.888.954.954,0,0,1,.913-.887m-.641,2.915a.952.952,0,0,1-.912.887.789.789,0,0,1-.774-.887.954.954,0,0,1,.913-.888.789.789,0,0,1,.773.888m-1.772-2.915a.79.79,0,0,1,.774.887.954.954,0,0,1-.913.888.79.79,0,0,1-.774-.888.954.954,0,0,1,.913-.887m-.689,2.915a.953.953,0,0,1-.912.887.789.789,0,0,1-.774-.887.952.952,0,0,1,.913-.888.789.789,0,0,1,.773.888m-1.724-2.915a.789.789,0,0,1,.774.887.954.954,0,0,1-.913.888.79.79,0,0,1-.774-.888.955.955,0,0,1,.913-.887m-.736,2.915a.954.954,0,0,1-.913.887.788.788,0,0,1-.773-.887.952.952,0,0,1,.912-.888.79.79,0,0,1,.774.888m-1.639-2.915a.777.777,0,0,1,.737.887.931.931,0,0,1-.871.888.777.777,0,0,1-.737-.888.931.931,0,0,1,.871-.887m-.863,2.915a.929.929,0,0,1-.868.887.777.777,0,0,1-.736-.887.93.93,0,0,1,.868-.888.777.777,0,0,1,.736.888m-1.509-2.892a.757.757,0,0,1,.7.888.929.929,0,0,1-.848.887.756.756,0,0,1-.7-.887.929.929,0,0,1,.848-.888m-2.217-.023a.758.758,0,0,1,.7.887A.933.933,0,0,1,10.2,48a.759.759,0,0,1-.7-.888.933.933,0,0,1,.858-.887m-2.087,0a.743.743,0,0,1,.648.887A.9.9,0,0,1,8.126,48a.743.743,0,0,1-.648-.888.9.9,0,0,1,.791-.887" transform="translate(459.586 936.651)" fill="#004690"/>
    <path id="パス_43013" data-name="パス 43013" d="M21.338,7.394a.255.255,0,0,0,.065-.009L36.016,3.324a.273.273,0,0,0,.069-.032l1.136-.763a.239.239,0,0,0,.092-.278.247.247,0,0,0-.245-.159,50.446,50.446,0,0,0-6.4.958c-2.5.611-8,2.347-8.053,2.364a.234.234,0,0,0-.106.068L21.159,6.995a.24.24,0,0,0-.025.286.237.237,0,0,0,.2.114" transform="translate(461.912 936.843)" fill="#004690"/>
    <path id="パス_43014" data-name="パス 43014" d="M86.553,15.84l2.438.851v9.3l0,0,.084,27.879a.238.238,0,0,0,.239.239h1.164a.24.24,0,0,0,.24-.239V25.992a.24.24,0,0,0-.24-.239H90.27V16.29a.238.238,0,0,0-.162-.226l-3.4-1.165a.239.239,0,0,0-.316.226v.488a.241.241,0,0,0,.16.226" transform="translate(470.928 938.608)" fill="#004690"/>
    <path id="パス_43015" data-name="パス 43015" d="M85.549,54.061h.9a.239.239,0,0,0,.239-.239V38.707l1.167.149a.14.14,0,0,0,.031,0,.238.238,0,0,0,.239-.239V18.552a.239.239,0,0,0-.172-.23L86,17.754a.239.239,0,0,0-.306.23V24.2h-.223a.239.239,0,0,0-.239.24l.083,29.377a.239.239,0,0,0,.239.239" transform="translate(470.768 939.004)" fill="#004690"/>
    <path id="パス_43016" data-name="パス 43016" d="M122.216,55.317l-.2.036L90.35,60.921c-7.063,1.145-18.7,2.935-25.9,3.543-10.42.881-19.429,1.143-20.2,1.163A5.841,5.841,0,0,1,42,63.94c-.708-1.07-1.934-3.6-1.946-3.62a.239.239,0,0,0-.215-.134h0c-.226,0-22.692.338-27.33,0C7.8,59.842.559,59.354.559,59.354a.217.217,0,0,0-.222.117.238.238,0,0,0,0,.252l2.875,4.449.7,2.573L2.113,82.615c0,.322.458,1.97,9.509,2.674,9.19.716,25.9.766,26.072.766h0a.24.24,0,0,0,.238-.209L40.05,68.8l42.584-3.966L80.54,74.673,68.52,86.724c-1.539.279-26.243,4.729-40.76,4.291C14.065,90.6,9.176,89.706,9.12,89.7a52.919,52.919,0,0,1-6.5-1.367A6.71,6.71,0,0,1,.406,87.077a.242.242,0,0,0-.261-.05A.241.241,0,0,0,0,87.248V88.89a.24.24,0,0,0,.073.173c.043.041,1.1,1.015,5.584,2.092a109.174,109.174,0,0,0,17.915,2.1c1.036.04,2.132.058,3.273.058,12.552,0,30.467-2.207,30.666-2.232.075-.011,7.5-1.112,10.991-1.687,1.157-.19,3.041-2.167,4.416-3.61.353-.37.657-.689.879-.9.873-.835,1.738-1.679,2.385-2.314H79.1a.307.307,0,0,0,.065-.008c.122-.035,2.989-.863,3.987-3.006A12.377,12.377,0,0,0,84.2,76.532L92.042,74.9a3.362,3.362,0,0,0,2.615,1.674h1.979a4.938,4.938,0,0,0,3.865-3.953,8.67,8.67,0,0,0,.042-2.523l3.475.632a.245.245,0,0,0,.091,0l3.274-.69a.239.239,0,0,0,.19-.234V68.174l3.439.4a.213.213,0,0,0,.1-.01l2.105-.665a.454.454,0,0,0,.139-.073.517.517,0,0,0,.083-.107l8.481-11.884c.006-.009.261-.36.307-.43v0c.052-.077.044-.09-.014-.084M5.489,62.044l11.735.233s.563.08.563.387-4.355,2.957-5.33,3.216a18.322,18.322,0,0,1-5.79-.292c-.563-.336-1.742-2.035-1.64-2.7a1.112,1.112,0,0,1,.462-.848M5.1,72.4c-.068-.03-.157-.165.074-.569.452-.791.743-1.25,1.08-1.747.056-.082.2-.225.231-.283.056-.091.3-.384.3-.512,0-.863,0-1.9,0-2.507,0-.184.1-.285.226-.279.1.006.176.119.176.3,0,.638.011,2.014.011,2.6a.258.258,0,0,0,.273.236c1.523.077,3.093.155,4.608.231.267.014.553.056.553.22s-.11.246-.461.228c-1.189-.059-3.762-.193-5.2-.266-.145-.008-.273.114-.424.288-.2.236-.693,1.138-1,1.646-.16.269-.27.526-.445.415m10.917,3.362H16l-9.01-.454a3.75,3.75,0,0,0-.463,1.73,4.465,4.465,0,0,0,.527,2.089.215.215,0,0,1-.073.294.212.212,0,0,1-.109.031.216.216,0,0,1-.183-.1,4.808,4.808,0,0,1-.588-2.31,4.135,4.135,0,0,1,.592-2.067.207.207,0,0,1,.19-.1l9.141.461a.214.214,0,0,1-.011.427m1.107,4.187a3.046,3.046,0,0,1-.668-2.206,2.772,2.772,0,0,1,.668-2.138Zm1.024-7.124c-.307.086-3.587-2.333-4.048-2.767a.96.96,0,0,1-.307-.938,22.738,22.738,0,0,1,0-2.664c.1-.456,4.355-3.163,4.355-3.163s.307,9.445,0,9.531" transform="translate(459 944.191)" fill="#004690"/>
  </g>
</svg>
