<svg xmlns="http://www.w3.org/2000/svg" xmlns:xlink="http://www.w3.org/1999/xlink" width="299.168" height="39.622" viewBox="0 0 299.168 39.622"><defs><clipPath id="a"><rect width="299.168" height="39.622" fill="#132a88"/></clipPath></defs><g transform="translate(0 0)"><g transform="translate(0 0)" clip-path="url(#a)"><path d="M123.665,8.434h6.148c1.591,0,2.538.29,2.879.9a3.2,3.2,0,0,1-.092,2.433,5.331,5.331,0,0,1-2.034,2.723,5.84,5.84,0,0,1-3.308.746h-1.653c-1.539.07-2.089.4-2.421,1.466l-.319.9h7.415l-.776,2.184H119.2l.9-2.53c1.059-3.11,2.856-4.34,6.362-4.34h1.576c1.081,0,1.345-.18,1.689-1.147s.119-1.161-1.3-1.161h-5.53Z" transform="translate(-65.954 -4.667)" fill="#132a88"/><path d="M159.384,8.309a2.57,2.57,0,0,1,2.011.774c.489.622.519,1.147.127,2.294l-1.92,5.4a4.4,4.4,0,0,1-4.487,2.93h-3.661c-2.233.069-3.059-.954-2.362-2.916l1.931-5.432a4.068,4.068,0,0,1,4.283-3.055Zm-3.727,2.184a1.7,1.7,0,0,0-1.923,1.369l-1.523,4.285c-.445,1.34-.413,1.382.926,1.4h2.086c1.055-.014,1.249-.166,1.647-1.244l1.6-4.506c.344-.968.1-1.244-1.129-1.3Z" transform="translate(-82.36 -4.597)" fill="#132a88"/><path d="M179.439,8.434h6.148c1.591,0,2.539.29,2.878.9a3.2,3.2,0,0,1-.092,2.433,5.331,5.331,0,0,1-2.034,2.723,5.84,5.84,0,0,1-3.308.746h-1.653c-1.538.07-2.089.4-2.421,1.466l-.319.9h7.415l-.776,2.184h-10.3l.9-2.53c1.059-3.11,2.855-4.34,6.362-4.34h1.575c1.082,0,1.346-.18,1.69-1.147s.119-1.161-1.3-1.161h-5.53Z" transform="translate(-96.814 -4.667)" fill="#132a88"/><path d="M206.725,8.434h10.18l-.771,2.17h-7.353l-.757,2.129h4.357c2.133.042,2.857.871,2.3,2.571l-.648,1.824c-.736,1.81-2.225,2.654-4.635,2.654h-6.658l.776-2.184h5.468a10.574,10.574,0,0,0,1.266-.042l.066-.013h.046a1.037,1.037,0,0,0,.947-.664l.388-1.092c.263-.829.164-.9-1.359-.871h-5.916Z" transform="translate(-112.176 -4.667)" fill="#132a88"/><path d="M323.768,39.48H303.039l-1.508,2.97H316.46L314.9,46.562c-1.586,3.535-2.629,5.077-4.147,6.124-1.482,1.1-2.821,1.4-6.227,1.425h-6.674l-2.151,5.1H303.4c4.73,0,8.249-1.051,11.067-3.3,2.278-1.774,4.13-4.495,6.009-8.827Z" transform="translate(-163.61 -21.845)" fill="#132a88"/><path d="M370.663,49.639l1.47-3.484H354.968l-1.128,2.16h12.437c-.6,1.21-2.02,3.35-3.845,3.31h-4.046l-1.456,3.451c-.826,1.869-2.074,2.566-4.466,2.5H350.19l-1.667,3.948h3.1a11.081,11.081,0,0,0,5.924-1.461,10.427,10.427,0,0,0,3.838-4.565h1.451l.155,0c3.069,0,6.206-2.387,7.672-5.859" transform="translate(-192.839 -25.538)" fill="#132a88"/><path d="M416.5,39.48l-4.2,9.166a8.42,8.42,0,0,1-4.556,4.36,19.066,19.066,0,0,1-6.569.947h-7.158l-2.123,5.029h7.565c5.252-.046,8.272-.652,11.136-2.234a16.029,16.029,0,0,0,7.4-8.472l4.044-8.8Z" transform="translate(-216.835 -21.845)" fill="#132a88"/><path d="M417.9,43.3l1.7-3.819H408.018L406.337,43.3Z" transform="translate(-224.828 -21.845)" fill="#132a88"/><path d="M478.443,39.48H457.715l-1.508,2.97h14.929l-1.4,3.909c-1.587,3.535-2.629,5.077-4.147,6.124-1.482,1.1-2.821,1.4-6.227,1.425h-6.674L450.541,59h7.705c4.731,0,8.249-1.051,11.068-3.3,2.278-1.774,4.13-4.5,6.008-8.827Z" transform="translate(-249.286 -21.845)" fill="#132a88"/><path d="M515.219,57.644l2.9-7.379h5.85l1.185-2.294H508.686L507.5,50.266h5.851l-2.9,7.379H503.7l-1.642,3.891h18.216l1.642-3.891Z" transform="translate(-277.789 -26.543)" fill="#132a88"/><path d="M568.653,48.186a87.637,87.637,0,0,0,7.618-9.02l.679-.9H557.928l-1.461,2.858h11.8c-2.377,2.828-6.721,7.6-8.463,9.272a9.879,9.879,0,0,1-8.118,3.2h-1.9L547.7,58.536h3.933c4.47-.265,8.362-2.041,12.177-5.571a23.023,23.023,0,0,1,.541,4.778l.015.546H570.8l-.063-.618a39.686,39.686,0,0,0-2.08-9.484" transform="translate(-303.046 -21.173)" fill="#132a88"/><path d="M615.219,38.367l-.155.312c-2.2,4.441-3.266,4.27-5.732,4.965l-.26.073-1.73,4.1,1.056-.227c4.749-1.023,7.885-2.437,10.258-6.411h7.75l-1.58,4.537s-.638,1.776-1.152,2.814a15.756,15.756,0,0,1-1.357,2.115c-1.6,1.931-3.826,2.767-7.307,2.715h-8.927l-2.056,4.871h9.279c8.184,0,13.085-3.067,15.885-9.939l4.188-9.925Z" transform="translate(-334.21 -21.229)" fill="#132a88"/><path d="M627.477,53.841l-2.219,3.02h13.463l1.616-3.02Z" transform="translate(-345.958 -29.791)" fill="#132a88"/><path d="M232.572,44.381c-.746,0-.953-.107-1.138-.763-.36-1.278-.659-2.286-1.135-3.762-.153-.474-.307-.723-1-.708-1.726.04-3.489.011-5.219.017h-.915c.464,1.751.843,3.48,1.3,5.2-.416.017-20.655.034-21.272.034a.962.962,0,0,0-.766.4,13.677,13.677,0,0,0-.781,1.468c3.525,0,11.583.008,11.583.008h.147s-2.39,6.432-3.557,9.575a.644.644,0,0,1-.458.356c-1.411.029-3.833.016-5.4.016l1.988-6.55s-3.617-.016-5.337.019a.868.868,0,0,0-.6.419c-.715,1.363-1.442,2.724-2.066,4.119-1.092,2.44.278,4.21,3.557,4.432a42.221,42.221,0,0,0,5.16-.161c4.856-.268,19.587-1.034,21.486-1.134.092.3.168.617.232.84.171.593.376.671,1.223.671h6.754c-1.425-4.324-2.914-8.381-4.4-12.634h8.625s.6,0,.735-.482c.112-.39.274-.922.422-1.378Zm-12.153,2.267a.71.71,0,0,1,.542-.407h3.5a.685.685,0,0,1,.624.378c.394,1.151.733,2.313,1.112,3.551h-7.408c.572-1.253,1.072-2.4,1.632-3.521m-3.563,9.429c.4-1.244.9-2.4,1.315-3.542a.518.518,0,0,1,.459-.342c2.51-.024,5.055-.026,7.569.005a.912.912,0,0,1,.651.437c.29.872.5,1.759.769,2.763l-10.763.678" transform="translate(-109.32 -21.661)" fill="#132a88"/><path d="M228.14,43.8a.814.814,0,0,0,.727-.4,9.05,9.05,0,0,0,.592-1.425h-17.42l-.8,1.84,16.9-.015" transform="translate(-116.878 -23.223)" fill="#132a88"/><path d="M281.086,41.97l-.866,2.118,7.923.008.642-2.12Z" transform="translate(-155.047 -23.222)" fill="#132a88"/><path d="M130.7,42.194c4.007,0,9.545.008,13.55-.015a1.59,1.59,0,0,0,1.039-.334,4.876,4.876,0,0,0,.56-1.366H131.023l.384-1.106.245-.569H131.6l0-.006h-8.484l-.586,1.672a1.556,1.556,0,0,1-.341.032c-4.007,0-8.563-.021-12.569-.005-.364,0-.9.043-1.041.228a8.406,8.406,0,0,0-.791,1.619h14.085l-.542,1.547a3.8,3.8,0,0,1-1.485.151c-3.795,0-7.59-.01-11.382.017-.346,0-.882.176-.978.385-1.022,2.218-2.036,4.441-2.92,6.7-.572,1.462.426,2.433,2.377,2.49.617.018,1.233,0,2.124,0-2.673,1.7-7.833,5.016-7.833,5.016h.864s5.586.017,8.376-.015a2.244,2.244,0,0,0,1.106-.376c1.454-.938,2.872-1.91,4.3-2.869.58-.389,1.164-.774,1.745-1.16h.079l-1.54,4.4,8.492.133,1.586-4.564c1.626,1.445,3.118,2.8,4.664,4.1a2.388,2.388,0,0,0,1.324.493c2.126.05,6.375.02,6.375.02l1.127.009s-4.419-3.555-6.63-5.351c2.483,0,4.747-.018,7.012.011.649.008.957-.153,1.147-.655,1-2.658,2.053-5.3,3.083-7.953.092-.239.147-.488.263-.882H129.8l.61-1.756a.84.84,0,0,1,.294-.052m-17.547,3.741a.524.524,0,0,1,.388-.235c2.342-.014,4.689-.011,7.165-.01l-.65,1.855a.53.53,0,0,1-.256.089c-2.408.014-4.817.01-7.349.01.238-.591.449-1.156.7-1.709m5.191,5.438c-2.362.023-4.727.015-7.269.015.272-.687.49-1.292.764-1.879a.676.676,0,0,1,.5-.206c2.288-.013,4.581-.009,7.106-.009l-.664,1.9a.794.794,0,0,1-.437.184m16.045-.211a.823.823,0,0,1-.479.211c-2.177.021-4.362.016-6.68.015l.725-2.086c2.3-.013,4.609-.009,7.157-.008ZM136.5,45.69c-.27.647-.479,1.188-.73,1.715a.542.542,0,0,1-.4.229c-2.244.013-4.493.01-6.837.01l.675-1.944c2.382-.013,4.767-.01,7.294-.01" transform="translate(-56.017 -21.468)" fill="#132a88"/><path d="M95.152,22.3l.97,4.825a.093.093,0,0,0,.083.075l.969.1h.01a.094.094,0,0,0,.093-.08l.677-4.382a.107.107,0,0,0,0-.036l-.97-4.181a.094.094,0,0,0-.059-.067l-.857-.306a.095.095,0,0,0-.124.07l-.789,3.946a.1.1,0,0,0,0,.037" transform="translate(-52.647 -10.094)" fill="#132a88"/><path d="M93.786,20.271h0a.094.094,0,0,0,.092-.074l.587-2.74a.094.094,0,0,0-.056-.106l-1.127-.462a.1.1,0,0,0-.094.013.093.093,0,0,0-.034.089l.541,3.2a.094.094,0,0,0,.091.078" transform="translate(-51.542 -9.341)" fill="#132a88"/><path d="M94.136,31.231a.094.094,0,0,0-.092.078l-.519,3a.094.094,0,0,0,.019.074.092.092,0,0,0,.067.036l1.057.071h.006a.094.094,0,0,0,.092-.11l-.538-3.068a.094.094,0,0,0-.092-.078" transform="translate(-51.747 -17.28)" fill="#132a88"/><path d="M101.072,22.456h0a.094.094,0,0,0,.092-.074l.54-2.534a.094.094,0,0,0-.059-.108l-1.033-.381a.094.094,0,0,0-.125.1l.493,2.915a.094.094,0,0,0,.091.078" transform="translate(-55.6 -10.709)" fill="#132a88"/><path d="M101.391,32.417a.094.094,0,0,0-.092.078l-.472,2.728a.094.094,0,0,0,.086.11l.962.065h.007a.093.093,0,0,0,.07-.031.094.094,0,0,0,.023-.079l-.49-2.793a.094.094,0,0,0-.092-.078" transform="translate(-55.787 -17.937)" fill="#132a88"/><path d="M102.344,24.076l.9,4.519a.094.094,0,0,0,.083.075l.891.09h.01a.094.094,0,0,0,.093-.08l.608-4.112a.086.086,0,0,0,0-.035l-.891-3.842a.094.094,0,0,0-.06-.067l-.787-.281a.092.092,0,0,0-.078.007.094.094,0,0,0-.046.063l-.725,3.626a.1.1,0,0,0,0,.037" transform="translate(-56.626 -11.253)" fill="#132a88"/><path d="M107.742,23.948h0a.094.094,0,0,0,.092-.074l.461-2.156a.094.094,0,0,0-.064-.109l-.87-.264a.094.094,0,0,0-.089.019.092.092,0,0,0-.03.086l.409,2.419a.094.094,0,0,0,.091.078" transform="translate(-59.337 -11.808)" fill="#132a88"/><path d="M107.938,33.889a.094.094,0,0,0-.092.078l-.392,2.265a.093.093,0,0,0,.086.109l.8.054h.006a.094.094,0,0,0,.092-.11l-.407-2.318a.094.094,0,0,0-.092-.078" transform="translate(-59.454 -18.751)" fill="#132a88"/><path d="M72.915,10l-.247.809a.086.086,0,0,0,0,.038l1.2,10.2a.1.1,0,0,0,.086.083l2.426.211h.008a.094.094,0,0,0,.092-.073l1.022-4.488,0-1.11L75.981,8.815a.1.1,0,0,0-.049-.063.094.094,0,0,0-.079,0l-2.884,1.2a.092.092,0,0,0-.053.059" transform="translate(-40.205 -4.837)" fill="#132a88"/><path d="M60.549,15.029l-.317-.352a.093.093,0,0,0-.131-.008L57.31,17.109l-4.221,5.346a.1.1,0,0,0-.016.031l-.246.809a.1.1,0,0,0,.023.094l.457.457a.1.1,0,0,0,.063.027l7.914.352h0a.094.094,0,0,0,.048-.013c.277-.166.4-.309.359-.421-.038-.171-.751-5.772-1.123-8.711a.1.1,0,0,0-.024-.051" transform="translate(-29.227 -8.104)" fill="#132a88"/><path d="M63.51.357l2.671,1.125a.094.094,0,0,0,.037.008.1.1,0,0,0,.051-.015L67.994.349a.094.094,0,0,0-.047-.173L64.184,0a.075.075,0,0,0-.029,0l-.633.176a.094.094,0,0,0-.011.177" transform="translate(-35.109 0)" fill="#132a88"/><path d="M5.5,22.95h5.874a9.657,9.657,0,0,0,1.387-.142c.909-.146,1.953-1.663,2-1.726l2.771-3.93L25.469,8.5,31.694,2.6a.094.094,0,0,0-.03-.155L27.338.717a.1.1,0,0,0-.044-.006l-6.1.6L12.085,3.774a9.867,9.867,0,0,0-1.316.463,2.326,2.326,0,0,0-.838.654,22.744,22.744,0,0,0-3.817,6.077C4.63,14.476,4.247,20.76,4.243,20.832a5.8,5.8,0,0,0,.217,1.381c.19.527.982.726,1.038.737m8.613-4.374a.31.31,0,0,1,.3.348.374.374,0,0,1-.358.348.31.31,0,0,1-.3-.348.374.374,0,0,1,.358-.348m-.947,0a.31.31,0,0,1,.3.348.374.374,0,0,1-.358.348.31.31,0,0,1-.3-.348.374.374,0,0,1,.358-.348M8.146,20.864a.315.315,0,0,1-.318-.348.383.383,0,0,1,.374-.348.315.315,0,0,1,.318.348.384.384,0,0,1-.374.348m.994,0a.31.31,0,0,1-.3-.348.374.374,0,0,1,.358-.348.309.309,0,0,1,.3.348.374.374,0,0,1-.358.348m.993,0a.31.31,0,0,1-.3-.348.374.374,0,0,1,.358-.348.31.31,0,0,1,.3.348.374.374,0,0,1-.358.348m.993,0a.31.31,0,0,1-.3-.348.374.374,0,0,1,.358-.348.309.309,0,0,1,.3.348.374.374,0,0,1-.358.348m1.092-2.288a.31.31,0,0,1,.3.348.374.374,0,0,1-.358.348.31.31,0,0,1-.3-.348.374.374,0,0,1,.358-.348m-.232,1.144a.374.374,0,0,1-.358.348.31.31,0,0,1-.3-.348.374.374,0,0,1,.358-.348.31.31,0,0,1,.3.348m-.715-1.144a.309.309,0,0,1,.3.348.374.374,0,0,1-.358.348.31.31,0,0,1-.3-.348.374.374,0,0,1,.358-.348m-.251,1.144a.374.374,0,0,1-.358.348.31.31,0,0,1-.3-.348.374.374,0,0,1,.358-.348.31.31,0,0,1,.3.348m-.7-1.144a.31.31,0,0,1,.3.348.374.374,0,0,1-.358.348.31.31,0,0,1-.3-.348.374.374,0,0,1,.358-.348m-.27,1.144a.374.374,0,0,1-.358.348.31.31,0,0,1-.3-.348.374.374,0,0,1,.358-.348.31.31,0,0,1,.3.348m-.677-1.144a.31.31,0,0,1,.3.348.374.374,0,0,1-.358.348.31.31,0,0,1-.3-.348.375.375,0,0,1,.358-.348M9.087,19.72a.374.374,0,0,1-.358.348.309.309,0,0,1-.3-.348.374.374,0,0,1,.358-.348.31.31,0,0,1,.3.348m-.643-1.144a.3.3,0,0,1,.289.348.366.366,0,0,1-.342.348.305.305,0,0,1-.289-.348.365.365,0,0,1,.342-.348M8.105,19.72a.365.365,0,0,1-.341.348.3.3,0,0,1-.289-.348.365.365,0,0,1,.341-.348.305.305,0,0,1,.289.348m-.592-1.135a.3.3,0,0,1,.273.348.365.365,0,0,1-.333.348.3.3,0,0,1-.273-.348.365.365,0,0,1,.333-.348m-.87-.009a.3.3,0,0,1,.277.348.366.366,0,0,1-.337.348.3.3,0,0,1-.277-.348.366.366,0,0,1,.337-.348m-.819,0a.292.292,0,0,1,.254.348.354.354,0,0,1-.31.348.292.292,0,0,1-.254-.348.354.354,0,0,1,.31-.348" transform="translate(-2.348 -0.393)" fill="#132a88"/><path d="M21.193,4.173a.1.1,0,0,0,.025,0l5.736-1.594a.107.107,0,0,0,.027-.013l.446-.3a.094.094,0,0,0,.036-.109.1.1,0,0,0-.1-.063,19.8,19.8,0,0,0-2.511.376c-.98.24-3.138.921-3.161.928a.092.092,0,0,0-.042.027l-.531.593a.094.094,0,0,0-.01.112.093.093,0,0,0,.08.045" transform="translate(-11.674 -1.158)" fill="#132a88"/><path d="M86.456,15.26l.957.334v3.651l.033,10.943a.094.094,0,0,0,.094.094H88a.094.094,0,0,0,.094-.094V19.245A.094.094,0,0,0,88,19.151h-.081V15.437a.093.093,0,0,0-.063-.089l-1.334-.457a.094.094,0,0,0-.124.089v.192a.094.094,0,0,0,.063.089" transform="translate(-47.802 -8.236)" fill="#132a88"/><path d="M85.353,32H85.7a.094.094,0,0,0,.094-.094V25.973l.458.059h.012a.093.093,0,0,0,.094-.094V18.062a.094.094,0,0,0-.067-.09l-.767-.223a.094.094,0,0,0-.12.09V20.28h-.088a.094.094,0,0,0-.094.094l.033,11.531a.094.094,0,0,0,.094.094" transform="translate(-47.157 -9.818)" fill="#132a88"/><path d="M47.97,55.316l-.08.014L35.463,57.516c-2.772.449-7.338,1.152-10.164,1.391-4.09.346-7.626.448-7.928.457a2.293,2.293,0,0,1-.887-.662c-.278-.42-.759-1.411-.764-1.421a.094.094,0,0,0-.084-.053h0c-.089,0-8.907.133-10.727,0C3.061,57.092.219,56.9.219,56.9a.085.085,0,0,0-.087.046.094.094,0,0,0,0,.1l1.128,1.746.276,1.01L.83,66.031c0,.126.18.773,3.732,1.05,3.607.281,10.168.3,10.233.3h0a.094.094,0,0,0,.093-.082l.831-6.69,16.714-1.557-.822,3.862-4.718,4.73c-.6.109-10.3,1.856-16,1.684A57.256,57.256,0,0,1,3.58,68.81a20.77,20.77,0,0,1-2.552-.536,2.633,2.633,0,0,1-.868-.491.1.1,0,0,0-.1-.02A.1.1,0,0,0,0,67.849v.645a.094.094,0,0,0,.029.068,5.435,5.435,0,0,0,2.192.821,42.851,42.851,0,0,0,7.032.823c.406.016.837.023,1.285.023,4.927,0,11.958-.866,12.037-.876.029,0,2.946-.436,4.314-.662.454-.075,1.194-.851,1.733-1.417.138-.145.258-.27.345-.354.343-.328.682-.659.936-.908h1.146a.121.121,0,0,0,.025,0,2.676,2.676,0,0,0,1.565-1.18,4.858,4.858,0,0,0,.411-1.185L36.127,63a1.32,1.32,0,0,0,1.027.657h.777a1.938,1.938,0,0,0,1.517-1.551,3.4,3.4,0,0,0,.017-.99l1.364.248a.1.1,0,0,0,.036,0l1.285-.271A.094.094,0,0,0,42.223,61v-.638l1.35.157a.084.084,0,0,0,.039,0l.826-.261a.178.178,0,0,0,.054-.029.2.2,0,0,0,.033-.042l3.329-4.664s.1-.141.121-.169h0c.021-.03.017-.035-.005-.033M2.154,57.957l4.606.092s.221.031.221.152A9.267,9.267,0,0,1,4.89,59.463a7.191,7.191,0,0,1-2.273-.115,1.819,1.819,0,0,1-.644-1.058.436.436,0,0,1,.181-.333M2,62.023c-.027-.012-.062-.065.029-.223.177-.31.292-.49.424-.686.022-.032.077-.088.091-.111s.116-.151.116-.2c0-.339,0-.747,0-.984,0-.072.041-.112.089-.109s.069.047.069.119c0,.251,0,.791,0,1.02a.1.1,0,0,0,.107.092l1.809.091c.1.005.217.022.217.086s-.043.1-.181.089l-2.041-.1c-.057,0-.107.045-.167.113-.08.092-.272.447-.391.646-.063.105-.106.206-.175.163m4.285,1.32h0l-3.536-.178a1.472,1.472,0,0,0-.182.679,1.753,1.753,0,0,0,.207.82.084.084,0,0,1-.029.115.083.083,0,0,1-.043.012.085.085,0,0,1-.072-.041,1.887,1.887,0,0,1-.231-.907,1.623,1.623,0,0,1,.232-.811.081.081,0,0,1,.075-.038l3.588.181a.084.084,0,0,1,0,.168m.435,1.643a1.2,1.2,0,0,1-.262-.866,1.088,1.088,0,0,1,.262-.839Zm.4-2.8A9.165,9.165,0,0,1,5.533,61.1a.377.377,0,0,1-.121-.368,8.925,8.925,0,0,1,0-1.046,12.257,12.257,0,0,1,1.71-1.241s.121,3.707,0,3.741" transform="translate(0 -30.607)" fill="#132a88"/></g></g></svg>