<svg xmlns="http://www.w3.org/2000/svg" width="254.548" height="32.454" viewBox="0 0 254.548 32.454"><g transform="translate(-70.779 -663.84)"><path d="M5.358,0h5.89V-30.78H6.65C5.51-29.526,2.128-27.892.912-27.4v4.37c.912-.456,3.534-1.178,4.446-1.672ZM16.416,0H32.148V-4.636h-9.12l5.928-8.892c2.09-3.154,4.028-5.776,4.028-9.538,0-5.092-2.774-8.094-8.17-8.094-6.042,0-8.4,3.952-8.4,9.386v1.52h5.738V-21.66c0-2.508.532-4.56,2.774-4.56,1.482,0,2.242,1.064,2.242,3.04,0,2.85-1.634,4.978-3.268,7.524L16.416-4.142ZM35.872,0h5.472V-5.548H35.872ZM45.6,0h5.7l6.5-26.942V-30.78H43.7V-26.3h8.36ZM67.488.38C71.022.38,74.1-1.71,74.1-5.51c0-2.812-1.976-4.636-3.8-6.194l-2.052-1.824c-1.672-1.406-2.66-2.394-2.66-3.306a1.4,1.4,0,0,1,1.52-1.444c1.444,0,2.47,1.672,2.888,3.306l3.724-1.672c-.836-3.534-3.154-5.7-6.764-5.7-3.572,0-6.536,2.356-6.536,5.928,0,2.7,1.406,4.256,3.572,6.08l2.052,1.748C68.1-6.84,68.78-6.156,68.78-4.94c0,.836-.532,1.368-1.6,1.368-1.444,0-2.508-1.254-3.23-3.382L59.926-5.282C61.256-1.406,63.688.38,67.488.38Zm13,0a7.845,7.845,0,0,0,5.244-2.432V0h5.738V-21.964H85.728V-4.446a3.881,3.881,0,0,1-2.014.836c-1.064,0-1.406-.684-1.406-1.824v-16.53H76.57V-4.636C76.57-1.862,77.824.38,80.484.38ZM95.418,0h5.7V-17.29a4.1,4.1,0,0,1,2.166-.912c1.026,0,1.33.646,1.33,1.786V0h5.738V-17.328c0-2.774-1.254-5.016-3.914-5.016a7.72,7.72,0,0,0-5.32,2.584v-2.2h-5.7Z" transform="translate(113 695)" fill="#004690"/><path d="M.779,0H8.645V-2.318H4.085L7.049-6.764c1.045-1.577,2.014-2.888,2.014-4.769,0-2.546-1.387-4.047-4.085-4.047-3.021,0-4.2,1.976-4.2,4.693v.76H3.648v-.7c0-1.254.266-2.28,1.387-2.28.741,0,1.121.532,1.121,1.52,0,1.425-.817,2.489-1.634,3.762L.779-2.071Zm14,.266c2.7,0,4.1-1.843,4.1-4.446v-6.9c0-2.7-1.292-4.522-4.1-4.522-2.85,0-4.123,1.824-4.123,4.522v6.9C10.659-1.558,12.027.266,14.782.266Zm0-2.584c-1.007,0-1.14-1.159-1.14-1.919V-11.02c0-.817.057-2,1.14-2,1.045,0,1.121,1.178,1.121,2v6.783C15.9-3.477,15.77-2.318,14.782-2.318ZM20.71,0h7.866V-2.318h-4.56L26.98-6.764c1.045-1.577,2.014-2.888,2.014-4.769,0-2.546-1.387-4.047-4.085-4.047-3.021,0-4.2,1.976-4.2,4.693v.76h2.869v-.7c0-1.254.266-2.28,1.387-2.28.741,0,1.121.532,1.121,1.52,0,1.425-.817,2.489-1.634,3.762L20.71-2.071ZM34.333.247c3.5,0,4.123-2.356,4.123-5.624,0-3.154-1.159-5.035-3.534-4.826a2.916,2.916,0,0,0-1.938.741l.152-3.4H37.81V-15.39H30.742l-.209,8.74H33.06c.19-.912.627-1.387,1.311-1.387,1.14,0,1.311,1.159,1.311,2.793,0,2.014-.057,3.268-1.178,3.306-1.064.038-1.273-.836-1.273-2.527h-2.85C30.381-1.615,31.084.247,34.333.247ZM39.976,0h2.736V-2.774H39.976Z" transform="translate(70 695)" fill="#004690"/><path d="M5.4.231c3.654,0,4.6-2.5,4.6-5.817v-6.2c0-3.234-1.344-5.439-4.578-5.439C2.079-17.22.84-14.931.84-11.487c0,2.814.945,5.1,3.7,5.061a2.452,2.452,0,0,0,2.142-.987v1.722c0,2.625-.231,3.444-1.26,3.444-1.071,0-1.239-.693-1.239-2.121H1.113v.252C1.113-1.3,2.268.231,5.4.231ZM5.439-8.9c-1.26,0-1.281-1.218-1.281-2.961,0-1.848.189-2.94,1.26-2.94,1.05,0,1.26,1.134,1.26,2.415v2.709A1.419,1.419,0,0,1,5.439-8.9Zm7.077.231h3v-3h-3Zm0,7.329h3V-4.389h-3ZM22.323.294c2.982,0,4.536-2.037,4.536-4.914v-7.623c0-2.982-1.428-5-4.536-5-3.15,0-4.557,2.016-4.557,5V-4.62C17.766-1.722,19.278.294,22.323.294Zm0-2.856c-1.113,0-1.26-1.281-1.26-2.121v-7.5c0-.9.063-2.205,1.26-2.205,1.155,0,1.239,1.3,1.239,2.205v7.5C23.562-3.843,23.415-2.562,22.323-2.562ZM33.726.294c2.982,0,4.536-2.037,4.536-4.914v-7.623c0-2.982-1.428-5-4.536-5-3.15,0-4.557,2.016-4.557,5V-4.62C29.169-1.722,30.681.294,33.726.294Zm0-2.856c-1.113,0-1.26-1.281-1.26-2.121v-7.5c0-.9.063-2.205,1.26-2.205,1.155,0,1.239,1.3,1.239,2.205v7.5C34.965-3.843,34.818-2.562,33.726-2.562ZM39.5-6.048h10.29V-8.253H39.5ZM52.836,0h3.255V-17.01H53.55a11.843,11.843,0,0,1-3.171,1.869v2.415c.5-.252,1.953-.651,2.457-.924ZM63.8.231c3.465,0,4.557-2.436,4.557-5.9,0-2.814-.966-4.935-3.675-4.893a2.507,2.507,0,0,0-2.184.987V-11.3c0-2.625.273-3.444,1.3-3.444,1.071,0,1.218.693,1.218,2.121h3.066v-.294c-.021-2.772-1.176-4.3-4.305-4.3-3.654,0-4.578,2.5-4.578,5.817v6.048C59.2-2.142,60.543.231,63.8.231Zm.021-2.415c-1.05,0-1.323-1.134-1.323-2.415V-7.308a1.557,1.557,0,0,1,1.3-.777c1.26,0,1.3,1.239,1.3,2.961C65.1-3.255,64.89-2.184,63.819-2.184Zm6.762-6.489h3v-3h-3Zm0,7.329h3V-4.389h-3ZM80.388.294c2.982,0,4.536-2.037,4.536-4.914v-7.623c0-2.982-1.428-5-4.536-5-3.15,0-4.557,2.016-4.557,5V-4.62C75.831-1.722,77.343.294,80.388.294Zm0-2.856c-1.113,0-1.26-1.281-1.26-2.121v-7.5c0-.9.063-2.205,1.26-2.205,1.155,0,1.239,1.3,1.239,2.205v7.5C81.627-3.843,81.48-2.562,80.388-2.562ZM91.791.294c2.982,0,4.536-2.037,4.536-4.914v-7.623c0-2.982-1.428-5-4.536-5-3.15,0-4.557,2.016-4.557,5V-4.62C87.234-1.722,88.746.294,91.791.294Zm0-2.856c-1.113,0-1.26-1.281-1.26-2.121v-7.5c0-.9.063-2.205,1.26-2.205,1.155,0,1.239,1.3,1.239,2.205v7.5C93.03-3.843,92.883-2.562,91.791-2.562Z" transform="translate(229 696)" fill="#004690"/></g></svg>