<svg xmlns="http://www.w3.org/2000/svg" width="273.299" height="136.898" viewBox="0 0 273.299 136.898"><g transform="translate(-693.306 -12112.182)"><text transform="translate(808 12244.08)" fill="#004690" font-size="16" font-family="NotoSansJP-Bold, Noto Sans JP" font-weight="700"><tspan x="0" y="0">会場案内</tspan></text><path d="M9.306-95.9H28.673L55.718-16.3,82.571-95.9h19.172V.5H88.47V-56.3c0-1.942.044-5.2.13-9.686.069-3.578.111-7.407.124-11.418L62.378.5H48.868L22.32-77.443c0,2.327.056,5.883.162,10.575.108,4.765.162,8.319.162,10.564V.5H9.306Zm18.65,1H10.306V-.5H21.645V-56.3c0-2.238-.055-5.784-.162-10.542s-.163-8.362-.163-10.694v-2.922l.973-.161L49.583-.5H61.66l27.1-80.123.974.16c0,5.132-.044,10.008-.13,14.492s-.13,7.731-.13,9.667V-.5h11.274V-94.9H83.289L55.721-13.183Zm120.349-1h15.308l.12.329L198.59.5H183.361l-9.676-28.574H136.663L126.337.5H112.016Zm14.607,1H149L113.461-.5h12.175l10.326-28.574H174.4L184.078-.5h13.085Zm47.453-1h43.426a35.324,35.324,0,0,1,11.66,1.822,26.3,26.3,0,0,1,9.2,5.486,23.271,23.271,0,0,1,5.972,8.817,32.478,32.478,0,0,1,1.982,11.715,31.468,31.468,0,0,1-1.766,10.616,29.866,29.866,0,0,1-5.3,9.156,21.941,21.941,0,0,1-9.018,6.355,35.305,35.305,0,0,1-12.731,2.1h-29.5V.5H210.365Zm43.426,55.07a34.32,34.32,0,0,0,12.369-2.036,20.953,20.953,0,0,0,8.613-6.065,28.87,28.87,0,0,0,5.124-8.849,30.472,30.472,0,0,0,1.708-10.279,31.489,31.489,0,0,0-1.915-11.355,22.28,22.28,0,0,0-5.717-8.442,25.308,25.308,0,0,0-8.853-5.278,34.332,34.332,0,0,0-11.33-1.766H211.365V-.5h11.923V-40.829Zm-30.5-43.965H249.5c5.03,0,9.056.693,11.967,2.061l.005,0a13.33,13.33,0,0,1,6.066,5.666,18.822,18.822,0,0,1,2.009,9.071,21.283,21.283,0,0,1-1.394,8.131,11.783,11.783,0,0,1-4.247,5.335,20.523,20.523,0,0,1-6.4,2.847,31.745,31.745,0,0,1-8.009.942H223.288Zm37.756,2.965c-2.777-1.3-6.659-1.965-11.539-1.965H224.288v32.055H249.5a30.75,30.75,0,0,0,7.755-.909,19.527,19.527,0,0,0,6.087-2.706,10.8,10.8,0,0,0,3.887-4.893,20.3,20.3,0,0,0,1.317-7.747,17.846,17.846,0,0,0-1.887-8.593A12.35,12.35,0,0,0,261.044-81.829Zm-105.625-.909,15.168,44.144H139.3Zm13.767,43.144-13.8-40.15-14.662,40.15Z" transform="translate(684 12208.08)" fill="#004690"/></g></svg>