<svg xmlns="http://www.w3.org/2000/svg" xmlns:xlink="http://www.w3.org/1999/xlink" width="875.38" height="77.225" viewBox="0 0 875.38 77.225"><defs><clipPath id="a"><rect width="875.38" height="77.225" fill="#ff7878"/></clipPath></defs><g transform="translate(0 0)"><g transform="translate(0 0)" clip-path="url(#a)"><path d="M84.04,12.767H52.252l-.612,2.97H77.248L73.974,31.631H48.367l-.546,2.65H75.195l-1.917,9.312h4.9l-1.868,9.07h-4.9L68.583,66.39H56.621l.794-3.852H42L40.68,68.959c-.809,3.933-3.337,7.626-8.153,7.626H15.108l.027-9.874H27.416c1.685,0,2.251-.8,2.55-2.247l.4-1.926H2.427l1.521-7.386H31.883l.628-3.05H0l1.653-8.027H34.164l.595-2.89H6.985l1.421-6.9H36.182l.546-2.65H11.6l3.273-15.894H40l.612-2.97H9.064L10.8,4.339H42.348L43.191.244H54.83l-.843,4.095H85.776ZM25.065,22l-.728,3.532H37.983L38.711,22ZM50.35,22l-.727,3.532H63.671L64.4,22ZM46.4,41.184l-.661,3.21H61.151l.661-3.21ZM44.2,51.86l-.678,3.291H58.936l.678-3.291Z" transform="translate(0 -0.003)" fill="#ff7878"/><path d="M86.252,8.67h17.661a44.262,44.262,0,0,0-1.936-6.582L115.732,0a53.754,53.754,0,0,1,1.989,8.67h13.806A49.9,49.9,0,0,0,136.17.161l13.445,1.365c-1.639,2.889-3.988,6.5-4.442,7.144h17.018l-2.215,10.757H84.038Zm.6,15.413h33.314l-9.407,45.676c-1.29,6.261-5.82,6.822-7.505,6.822H92.1l.483-11.318H98.84a1.662,1.662,0,0,0,1.857-1.605l.975-4.736H91.316L87.679,76.581H76.04Zm9.655,9.633-.842,4.093h10.355l.844-4.093ZM93.977,46l-.892,4.334h10.357L104.334,46ZM124.9,24.885h11.719l-7.307,35.482h-11.72ZM143.389,22.8H155.51l-9.689,47.041c-1.323,6.422-6.527,6.742-7.57,6.742H121.073l.31-11.64h11.8c1.044,0,1.574-.241,1.856-1.605Z" transform="translate(-0.888 0)" fill="#ff7878"/><path d="M197.312,17.9H177.163L172.3,41.5a164.554,164.554,0,0,1-5.29,17.5,56.609,56.609,0,0,1-10.076,17.74l-7.651-9.231A69.522,69.522,0,0,0,160.044,42.95l7.522-36.525h28.577L197.416.244H209.7l-1.273,6.181h29.862L235.924,17.9H201.085a70.449,70.449,0,0,1,15.69,9.954l-9.35,9.151c-3.159-3.372-6.5-6.262-17.594-11.238ZM186.795,39.738c-1.795,7.547-6.641,23.28-12.454,31.628l-9.27-4.495c6.021-8.188,9.993-20.068,12.2-28.819Zm3.09-4.094h11.881l-5.6,27.214c-.264,1.284.39,2.006,1.433,2.006h3.612c.482,0,1.2,0,1.71-1.285.748-1.685,2.328-8.187,2.838-10.275l9.443,2.087c-.739,2.81-3.644,13.406-6.007,16.7a8.983,8.983,0,0,1-7.328,4.013H188.055c-2.729,0-6.237-1.284-5.2-6.341Zm35.085-.8A118.683,118.683,0,0,1,227.05,68.4L214.5,70.886c1.791-12.2,1.286-21.835-1.476-32.592Z" transform="translate(-1.743 -0.003)" fill="#ff7878"/><path d="M243.084,59.889a73.612,73.612,0,0,1-11.071,4.254l-2.794-10.6a51.988,51.988,0,0,0,16.6-6.181H231.7l1.785-8.671h23.681c.42-.481.744-.883,1.731-2.166H241.313l4.53-22H256.76l.513-2.489h-18.3l1.818-8.83h18.3l.595-2.89h11.881l-.595,2.89h16.857l.6-2.89h12.121l-.595,2.89h16.777l-1.819,8.83H298.132l-.512,2.489h9.472l-4.53,22H271.416a23.251,23.251,0,0,1-1.57,2.166h39.576l-1.786,8.671H292.784c3.352,3.211,5.865,4.656,14.9,7.144l-7.433,10.757a39.247,39.247,0,0,1-8.66-4.335c-3.344,11.56-7.013,15.733-12.713,15.733H265.157l.365-9.953h9.472c1.846,0,3.293-.4,4.547-6.1H268.3c-8.512,11.318-21.861,15.333-33.01,16.456l-2.3-10.275c11.42-.884,18.531-3.451,22.3-6.181H242.936Zm13.4-39.335-.512,2.489h37.487l.513-2.489Zm-1.57,7.627-.546,2.648h37.488l.546-2.648Zm7.066,24.162a28.522,28.522,0,0,0,1.579-3.773l10.962.563c-.635,1.525-.8,1.926-1.3,3.21h7.867a18.719,18.719,0,0,1-3.551-4.976H261.8a73.074,73.074,0,0,1-6.081,4.976ZM285.5,14.533l.512-2.489H269.153l-.513,2.489Z" transform="translate(-2.676 -0.003)" fill="#ff7878"/><path d="M346.254,2.813C345.208,5.944,344.1,9.4,341.71,16.3h6.9c15.975,0,15.374,11.881,13.143,22.718-.942,4.576-5.092,22-11.635,28.819-5.2,5.378-10.645,5.7-14.74,5.7a58.2,58.2,0,0,1-11.408-1.125L326,60.21a43.706,43.706,0,0,0,9.161,1.124c4.014,0,5.693-1.526,6.743-2.729,2.925-3.291,6.233-14.289,7.424-20.069,1.322-6.422,1.988-10.436-5.654-10.356l-6.439.081c-5.9,15.412-12.913,30.745-22.854,44.713l-10.575-6.342c4.64-5.378,10.514-13.246,20.81-38.291l-11.513.16,2.513-12.2h13.246c1.929-5.86,3.306-10.6,4.324-14.369Zm23.534,13.968a48.4,48.4,0,0,0-2.236-12.923l7.462-1.927a42.359,42.359,0,0,1,2.495,12.443Zm-2.9,34.358c3.732-20.069,1.159-27.454.165-30.424L379.515,17.1c2.609,6.824,3.659,16.537,1.3,32.672Zm15.2-36.364a51.056,51.056,0,0,0-2.719-12.523l7.38-1.926c.6,1.365,1.792,3.772,2.752,12.363Z" transform="translate(-3.547 -0.003)" fill="#ff7878"/><path d="M442.63,66.387c2.416-12.121,2.134-24,.822-35.562A177.148,177.148,0,0,1,414.7,57.4l-.744,3.612c-.43,2.087.259,2.248,1.624,2.248h8.027c2.248,0,4.163-.723,7.247-14.529L441.9,52.42c-1.725,6.421-4.648,14.77-6.688,17.659a11.559,11.559,0,0,1-9.166,5.137H406.454c-4.575,0-6.382-4.093-5.687-7.465l.281-1.365a114.74,114.74,0,0,1-18.225,8.59l-3.867-11.238a87.16,87.16,0,0,0,11.071-4.254l-8.952-6.423c4.5-6.26,8.1-12.442,12.658-27.935L405.2,27.133c-3.683,12.042-8.021,23.36-13.384,31.468a99.349,99.349,0,0,0,12.258-6.9l6.58-31.95h11.8l-4.415,21.434A140.921,140.921,0,0,0,450.065,1.445l10.874,4.5a143.854,143.854,0,0,1-14.4,21.192l8.977-3.05c1.646,9.552,2.721,25.768,1.217,38.532ZM416.166,0c13.743,2.65,21.473,6.823,24.658,8.509l-8.687,11c-5.578-4.094-16.408-8.027-23.626-9.232Z" transform="translate(-4.424 0)" fill="#ff7878"/><path d="M482.711,42.256c1-1.365,2.444-3.292,2.915-4.015H465.959l4.414-21.434H490.12l.794-3.852H468.437L470.569,2.6h74.9l-2.133,10.355H520.7l-.794,3.852h20.069l-4.414,21.434h-35.8A30.889,30.889,0,0,1,497,42.256h40.619l-2.1,10.195H522.677a46.135,46.135,0,0,1-7.516,8.428,137.917,137.917,0,0,1,16.1,5.62L519.815,77.255a129.143,129.143,0,0,0-17.131-8.027c-9.321,4.334-24.718,6.983-42.6,7.3l-1.665-11.4c3.98.16,5.746.16,9.117.16a137.69,137.69,0,0,0,19.5-1.124,147.4,147.4,0,0,0-20.7-4.335c2.26-2.007,4.632-4.175,7.783-7.385H459.741l2.1-10.195Zm-3.556-11.962h8.187l1.157-5.62h-8.187Zm9.324,22.156c-.92.964-1.244,1.365-2.746,2.81a158.018,158.018,0,0,1,17.259,2.728,43.643,43.643,0,0,0,6.2-5.538Zm12.4-35.643H508.9l.794-3.852H501.67ZM498.1,30.294h8.027l1.157-5.62h-8.027Zm19.025,0h8.348l1.157-5.62h-8.348Z" transform="translate(-5.352 -0.03)" fill="#ff7878"/><path d="M581.182,2.594c-.539,1.445-2.838,7.546-3.247,8.751H591.9l-2.513,12.2H573.416c-5,12.2-13.887,29.621-20.6,41.583l-12.486-3.693c5.133-7.385,14.482-24.323,20.006-37.889H549.574l2.512-12.2h12.845c1.551-4.416,2.142-6.5,2.864-9.232ZM620.47,23.867c-1.894-.161-3.931-.4-6.419-.4a61.916,61.916,0,0,0-7.5.562L602.6,45.541c9,5.78,11.269,8.429,12.895,10.276l-9.657,12.2c-1.688-2.328-4.224-5.217-7.094-8.428l-.428,1.686C596.049,70.346,587.55,73.8,578.641,73.8c-13.407,0-18.437-7.144-16.619-15.974,1.455-7.064,8.125-16.456,23.939-16.456a39.723,39.723,0,0,1,4.768.24l5.165-28.98c3.922-.721,10.512-1.926,26.264-2.408Zm-31.786,29.22a12.988,12.988,0,0,0-5.548-1.124c-1.124,0-8.606.08-9.73,5.539-.347,1.686-.241,5.459,6.582,5.459,6.583,0,7.357-3.371,7.77-5.377Z" transform="translate(-6.308 -0.024)" fill="#ff7878"/><path d="M654.695,72.835H641.128l6.745-32.752A169.119,169.119,0,0,1,618.6,52.044l-4.834-10.837C649.8,31.494,673.2,9.5,681.042,2.193l9.923,7.947a220.679,220.679,0,0,1-27.657,20.872Z" transform="translate(-7.165 -0.025)" fill="#ff7878"/><path d="M676.605,39.279c3.694-3.13,4.922-4.415,16.388-15.653,8.348-8.188,13.418-12.924,19.679-12.924,5.54,0,9.317,4.656,10.623,6.5l26.959,37.488L737.9,66.331,713.621,29.486c-1.481-2.166-2.324-3.531-4.01-3.531-1.846,0-3.363,1.525-4.592,2.81-3.36,3.451-17.758,19.185-20.731,22.316ZM737.47,22.823a84.761,84.761,0,0,0-5.423-11.478l6.861-3.693a50.41,50.41,0,0,1,5.876,10.837Zm11.6-6.021a44.908,44.908,0,0,0-5.877-10.837l7.056-3.852a43.273,43.273,0,0,1,6.135,10.355Z" transform="translate(-7.899 -0.024)" fill="#ff7878"/><path d="M783.049,30.345A82.354,82.354,0,0,0,760.324,17.9l8.028-10.918A83.663,83.663,0,0,1,792.3,18.544ZM752.984,59c31.739-2.49,50.642-14.369,66.456-46.72l10.88,6.02C809.249,60.207,782.66,68.877,754.4,72.81Z" transform="translate(-8.79 -0.081)" fill="#ff7878"/><path d="M853.808,3.087l-3.935,19.105A146.373,146.373,0,0,1,885.014,39.05L875.43,52.456c-7.175-5.7-19.17-13.326-28.35-16.7l-7.835,38.05H825.276L839.84,3.087Z" transform="translate(-9.634 -0.036)" fill="#ff7878"/></g></g></svg>