<svg xmlns="http://www.w3.org/2000/svg" width="520.439" height="86.209" viewBox="0 0 520.439 86.209"><g transform="translate(17696.793 2903.209)"><text transform="translate(-17485 -2822)" fill="#004690" font-size="16" font-family="NotoSansJP-Bold, Noto Sans JP" font-weight="700"><tspan x="0" y="0">プログラム</tspan></text><path d="M322,2.26A23.8,23.8,0,0,1,312.745.541a19.185,19.185,0,0,1-7.114-5.189l-.025-.03a23.049,23.049,0,0,1-3.974-7.486,30.265,30.265,0,0,1-1.314-9.135,30.1,30.1,0,0,1,1.124-8.379,24.218,24.218,0,0,1,3.392-7.134c3.892-5.572,9.707-8.4,17.285-8.4A25.858,25.858,0,0,1,332.434-43.3a18.052,18.052,0,0,1,7.361,5.812,21.324,21.324,0,0,1,3.367,6.829,29.948,29.948,0,0,1,1.11,8.389A31.264,31.264,0,0,1,343-13.148a23.662,23.662,0,0,1-3.832,7.516A19.343,19.343,0,0,1,331.83.294,23.471,23.471,0,0,1,322,2.26Zm-14.847-8.2A17.2,17.2,0,0,0,313.52-1.3,21.824,21.824,0,0,0,322,.26a21.5,21.5,0,0,0,9-1.784,17.364,17.364,0,0,0,6.588-5.324,21.666,21.666,0,0,0,3.507-6.884,29.272,29.272,0,0,0,1.18-8.534,27.956,27.956,0,0,0-1.029-7.827,19.335,19.335,0,0,0-3.049-6.193,16.077,16.077,0,0,0-6.556-5.175,23.888,23.888,0,0,0-9.519-1.748,20.828,20.828,0,0,0-9.13,1.892,16.9,16.9,0,0,0-6.515,5.649,22.222,22.222,0,0,0-3.111,6.547,28.1,28.1,0,0,0-1.044,7.822,28.276,28.276,0,0,0,1.22,8.531A21.06,21.06,0,0,0,307.155-5.943ZM19.922,2.26a24.132,24.132,0,0,1-7.466-1.075A15.877,15.877,0,0,1,6.683-2.1C3.448-5,1.838-8.971,1.9-13.9l.012-.987H9.324l.053.944A10.846,10.846,0,0,0,10.94-8.494a7.772,7.772,0,0,0,3.56,2.84,15.206,15.206,0,0,0,5.832.992,17.188,17.188,0,0,0,5.648-.882,7.472,7.472,0,0,0,3.46-2.215A5.131,5.131,0,0,0,30.523-11.1c0-2.007-.574-3.375-1.756-4.18a21.434,21.434,0,0,0-6.637-2.4L16.3-19.005c-3.962-.894-6.715-1.869-8.413-2.98a9.987,9.987,0,0,1-4.554-8.893A13.423,13.423,0,0,1,7.67-41.134c2.854-2.646,6.907-3.987,12.047-3.987a20.809,20.809,0,0,1,12.067,3.444c3.426,2.365,5.163,6.156,5.163,11.267v1H29.588l-.111-.874a9.9,9.9,0,0,0-1.668-4.809,7.09,7.09,0,0,0-3.16-2.209,14.78,14.78,0,0,0-5.108-.779c-3.154,0-5.415.636-6.719,1.889a5.776,5.776,0,0,0-1.949,4.318,3.908,3.908,0,0,0,2.12,3.754c.739.4,2.651,1.111,7.564,2.245L26.59-24.5a19.538,19.538,0,0,1,7.1,2.891,11.2,11.2,0,0,1,4.513,9.568c0,5.122-1.915,8.851-5.691,11.085A24.378,24.378,0,0,1,19.922,2.26ZM3.913-12.887A14.529,14.529,0,0,0,4.9-8.013,11.875,11.875,0,0,0,8.021-3.586a13.9,13.9,0,0,0,5.055,2.87A22.15,22.15,0,0,0,19.922.26,22.411,22.411,0,0,0,31.5-2.677a8.991,8.991,0,0,0,3.518-3.687,12.464,12.464,0,0,0,1.191-5.677c0-3.524-1.208-6.125-3.694-7.954a17.626,17.626,0,0,0-6.368-2.555L20.11-23.927a38.819,38.819,0,0,1-8.077-2.44l-.009,0a6,6,0,0,1-2.361-2.269,6.451,6.451,0,0,1-.79-3.234,7.779,7.779,0,0,1,2.563-5.76A8.1,8.1,0,0,1,14.829-39.5a16.969,16.969,0,0,1,4.712-.582c4.559,0,7.869,1.261,9.837,3.749l.005.007A11.005,11.005,0,0,1,31.33-31.41h3.592A13.244,13.244,0,0,0,33.854-36.2a9.224,9.224,0,0,0-3.206-3.834,18.856,18.856,0,0,0-10.931-3.09,20.05,20.05,0,0,0-6.207.881,12.012,12.012,0,0,0-4.48,2.574,11.283,11.283,0,0,0-2.769,3.9,12.535,12.535,0,0,0-.925,4.892,8,8,0,0,0,3.651,7.221,25.678,25.678,0,0,0,7.757,2.7l5.831,1.318a22.883,22.883,0,0,1,7.3,2.689l.013.008c1.748,1.189,2.635,3.153,2.635,5.837A7.147,7.147,0,0,1,31-6.508a9.409,9.409,0,0,1-4.362,2.853,19.176,19.176,0,0,1-6.305.993c-5.212,0-8.93-1.587-11.052-4.716l0-.006a12.137,12.137,0,0,1-1.819-5.5ZM367.705,2.143a20.062,20.062,0,0,1-13.823-5.208l-.05-.049a21.1,21.1,0,0,1-4.729-7.731,30.17,30.17,0,0,1-1.558-10.015,31.124,31.124,0,0,1,1.518-10.027,22.009,22.009,0,0,1,4.6-7.846,19.666,19.666,0,0,1,15.151-6.418,23.192,23.192,0,0,1,10.956,2.46c4.545,2.386,7.362,6.6,8.369,12.523l.2,1.168h-7.757l-.175-.782a9.445,9.445,0,0,0-3.935-6.25,14.122,14.122,0,0,0-7.8-1.992,12.444,12.444,0,0,0-5.1,1.034,12.782,12.782,0,0,0-4.227,3.122,13.469,13.469,0,0,0-2.848,5.2,25.8,25.8,0,0,0-.978,7.486c0,4.884,1.073,8.9,3.189,11.922a9.448,9.448,0,0,0,4.013,3.272,15.334,15.334,0,0,0,6.153,1.121,15.1,15.1,0,0,0,5-.79A11.971,11.971,0,0,0,377.868-8a9.552,9.552,0,0,0,2.61-4.015,18.1,18.1,0,0,0,.933-5.178H367.965v-6.834h20.9V1h-5.528l-1.151-4.534a19.51,19.51,0,0,1-4.231,3.38A20.719,20.719,0,0,1,367.705,2.143Zm-12.46-6.671a18.093,18.093,0,0,0,5.7,3.5,19.124,19.124,0,0,0,6.76,1.174A18.777,18.777,0,0,0,376.969-1.9l.009-.005a21.277,21.277,0,0,0,4.987-4.309l1.251-1.375L384.889-1h1.972V-22.027h-16.9v2.834h13.488l-.012,1.012a21.178,21.178,0,0,1-1.08,6.84,11.524,11.524,0,0,1-3.168,4.84,15.059,15.059,0,0,1-10.316,3.635c-5.4,0-9.372-1.765-11.806-5.246-2.355-3.369-3.55-7.766-3.55-13.068a27.779,27.779,0,0,1,1.065-8.071,15.446,15.446,0,0,1,3.283-5.962,14.1,14.1,0,0,1,10.8-4.809,16.066,16.066,0,0,1,8.895,2.315,11.18,11.18,0,0,1,4.6,6.708h3.774a16.669,16.669,0,0,0-2.3-5.617,12.885,12.885,0,0,0-4.8-4.3,21.229,21.229,0,0,0-10.023-2.229,19.522,19.522,0,0,0-7.638,1.445,17.27,17.27,0,0,0-6.038,4.324,20.023,20.023,0,0,0-4.186,7.141,29.141,29.141,0,0,0-1.411,9.382,28.189,28.189,0,0,0,1.445,9.35A19.122,19.122,0,0,0,355.245-4.529ZM134.326,2.143A20.062,20.062,0,0,1,120.5-3.065l-.05-.049a21.1,21.1,0,0,1-4.729-7.731,30.171,30.171,0,0,1-1.558-10.015,31.124,31.124,0,0,1,1.518-10.027,22.009,22.009,0,0,1,4.6-7.846,19.666,19.666,0,0,1,15.151-6.418A23.193,23.193,0,0,1,146.4-42.69c4.545,2.386,7.362,6.6,8.369,12.523l.2,1.168h-7.757l-.175-.782a9.444,9.444,0,0,0-3.935-6.25,14.122,14.122,0,0,0-7.8-1.992,12.444,12.444,0,0,0-5.1,1.034,12.782,12.782,0,0,0-4.227,3.122,13.468,13.468,0,0,0-2.848,5.2,25.8,25.8,0,0,0-.978,7.486c0,4.884,1.073,8.9,3.189,11.922a9.448,9.448,0,0,0,4.013,3.272A15.335,15.335,0,0,0,135.5-4.867a15.1,15.1,0,0,0,5-.79A11.971,11.971,0,0,0,144.489-8a9.553,9.553,0,0,0,2.61-4.015,18.1,18.1,0,0,0,.933-5.178H134.586v-6.834h20.9V1h-5.528L148.8-3.534a19.5,19.5,0,0,1-4.234,3.382A20.722,20.722,0,0,1,134.326,2.143Zm-12.46-6.671a18.094,18.094,0,0,0,5.7,3.5,19.125,19.125,0,0,0,6.76,1.174A18.777,18.777,0,0,0,143.59-1.9L143.6-1.9a21.277,21.277,0,0,0,4.987-4.309l1.251-1.375L151.51-1h1.972V-22.027h-16.9v2.834h13.488l-.012,1.012a21.179,21.179,0,0,1-1.08,6.84,11.525,11.525,0,0,1-3.168,4.84A15.059,15.059,0,0,1,135.5-2.867c-5.4,0-9.372-1.765-11.806-5.246-2.355-3.369-3.55-7.766-3.55-13.068a27.777,27.777,0,0,1,1.065-8.071,15.444,15.444,0,0,1,3.283-5.962,14.1,14.1,0,0,1,10.8-4.809,16.066,16.066,0,0,1,8.895,2.315A11.18,11.18,0,0,1,148.79-31h3.774a16.67,16.67,0,0,0-2.3-5.617,12.885,12.885,0,0,0-4.8-4.3,21.229,21.229,0,0,0-10.023-2.229,19.522,19.522,0,0,0-7.638,1.445,17.269,17.269,0,0,0-6.038,4.324,20.023,20.023,0,0,0-4.186,7.141,29.141,29.141,0,0,0-1.411,9.382,28.189,28.189,0,0,0,1.445,9.35A19.123,19.123,0,0,0,121.866-4.529ZM522.338,1H514.8V-25.4c0-.881.02-2.356.059-4.384q0-.139.005-.278L504.36,1h-7.2L486.584-30.037c.047,2.084.07,3.644.07,4.637V1h-7.566V-44.037h10.066L500.8-9.769l11.561-34.268h9.98ZM516.8-1h3.537V-42.037h-6.544L500.8-3.532l-13.083-38.5h-6.633V-1h3.566V-25.4c0-1-.025-2.6-.073-4.738s-.074-3.787-.074-4.842V-36.3l1.947-.322L498.587-1h4.338l12.046-35.619,1.947.32c0,2.32-.02,4.524-.059,6.552s-.058,3.478-.058,4.346ZM476.358,1h-8.53l-4.365-12.891h-15.6L443.2,1h-8.123l16.954-45.037h7.985l.239.659Zm-7.1-2h4.243l-14.89-41.037h-5.2L437.968-1h3.83l4.658-12.891H464.9ZM434.33,1h-8.752L425.3.466a6.287,6.287,0,0,1-.564-1.705,27.942,27.942,0,0,1-.311-3.548l-.351-7.175c-.119-2.44-.959-4.011-2.571-4.8a12.19,12.19,0,0,0-4.81-.692H404.418V1h-7.83V-44.037H417.51a20.932,20.932,0,0,1,8.525,1.523c4.417,2.006,6.654,5.732,6.654,11.078a12.454,12.454,0,0,1-1.758,6.872,12.091,12.091,0,0,1-3.232,3.321,8.711,8.711,0,0,1,2.514,2.178c.987,1.293,1.518,3.251,1.625,5.988l.205,5.775a16.953,16.953,0,0,0,.377,3.439l0,.01a2.705,2.705,0,0,0,1.305,1.969l.6.261Zm-7.478-2h4.788a5.652,5.652,0,0,1-1.151-2.346,18.466,18.466,0,0,1-.443-3.884L429.84-13c-.089-2.275-.5-3.908-1.216-4.849a7.871,7.871,0,0,0-3.376-2.376l-2-.815,1.918-1a10.6,10.6,0,0,0,4.091-3.612,10.518,10.518,0,0,0,1.436-5.784c0-4.554-1.792-7.582-5.478-9.255a18.991,18.991,0,0,0-7.7-1.346H398.588V-1h3.83V-19.457h14.271a13.725,13.725,0,0,1,5.672.887l.012.006c2.3,1.125,3.539,3.313,3.694,6.5l.352,7.177a25.572,25.572,0,0,0,.275,3.251A6.181,6.181,0,0,0,426.852-1ZM297.66,1h-8.752l-.281-.534a6.287,6.287,0,0,1-.564-1.705,27.942,27.942,0,0,1-.311-3.548l-.351-7.175c-.119-2.44-.959-4.011-2.571-4.8a12.19,12.19,0,0,0-4.809-.692H267.748V1h-7.83V-44.037H280.84a20.932,20.932,0,0,1,8.525,1.523c4.417,2.006,6.654,5.732,6.654,11.078a12.454,12.454,0,0,1-1.758,6.872,12.091,12.091,0,0,1-3.232,3.321,8.711,8.711,0,0,1,2.514,2.178c.987,1.293,1.518,3.251,1.625,5.988l.205,5.775a16.954,16.954,0,0,0,.377,3.439l0,.01a2.705,2.705,0,0,0,1.305,1.969l.6.261Zm-7.478-2h4.788a5.652,5.652,0,0,1-1.151-2.346,18.466,18.466,0,0,1-.443-3.884L293.171-13c-.089-2.275-.5-3.908-1.216-4.849a7.871,7.871,0,0,0-3.376-2.376l-2-.815,1.918-1a10.6,10.6,0,0,0,4.091-3.612,10.518,10.518,0,0,0,1.436-5.784c0-4.554-1.792-7.582-5.478-9.255a18.991,18.991,0,0,0-7.7-1.346H261.918V-1h3.83V-19.457H280.02a13.725,13.725,0,0,1,5.672.887l.012.006c2.3,1.125,3.539,3.313,3.694,6.5l.352,7.177a25.582,25.582,0,0,0,.275,3.251A6.188,6.188,0,0,0,290.182-1Zm-62.6,2h-7.83V-44.037h20.365a14.15,14.15,0,0,1,9.935,3.5c2.547,2.345,3.838,5.653,3.838,9.832a14.258,14.258,0,0,1-3.369,9.417c-2.279,2.716-5.78,4.093-10.4,4.093H227.582Zm-5.83-2h3.83V-19.193h14.535a14.721,14.721,0,0,0,5.3-.866,8.687,8.687,0,0,0,3.572-2.512,12.25,12.25,0,0,0,2.175-3.755,12.975,12.975,0,0,0,.725-4.377,13.44,13.44,0,0,0-.812-4.843,9.283,9.283,0,0,0-2.381-3.518,10.648,10.648,0,0,0-3.725-2.22,14.72,14.72,0,0,0-4.855-.753H221.752ZM196.879,1H163.063V-44.037h33.377v7.273H170.746V-25.7h23.76v6.98h-23.76v12.59h26.133ZM165.063-1h29.816V-4.127H168.746v-16.59h23.76V-23.7h-23.76V-38.764h25.693v-3.273H165.063Zm-52.1,2h-8.53l-4.365-12.891h-15.6L79.8,1H71.68L88.634-44.037h7.985l.239.659Zm-7.1-2h4.243L95.217-42.037h-5.2L74.57-1H78.4l4.658-12.891H101.5ZM62.406,1H54.488V-36.91h-14.5v-7.127H76.908v7.127h-14.5ZM56.488-1h3.918V-38.91h14.5v-3.127H41.986v3.127h14.5ZM322.705-2.955c-5.72,0-9.939-1.788-12.538-5.314a20.817,20.817,0,0,1-3.813-12.649,27.513,27.513,0,0,1,1.1-8.146,15.762,15.762,0,0,1,3.383-6.052,15.158,15.158,0,0,1,11.634-4.908c4.874,0,8.781,1.675,11.614,4.978,2.794,3.258,4.211,7.587,4.211,12.868A24.6,24.6,0,0,1,334.7-8.949C332.222-4.972,328.186-2.955,322.705-2.955Zm-.234-35.068a14.572,14.572,0,0,0-5.677,1.068,12.862,12.862,0,0,0-4.486,3.194,13.782,13.782,0,0,0-2.945,5.293,25.535,25.535,0,0,0-1.009,7.55,21.949,21.949,0,0,0,.862,6.3,16.8,16.8,0,0,0,2.561,5.162A10.135,10.135,0,0,0,316.1-6.1a17.167,17.167,0,0,0,6.605,1.149,13.9,13.9,0,0,0,6.2-1.277,10.064,10.064,0,0,0,4.1-3.775,22.629,22.629,0,0,0,3.291-12.171,21.208,21.208,0,0,0-.943-6.539,14.59,14.59,0,0,0-2.785-5.027,11.749,11.749,0,0,0-4.332-3.2A14.641,14.641,0,0,0,322.471-38.023ZM463.706-16.637H447.4l8.4-23.007Zm-13.448-2H460.9l-5.161-15.02Zm-349.951,2H84l8.4-23.008Zm-13.448-2H97.505l-5.161-15.02Zm151.324-3.478h-12.6V-39.027h12.6a13.515,13.515,0,0,1,5.728,1l.01,0A6.773,6.773,0,0,1,247-35.137a9.249,9.249,0,0,1,1,4.463c0,3.15-.97,5.409-2.882,6.715A12.106,12.106,0,0,1,238.184-22.115Zm-10.6-2h10.6a10.174,10.174,0,0,0,5.808-1.5c1.353-.923,2.01-2.579,2.01-5.063,0-2.769-.964-4.582-2.945-5.542a11.823,11.823,0,0,0-4.873-.811h-10.6ZM416.895-22.32H402.418V-39.027h15.238a11.925,11.925,0,0,1,5.217.982l.006,0a6.585,6.585,0,0,1,2.94,2.827,9.162,9.162,0,0,1,.952,4.337c0,3.187-.949,5.456-2.821,6.742A12.309,12.309,0,0,1,416.895-22.32Zm-12.477-2h12.477a10.4,10.4,0,0,0,5.923-1.465,3.943,3.943,0,0,0,1.43-1.85,8.76,8.76,0,0,0,.524-3.244c0-2.677-.91-4.434-2.782-5.373a10.015,10.015,0,0,0-4.333-.776H404.418Zm-124.193,2H265.748V-39.027h15.238a11.925,11.925,0,0,1,5.217.982l.006,0a6.586,6.586,0,0,1,2.94,2.827,9.163,9.163,0,0,1,.952,4.337c0,3.187-.949,5.456-2.821,6.742A12.309,12.309,0,0,1,280.225-22.32Zm-12.477-2h12.477a10.4,10.4,0,0,0,5.923-1.465,3.943,3.943,0,0,0,1.43-1.85,8.759,8.759,0,0,0,.524-3.244c0-2.677-.91-4.434-2.782-5.373a10.015,10.015,0,0,0-4.333-.776H267.748Z" transform="translate(-17698.691 -2858)" fill="#004690"/></g></svg>