<svg xmlns="http://www.w3.org/2000/svg" width="457.174" height="139.996" viewBox="0 0 457.174 139.996"><g transform="translate(-604.695 -9469.084)"><text transform="translate(816 9604.08)" fill="#004690" font-size="16" font-family="NotoSansJP-Bold, Noto Sans JP" font-weight="700"><tspan x="0" y="0">その</tspan><tspan y="0">他</tspan></text><path d="M51.3-99A66.369,66.369,0,0,1,63.3-97.965a48.029,48.029,0,0,1,10.388,3.11,39.492,39.492,0,0,1,8.753,5.206,39.154,39.154,0,0,1,7.073,7.289,46.059,46.059,0,0,1,7.27,14.751,65.168,65.168,0,0,1,2.411,18.253A68.088,68.088,0,0,1,96.437-29.5a51.235,51.235,0,0,1-8.3,16.275,43.7,43.7,0,0,1-7.208,7.443,40.649,40.649,0,0,1-8.61,5.327,45.169,45.169,0,0,1-9.974,3.189,58.069,58.069,0,0,1-11.3,1.058A51.558,51.558,0,0,1,31,.078,41.319,41.319,0,0,1,15.674-11.1l-.025-.03a49.882,49.882,0,0,1-8.6-16.2A65.879,65.879,0,0,1,4.2-47.212,65.494,65.494,0,0,1,6.638-65.447,52.47,52.47,0,0,1,13.987-80.9a43.106,43.106,0,0,1,7.073-7.911,39.282,39.282,0,0,1,8.6-5.664,43.573,43.573,0,0,1,10.095-3.391A56.828,56.828,0,0,1,51.3-99ZM51.044,1.792A56.074,56.074,0,0,0,61.958.773,43.177,43.177,0,0,0,71.49-2.273a38.651,38.651,0,0,0,8.186-5.064,41.705,41.705,0,0,0,6.876-7.1,49.243,49.243,0,0,0,7.971-15.643,66.1,66.1,0,0,0,2.668-19.272,63.182,63.182,0,0,0-2.33-17.692,44.071,44.071,0,0,0-6.952-14.115A37.159,37.159,0,0,0,81.2-88.079a37.492,37.492,0,0,0-8.31-4.941A46.034,46.034,0,0,0,62.933-96,64.375,64.375,0,0,0,51.3-97a54.826,54.826,0,0,0-11.137,1.083,41.573,41.573,0,0,0-9.631,3.233A37.279,37.279,0,0,0,22.37-87.3a41.105,41.105,0,0,0-6.743,7.545A50.476,50.476,0,0,0,8.559-64.89,63.5,63.5,0,0,0,6.2-47.212,63.891,63.891,0,0,0,8.957-27.935,47.892,47.892,0,0,0,17.2-12.395a40.52,40.52,0,0,0,6.709,6.2A38.963,38.963,0,0,0,31.77-1.766,49.58,49.58,0,0,0,51.044,1.792ZM104.595-96.4H184v13.365H151.859V1H136.741V-83.034H104.595Zm77.41,2h-75.41v9.365h32.146V-1h11.118V-85.034H182Zm12.144-2H209.2V-56.98h47.615V-96.4h15.053V1H256.817V-43.615H209.2V1H194.149Zm13.053,2H196.149V-1H207.2V-45.615h51.615V-1h11.053V-94.4H258.817V-54.98H207.2Zm83.9-2h71.552v13.689H305.705v26.964h52.667v13.04H305.705v30.341h57.928V1H291.106Zm69.552,2H293.106V-1h68.526v-9.365H303.705V-44.706h52.667v-9.04H303.705V-84.709h56.954Zm19.482-2H425.3c7.382,0,13.572,1.1,18.4,3.27a22.919,22.919,0,0,1,10.531,9.086,27.7,27.7,0,0,1,3.5,14.361,33.011,33.011,0,0,1-.915,8.038,21.724,21.724,0,0,1-2.785,6.534,26.1,26.1,0,0,1-8.521,8.122,19.293,19.293,0,0,1,6.983,5.469,14.688,14.688,0,0,1,2.372,5.207,34.877,34.877,0,0,1,.982,7.374l.455,12.8a38.644,38.644,0,0,0,.876,7.894l0,.01c.695,2.7,1.9,4.444,3.587,5.177l.6.261V1H443.92l-.281-.534A12.95,12.95,0,0,1,442.5-2.986a61.1,61.1,0,0,1-.668-7.683l-.779-15.908a16.866,16.866,0,0,0-1.84-7.373,10.264,10.264,0,0,0-4.543-4.308c-2.322-1.1-6.087-1.655-11.191-1.655H395.064V1H380.141Zm75.1,88.665a39.863,39.863,0,0,1-.941-8.336l-.455-12.794c-.207-5.3-1.2-9.154-2.945-11.443a18.631,18.631,0,0,0-7.992-5.655l-2-.815,1.918-1a24.7,24.7,0,0,0,9.526-8.424c2.242-3.455,3.378-7.991,3.378-13.483a25.744,25.744,0,0,0-3.22-13.336,19.321,19.321,0,0,0-3.995-4.743,23.511,23.511,0,0,0-5.642-3.545C438.313-93.358,432.4-94.4,425.3-94.4h-43.16V-1h10.923V-41.913h30.418c5.483,0,9.425.605,12.053,1.85l.012.006c4.661,2.284,7.187,6.787,7.508,13.383l.779,15.91a60.767,60.767,0,0,0,.631,7.386A12.556,12.556,0,0,0,445.158-1H459.37v-.524C457.411-2.622,456.025-4.707,455.246-7.734ZM52.083-87.5a35.636,35.636,0,0,1,14.038,2.645A29.23,29.23,0,0,1,76.9-76.892,35.539,35.539,0,0,1,83.695-64.65a50.2,50.2,0,0,1,2.249,15.489A58.365,58.365,0,0,1,84-33.906,50.165,50.165,0,0,1,78.161-20.48a25.478,25.478,0,0,1-10.4,9.548A33.961,33.961,0,0,1,52.6-7.767a41.21,41.21,0,0,1-15.882-2.8,25.637,25.637,0,0,1-10.931-8.487A40.452,40.452,0,0,1,19.62-31.477a51.857,51.857,0,0,1-2.047-14.891,59.779,59.779,0,0,1,2.383-17.694,33.734,33.734,0,0,1,7.232-12.954,31.706,31.706,0,0,1,11.063-7.867A35.492,35.492,0,0,1,52.083-87.5ZM52.6-9.767a32,32,0,0,0,14.273-2.956,22.99,22.99,0,0,0,5.354-3.666,24.753,24.753,0,0,0,4.234-5.148,48.163,48.163,0,0,0,5.606-12.891,56.369,56.369,0,0,0,1.873-14.732,48.215,48.215,0,0,0-2.151-14.871A33.549,33.549,0,0,0,75.385-75.59a27.248,27.248,0,0,0-10.048-7.427A33.656,33.656,0,0,0,52.083-85.5a33.508,33.508,0,0,0-13.055,2.463,29.72,29.72,0,0,0-10.367,7.378,31.756,31.756,0,0,0-6.8,12.2,57.805,57.805,0,0,0-2.292,17.1,49.861,49.861,0,0,0,1.963,14.316A38.454,38.454,0,0,0,27.4-20.238a23.664,23.664,0,0,0,10.093,7.829A39.244,39.244,0,0,0,52.6-9.767ZM393.064-85.294h32.561c4.55,0,8.26.69,11.027,2.051l.006,0c5.279,2.64,7.956,7.616,7.956,14.792a22.559,22.559,0,0,1-1.4,8.394,12.017,12.017,0,0,1-4.331,5.548,20.33,20.33,0,0,1-6.564,2.873,34.449,34.449,0,0,1-8.387.94H393.064Zm42.7,3.844c-2.49-1.223-5.9-1.844-10.141-1.844H395.064v30.6h28.873c5.827,0,10.476-1.164,13.818-3.461a10.054,10.054,0,0,0,3.609-4.648,20.6,20.6,0,0,0,1.251-7.646,17.168,17.168,0,0,0-1.733-8.1A11.444,11.444,0,0,0,435.767-81.45Z" transform="translate(600.5 9568.08)" fill="#004690"/></g></svg>