<svg xmlns="http://www.w3.org/2000/svg" width="317.604" height="110.472" viewBox="0 0 317.604 110.472"><g transform="translate(-264.25 -13265.608)"><text transform="translate(264.25 13371.08)" fill="#004690" font-size="16" font-family="NotoSansJP-Bold, Noto Sans JP" font-weight="700"><tspan x="0" y="0">アクセス</tspan></text><path d="M294.633,2.138A30.577,30.577,0,0,1,285.175.78a19.847,19.847,0,0,1-7.216-4.1,17.219,17.219,0,0,1-4.528-6.421A21.439,21.439,0,0,1,272-18.059l.006-.494H280.1l.026.472A14.875,14.875,0,0,0,282.29-10.6a11.022,11.022,0,0,0,4.985,3.987,20.55,20.55,0,0,0,7.891,1.351,23.14,23.14,0,0,0,7.605-1.191,10.486,10.486,0,0,0,4.859-3.135,7.537,7.537,0,0,0,1.585-4.848,9.261,9.261,0,0,0-.672-3.713,5.511,5.511,0,0,0-1.963-2.385,28.546,28.546,0,0,0-8.9-3.241L290.1-25.487c-4.986-1.125-8.578-2.391-10.675-3.764-3.689-2.424-5.558-6.088-5.558-10.892a18.081,18.081,0,0,1,1.344-7.059,16.454,16.454,0,0,1,4.034-5.685,17.4,17.4,0,0,1,6.488-3.736,27.846,27.846,0,0,1,8.63-1.234,30.321,30.321,0,0,1,8.273,1.081,23.526,23.526,0,0,1,6.96,3.254,13.766,13.766,0,0,1,4.784,5.723,19.986,19.986,0,0,1,1.582,8.266v.5H307.9l-.056-.437a13.609,13.609,0,0,0-2.336-6.65,10,10,0,0,0-4.455-3.123,20,20,0,0,0-6.919-1.064c-4.314,0-7.44.9-9.289,2.679a9.326,9.326,0,0,0-2.09,2.891,8.019,8.019,0,0,0-.69,3.3,5.883,5.883,0,0,0,3.171,5.581c1.454.787,4.831,1.8,10.038,3l7.845,1.79a24.63,24.63,0,0,1,8.943,3.625c3.675,2.7,5.538,6.671,5.538,11.792a17.969,17.969,0,0,1-1.744,8.2A13.461,13.461,0,0,1,310.6-1.931,30.9,30.9,0,0,1,294.633,2.138ZM273-17.553a20.161,20.161,0,0,0,1.355,7.435,16.229,16.229,0,0,0,4.269,6.051,18.857,18.857,0,0,0,6.858,3.9,29.588,29.588,0,0,0,9.147,1.308,33.626,33.626,0,0,0,8.279-.984,27.311,27.311,0,0,0,7.177-2.945,12.476,12.476,0,0,0,4.879-5.119,16.987,16.987,0,0,0,1.636-7.743,14.934,14.934,0,0,0-1.286-6.367,12.05,12.05,0,0,0-3.842-4.618A23.674,23.674,0,0,0,302.9-30.1l-7.846-1.79c-5.376-1.241-8.744-2.253-10.3-3.095l0,0a6.892,6.892,0,0,1-3.685-6.455,9.341,9.341,0,0,1,3.086-6.911,9.745,9.745,0,0,1,4.081-2.233,21.273,21.273,0,0,1,5.9-.725,20.977,20.977,0,0,1,7.268,1.126,10.988,10.988,0,0,1,4.893,3.443,14.15,14.15,0,0,1,2.482,6.7h6.181a18.628,18.628,0,0,0-1.488-7.354,12.78,12.78,0,0,0-4.442-5.313,22.527,22.527,0,0,0-6.665-3.115,29.324,29.324,0,0,0-8-1.043,26.856,26.856,0,0,0-8.319,1.184,16.409,16.409,0,0,0-6.119,3.519,15.462,15.462,0,0,0-3.793,5.34,17.089,17.089,0,0,0-1.265,6.671,12.85,12.85,0,0,0,1.279,5.876,10.938,10.938,0,0,0,3.828,4.179c2,1.306,5.478,2.526,10.347,3.624l7.579,1.714a29.442,29.442,0,0,1,9.229,3.383l.006,0c2.041,1.388,3.075,3.718,3.075,6.926,0,4.279-2.394,7.283-7.115,8.927a24.133,24.133,0,0,1-7.934,1.247,21.529,21.529,0,0,1-8.277-1.429,12.008,12.008,0,0,1-5.429-4.351,15.505,15.505,0,0,1-2.3-7.512Zm-30.4,19.69A30.577,30.577,0,0,1,233.15.78a19.847,19.847,0,0,1-7.216-4.1,17.219,17.219,0,0,1-4.528-6.421,21.439,21.439,0,0,1-1.426-8.315l.006-.494h8.089l.026.472a14.876,14.876,0,0,0,2.164,7.482,11.022,11.022,0,0,0,4.985,3.987,20.551,20.551,0,0,0,7.891,1.351,23.14,23.14,0,0,0,7.605-1.191A10.486,10.486,0,0,0,255.6-9.587a7.537,7.537,0,0,0,1.585-4.848,9.261,9.261,0,0,0-.672-3.713,5.511,5.511,0,0,0-1.963-2.385,28.545,28.545,0,0,0-8.9-3.241l-7.578-1.714c-4.986-1.125-8.578-2.391-10.675-3.764-3.689-2.424-5.558-6.088-5.558-10.892a18.081,18.081,0,0,1,1.344-7.059,16.454,16.454,0,0,1,4.034-5.685,17.4,17.4,0,0,1,6.488-3.736,27.846,27.846,0,0,1,8.63-1.234,30.32,30.32,0,0,1,8.273,1.081,23.525,23.525,0,0,1,6.96,3.254,13.766,13.766,0,0,1,4.784,5.723,19.986,19.986,0,0,1,1.582,8.266v.5h-8.063l-.056-.437a13.609,13.609,0,0,0-2.336-6.65,10,10,0,0,0-4.455-3.123,20,20,0,0,0-6.919-1.064c-4.314,0-7.44.9-9.289,2.679a9.327,9.327,0,0,0-2.09,2.891,8.02,8.02,0,0,0-.689,3.3,5.883,5.883,0,0,0,3.171,5.581c1.454.787,4.831,1.8,10.039,3l7.844,1.79a24.63,24.63,0,0,1,8.943,3.625c3.675,2.7,5.538,6.671,5.538,11.792a17.969,17.969,0,0,1-1.744,8.2,13.46,13.46,0,0,1-5.261,5.526A30.9,30.9,0,0,1,242.607,2.138Zm-21.63-19.69a20.161,20.161,0,0,0,1.355,7.435A16.229,16.229,0,0,0,226.6-4.067a18.857,18.857,0,0,0,6.858,3.9,29.588,29.588,0,0,0,9.147,1.308,33.627,33.627,0,0,0,8.279-.984,27.311,27.311,0,0,0,7.176-2.945,12.476,12.476,0,0,0,4.879-5.119,16.987,16.987,0,0,0,1.636-7.743,14.934,14.934,0,0,0-1.286-6.367,12.05,12.05,0,0,0-3.842-4.618,23.673,23.673,0,0,0-8.575-3.457l-7.846-1.79c-5.376-1.241-8.744-2.253-10.3-3.095l0,0a6.892,6.892,0,0,1-3.685-6.455,9.341,9.341,0,0,1,3.086-6.911,9.746,9.746,0,0,1,4.081-2.233,21.273,21.273,0,0,1,5.9-.725,20.978,20.978,0,0,1,7.268,1.126,10.988,10.988,0,0,1,4.893,3.443,14.15,14.15,0,0,1,2.482,6.7h6.181a18.629,18.629,0,0,0-1.489-7.354,12.78,12.78,0,0,0-4.442-5.313,22.527,22.527,0,0,0-6.665-3.115,29.323,29.323,0,0,0-8-1.043,26.856,26.856,0,0,0-8.319,1.184,16.409,16.409,0,0,0-6.119,3.519,15.461,15.461,0,0,0-3.792,5.34,17.089,17.089,0,0,0-1.265,6.671,12.85,12.85,0,0,0,1.279,5.876,10.937,10.937,0,0,0,3.828,4.179c2,1.306,5.478,2.526,10.347,3.624l7.579,1.714a29.442,29.442,0,0,1,9.229,3.383l.006,0c2.041,1.388,3.075,3.718,3.075,6.926,0,4.279-2.394,7.283-7.115,8.927a24.133,24.133,0,0,1-7.934,1.247,21.529,21.529,0,0,1-8.277-1.429,12.008,12.008,0,0,1-5.429-4.351,15.505,15.505,0,0,1-2.3-7.512Zm-84.1,19.5A26.892,26.892,0,0,1,127.742.442a23.142,23.142,0,0,1-7.571-4.525,24.621,24.621,0,0,1-6.679-10.134,42.36,42.36,0,0,1-2.21-14.348,37.21,37.21,0,0,1,1.662-11.417,27.7,27.7,0,0,1,5-9.2,23.226,23.226,0,0,1,8.61-6.594,27.923,27.923,0,0,1,11.313-2.194,29.932,29.932,0,0,1,9.6,1.426,19.409,19.409,0,0,1,7.24,4.311,23.036,23.036,0,0,1,4.661,6.113,18.874,18.874,0,0,1,2,6.924l.05.545h-8.333l-.09-.387a14.958,14.958,0,0,0-4.843-8.3c-2.4-2.02-5.831-3.043-10.209-3.043a18.126,18.126,0,0,0-7.27,1.41,16.106,16.106,0,0,0-5.7,4.227,18.429,18.429,0,0,0-3.709,7.163,37.952,37.952,0,0,0-1.252,10.313,31.775,31.775,0,0,0,1.128,8.759,21.123,21.123,0,0,0,3.361,6.879A13.956,13.956,0,0,0,130.025-7.2a19,19,0,0,0,7.77,1.485,15.753,15.753,0,0,0,7.154-1.556,13.8,13.8,0,0,0,5.191-4.662,24.108,24.108,0,0,0,3.39-8.732l.083-.4h8.355l-.062.556a28.177,28.177,0,0,1-2.172,8.268,24.653,24.653,0,0,1-4.509,6.832A21.974,21.974,0,0,1,147.217.112,27.73,27.73,0,0,1,136.881,1.947Zm.99-58.919a26.934,26.934,0,0,0-10.91,2.109,22.236,22.236,0,0,0-8.242,6.316,26.709,26.709,0,0,0-4.823,8.872,36.217,36.217,0,0,0-1.614,11.11,41.375,41.375,0,0,0,2.151,14.007,23.632,23.632,0,0,0,6.4,9.728A22.146,22.146,0,0,0,128.081-.5a25.9,25.9,0,0,0,8.8,1.446,26.739,26.739,0,0,0,9.964-1.764,20.982,20.982,0,0,0,7.646-5.274,23.659,23.659,0,0,0,4.328-6.556,26.926,26.926,0,0,0,2.026-7.42h-6.419a24.663,24.663,0,0,1-3.458,8.695A14.786,14.786,0,0,1,145.4-6.38a16.739,16.739,0,0,1-7.6,1.663,19.989,19.989,0,0,1-8.178-1.572A14.945,14.945,0,0,1,123.7-11.03a22.117,22.117,0,0,1-3.523-7.2,32.769,32.769,0,0,1-1.167-9.036,38.938,38.938,0,0,1,1.29-10.587,19.415,19.415,0,0,1,3.918-7.547,17.1,17.1,0,0,1,6.056-4.485,19.117,19.117,0,0,1,7.669-1.494c4.62,0,8.271,1.1,10.853,3.279a15.809,15.809,0,0,1,5.079,8.452h6.44a17.866,17.866,0,0,0-1.841-6.013,22.041,22.041,0,0,0-4.461-5.846,18.417,18.417,0,0,0-6.871-4.087A28.942,28.942,0,0,0,137.871-56.972ZM80.552,1.947A26.892,26.892,0,0,1,71.413.442a23.142,23.142,0,0,1-7.571-4.525,24.621,24.621,0,0,1-6.679-10.134,42.36,42.36,0,0,1-2.21-14.348,37.21,37.21,0,0,1,1.662-11.417,27.7,27.7,0,0,1,5-9.2,23.226,23.226,0,0,1,8.61-6.594,27.923,27.923,0,0,1,11.313-2.194,29.932,29.932,0,0,1,9.6,1.426,19.409,19.409,0,0,1,7.24,4.311,23.034,23.034,0,0,1,4.661,6.113,18.875,18.875,0,0,1,2,6.924l.05.545H96.76l-.09-.387a14.957,14.957,0,0,0-4.843-8.3c-2.4-2.02-5.831-3.044-10.209-3.044a18.126,18.126,0,0,0-7.27,1.41,16.106,16.106,0,0,0-5.7,4.227,18.43,18.43,0,0,0-3.709,7.163A37.953,37.953,0,0,0,63.685-27.27a31.776,31.776,0,0,0,1.128,8.759,21.123,21.123,0,0,0,3.361,6.879A13.957,13.957,0,0,0,73.7-7.2a19,19,0,0,0,7.77,1.485A15.753,15.753,0,0,0,88.62-7.273a13.8,13.8,0,0,0,5.191-4.662,24.108,24.108,0,0,0,3.39-8.732l.082-.4h8.355l-.062.556a28.177,28.177,0,0,1-2.172,8.268A24.656,24.656,0,0,1,98.895-5.41,21.974,21.974,0,0,1,90.888.112,27.73,27.73,0,0,1,80.552,1.947Zm.99-58.919a26.934,26.934,0,0,0-10.91,2.109,22.237,22.237,0,0,0-8.242,6.316,26.709,26.709,0,0,0-4.823,8.872,36.217,36.217,0,0,0-1.614,11.11A41.376,41.376,0,0,0,58.1-14.557a23.632,23.632,0,0,0,6.4,9.728A22.146,22.146,0,0,0,71.752-.5a25.9,25.9,0,0,0,8.8,1.446A26.739,26.739,0,0,0,90.516-.816a20.982,20.982,0,0,0,7.646-5.274,23.659,23.659,0,0,0,4.328-6.556,26.928,26.928,0,0,0,2.026-7.42H98.1a24.663,24.663,0,0,1-3.458,8.695A14.786,14.786,0,0,1,89.07-6.38a16.739,16.739,0,0,1-7.6,1.663,19.989,19.989,0,0,1-8.178-1.572,14.945,14.945,0,0,1-5.914-4.741,22.118,22.118,0,0,1-3.523-7.2,32.769,32.769,0,0,1-1.167-9.036,38.938,38.938,0,0,1,1.29-10.587A19.415,19.415,0,0,1,67.893-45.4a17.1,17.1,0,0,1,6.056-4.485,19.117,19.117,0,0,1,7.669-1.494c4.62,0,8.271,1.1,10.853,3.279a15.809,15.809,0,0,1,5.079,8.452h6.44a17.867,17.867,0,0,0-1.841-6.013,22.04,22.04,0,0,0-4.461-5.846A18.417,18.417,0,0,0,90.817-55.6,28.942,28.942,0,0,0,81.542-56.972ZM213.21.5H170.849V-56.448h41.79v7.855h-33.4v15.986h30.888v7.475H179.237V-7.165H213.21Zm-41.361-1H212.21V-6.165H178.237V-26.132h30.888v-5.475H178.237V-49.593h33.4v-5.855h-39.79ZM51.787.5H42.412L36.737-16.258H15.319L9.263.5H.42L.675-.176,21.858-56.448h9.266Zm-8.657-1H50.36L30.423-55.448H22.55L1.865-.5h6.7l6.056-16.758H37.454Zm-7.77-21.928H16.424l9.756-26.715Zm-17.505-1h16.1L26.151-46.149Z" transform="translate(264.25 13323.58)" fill="#004690"/></g></svg>