<svg xmlns="http://www.w3.org/2000/svg" width="131.076" height="85.037" viewBox="0 0 131.076 85.037"><g transform="translate(-771.424 -9524.043)"><text transform="translate(775.5 9604.08)" fill="#004690" font-size="16" font-family="NotoSansJP-Bold, Noto Sans JP" font-weight="700"><tspan x="0" y="0">飲食</tspan><tspan y="0">ブースマップ</tspan></text><path d="M3.424-44.037H13.49L25.133-9.769,36.694-44.037h9.98V1H39.137V-25.4c0-.881.02-2.356.059-4.384q0-.138.005-.278L28.7,1h-7.2L10.92-30.037c.047,2.082.07,3.642.07,4.637V1H3.424Zm8.633,2H5.424V-1H8.99V-25.4c0-1-.025-2.6-.073-4.738s-.074-3.785-.074-4.842V-36.3l1.947-.322L22.923-1h4.338L39.307-36.619l1.947.32c0,2.32-.02,4.524-.059,6.552s-.058,3.478-.058,4.346V-1h3.537V-42.037H38.13L25.14-3.532Zm54.311-2h7.985L90.694,1h-8.53L77.8-11.891H62.2L57.538,1H49.414Zm6.583,2h-5.2L52.3-1h3.83l4.658-12.891H79.233L83.6-1h4.243Zm21.176-2h20.365a14.15,14.15,0,0,1,9.935,3.5c2.547,2.345,3.838,5.653,3.838,9.832a14.258,14.258,0,0,1-3.369,9.417c-2.279,2.716-5.78,4.093-10.4,4.093H101.957V1h-7.83Zm20.365,24.844a14.72,14.72,0,0,0,5.3-.866,8.687,8.687,0,0,0,3.572-2.512,12.252,12.252,0,0,0,2.175-3.755,12.976,12.976,0,0,0,.725-4.377,13.44,13.44,0,0,0-.812-4.843,9.283,9.283,0,0,0-2.381-3.518,10.647,10.647,0,0,0-3.725-2.22,14.719,14.719,0,0,0-4.855-.753H96.127V-1h3.83V-19.193ZM70.136-39.644l7.906,23.008H61.734Zm5.1,21.008-5.161-15.02-5.485,15.02ZM99.957-39.027h12.6a13.514,13.514,0,0,1,5.728,1l.01,0a6.773,6.773,0,0,1,3.079,2.882,9.248,9.248,0,0,1,1,4.463c0,3.15-.97,5.409-2.882,6.715a12.106,12.106,0,0,1-6.936,1.844h-12.6Zm17.474,2.811a11.824,11.824,0,0,0-4.873-.811h-10.6v12.912h10.6a10.174,10.174,0,0,0,5.808-1.5c1.353-.923,2.01-2.579,2.01-5.063C120.377-33.443,119.414-35.256,117.431-36.216Z" transform="translate(768 9568.08)" fill="#004690"/></g></svg>