<svg xmlns="http://www.w3.org/2000/svg" width="375" height="143" viewBox="0 0 375 143"><g transform="translate(-644.5 -1622.08)"><text transform="translate(785 1760.08)" fill="#004690" font-size="16" font-family="NotoSansJP-Bold, Noto Sans JP" font-weight="700"><tspan x="0" y="0">臨時列車</tspan><tspan y="0">ツアー</tspan></text><text transform="translate(644.5 1724.08)" fill="#f7f7f7" font-size="133" font-family="Helvetica"><tspan x="0" y="0">TOUR</tspan></text><path d="M130.208-99A66.373,66.373,0,0,1,142.2-97.965a48.033,48.033,0,0,1,10.388,3.11,39.491,39.491,0,0,1,8.753,5.206,39.154,39.154,0,0,1,7.073,7.289,46.059,46.059,0,0,1,7.27,14.751A65.169,65.169,0,0,1,178.1-49.355,68.088,68.088,0,0,1,175.34-29.5a51.235,51.235,0,0,1-8.3,16.276,43.705,43.705,0,0,1-7.208,7.443,40.653,40.653,0,0,1-8.61,5.327,45.173,45.173,0,0,1-9.974,3.189,58.075,58.075,0,0,1-11.3,1.058A51.559,51.559,0,0,1,109.9.078,41.32,41.32,0,0,1,94.578-11.1l-.025-.03a49.882,49.882,0,0,1-8.6-16.2A65.88,65.88,0,0,1,83.1-47.212a65.494,65.494,0,0,1,2.442-18.235A52.471,52.471,0,0,1,92.891-80.9a43.1,43.1,0,0,1,7.073-7.911,39.281,39.281,0,0,1,8.6-5.664,43.575,43.575,0,0,1,10.095-3.391A56.826,56.826,0,0,1,130.208-99Zm-.26,100.789A56.072,56.072,0,0,0,140.861.773a43.171,43.171,0,0,0,9.532-3.046,38.65,38.65,0,0,0,8.186-5.064,41.7,41.7,0,0,0,6.876-7.1,49.241,49.241,0,0,0,7.971-15.643A66.1,66.1,0,0,0,176.1-49.355a63.18,63.18,0,0,0-2.33-17.692,44.069,44.069,0,0,0-6.952-14.115,37.155,37.155,0,0,0-6.711-6.917,37.491,37.491,0,0,0-8.31-4.941A46.036,46.036,0,0,0,141.837-96a64.372,64.372,0,0,0-11.63-1,54.826,54.826,0,0,0-11.137,1.083,41.574,41.574,0,0,0-9.631,3.233,37.281,37.281,0,0,0-8.166,5.376A41.1,41.1,0,0,0,94.53-79.76a50.475,50.475,0,0,0-7.068,14.87A63.5,63.5,0,0,0,85.1-47.212a63.89,63.89,0,0,0,2.762,19.278A47.89,47.89,0,0,0,96.1-12.395a40.523,40.523,0,0,0,6.709,6.2,38.961,38.961,0,0,0,7.863,4.432A49.578,49.578,0,0,0,129.948,1.792ZM1.143-96.4h79.41v13.365H48.407V1H33.289V-83.034H1.143Zm77.41,2H3.143v9.365H35.289V-1H46.407V-85.034H78.553Zm113.842-2h15.118v59.967a42.477,42.477,0,0,0,.95,9.294,27.433,27.433,0,0,0,2.817,7.488l0,.007a18.186,18.186,0,0,0,7.357,7.4,23.738,23.738,0,0,0,11.251,2.48,29.687,29.687,0,0,0,13.351-2.7,18.406,18.406,0,0,0,4.674-3.329,18.88,18.88,0,0,0,3.43-4.669c2.035-3.9,3.067-9.276,3.067-15.965V-96.4h15.118v54.577a92.5,92.5,0,0,1-1.2,15.742,43.135,43.135,0,0,1-3.646,11.786,31.563,31.563,0,0,1-5.494,7.807,29.618,29.618,0,0,1-7.5,5.587,36.682,36.682,0,0,1-9.438,3.332,54.685,54.685,0,0,1-11.321,1.1,54.624,54.624,0,0,1-11.317-1.1A36.555,36.555,0,0,1,210.188-.9a29.464,29.464,0,0,1-7.482-5.588,31.4,31.4,0,0,1-5.464-7.805A43.135,43.135,0,0,1,193.6-26.08a92.5,92.5,0,0,1-1.2-15.742Zm13.118,2H194.4v52.577a90.525,90.525,0,0,0,1.17,15.4,41.164,41.164,0,0,0,3.465,11.236,29.4,29.4,0,0,0,5.113,7.31,27.469,27.469,0,0,0,6.976,5.208A34.561,34.561,0,0,0,220.031.475a52.629,52.629,0,0,0,10.9,1.058,52.689,52.689,0,0,0,10.9-1.058,34.688,34.688,0,0,0,8.924-3.146,27.622,27.622,0,0,0,7-5.209,29.561,29.561,0,0,0,5.142-7.311,41.162,41.162,0,0,0,3.464-11.233,90.524,90.524,0,0,0,1.17-15.4V-94.4H256.415v57.967a50.231,50.231,0,0,1-.814,9.461,27.354,27.354,0,0,1-2.482,7.432,20.259,20.259,0,0,1-8.977,8.857,31.639,31.639,0,0,1-14.249,2.915A25.7,25.7,0,0,1,217.7-10.482a20.152,20.152,0,0,1-8.161-8.185,29.431,29.431,0,0,1-3.026-8.031,44.473,44.473,0,0,1-1-9.734Zm83.58-2h45.16c7.382,0,13.572,1.1,18.4,3.27a22.919,22.919,0,0,1,10.531,9.086,27.7,27.7,0,0,1,3.5,14.361,33.01,33.01,0,0,1-.915,8.038,21.724,21.724,0,0,1-2.785,6.534,26.1,26.1,0,0,1-8.521,8.122,19.293,19.293,0,0,1,6.983,5.469,14.688,14.688,0,0,1,2.372,5.207,34.878,34.878,0,0,1,.982,7.374l.455,12.8a38.639,38.639,0,0,0,.876,7.894l0,.01c.695,2.7,1.9,4.444,3.587,5.177l.6.261V1H352.872l-.281-.534a12.955,12.955,0,0,1-1.135-3.452,61.114,61.114,0,0,1-.668-7.683l-.779-15.908a16.868,16.868,0,0,0-1.84-7.373,10.266,10.266,0,0,0-4.544-4.309c-2.322-1.1-6.087-1.654-11.19-1.654H304.017V1H289.093ZM364.2-7.732a39.856,39.856,0,0,1-.942-8.338L362.8-28.863c-.207-5.3-1.2-9.154-2.945-11.443a18.631,18.631,0,0,0-7.992-5.655l-2-.815,1.918-1a24.7,24.7,0,0,0,9.526-8.424c2.242-3.455,3.378-7.991,3.378-13.483a25.744,25.744,0,0,0-3.22-13.336,19.322,19.322,0,0,0-3.995-4.743,23.511,23.511,0,0,0-5.642-3.545c-4.564-2.052-10.478-3.093-17.575-3.093h-43.16V-1h10.923V-41.913h30.418c5.482,0,9.425.605,12.053,1.85l.012.006c4.661,2.284,7.187,6.787,7.508,13.383l.779,15.91a60.767,60.767,0,0,0,.631,7.386A12.558,12.558,0,0,0,354.11-1h14.212v-.524C366.363-2.622,364.978-4.706,364.2-7.732ZM130.987-87.5a35.636,35.636,0,0,1,14.038,2.645,29.231,29.231,0,0,1,10.782,7.964A35.538,35.538,0,0,1,162.6-64.65a50.2,50.2,0,0,1,2.249,15.489A58.367,58.367,0,0,1,162.9-33.906a50.162,50.162,0,0,1-5.839,13.426,25.478,25.478,0,0,1-10.4,9.548,33.961,33.961,0,0,1-15.161,3.164,41.21,41.21,0,0,1-15.882-2.8,25.636,25.636,0,0,1-10.931-8.487,40.45,40.45,0,0,1-6.168-12.426,51.855,51.855,0,0,1-2.047-14.891A59.782,59.782,0,0,1,98.86-64.062a33.734,33.734,0,0,1,7.232-12.954,31.706,31.706,0,0,1,11.063-7.867A35.492,35.492,0,0,1,130.987-87.5Zm.52,77.735a32,32,0,0,0,14.273-2.956,22.988,22.988,0,0,0,5.354-3.666,24.755,24.755,0,0,0,4.234-5.148,48.163,48.163,0,0,0,5.606-12.891,56.368,56.368,0,0,0,1.873-14.732A48.214,48.214,0,0,0,160.7-64.032a33.549,33.549,0,0,0-6.408-11.559,27.248,27.248,0,0,0-10.048-7.427A33.657,33.657,0,0,0,130.987-85.5a33.508,33.508,0,0,0-13.055,2.463,29.721,29.721,0,0,0-10.367,7.378,31.756,31.756,0,0,0-6.795,12.2,57.8,57.8,0,0,0-2.293,17.1,49.864,49.864,0,0,0,1.963,14.316A38.457,38.457,0,0,0,106.3-20.238,23.663,23.663,0,0,0,116.4-12.409,39.244,39.244,0,0,0,131.506-9.767Zm170.51-75.527h32.561c4.55,0,8.26.69,11.027,2.051l.006,0c5.279,2.64,7.956,7.616,7.956,14.792a22.559,22.559,0,0,1-1.4,8.394,12.016,12.016,0,0,1-4.331,5.548,20.331,20.331,0,0,1-6.564,2.873,34.449,34.449,0,0,1-8.387.94H302.017Zm42.705,3.845c-2.49-1.225-5.9-1.845-10.144-1.845H304.017v30.6H332.89c5.827,0,10.476-1.164,13.818-3.461a10.053,10.053,0,0,0,3.609-4.648,20.6,20.6,0,0,0,1.251-7.646,17.167,17.167,0,0,0-1.733-8.1A11.442,11.442,0,0,0,344.722-81.449Z" transform="translate(644.5 1724.08)" fill="#004690"/></g></svg>