<svg xmlns="http://www.w3.org/2000/svg" width="256.018" height="62" viewBox="0 0 256.018 62"><g transform="translate(-56.482 -18095.355)"><text transform="translate(184.5 18143.355)" fill="#fff" font-size="62" font-family="Helvetica"><tspan x="-127.481" y="0">ACCESS</tspan></text><path d="M106.714,2.3a24.9,24.9,0,0,1-7.7-1.109,16.374,16.374,0,0,1-5.953-3.387c-3.335-2.991-5-7.086-4.931-12.168l.012-.987h7.594l.053.944A11.244,11.244,0,0,0,97.4-8.761a8.063,8.063,0,0,0,3.7,2.949,15.746,15.746,0,0,0,6.04,1.028,17.794,17.794,0,0,0,5.847-.913,7.752,7.752,0,0,0,3.59-2.3,5.333,5.333,0,0,0,1.127-3.476c0-2.085-.6-3.507-1.827-4.346A22.17,22.17,0,0,0,109-18.309l-6.022-1.362c-4.09-.923-6.931-1.929-8.682-3.075a10.288,10.288,0,0,1-4.691-9.162A13.838,13.838,0,0,1,94.076-42.48c2.943-2.728,7.124-4.111,12.426-4.111a21.47,21.47,0,0,1,12.451,3.553c3.531,2.438,5.321,6.346,5.321,11.615v1h-7.542l-.111-.874a10.255,10.255,0,0,0-1.731-4.987,7.36,7.36,0,0,0-3.279-2.292,15.3,15.3,0,0,0-5.29-.808c-3.268,0-5.612.66-6.966,1.961a6,6,0,0,0-2.024,4.486,4.069,4.069,0,0,0,2.2,3.906c.763.413,2.74,1.151,7.828,2.325l6.234,1.422a20.156,20.156,0,0,1,7.329,2.982c3.086,2.271,4.649,5.587,4.649,9.86,0,5.28-1.973,9.124-5.864,11.426A25.158,25.158,0,0,1,106.714,2.3ZM90.137-13.35a15.066,15.066,0,0,0,1.021,5.082,12.3,12.3,0,0,0,3.237,4.587A14.393,14.393,0,0,0,99.63-.708,22.921,22.921,0,0,0,106.714.3a23.191,23.191,0,0,0,11.979-3.039,9.324,9.324,0,0,0,3.648-3.823,12.913,12.913,0,0,0,1.235-5.881c0-3.652-1.253-6.35-3.831-8.246a18.244,18.244,0,0,0-6.593-2.646l-6.236-1.423c-4.329-1-7.055-1.822-8.337-2.518l-.009,0a6.169,6.169,0,0,1-2.427-2.332,6.633,6.633,0,0,1-.812-3.326,8.006,8.006,0,0,1,2.638-5.928,8.339,8.339,0,0,1,3.493-1.919,17.5,17.5,0,0,1,4.86-.6c4.7,0,8.111,1.3,10.139,3.861l.005.007a11.366,11.366,0,0,1,2.01,5.093h3.775a13.745,13.745,0,0,0-1.109-4.994,9.563,9.563,0,0,0-3.324-3.976,19.516,19.516,0,0,0-11.314-3.2,20.75,20.75,0,0,0-6.425.912,12.446,12.446,0,0,0-4.642,2.667,11.691,11.691,0,0,0-2.869,4.037,12.986,12.986,0,0,0-.958,5.068,8.294,8.294,0,0,0,3.787,7.49c1.525,1,4.226,1.939,8.026,2.8l6.025,1.362a23.617,23.617,0,0,1,7.534,2.774l.013.008c1.8,1.222,2.708,3.242,2.708,6a7.352,7.352,0,0,1-1.567,4.728,9.69,9.69,0,0,1-4.493,2.937,19.782,19.782,0,0,1-6.5,1.024c-5.374,0-9.207-1.635-11.393-4.859l0-.007a12.529,12.529,0,0,1-1.877-5.7ZM65.36,2.3a24.9,24.9,0,0,1-7.7-1.109A16.374,16.374,0,0,1,51.7-2.194c-3.335-2.991-5-7.086-4.931-12.168l.012-.987h7.594l.053.944a11.244,11.244,0,0,0,1.618,5.644,8.063,8.063,0,0,0,3.7,2.95,15.746,15.746,0,0,0,6.04,1.028A17.794,17.794,0,0,0,71.631-5.7,7.752,7.752,0,0,0,75.221-8a5.334,5.334,0,0,0,1.127-3.476c0-2.085-.6-3.506-1.826-4.345a22.163,22.163,0,0,0-6.872-2.49l-6.022-1.362c-4.09-.923-6.931-1.929-8.682-3.075a10.288,10.288,0,0,1-4.691-9.162A13.838,13.838,0,0,1,52.723-42.48c2.943-2.728,7.124-4.111,12.426-4.111A21.47,21.47,0,0,1,77.6-43.039C81.13-40.6,82.92-36.694,82.92-31.424v1H75.378l-.111-.874a10.256,10.256,0,0,0-1.731-4.987,7.36,7.36,0,0,0-3.279-2.292,15.3,15.3,0,0,0-5.29-.808c-3.268,0-5.612.66-6.966,1.961a6,6,0,0,0-2.024,4.486,4.069,4.069,0,0,0,2.2,3.906c.763.413,2.74,1.151,7.828,2.325l6.234,1.422A20.156,20.156,0,0,1,79.572-22.3c3.086,2.271,4.65,5.587,4.65,9.86,0,5.28-1.973,9.124-5.864,11.426A25.158,25.158,0,0,1,65.36,2.3ZM48.783-13.35A15.067,15.067,0,0,0,49.8-8.268a12.3,12.3,0,0,0,3.237,4.587A14.393,14.393,0,0,0,58.276-.708,22.921,22.921,0,0,0,65.36.3,23.191,23.191,0,0,0,77.339-2.738a9.324,9.324,0,0,0,3.648-3.823,12.913,12.913,0,0,0,1.235-5.881c0-3.652-1.253-6.35-3.831-8.246A18.244,18.244,0,0,0,71.8-23.335l-6.236-1.423c-4.329-1-7.055-1.822-8.337-2.518l-.009,0a6.169,6.169,0,0,1-2.427-2.332,6.634,6.634,0,0,1-.812-3.326,8.006,8.006,0,0,1,2.638-5.928,8.339,8.339,0,0,1,3.493-1.919,17.5,17.5,0,0,1,4.86-.6c4.7,0,8.111,1.3,10.139,3.861l.005.007a11.365,11.365,0,0,1,2.01,5.093H80.9a13.745,13.745,0,0,0-1.109-4.994,9.563,9.563,0,0,0-3.324-3.976,19.516,19.516,0,0,0-11.314-3.2,20.75,20.75,0,0,0-6.425.912,12.445,12.445,0,0,0-4.641,2.667,11.692,11.692,0,0,0-2.869,4.037,12.986,12.986,0,0,0-.958,5.068,8.294,8.294,0,0,0,3.787,7.49c1.525,1,4.226,1.939,8.026,2.8l6.025,1.362a23.617,23.617,0,0,1,7.534,2.774l.013.009c1.8,1.222,2.708,3.242,2.708,6a7.353,7.353,0,0,1-1.567,4.728,9.69,9.69,0,0,1-4.493,2.937,19.782,19.782,0,0,1-6.5,1.024c-5.374,0-9.207-1.635-11.393-4.859l0-.007a12.528,12.528,0,0,1-1.877-5.7ZM-18.679,2.15A19.913,19.913,0,0,1-32.361-2.8a20.167,20.167,0,0,1-5.475-8.3,34.266,34.266,0,0,1-1.793-11.609,30.177,30.177,0,0,1,1.35-9.26,22.62,22.62,0,0,1,4.086-7.513,19.057,19.057,0,0,1,7.066-5.409,22.791,22.791,0,0,1,9.235-1.8,24.39,24.39,0,0,1,7.822,1.166,16.026,16.026,0,0,1,5.977,3.561A16.756,16.756,0,0,1,1.389-31.212l.1,1.091H-6.274l-.18-.774A11.3,11.3,0,0,0-10.1-37.168c-1.793-1.511-4.393-2.277-7.726-2.277a13.81,13.81,0,0,0-5.538,1.071,12.2,12.2,0,0,0-4.32,3.2c-2.517,2.876-3.794,7.416-3.794,13.494a24.659,24.659,0,0,0,.873,6.8,16.191,16.191,0,0,0,2.575,5.273,10.5,10.5,0,0,0,4.153,3.331,14.511,14.511,0,0,0,5.931,1.128,11.928,11.928,0,0,0,5.415-1.172,10.375,10.375,0,0,0,3.9-3.507,18.577,18.577,0,0,0,2.6-6.724l.165-.8H1.936l-.125,1.111A21.136,21.136,0,0,1-3.657-3.89C-7.368.117-12.423,2.15-18.679,2.15Zm.787-46.833a20.813,20.813,0,0,0-8.429,1.626,17.078,17.078,0,0,0-6.329,4.852,20.632,20.632,0,0,0-3.726,6.854,28.188,28.188,0,0,0-1.253,8.646,32.3,32.3,0,0,0,1.674,10.929,18.189,18.189,0,0,0,4.926,7.489,17,17,0,0,0,5.56,3.324A19.986,19.986,0,0,0-18.679.15a20.658,20.658,0,0,0,7.7-1.359A16.081,16.081,0,0,0-5.123-5.251,18.207,18.207,0,0,0-1.793-10.3,20.485,20.485,0,0,0-.327-15.348H-4.252A19.709,19.709,0,0,1-6.986-8.7,12.492,12.492,0,0,1-17.952-3.147c-5.133,0-9.063-1.769-11.683-5.258-2.554-3.4-3.848-7.866-3.848-13.27a31.546,31.546,0,0,1,1.049-8.581,16.027,16.027,0,0,1,3.24-6.231,14.441,14.441,0,0,1,11.363-4.958c3.818,0,6.851.925,9.015,2.748A13.017,13.017,0,0,1-4.7-32.121H-.745a13.6,13.6,0,0,0-1.3-3.9,16.921,16.921,0,0,0-3.426-4.485,14.042,14.042,0,0,0-5.239-3.114A22.409,22.409,0,0,0-17.892-44.683ZM-63.453,2.15A19.913,19.913,0,0,1-77.136-2.8a20.167,20.167,0,0,1-5.475-8.3A34.266,34.266,0,0,1-84.4-22.705a30.177,30.177,0,0,1,1.35-9.26,22.62,22.62,0,0,1,4.086-7.513A19.057,19.057,0,0,1-71.9-44.887a22.791,22.791,0,0,1,9.235-1.8,24.39,24.39,0,0,1,7.822,1.166,16.026,16.026,0,0,1,5.977,3.561,16.755,16.755,0,0,1,5.482,10.744l.1,1.091h-7.762l-.18-.774a11.3,11.3,0,0,0-3.651-6.273c-1.793-1.511-4.393-2.277-7.726-2.277a13.81,13.81,0,0,0-5.538,1.071,12.2,12.2,0,0,0-4.32,3.2c-2.517,2.876-3.794,7.416-3.794,13.494a24.658,24.658,0,0,0,.873,6.8A16.191,16.191,0,0,0-72.81-9.607a10.5,10.5,0,0,0,4.153,3.331,14.511,14.511,0,0,0,5.931,1.128,11.928,11.928,0,0,0,5.415-1.172,10.375,10.375,0,0,0,3.9-3.507,18.577,18.577,0,0,0,2.6-6.724l.165-.8h7.806l-.125,1.111A21.136,21.136,0,0,1-48.432-3.89C-52.143.117-57.2,2.15-63.453,2.15Zm.787-46.833A20.813,20.813,0,0,0-71.1-43.057a17.078,17.078,0,0,0-6.329,4.852,20.632,20.632,0,0,0-3.726,6.854A28.188,28.188,0,0,0-82.4-22.705,32.3,32.3,0,0,0-80.73-11.776,18.189,18.189,0,0,0-75.8-4.287a17,17,0,0,0,5.56,3.324A19.986,19.986,0,0,0-63.453.15a20.657,20.657,0,0,0,7.7-1.359A16.08,16.08,0,0,0-49.9-5.251,18.207,18.207,0,0,0-46.567-10.3,20.485,20.485,0,0,0-45.1-15.348h-3.925A19.709,19.709,0,0,1-51.76-8.7,12.492,12.492,0,0,1-62.727-3.147c-5.133,0-9.063-1.769-11.683-5.258-2.554-3.4-3.848-7.866-3.848-13.27a31.546,31.546,0,0,1,1.049-8.581,16.027,16.027,0,0,1,3.24-6.231,14.441,14.441,0,0,1,11.363-4.958c3.818,0,6.851.925,9.015,2.748a13.017,13.017,0,0,1,4.112,6.576h3.959a13.6,13.6,0,0,0-1.3-3.9,16.921,16.921,0,0,0-3.426-4.485,14.042,14.042,0,0,0-5.239-3.114A22.409,22.409,0,0,0-62.666-44.683ZM42.6,1H7.719V-45.472H42.142v7.449H15.592v11.5H40.144v7.146H15.592V-6.3h27ZM9.719-1H40.6V-4.3h-27V-21.374H38.144V-24.52H13.592v-15.5h26.55v-3.449H9.719ZM-85.458,1H-94.2l-4.511-13.32h-16.17L-119.7,1h-8.323l17.494-46.472h8.2Zm-7.309-2h4.456l-15.41-42.472h-5.419L-125.128-1h4.029l4.813-13.32h19.008Zm-5.764-16.225h-16.757l8.633-23.641Zm-13.9-2h11.1l-5.379-15.654Z" transform="translate(184.5 18143.355)" fill="#004690"/></g></svg>