<svg xmlns="http://www.w3.org/2000/svg" xmlns:xlink="http://www.w3.org/1999/xlink" width="992" height="120" viewBox="0 0 992 120"><defs><clipPath id="a"><rect width="891.906" height="78.303" transform="translate(0 0)" fill="#4a5dab"/></clipPath></defs><g transform="translate(-394 -5784)"><g transform="translate(394 5805)"><g clip-path="url(#a)"><path d="M25.234,25.83c-1.258-3.655-4.4-12.591-8.14-18.358L29.532.893a83.091,83.091,0,0,1,8.737,18.6l-11.9,6.337H42.615L48.008.324H60.923L55.53,25.83h16L62.8,19.493A110.635,110.635,0,0,0,78.869.73l11.34,5.524A149.02,149.02,0,0,1,72.587,25.83H84.445L73.521,77.489H60.931l.635-3H0l2.525-11.94H64.091l1.46-6.9H7.964l2.405-11.373H67.956L69.4,37.445H8.564L11.02,25.83Z" fill="#4a5dab"/><path d="M98.611,3.573h62.7L145.8,76.921H132.809l.687-3.249H96.783L96.1,76.921h-13ZM139.834,43.7H103.121l-3.778,17.87h36.712Zm5.909-27.941H109.03l-3.418,16.164h36.713Z" fill="#4a5dab"/><path d="M190.6,23.88a28.609,28.609,0,0,0,2.636-3.248c-8.695.405-14.868.405-16.411.405-3.9,0-6.481-.081-8.412-.162l1.137-9.991c1.834.163,11.012.163,13.042.163A91.051,91.051,0,0,0,190.293,0l13.045,1.3c-3.531,4.793-4.716,6.173-7.845,9.829,3.005,0,17.677-.244,21.674-.325a44.924,44.924,0,0,0-4.13-3.9l11.936-5.361c5.886,5.2,9.674,9.179,13.289,15.514l-11.638,6.255c-.781-1.3-1.37-2.356-2.616-4.143-2.715.162-16.092.812-19.05.975-.694.974-1.157,1.625-2.74,3.736h37.931L238,34.033H221.189A45.415,45.415,0,0,0,237.532,42.4l-7.945,11.452c-9.9-5.036-17.307-10.722-22.936-19.82H192.924a76.205,76.205,0,0,1-12.912,9.585c6.825-1.543,12.44-3.9,20.567-8.529l5.158,6.337c-11.694,6.9-19.49,9.584-33.6,12.184l-1.418-5.2c-4.8,1.95-6.462,2.518-8.908,3.331l-2.682-11.128A62.623,62.623,0,0,0,177,34.033H161.49l2.147-10.153Zm35.209,34.766C206.438,72.291,183.838,77,162.3,77.816l-1.4-9.911c30.836-1.788,46.475-8.529,57.6-16.571Zm-11.054-9.179C209.65,52.878,197.536,61,167.031,65.062L165.064,56.7c25.788-2.112,39.317-10.4,44.159-13.322Z" fill="#4a5dab"/><path d="M229.607,67.5c4.074-3.9,14.7-13.808,20.5-41.262h-9.991L242.7,14.052h9.992L255.521.65h11.858l-2.834,13.4h16.812c-1.481,7.392-11.364,51.822-14.926,57.914a10.6,10.6,0,0,1-9.8,5.6h-9.99l.909-12.752h6.417a3.234,3.234,0,0,0,1.693-.326c2.225-1.3,2.564-2.518,11.015-38.256h-4.711c-.579,2.354-2.107,8.04-4.1,14.375-2.559,7.88-8.1,25.262-21.859,37.691ZM287.973,3.9h30.864L303.258,77.571H291.643l.944-4.467h-7.878l-.944,4.467H272.394Zm8.863,11.86-9.584,45.324h7.877l9.585-45.324Z" fill="#4a5dab"/><path d="M352.544,2.922c-1.076,3.169-2.22,6.662-4.672,13.647h6.985c16.163,0,15.489,12.021,13.17,22.987-.979,4.63-5.275,22.256-11.933,29.161-5.293,5.442-10.8,5.767-14.946,5.767a58.81,58.81,0,0,1-11.537-1.137L331.735,61A44.123,44.123,0,0,0,341,62.138c4.061,0,5.768-1.544,6.838-2.762,2.979-3.33,6.388-14.458,7.624-20.307,1.374-6.5,2.071-10.56-5.663-10.479l-6.514.081c-6.06,15.6-13.24,31.111-23.376,45.245L309.242,67.5c4.725-5.444,10.714-13.4,21.271-38.745l-11.65.162,2.611-12.347h13.4c1.986-5.929,3.4-10.722,4.456-14.539Zm20.6,48.9c3.888-20.307,1.326-27.78.337-30.785l12.632-3.656c2.6,6.9,3.609,16.733,1.131,33.059Zm3.128-34.766c-.112-2.924-.645-8.853-2.188-13.077l7.559-1.949c1.565,3.736,2.312,9.422,2.455,12.59Zm12.451-2.031a51.5,51.5,0,0,0-2.682-12.671L393.525.406c.6,1.38,1.792,3.816,2.716,12.508Z" fill="#4a5dab"/><path d="M469.207,18.844c-1.852-.081-4.66-.244-7.665-.244-4.63,0-7.75.163-13.1,2.437C440.064,24.53,423.9,34.521,421.271,46.95c-2.439,11.533,11.081,12.507,17.168,12.914a116.976,116.976,0,0,0,14.569.244l-4.5,13.971c-18.763,0-26.3-1.625-32.741-4.956-6.734-3.493-11.118-10.8-9.125-20.225,2.594-12.265,12.945-22.418,24.638-29.323-5.382.487-29.3,2.6-34.116,3.087l2.206-13.89C443.8,6.5,448.721,6.254,470.219,5.605a10.232,10.232,0,0,0,1.48-.081Zm-22.527,25.1a65.611,65.611,0,0,0-4.712-12.671l7.839-3.656a49.845,49.845,0,0,1,4.914,12.1Zm12.479-6.011a52.934,52.934,0,0,0-4.946-11.94l7.839-3.656a42.183,42.183,0,0,1,4.986,11.371Z" fill="#4a5dab"/><path d="M518.536,2.517c-.563,3.818-.916,6.254-1.14,8.854,8.015-.65,11.559-.894,19.653-2.681l-.891,11.128c-7.636,1.544-8.872,1.625-19.44,2.438a43.692,43.692,0,0,0,.131,7.066,120.955,120.955,0,0,0,22.564-3.005L538.98,37.2a134.467,134.467,0,0,1-20.141,2.681,29.4,29.4,0,0,0,4.6,9.34l-13.011,6.986c-1.742-2.518-4.41-6.417-6.153-15.839a9.221,9.221,0,0,1-1.642.081H468.686l2.267-10.722h32.489c.018-1.625.057-2.193.323-6.9H475.337l2.319-10.966H504.54c.292-5.6.348-6.254.569-8.448ZM491.723,48.654c-2.113,1.543-6.126,4.387-6.881,7.96-1.169,5.524,7.519,5.93,18.4,5.93a177.105,177.105,0,0,0,21.828-1.057L522.914,74c-2.894.244-7.43.568-16.608.568-15.514,0-20.574-.649-23.959-1.543-12.065-3.249-11.758-11.616-11.174-14.377,1.614-7.636,8.661-12.916,11.856-15.352Z" fill="#4a5dab"/><path d="M601.532,4.467,599.384,14.62c-14.463,10.4-15.331,11.047-18.377,13.16a22.175,22.175,0,0,1,7.435-.975c16.569,0,21.529,12.265,19.227,23.148-2.834,13.4-15.374,24.694-38.766,24.694-21.036,0-18.677-13.078-18.317-14.784,1.8-8.529,11.1-13.32,18.9-13.32,9.747,0,13.194,6.741,11.786,13.4a19.548,19.548,0,0,1-.829,2.762c7.351-2.112,12.074-6.011,13.38-12.184,1.048-4.955-.372-12.834-14.1-12.834-13,0-20.881,6.173-39.055,21.444L534.9,48.41c7.726-5.036,11.378-7.716,44.356-31.922l-28.63.569,2.664-12.59ZM571.351,62.3c.121-.569,1.144-6.174-4.542-6.174-3.087,0-5.524,1.544-6.04,3.981-.876,4.142,4.921,4.385,6.788,4.385a15.246,15.246,0,0,0,3.156-.324,8.462,8.462,0,0,0,.638-1.868" fill="#4a5dab"/><path d="M653.575,73.754H639.848l7.009-33.142a172.176,172.176,0,0,1-29.687,12.1L612.34,41.75c36.517-9.828,60.311-32.085,68.291-39.476l9.995,8.042a225.188,225.188,0,0,1-28.1,21.119Z" fill="#4a5dab"/><path d="M678.191,39.8c3.755-3.167,5-4.467,16.67-15.839,8.492-8.284,13.648-13.077,19.983-13.077,5.6,0,9.4,4.712,10.712,6.579L752.622,55.4,740.06,67.174,715.7,29.891c-1.486-2.193-2.331-3.573-4.037-3.573-1.868,0-3.412,1.543-4.661,2.842-3.42,3.493-18.076,19.414-21.1,22.582Zm61.675-16.651a85.05,85.05,0,0,0-5.421-11.614L741.407,7.8a50.666,50.666,0,0,1,5.884,10.966Zm11.766-6.092a45.066,45.066,0,0,0-5.885-10.965l7.16-3.9a43.462,43.462,0,0,1,6.151,10.478Z" fill="#4a5dab"/><path d="M757.46,59.7c32.129-2.518,51.321-14.54,67.5-47.274l10.975,6.091c-21.554,42.4-48.507,51.174-77.127,55.154Zm30.581-29a82.762,82.762,0,0,0-22.924-12.589L773.3,7.066a84.089,84.089,0,0,1,24.167,11.7Z" fill="#4a5dab"/><path d="M860.533,3.167,856.445,22.5a147.187,147.187,0,0,1,35.461,17.058l-9.772,13.565c-7.228-5.767-19.323-13.484-28.592-16.9l-8.142,38.5H831.267L846.4,3.167Z" fill="#4a5dab"/></g></g><text transform="translate(1301 5858)" fill="#4a5dab" font-size="28" font-family="NotoSansJP-Bold, Noto Sans JP" font-weight="700"><tspan x="0" y="0">無料</tspan></text><path d="M60,3a56.72,56.72,0,0,0-31.867,9.733A57.175,57.175,0,0,0,7.478,37.814a56.921,56.921,0,0,0,5.255,54.053,57.175,57.175,0,0,0,25.081,20.655,56.921,56.921,0,0,0,54.053-5.255,57.175,57.175,0,0,0,20.655-25.081,56.921,56.921,0,0,0-5.255-54.053A57.175,57.175,0,0,0,82.186,7.478,56.64,56.64,0,0,0,60,3m0-3A60,60,0,1,1,0,60,60,60,0,0,1,60,0Z" transform="translate(1266 5784)" fill="#4a5dab"/></g></svg>