<svg xmlns="http://www.w3.org/2000/svg" width="432.367" height="137.399" viewBox="0 0 432.367 137.399"><g transform="translate(-616.865 -2689.681)"><text transform="translate(768 2822.08)" fill="#004690" font-size="16" font-family="NotoSansJP-Bold, Noto Sans JP" font-weight="700"><tspan x="0" y="0">主</tspan><tspan y="0">な</tspan><tspan y="0">催事・</tspan><tspan y="0">イベント</tspan></text><path d="M10.365-96.4H81.917v13.689H24.963v26.964H77.631v13.04H24.963v30.341H82.891V1H10.365Zm69.552,2H12.365V-1H80.891v-9.365H22.963V-44.706H75.631v-9.04H22.963V-84.709H79.917Zm10.741-2h16.434l.229.68L133.774-17.3l26.365-79.1h16.632L141.233,1h-15.1Zm15,2H93.515L127.531-1h12.3l34.079-93.4H161.581l-27.8,83.387Zm82.129-2h71.552v13.689H202.383v26.964h52.667v13.04H202.383v30.341h57.928V1H187.785Zm69.552,2H189.785V-1h68.526v-9.365H200.383V-44.706h52.667v-9.04H200.383V-84.709h56.954Zm17.924-2h16.816l46.632,74.787V-96.4h14.274V1H336.95L289.6-73.767V1H275.261Zm15.706,2H277.261V-1H287.6V-80.663L338.051-1h12.932V-94.4H340.708v79.774Zm72.354-2h79.41v13.365H410.585V1H395.467V-83.034H363.321Zm77.41,2h-75.41v9.365h32.146V-1h11.118V-85.034h32.146Z" transform="translate(606.5 2786.08)" fill="#004690"/></g></svg>