<?xml version="1.0" encoding="UTF-8"?>
<svg id="_レイヤー_1" data-name="レイヤー_1" xmlns="http://www.w3.org/2000/svg" version="1.1" viewBox="0 0 484.5 140">
  <!-- Generator: Adobe Illustrator 29.8.3, SVG Export Plug-In . SVG Version: 2.1.1 Build 3)  -->
  <defs>
    <style>
      .st0 {
        fill: #004690;
      }
    </style>
  </defs>
  <path class="st0" d="M149.3,0c4,0,8,.3,12,1,3.6.6,7.1,1.7,10.4,3.1,3.1,1.4,6.1,3.1,8.8,5.2,2.7,2.1,5,4.6,7.1,7.3,3.3,4.4,5.8,9.4,7.3,14.8,1.7,5.9,2.5,12.1,2.4,18.3,0,6.7-.9,13.4-2.8,19.9-1.8,5.9-4.6,11.4-8.3,16.3-2.1,2.8-4.5,5.3-7.2,7.4-2.6,2.1-5.5,3.9-8.6,5.3-3.2,1.4-6.5,2.5-10,3.2-3.7.7-7.5,1.1-11.3,1.1-6.9.1-13.7-1.2-20.1-3.7-5.9-2.5-11.1-6.3-15.3-11.2h0c-3.8-4.9-6.8-10.3-8.6-16.2-2-6.4-2.9-13.1-2.9-19.9,0-6.2.8-12.3,2.4-18.2,1.6-5.5,4.1-10.7,7.4-15.5,2-2.9,4.4-5.6,7.1-7.9,2.6-2.3,5.5-4.2,8.6-5.7,3.2-1.5,6.6-2.7,10.1-3.4C141.6.4,145.4,0,149.3,0ZM149.1,100.8c3.7,0,7.3-.3,10.9-1,3.3-.6,6.5-1.7,9.5-3,2.9-1.3,5.7-3,8.2-5.1,2.6-2.1,4.9-4.5,6.9-7.1,3.6-4.7,6.3-10,8-15.6,1.8-6.3,2.7-12.8,2.7-19.3,0-6-.7-11.9-2.3-17.7-1.5-5.1-3.8-9.9-7-14.1-1.9-2.6-4.2-4.9-6.7-6.9-2.5-2-5.3-3.7-8.3-4.9-3.2-1.4-6.5-2.4-10-3-3.8-.7-7.7-1-11.6-1-3.7,0-7.5.3-11.1,1.1-3.3.7-6.6,1.8-9.6,3.2-2.9,1.4-5.7,3.2-8.2,5.4-2.5,2.2-4.8,4.8-6.7,7.5-3.2,4.5-5.5,9.6-7.1,14.9-1.6,5.8-2.4,11.7-2.4,17.7,0,6.5.9,13,2.8,19.3,1.8,5.6,4.6,10.9,8.2,15.5,2,2.3,4.2,4.4,6.7,6.2,2.4,1.8,5.1,3.3,7.9,4.4,6.1,2.5,12.7,3.7,19.3,3.6ZM252.8,0c4,0,8,.3,12,1,3.6.6,7.1,1.7,10.4,3.1,3.1,1.4,6.1,3.1,8.8,5.2,2.7,2.1,5,4.6,7.1,7.3,3.3,4.4,5.8,9.4,7.3,14.8,1.7,5.9,2.5,12.1,2.4,18.3,0,6.7-.9,13.4-2.8,19.9-1.8,5.9-4.6,11.4-8.3,16.3-2.1,2.8-4.5,5.3-7.2,7.4-2.6,2.1-5.5,3.9-8.6,5.3-3.2,1.4-6.5,2.5-10,3.2-3.7.7-7.5,1.1-11.3,1.1-6.9.1-13.7-1.2-20-3.7-5.9-2.5-11.2-6.3-15.3-11.2h0c-3.8-4.9-6.8-10.3-8.6-16.2-2-6.4-2.9-13.1-2.9-19.9,0-6.2.8-12.3,2.4-18.2,1.6-5.5,4.1-10.7,7.3-15.5,2-2.9,4.4-5.6,7.1-7.9,2.6-2.3,5.5-4.2,8.6-5.7,3.2-1.5,6.6-2.7,10.1-3.4C245,.4,248.9,0,252.8,0ZM252.5,100.8c3.7,0,7.3-.3,10.9-1,3.3-.6,6.5-1.7,9.5-3,2.9-1.3,5.7-3,8.2-5.1,2.6-2.1,4.9-4.5,6.9-7.1,3.6-4.7,6.3-10,8-15.6,1.8-6.3,2.7-12.8,2.7-19.3,0-6-.7-11.9-2.3-17.7-1.5-5.1-3.8-9.9-7-14.1-1.9-2.6-4.2-4.9-6.7-6.9-2.5-2-5.3-3.7-8.3-4.9-3.2-1.4-6.5-2.4-10-3-3.8-.7-7.7-1-11.6-1-3.7,0-7.5.3-11.1,1.1-3.3.7-6.6,1.8-9.6,3.2-2.9,1.4-5.7,3.2-8.2,5.4-2.5,2.2-4.8,4.8-6.7,7.5-3.2,4.5-5.5,9.6-7.1,14.9-1.6,5.8-2.4,11.7-2.4,17.7,0,6.5.9,13,2.8,19.3,1.8,5.6,4.6,10.9,8.2,15.5,2,2.3,4.2,4.4,6.7,6.2,2.4,1.8,5.1,3.3,7.9,4.4,6.1,2.5,12.7,3.7,19.3,3.6h0ZM45.9.1c4.3,0,8.6.4,12.8,1.3,3.8.8,7.5,2.2,11,4,4.8,2.5,8.8,6.1,11.8,10.6,3.2,4.9,5.2,10.5,6.1,16.3l.2,1.2h-14.8l-.2-.8c-.6-3.1-1.8-6-3.5-8.7-1.5-2.4-3.5-4.4-5.8-5.9-2.5-1.6-5.2-2.7-8-3.4-3.3-.8-6.6-1.2-10-1.2-4.1,0-8.1.8-11.8,2.4-3.7,1.7-7.1,4.2-9.8,7.2-3.1,3.5-5.3,7.6-6.6,12-1.6,5.5-2.3,11.2-2.2,16.9,0,5.1.6,10.2,1.8,15.2,1.1,4.3,3,8.3,5.5,12,2.4,3.4,5.6,6,9.4,7.7,4.5,1.8,9.3,2.7,14.1,2.6,3.9,0,7.8-.6,11.5-1.8,3.4-1.2,6.6-3,9.3-5.4,2.8-2.6,4.9-5.8,6.1-9.4,1.4-4.2,2.1-8.6,2.2-13.1h-29.9v-12.7h43.9v53h-10.1l-2.9-11.2c-3.1,3.5-6.7,6.4-10.6,8.8-3.1,1.7-6.5,3-9.9,3.7-4,.8-8.1,1.3-12.2,1.2-5.5,0-11-.9-16.1-2.8-5.1-1.9-9.7-4.8-13.7-8.4h0s0,0,0,0c-4.6-4.8-8.1-10.5-10.2-16.7C1,67.5-.1,60.2,0,52.7c-.1-7.4,1-14.8,3.3-21.8,2.1-6.3,5.5-12.1,10-17,4-4.5,9-8,14.5-10.4C33.5,1.2,39.7,0,45.9.1ZM85.4,31.5c-.9-5.1-2.8-10-5.6-14.3-2.8-4.2-6.6-7.6-11.1-9.9-3.3-1.7-6.8-3-10.5-3.8-4-.9-8.2-1.3-12.3-1.3-6,0-11.9,1-17.4,3.3-5.3,2.3-10,5.6-13.8,9.9-4.3,4.7-7.5,10.2-9.5,16.3-2.2,6.8-3.3,14-3.2,21.2-.1,7.2,1,14.3,3.3,21.1,1.1,3,2.4,5.9,4.1,8.6,1.6,2.6,3.5,5.1,5.7,7.3,3.8,3.5,8.2,6.2,13.1,8,4.9,1.8,10.2,2.7,15.4,2.7,3.9,0,7.9-.4,11.7-1.2,3.3-.7,6.4-1.9,9.4-3.5h0c3.3-1.8,7.1-5.1,11.4-9.8l1.3-1.4,3.4,13.3h6.5v-49h-39.9v8.7h29.9v1c0,5-.8,10-2.3,14.8-1.3,3.9-3.6,7.4-6.7,10.2-2.9,2.6-6.3,4.5-9.9,5.8-3.9,1.3-8,2-12.1,1.9-5.1.1-10.2-.8-14.9-2.8-4.1-1.8-7.7-4.7-10.2-8.4-2.6-3.8-4.6-8.1-5.7-12.6-1.3-5.1-2-10.4-1.9-15.7,0-5.9.7-11.8,2.3-17.5,1.4-4.7,3.8-9.1,7-12.8,2.9-3.3,6.5-5.9,10.4-7.7,4-1.7,8.3-2.6,12.6-2.6,3.5,0,7,.4,10.5,1.2,3,.8,5.9,2,8.6,3.7,2.6,1.7,4.8,3.9,6.4,6.5,1.6,2.6,2.8,5.5,3.5,8.6h10.8ZM444.7.2c4.8,0,9.5.6,14.1,1.8,4.2,1.2,8.3,3.1,11.9,5.6,3.6,2.5,6.4,5.9,8.2,9.8,1.9,4.5,2.8,9.3,2.7,14.2v1h-14v-.9c-.7-4.9-2.1-8.7-4.1-11.3-2-2.4-4.6-4.2-7.5-5.3-3.8-1.3-7.8-1.9-11.7-1.8-7.3,0-12.6,1.5-15.7,4.5-1.5,1.4-2.7,3-3.5,4.9-.8,1.8-1.2,3.6-1.2,5.6,0,4.3,1.7,7.4,5.3,9.4,2.5,1.3,8.2,3.1,17.1,5.1l13.4,3.1c6.6,1.5,11.7,3.6,15.3,6.2,3.1,2.2,5.5,5.2,7.1,8.6,1.6,3.7,2.4,7.6,2.4,11.6.1,4.9-.9,9.7-3,14-2,4-5.2,7.3-9,9.5-4,2.3-8.3,4.1-12.7,5.2-4.8,1.2-9.7,1.8-14.6,1.7-5.5,0-10.9-.7-16.2-2.3-4.6-1.4-8.8-3.8-12.4-7-3.4-3-6.1-6.8-7.8-11-1.7-4.5-2.6-9.4-2.4-14.2v-1h14.1v.9c.3,5.2,1.6,9.5,3.7,12.7,2.1,3,5,5.4,8.4,6.7,4.3,1.6,8.8,2.4,13.4,2.3,4.4,0,8.8-.6,12.9-2,3.2-1,6-2.8,8.2-5.3,1.8-2.3,2.8-5.2,2.7-8.2,0-2.1-.3-4.3-1.1-6.3-.7-1.6-1.8-3-3.3-4-3.2-2.1-8.3-3.9-15.1-5.5l-12.9-2.9c-3.7-.8-7.3-1.8-10.9-3-2.6-.8-5-2-7.3-3.4-3-1.9-5.5-4.6-7.2-7.8-1.6-3.4-2.5-7.1-2.4-10.9,0-4.1.7-8.3,2.3-12.1,1.6-3.7,3.9-7,6.9-9.7,3.2-2.9,7-5.1,11.1-6.4,4.8-1.5,9.8-2.2,14.8-2.1ZM479.6,30.6c0-4.2-.9-8.4-2.5-12.3-1.6-3.6-4.2-6.7-7.5-9-3.5-2.4-7.3-4.2-11.3-5.3-4.4-1.2-9-1.8-13.6-1.8-4.8,0-9.6.6-14.1,2-3.9,1.2-7.4,3.2-10.4,6-2.8,2.5-5,5.6-6.4,9.1-1.5,3.6-2.2,7.4-2.1,11.3,0,3.4.7,6.9,2.2,10,1.5,2.9,3.7,5.3,6.5,7.1,3.4,2.2,9.3,4.3,17.6,6.2l12.9,2.9c7.1,1.6,12.4,3.6,15.8,5.8h0c3.5,2.4,5.3,6.4,5.3,11.9s-4.1,12.5-12.2,15.4c-4.4,1.5-9,2.2-13.6,2.1-4.8.1-9.7-.7-14.2-2.4-3.8-1.5-7-4.1-9.3-7.5h0c-2.4-3.8-3.7-8.2-3.9-12.7h-10.2c0,4.3.8,8.5,2.3,12.5,1.6,3.9,4.1,7.4,7.2,10.3,3.4,3,7.3,5.3,11.6,6.6,5,1.6,10.3,2.3,15.6,2.2,4.7,0,9.5-.5,14.1-1.7,4.3-1.1,8.4-2.8,12.2-5,3.5-2,6.4-5,8.3-8.7,1.9-4.1,2.9-8.6,2.8-13.1,0-3.7-.7-7.4-2.2-10.8-1.5-3.1-3.7-5.8-6.5-7.8-3.4-2.5-8.3-4.4-14.6-5.9l-13.4-3.1c-9.2-2.1-14.9-3.8-17.6-5.3h0c-4.2-2.3-6.4-6.1-6.4-11.1,0-4.5,1.9-8.9,5.3-11.9,2-1.8,4.4-3.1,7-3.8,3.3-.9,6.7-1.3,10.1-1.2,4.2,0,8.4.6,12.4,1.9,3.3,1.2,6.2,3.2,8.4,5.9h0c2.1,2.7,3.5,6.5,4.2,11.4h10.3ZM314.6,2.6h39.6c6.2-.1,12.3,1.1,17.9,3.6,5.3,2.4,9.9,6.1,13.4,10.8h0c3.3,4.4,5.9,9.4,7.4,14.7,1.7,5.9,2.5,12,2.5,18.2,0,4.9-.5,9.8-1.5,14.7-.9,4.6-2.4,9-4.4,13.2-1.6,3.5-3.6,6.8-6.1,9.7-2.3,2.7-5,5.1-8,7-3,1.9-6.4,3.3-9.8,4.2-3.8,1-7.7,1.4-11.6,1.4h-39.5V2.6ZM384,18.2c-1.7-2.2-3.6-4.2-5.8-5.9-2.1-1.7-4.4-3.1-6.9-4.2-5.4-2.3-11.2-3.5-17.1-3.4h-37.6v93.4h37.5c3.7,0,7.5-.4,11.1-1.3,3.3-.8,6.4-2.2,9.3-3.9,2.8-1.8,5.4-4,7.5-6.6,2.3-2.8,4.3-5.9,5.8-9.3,1.9-4.1,3.3-8.4,4.2-12.8,1-4.7,1.4-9.5,1.4-14.3,0-6-.7-11.9-2.4-17.6-1.5-5.1-3.9-9.8-7.1-14h0ZM150.1,11.5c4.8,0,9.6.8,14,2.6,4.2,1.8,7.9,4.5,10.8,8,3.1,3.6,5.4,7.8,6.8,12.2,1.6,5,2.3,10.2,2.2,15.5,0,5.1-.6,10.3-1.9,15.3-1.3,4.7-3.2,9.3-5.8,13.4-2.5,4.1-6.1,7.4-10.4,9.5-4.7,2.2-9.9,3.3-15.2,3.2-5.4.1-10.8-.8-15.9-2.8-4.4-1.8-8.1-4.7-10.9-8.5-2.8-3.8-4.8-8-6.2-12.4-1.4-4.8-2.1-9.9-2-14.9,0-6,.7-11.9,2.4-17.7,1.4-4.8,3.9-9.2,7.2-13,3.1-3.4,6.8-6.1,11.1-7.9,4.4-1.8,9.1-2.7,13.8-2.6ZM150.6,89.2c4.9.1,9.8-.9,14.3-3,1.9-1,3.8-2.2,5.4-3.7,1.6-1.5,3.1-3.2,4.2-5.1,2.5-4,4.4-8.3,5.6-12.9,1.3-4.8,1.9-9.8,1.9-14.7,0-5-.7-10.1-2.2-14.9-1.3-4.2-3.5-8.2-6.4-11.6-2.7-3.2-6.2-5.8-10-7.4-4.2-1.7-8.7-2.6-13.3-2.5-4.5,0-8.9.8-13.1,2.5-3.9,1.7-7.5,4.2-10.4,7.4-3.1,3.5-5.5,7.7-6.8,12.2-1.6,5.6-2.4,11.3-2.3,17.1,0,4.8.6,9.7,2,14.3,1.3,4.2,3.2,8.2,5.9,11.8,2.6,3.5,6.1,6.2,10.1,7.8,4.8,1.9,9.9,2.8,15.1,2.6h0ZM253.6,11.5c4.8,0,9.6.8,14,2.6,4.2,1.8,7.9,4.5,10.8,8,3.1,3.6,5.4,7.8,6.8,12.2,1.6,5,2.3,10.2,2.2,15.5,0,5.1-.6,10.3-1.9,15.3-1.3,4.7-3.2,9.3-5.8,13.4-2.5,4.1-6.1,7.4-10.4,9.5-4.7,2.2-9.9,3.3-15.2,3.2-5.4.1-10.8-.8-15.9-2.8-4.4-1.8-8.1-4.7-10.9-8.5-2.8-3.8-4.8-8-6.2-12.4-1.4-4.8-2.1-9.9-2-14.9,0-6,.7-11.9,2.4-17.7,1.4-4.8,3.9-9.2,7.2-13,3.1-3.4,6.9-6.1,11.1-7.9,4.4-1.8,9.1-2.7,13.8-2.6ZM254.1,89.2c4.9.1,9.8-.9,14.3-3,1.9-1,3.8-2.2,5.4-3.7,1.6-1.5,3.1-3.2,4.2-5.1,2.5-4,4.4-8.3,5.6-12.9,1.3-4.8,1.9-9.8,1.9-14.7,0-5-.7-10.1-2.1-14.9-1.3-4.2-3.5-8.2-6.4-11.6-2.7-3.2-6.2-5.8-10-7.4-4.2-1.7-8.7-2.6-13.3-2.5-4.5,0-8.9.8-13.1,2.5-3.9,1.7-7.5,4.2-10.4,7.4-3.1,3.5-5.5,7.7-6.8,12.2-1.6,5.6-2.4,11.3-2.3,17.1,0,4.8.6,9.7,2,14.3,1.3,4.2,3.2,8.2,5.9,11.8,2.6,3.5,6.1,6.2,10.1,7.8,4.8,1.9,9.9,2.8,15.1,2.6h0ZM327.6,13.7h23.9c4.8-.1,9.5.8,13.9,2.5,3.8,1.6,7.2,4.3,9.6,7.7,2.6,3.7,4.4,7.8,5.4,12.1,1.3,5.2,1.9,10.6,1.8,16,0,3.4-.4,6.8-1,10.2h0c-.9,5.4-2.8,10.5-5.7,15.2-1.6,2.4-3.5,4.5-5.7,6.3-2.1,1.7-4.6,3-7.2,3.9h0c-3.6,1-7.3,1.5-11.1,1.4h-24.1V13.7ZM379.3,61.9c.6-3.2.9-6.5,1-9.8,0-5.2-.5-10.4-1.7-15.5-1-4.1-2.7-8-5.1-11.4-2.2-3.1-5.3-5.5-8.8-7-4.2-1.7-8.6-2.5-13.1-2.4h-21.9v71.3h22.1c3.5,0,7.1-.3,10.5-1.3,2.4-.8,4.6-2,6.5-3.5,2.1-1.6,3.8-3.6,5.3-5.8,2.7-4.4,4.6-9.3,5.4-14.4Z"/>
</svg>