<svg xmlns="http://www.w3.org/2000/svg" width="484.45" height="139.997" viewBox="0 0 484.45 139.997"><g transform="translate(-585.929 -8335.083)"><text transform="translate(744 8470.08)" fill="#004690" font-size="16" font-family="NotoSansJP-Bold, Noto Sans JP" font-weight="700"><tspan x="0" y="0">東武</tspan><tspan y="0">オリジナルグッズ</tspan><tspan y="0">販売</tspan></text><path d="M154.755-99a66.373,66.373,0,0,1,11.993,1.031,48.037,48.037,0,0,1,10.388,3.11,39.492,39.492,0,0,1,8.753,5.206,39.154,39.154,0,0,1,7.073,7.289,46.059,46.059,0,0,1,7.27,14.751,65.168,65.168,0,0,1,2.411,18.253A68.088,68.088,0,0,1,199.888-29.5a51.234,51.234,0,0,1-8.3,16.275,43.7,43.7,0,0,1-7.208,7.443,40.652,40.652,0,0,1-8.61,5.326A45.173,45.173,0,0,1,165.8,2.734a58.073,58.073,0,0,1-11.3,1.058A51.56,51.56,0,0,1,134.447.078,41.32,41.32,0,0,1,119.126-11.1l-.025-.03a49.881,49.881,0,0,1-8.6-16.2,65.877,65.877,0,0,1-2.855-19.882,65.5,65.5,0,0,1,2.442-18.235A52.474,52.474,0,0,1,117.438-80.9a43.105,43.105,0,0,1,7.073-7.911,39.282,39.282,0,0,1,8.6-5.664,43.572,43.572,0,0,1,10.095-3.391A56.826,56.826,0,0,1,154.755-99ZM154.5,1.792A56.071,56.071,0,0,0,165.409.773a43.168,43.168,0,0,0,9.532-3.046,38.652,38.652,0,0,0,8.186-5.064A41.7,41.7,0,0,0,190-14.44a49.243,49.243,0,0,0,7.971-15.643,66.1,66.1,0,0,0,2.668-19.272,63.181,63.181,0,0,0-2.33-17.692,44.069,44.069,0,0,0-6.952-14.115,37.154,37.154,0,0,0-6.711-6.917,37.49,37.49,0,0,0-8.31-4.941A46.033,46.033,0,0,0,166.385-96a64.374,64.374,0,0,0-11.63-1,54.827,54.827,0,0,0-11.137,1.083,41.575,41.575,0,0,0-9.631,3.233,37.283,37.283,0,0,0-8.167,5.376,41.106,41.106,0,0,0-6.743,7.545,50.476,50.476,0,0,0-7.068,14.87,63.5,63.5,0,0,0-2.363,17.678,63.889,63.889,0,0,0,2.762,19.278A47.893,47.893,0,0,0,120.65-12.4a40.522,40.522,0,0,0,6.71,6.2,38.962,38.962,0,0,0,7.863,4.432A49.58,49.58,0,0,0,154.5,1.792ZM258.207-99A66.373,66.373,0,0,1,270.2-97.965a48.037,48.037,0,0,1,10.388,3.11,39.493,39.493,0,0,1,8.753,5.206,39.155,39.155,0,0,1,7.073,7.289,46.06,46.06,0,0,1,7.27,14.751,65.168,65.168,0,0,1,2.411,18.253A68.088,68.088,0,0,1,303.34-29.5a51.233,51.233,0,0,1-8.3,16.275,43.7,43.7,0,0,1-7.208,7.443,40.652,40.652,0,0,1-8.61,5.326,45.172,45.172,0,0,1-9.974,3.189,58.073,58.073,0,0,1-11.3,1.058A51.559,51.559,0,0,1,237.9.078,41.319,41.319,0,0,1,222.578-11.1l-.025-.03a49.881,49.881,0,0,1-8.6-16.2A65.879,65.879,0,0,1,211.1-47.212a65.494,65.494,0,0,1,2.443-18.235A52.472,52.472,0,0,1,220.89-80.9a43.1,43.1,0,0,1,7.073-7.911,39.284,39.284,0,0,1,8.6-5.664,43.572,43.572,0,0,1,10.095-3.391A56.826,56.826,0,0,1,258.207-99Zm-.26,100.789A56.071,56.071,0,0,0,268.861.773a43.169,43.169,0,0,0,9.532-3.046,38.653,38.653,0,0,0,8.186-5.064,41.7,41.7,0,0,0,6.876-7.1,49.24,49.24,0,0,0,7.971-15.643,66.1,66.1,0,0,0,2.668-19.272,63.181,63.181,0,0,0-2.33-17.692,44.069,44.069,0,0,0-6.952-14.115,37.156,37.156,0,0,0-6.711-6.917,37.49,37.49,0,0,0-8.31-4.941A46.033,46.033,0,0,0,269.837-96a64.374,64.374,0,0,0-11.63-1,54.826,54.826,0,0,0-11.136,1.083,41.576,41.576,0,0,0-9.631,3.233,37.283,37.283,0,0,0-8.166,5.376,41.1,41.1,0,0,0-6.743,7.545,50.476,50.476,0,0,0-7.068,14.87A63.5,63.5,0,0,0,213.1-47.212a63.889,63.889,0,0,0,2.762,19.278A47.894,47.894,0,0,0,224.1-12.4a40.524,40.524,0,0,0,6.71,6.2,38.962,38.962,0,0,0,7.863,4.432A49.58,49.58,0,0,0,257.947,1.792ZM51.369-98.867A58.683,58.683,0,0,1,64.12-97.544a43.822,43.822,0,0,1,10.965,3.989A31.739,31.739,0,0,1,86.912-82.948a41.867,41.867,0,0,1,6.1,16.28l.2,1.168H78.427l-.175-.782A27.322,27.322,0,0,0,74.8-75a19.318,19.318,0,0,0-5.789-5.892,26.975,26.975,0,0,0-8-3.45A40.063,40.063,0,0,0,51.044-85.5,28.79,28.79,0,0,0,39.25-83.1a29.538,29.538,0,0,0-9.774,7.212A31.057,31.057,0,0,0,22.9-63.9a58.4,58.4,0,0,0-2.221,16.949A58.543,58.543,0,0,0,22.51-31.781a38.047,38.047,0,0,0,5.455,11.953,22.144,22.144,0,0,0,9.4,7.669A35.187,35.187,0,0,0,51.5-9.572a34.674,34.674,0,0,0,11.48-1.819,27.747,27.747,0,0,0,9.255-5.431,22.375,22.375,0,0,0,6.126-9.4,42.689,42.689,0,0,0,2.187-13.1H50.693V-52.044H94.581V1H84.49L81.634-10.246A46.729,46.729,0,0,1,71.01-1.4a36.092,36.092,0,0,1-9.927,3.705A56.492,56.492,0,0,1,48.9,3.533,45.593,45.593,0,0,1,32.784.725,43.327,43.327,0,0,1,19.074-7.7l-.026-.023-.024-.025a45.572,45.572,0,0,1-10.209-16.7,65.673,65.673,0,0,1-3.385-21.8,67.785,67.785,0,0,1,3.3-21.834,47.577,47.577,0,0,1,9.951-16.962,41.473,41.473,0,0,1,14.5-10.376A46.465,46.465,0,0,1,51.369-98.867ZM90.824-67.5a39.125,39.125,0,0,0-5.577-14.341,29.765,29.765,0,0,0-11.094-9.945,41.829,41.829,0,0,0-10.469-3.806,56.685,56.685,0,0,0-12.316-1.275,44.482,44.482,0,0,0-17.4,3.3,39.491,39.491,0,0,0-13.808,9.884,45.592,45.592,0,0,0-9.533,16.257A65.8,65.8,0,0,0,7.429-46.238,63.693,63.693,0,0,0,10.7-25.107a45.566,45.566,0,0,0,4.07,8.618,42.429,42.429,0,0,0,5.666,7.326A41.329,41.329,0,0,0,33.489-1.147,43.6,43.6,0,0,0,48.9,1.533,54.5,54.5,0,0,0,60.649.355a34.1,34.1,0,0,0,9.385-3.5l.009-.005c3.265-1.8,7.09-5.1,11.368-9.8l1.251-1.375L86.046-1h6.535V-50.044H52.693v8.715H82.578l-.012,1.012a45.748,45.748,0,0,1-2.323,14.766,24.346,24.346,0,0,1-6.684,10.227A29.736,29.736,0,0,1,63.641-9.5,36.663,36.663,0,0,1,51.5-7.572a37.151,37.151,0,0,1-14.932-2.755,24.116,24.116,0,0,1-10.24-8.355,40.036,40.036,0,0,1-5.747-12.578,60.53,60.53,0,0,1-1.9-15.692,60.37,60.37,0,0,1,2.309-17.535A33.033,33.033,0,0,1,28-77.24a31.523,31.523,0,0,1,10.439-7.692A30.776,30.776,0,0,1,51.044-87.5a42.054,42.054,0,0,1,10.462,1.225,28.968,28.968,0,0,1,8.592,3.71,21.3,21.3,0,0,1,6.387,6.5A28.761,28.761,0,0,1,80.021-67.5ZM450.109-98.8a51.847,51.847,0,0,1,14.146,1.848,40.262,40.262,0,0,1,11.911,5.57,23.618,23.618,0,0,1,8.209,9.819,34.223,34.223,0,0,1,2.711,14.156v1H473.061l-.111-.874c-.623-4.9-1.953-8.694-3.953-11.266a16.916,16.916,0,0,0-7.532-5.279,33.953,33.953,0,0,0-11.746-1.8c-7.317,0-12.612,1.523-15.737,4.527a15.756,15.756,0,0,0-3.531,4.883,13.528,13.528,0,0,0-1.163,5.566c0,4.32,1.741,7.389,5.322,9.382,2.463,1.336,8.212,3.052,17.087,5.1l13.375,3.052c6.554,1.5,11.7,3.583,15.3,6.206a22.384,22.384,0,0,1,7.136,8.583,27.293,27.293,0,0,1,2.367,11.643,30.783,30.783,0,0,1-2.99,14.042,23.1,23.1,0,0,1-9.028,9.483,48.422,48.422,0,0,1-12.723,5.222,59.19,59.19,0,0,1-14.574,1.736A52.287,52.287,0,0,1,434.391,1.47a33.989,33.989,0,0,1-12.358-7.027,29.507,29.507,0,0,1-7.758-11,36.7,36.7,0,0,1-2.443-14.235l.012-.987h14.077l.053.944c.291,5.2,1.523,9.468,3.661,12.678a18.654,18.654,0,0,0,8.439,6.749,34.9,34.9,0,0,0,13.4,2.293,39.308,39.308,0,0,0,12.919-2.023,17.736,17.736,0,0,0,8.218-5.3,12.708,12.708,0,0,0,2.67-8.174,15.646,15.646,0,0,0-1.133-6.271,9.251,9.251,0,0,0-3.293-4c-3.175-2.087-8.263-3.94-15.123-5.506L442.81-43.315a99.909,99.909,0,0,1-10.924-3.035,34.6,34.6,0,0,1-7.327-3.4,20.479,20.479,0,0,1-7.163-7.835,23.735,23.735,0,0,1-2.382-10.861,30.976,30.976,0,0,1,2.3-12.094,28.2,28.2,0,0,1,6.914-9.745,29.816,29.816,0,0,1,11.116-6.4A47.627,47.627,0,0,1,450.109-98.8Zm34.967,30.393a31.507,31.507,0,0,0-2.522-12.331,21.646,21.646,0,0,0-7.523-9,38.265,38.265,0,0,0-11.322-5.292,49.853,49.853,0,0,0-13.6-1.772,45.646,45.646,0,0,0-14.138,2.012,27.834,27.834,0,0,0-10.379,5.969,26.218,26.218,0,0,0-6.431,9.055,28.992,28.992,0,0,0-2.146,11.317,21.765,21.765,0,0,0,2.164,9.953,18.5,18.5,0,0,0,6.477,7.07c3.389,2.217,9.309,4.29,17.595,6.16l12.924,2.923c7.1,1.622,12.41,3.569,15.785,5.79l.013.008c3.522,2.4,5.308,6.41,5.308,11.932,0,7.366-4.115,12.535-12.231,15.361a41.3,41.3,0,0,1-13.577,2.134A36.855,36.855,0,0,1,437.3-9.565a20.62,20.62,0,0,1-9.322-7.472l0-.007a26.48,26.48,0,0,1-3.934-12.738H413.831a34.141,34.141,0,0,0,2.3,12.475,27.528,27.528,0,0,0,7.241,10.264A32.006,32.006,0,0,0,435.012-.431a50.3,50.3,0,0,0,15.552,2.224A57.191,57.191,0,0,0,464.645.119a46.422,46.422,0,0,0,12.2-5.006,21.128,21.128,0,0,0,8.263-8.668,28.821,28.821,0,0,0,2.773-13.136A25.318,25.318,0,0,0,485.7-37.486a20.4,20.4,0,0,0-6.506-7.817c-3.376-2.459-8.279-4.435-14.566-5.87L451.25-54.225c-9.181-2.119-14.935-3.849-17.594-5.291l-.009,0c-4.22-2.344-6.359-6.091-6.359-11.135A16.07,16.07,0,0,1,432.6-82.547a16.763,16.763,0,0,1,7.02-3.843,36.419,36.419,0,0,1,10.1-1.242,35.914,35.914,0,0,1,12.444,1.93,18.88,18.88,0,0,1,8.407,5.918l.005.007c2.1,2.7,3.523,6.52,4.239,11.368ZM320.07-96.4h39.64A42.747,42.747,0,0,1,377.6-92.818,35.77,35.77,0,0,1,391.023-82.05l0,0a45.372,45.372,0,0,1,7.422,14.69,63.5,63.5,0,0,1,2.461,18.195,72.223,72.223,0,0,1-1.45,14.669A60.593,60.593,0,0,1,395.1-21.268a43.493,43.493,0,0,1-6.079,9.711,34.134,34.134,0,0,1-7.982,6.982A35.031,35.031,0,0,1,371.2-.388,46.445,46.445,0,0,1,359.581,1H320.07Zm69.373,15.576a35.62,35.62,0,0,0-5.81-5.942A32.77,32.77,0,0,0,376.764-91a40.772,40.772,0,0,0-17.053-3.4H322.07V-1h37.51A44.45,44.45,0,0,0,370.7-2.324a33.034,33.034,0,0,0,9.278-3.946,32.139,32.139,0,0,0,7.514-6.575,41.5,41.5,0,0,0,5.8-9.267A58.6,58.6,0,0,0,397.5-34.9a70.223,70.223,0,0,0,1.408-14.262,61.509,61.509,0,0,0-2.377-17.62A43.38,43.38,0,0,0,389.443-80.823ZM155.535-87.5a35.636,35.636,0,0,1,14.038,2.645,29.23,29.23,0,0,1,10.782,7.964,35.538,35.538,0,0,1,6.792,12.243,50.2,50.2,0,0,1,2.249,15.489,58.368,58.368,0,0,1-1.942,15.255,50.165,50.165,0,0,1-5.839,13.426,25.478,25.478,0,0,1-10.4,9.548,33.961,33.961,0,0,1-15.161,3.164,41.209,41.209,0,0,1-15.882-2.8,25.636,25.636,0,0,1-10.931-8.487,40.449,40.449,0,0,1-6.168-12.426,51.856,51.856,0,0,1-2.047-14.891,59.781,59.781,0,0,1,2.383-17.694,33.733,33.733,0,0,1,7.232-12.954A31.706,31.706,0,0,1,141.7-84.883,35.492,35.492,0,0,1,155.535-87.5Zm.52,77.735a32,32,0,0,0,14.273-2.956,22.989,22.989,0,0,0,5.354-3.666,24.756,24.756,0,0,0,4.234-5.148,48.164,48.164,0,0,0,5.606-12.891,56.37,56.37,0,0,0,1.873-14.732,48.214,48.214,0,0,0-2.151-14.871,33.549,33.549,0,0,0-6.408-11.559,27.249,27.249,0,0,0-10.048-7.427A33.657,33.657,0,0,0,155.535-85.5a33.508,33.508,0,0,0-13.055,2.463,29.721,29.721,0,0,0-10.367,7.378,31.755,31.755,0,0,0-6.795,12.195,57.8,57.8,0,0,0-2.292,17.1,49.863,49.863,0,0,0,1.963,14.316,38.457,38.457,0,0,0,5.862,11.814,23.663,23.663,0,0,0,10.093,7.829A39.244,39.244,0,0,0,156.054-9.767ZM258.986-87.5a35.636,35.636,0,0,1,14.038,2.645,29.23,29.23,0,0,1,10.782,7.964A35.538,35.538,0,0,1,290.6-64.65a50.2,50.2,0,0,1,2.249,15.489A58.366,58.366,0,0,1,290.9-33.906a50.165,50.165,0,0,1-5.839,13.426,25.478,25.478,0,0,1-10.4,9.548,33.961,33.961,0,0,1-15.161,3.164,41.21,41.21,0,0,1-15.882-2.8,25.636,25.636,0,0,1-10.931-8.487,40.452,40.452,0,0,1-6.168-12.426,51.857,51.857,0,0,1-2.047-14.891,59.781,59.781,0,0,1,2.383-17.694,33.733,33.733,0,0,1,7.232-12.954,31.705,31.705,0,0,1,11.063-7.867A35.492,35.492,0,0,1,258.986-87.5Zm.52,77.735a32,32,0,0,0,14.273-2.956,22.989,22.989,0,0,0,5.354-3.666,24.757,24.757,0,0,0,4.234-5.148,48.167,48.167,0,0,0,5.606-12.891,56.37,56.37,0,0,0,1.873-14.732A48.214,48.214,0,0,0,288.7-64.032a33.55,33.55,0,0,0-6.408-11.559,27.249,27.249,0,0,0-10.048-7.427A33.657,33.657,0,0,0,258.986-85.5a33.508,33.508,0,0,0-13.055,2.463,29.721,29.721,0,0,0-10.367,7.378,31.755,31.755,0,0,0-6.795,12.195,57.8,57.8,0,0,0-2.292,17.1,49.861,49.861,0,0,0,1.963,14.316A38.457,38.457,0,0,0,234.3-20.238,23.664,23.664,0,0,0,244.4-12.409,39.244,39.244,0,0,0,259.506-9.767Zm73.553-75.527h23.924a35.025,35.025,0,0,1,13.9,2.534,22.773,22.773,0,0,1,9.613,7.689,35.9,35.9,0,0,1,5.441,12.122,65.047,65.047,0,0,1,1.793,16,57.738,57.738,0,0,1-.99,10.179v.006a41.085,41.085,0,0,1-5.669,15.175,27.062,27.062,0,0,1-5.7,6.272,23.69,23.69,0,0,1-7.152,3.865l-.011,0a36.854,36.854,0,0,1-11.088,1.412H333.059ZM384.768-37.13a55.743,55.743,0,0,0,.958-9.823,63.066,63.066,0,0,0-1.73-15.5A33.92,33.92,0,0,0,378.868-73.9a20.8,20.8,0,0,0-8.782-7.02,33.059,33.059,0,0,0-13.1-2.37H335.059V-12.04h22.054a34.939,34.939,0,0,0,10.466-1.313,21.694,21.694,0,0,0,6.546-3.537A25.063,25.063,0,0,0,379.4-22.7a39.122,39.122,0,0,0,5.368-14.43Z" transform="translate(580.5 8434.08)" fill="#004690"/></g></svg>